<?xml version="1.0" standalone="no"?>
<!DOCTYPE svg PUBLIC "-//W3C//DTD SVG 1.1//EN" "http://www.w3.org/Graphics/SVG/1.1/DTD/svg11.dtd" >
<svg>
<metadata>
Created by FontForge 20090622 at Thu Jan 10 18:32:46 2019
 By deploy user
Copyright 2004 Monotype Imaging, Inc. All rights reserved.
</metadata>
<defs>
<font id="NeoSansPro-Regular" horiz-adv-x="605" >
  <font-face 
    font-family="Neo Sans Pro"
    font-weight="400"
    font-stretch="normal"
    units-per-em="1000"
    panose-1="2 11 5 4 3 5 4 4 2 4"
    ascent="765"
    descent="-235"
    x-height="550"
    cap-height="743"
    bbox="-123.333 -216 1394 980"
    underline-thickness="57"
    underline-position="-21"
    unicode-range="U+0020-U+FB04"
  />
<missing-glyph horiz-adv-x="500" 
d="M12 0v665h475v-665h-475zM88 618l162 -243l161 243h-323zM60 575v-484l40 61l80 120l41 61zM440 575l-162 -242l162 -243v485zM411 48l-161 242l-162 -242h323z" />
    <glyph glyph-name="f_b" unicode="fb" horiz-adv-x="933" 
d="M883 240q0 -116 -54.5 -181.5t-163.5 -65.5q-96 0 -184 17q-13 2 -17 7t-4 16v658h-164q-37 0 -52 -14.5t-15 -54.5v-72h105q8 0 13.5 -5t5.5 -13v-39q0 -17 -19 -17h-105v-456q0 -8 -6 -14t-13 -6h-49q-8 0 -14 6t-6 14v456l-97 11q-19 2 -19 18v27q0 8 5.5 13t13.5 5
h97v72q0 76 37.5 107.5t108.5 31.5q119 0 191 -9h51q8 0 13.5 -5.5t5.5 -13.5v-186q54 10 117 10q108 0 163 -63t55 -182v-72zM795 240v72q0 84 -29.5 126t-100.5 42q-79 0 -117 -7v-397q68 -6 117 -6q71 0 100.5 42t29.5 128z" />
    <glyph glyph-name="f_f_b" unicode="ffb" horiz-adv-x="1241" 
d="M356 706q0 -15 -18 -15h-48q-36 0 -48.5 -14t-12.5 -55v-72h231v72q0 76 37.5 107.5t108.5 31.5q108 0 180 -9h51q8 0 13.5 -5.5t5.5 -13.5v-186q54 10 117 10q108 0 163 -63t55 -182v-72q0 -116 -54.5 -181.5t-163.5 -65.5q-96 0 -184 17q-13 2 -17 7t-4 16v658h-153
q-37 0 -52 -14.5t-15 -54.5v-72h105q8 0 13.5 -5t5.5 -13v-39q0 -17 -19 -17h-105v-456q0 -8 -6 -14t-13 -6h-49q-8 0 -14 6t-6 14v456h-231v-456q0 -8 -6 -14t-13 -6h-49q-8 0 -14 6t-6 14v456l-97 11q-19 2 -19 18v27q0 8 5.5 13t13.5 5h97v72q0 77 35 108t105 31
q30 0 56 -6q19 -5 19 -16v-33zM1103 240v72q0 84 -29.5 126t-100.5 42q-79 0 -117 -7v-397q68 -6 117 -6q71 0 100.5 42t29.5 128z" />
    <glyph glyph-name="f_f_h" unicode="ffh" horiz-adv-x="1257" 
d="M856 733v-207q71 31 153 31q84 0 132 -51t48 -157v-329q0 -8 -6 -14t-14 -6h-48q-8 0 -14 6t-6 14v329q0 71 -27.5 101t-79.5 30q-76 0 -138 -28v-432q0 -8 -6 -14t-14 -6h-49q-8 0 -13.5 6t-5.5 14v671h-153q-37 0 -52 -14.5t-15 -54.5v-72h105q8 0 13.5 -5t5.5 -13v-39
q0 -17 -19 -17h-105v-456q0 -8 -6 -14t-13 -6h-49q-8 0 -14 6t-6 14v456h-231v-456q0 -8 -6 -14t-13 -6h-49q-8 0 -14 6t-6 14v456l-97 11q-19 2 -19 18v27q0 8 5.5 13t13.5 5h97v72q0 77 35 108t105 31q30 0 56 -6q19 -5 19 -16v-33q0 -15 -18 -15h-48q-36 0 -48.5 -14
t-12.5 -55v-72h231v72q0 76 37.5 107.5t108.5 31.5q108 0 180 -9h51q8 0 13.5 -5.5t5.5 -13.5z" />
    <glyph glyph-name="f_f_j" unicode="ffj" horiz-adv-x="947" 
d="M867 -64q0 -75 -30.5 -104t-94.5 -29q-27 0 -54 4q-18 3 -18 16v37q0 14 21 14h41q28 0 37.5 12t9.5 50v540h-231v-456q0 -8 -6 -14t-13 -6h-49q-8 0 -14 6t-6 14v456h-231v-456q0 -8 -6 -14t-13 -6h-49q-8 0 -14 6t-6 14v456l-97 11q-19 2 -19 18v27q0 8 5.5 13t13.5 5
h97v72q0 77 35 108t105 31q30 0 56 -6q19 -5 19 -16v-33q0 -15 -18 -15h-48q-36 0 -48.5 -14t-12.5 -55v-72h231v72q0 77 35 108t105 31q30 0 56 -6q19 -5 19 -16v-33q0 -15 -18 -15h-48q-36 0 -48.5 -14t-12.5 -55v-72h301q18 0 18 -20v-594zM869 657q0 -8 -6 -13.5
t-14 -5.5h-51q-8 0 -14 5.5t-6 13.5v81q0 8 6 14t14 6h51q8 0 14 -6t6 -14v-81z" />
    <glyph glyph-name="f_f_k" unicode="ffk" horiz-adv-x="1196" 
d="M768 691h-153q-37 0 -52 -14.5t-15 -54.5v-72h105q8 0 13.5 -5t5.5 -13v-39q0 -17 -19 -17h-105v-456q0 -8 -6 -14t-13 -6h-49q-8 0 -14 6t-6 14v456h-231v-456q0 -8 -6 -14t-13 -6h-49q-8 0 -14 6t-6 14v456l-97 11q-19 2 -19 18v27q0 8 5.5 13t13.5 5h97v72
q0 77 35 108t105 31q30 0 56 -6q19 -5 19 -16v-33q0 -15 -18 -15h-48q-36 0 -48.5 -14t-12.5 -55v-72h231v72q0 76 37.5 107.5t108.5 31.5q108 0 180 -9h51q8 0 13.5 -5.5t5.5 -13.5v-417l200 225q8 9 20 9h70q15 0 15 -11q0 -6 -5 -11l-220 -238l222 -268q3 -3 3 -9
q0 -13 -11 -13h-72q-13 0 -23 13l-199 246v-239q0 -8 -6 -14t-14 -6h-48q-8 0 -14 6t-6 14v671z" />
    <glyph glyph-name="f_h" unicode="fh" horiz-adv-x="949" 
d="M548 733v-207q71 31 153 31q84 0 132 -51t48 -157v-329q0 -8 -6 -14t-14 -6h-48q-8 0 -14 6t-6 14v329q0 71 -27.5 101t-79.5 30q-76 0 -138 -28v-432q0 -8 -6 -14t-14 -6h-49q-8 0 -13.5 6t-5.5 14v671h-164q-37 0 -52 -14.5t-15 -54.5v-72h105q8 0 13.5 -5t5.5 -13v-39
q0 -17 -19 -17h-105v-456q0 -8 -6 -14t-13 -6h-49q-8 0 -14 6t-6 14v456l-97 11q-19 2 -19 18v27q0 8 5.5 13t13.5 5h97v72q0 76 37.5 107.5t108.5 31.5q119 0 191 -9h51q8 0 13.5 -5.5t5.5 -13.5z" />
    <glyph glyph-name="f_j" unicode="fj" horiz-adv-x="628" 
d="M548 -64q0 -75 -30.5 -104t-94.5 -29q-27 0 -54 4q-18 3 -18 16v37q0 14 21 14h41q28 0 37.5 12t9.5 50v540h-231v-456q0 -8 -6 -14t-13 -6h-49q-8 0 -14 6t-6 14v456l-97 11q-19 2 -19 18v27q0 8 5.5 13t13.5 5h97v72q0 77 35 108t105 31q30 0 56 -6q19 -5 19 -16v-33
q0 -15 -18 -15h-48q-36 0 -48.5 -14t-12.5 -55v-72h301q18 0 18 -20v-594zM550 657q0 -8 -6 -13.5t-14 -5.5h-51q-8 0 -14 5.5t-6 13.5v81q0 8 6 14t14 6h51q8 0 14 -6t6 -14v-81z" />
    <glyph glyph-name="f_k" unicode="fk" horiz-adv-x="888" 
d="M460 691h-164q-37 0 -52 -14.5t-15 -54.5v-72h105q8 0 13.5 -5t5.5 -13v-39q0 -17 -19 -17h-105v-456q0 -8 -6 -14t-13 -6h-49q-8 0 -14 6t-6 14v456l-97 11q-19 2 -19 18v27q0 8 5.5 13t13.5 5h97v72q0 76 37.5 107.5t108.5 31.5q119 0 191 -9h51q8 0 13.5 -5.5
t5.5 -13.5v-417l200 225q8 9 20 9h70q15 0 15 -11q0 -6 -5 -11l-220 -238l222 -268q3 -3 3 -9q0 -13 -11 -13h-72q-13 0 -23 13l-199 246v-239q0 -8 -6 -14t-14 -6h-48q-8 0 -14 6t-6 14v671z" />
    <glyph glyph-name="f_f" unicode="ff" horiz-adv-x="700" 
d="M675 706q0 -15 -18 -15h-48q-36 0 -48.5 -14t-12.5 -55v-72h105q8 0 13.5 -5t5.5 -13v-39q0 -17 -19 -17h-105v-456q0 -8 -6 -14t-13 -6h-49q-8 0 -14 6t-6 14v456h-231v-456q0 -8 -6 -14t-13 -6h-49q-8 0 -14 6t-6 14v456l-97 11q-19 2 -19 18v27q0 8 5.5 13t13.5 5h97
v72q0 77 35 108t105 31q30 0 56 -6q19 -5 19 -16v-33q0 -15 -18 -15h-48q-36 0 -48.5 -14t-12.5 -55v-72h231v72q0 77 35 108t105 31q30 0 56 -6q19 -5 19 -16v-33z" />
    <glyph glyph-name="fi" unicode="fi" horiz-adv-x="628" 
d="M548 20q0 -8 -6 -14t-14 -6h-48q-8 0 -14 6t-6 14v456h-231v-456q0 -8 -6 -14t-13 -6h-49q-8 0 -14 6t-6 14v456l-97 11q-19 2 -19 18v27q0 8 5.5 13t13.5 5h97v72q0 77 35 108t105 31q30 0 56 -6q19 -5 19 -16v-33q0 -15 -18 -15h-48q-36 0 -48.5 -14t-12.5 -55v-72h299
q8 0 14 -6t6 -14v-510zM550 658q0 -8 -6 -14t-14 -6h-51q-8 0 -14 6t-6 14v80q0 8 6 14t14 6h51q8 0 14 -6t6 -14v-80z" />
    <glyph glyph-name="fl" unicode="fl" horiz-adv-x="625" 
d="M548 20q0 -8 -5 -14t-13 -6h-52q-7 0 -12.5 6t-5.5 14v671h-164q-37 0 -52 -14.5t-15 -54.5v-72h105q8 0 13.5 -5t5.5 -13v-39q0 -17 -19 -17h-105v-456q0 -8 -6 -14t-13 -6h-49q-8 0 -14 6t-6 14v456l-97 11q-19 2 -19 18v27q0 8 5.5 13t13.5 5h97v72q0 76 37.5 107.5
t108.5 31.5q119 0 191 -9h52q8 0 13 -5.5t5 -13.5v-713z" />
    <glyph glyph-name="f_f_i" unicode="ffi" horiz-adv-x="947" 
d="M867 20q0 -8 -6 -14t-14 -6h-48q-8 0 -14 6t-6 14v456h-231v-456q0 -8 -6 -14t-13 -6h-49q-8 0 -14 6t-6 14v456h-231v-456q0 -8 -6 -14t-13 -6h-49q-8 0 -14 6t-6 14v456l-97 11q-19 2 -19 18v27q0 8 5.5 13t13.5 5h97v72q0 77 35 108t105 31q30 0 56 -6q19 -5 19 -16
v-33q0 -15 -18 -15h-48q-36 0 -48.5 -14t-12.5 -55v-72h231v72q0 77 35 108t105 31q30 0 56 -6q19 -5 19 -16v-33q0 -15 -18 -15h-48q-36 0 -48.5 -14t-12.5 -55v-72h299q8 0 14 -6t6 -14v-510zM869 658q0 -8 -6 -14t-14 -6h-51q-8 0 -14 6t-6 14v80q0 8 6 14t14 6h51
q8 0 14 -6t6 -14v-80z" />
    <glyph glyph-name="f_f_l" unicode="ffl" horiz-adv-x="944" 
d="M356 706q0 -15 -18 -15h-48q-36 0 -48.5 -14t-12.5 -55v-72h231v72q0 76 37.5 107.5t108.5 31.5q118 0 190 -9h52q8 0 13 -5.5t5 -13.5v-713q0 -8 -5 -14t-13 -6h-52q-7 0 -12.5 6t-5.5 14v671h-163q-37 0 -52 -14.5t-15 -54.5v-72h105q8 0 13.5 -5t5.5 -13v-39
q0 -17 -19 -17h-105v-456q0 -8 -6 -14t-13 -6h-49q-8 0 -14 6t-6 14v456h-231v-456q0 -8 -6 -14t-13 -6h-49q-8 0 -14 6t-6 14v456l-97 11q-19 2 -19 18v27q0 8 5.5 13t13.5 5h97v72q0 77 35 108t105 31q30 0 56 -6q19 -5 19 -16v-33z" />
    <glyph glyph-name=".notdef" horiz-adv-x="500" 
d="M12 0v665h475v-665h-475zM88 618l162 -243l161 243h-323zM60 575v-484l40 61l80 120l41 61zM440 575l-162 -242l162 -243v485zM411 48l-161 242l-162 -242h323z" />
    <glyph glyph-name=".null" horiz-adv-x="0" 
 />
    <glyph glyph-name="nonmarkingreturn" horiz-adv-x="333" 
 />
    <glyph glyph-name="space" unicode=" " horiz-adv-x="247" 
 />
    <glyph glyph-name="exclam" unicode="!" horiz-adv-x="217" 
d="M154 733l-8 -520q0 -8 -5.5 -13.5t-13.5 -5.5h-36q-8 0 -14 6t-6 13l-7 520q0 8 6 13.5t14 5.5h50q8 0 14 -5.5t6 -13.5zM152 19q0 -19 -19 -19h-48q-8 0 -13.5 5.5t-5.5 13.5v94q0 8 5.5 13.5t13.5 5.5h48q8 0 13.5 -5.5t5.5 -13.5v-94z" />
    <glyph glyph-name="quotedbl" unicode="&#x22;" horiz-adv-x="362" 
d="M333 741q0 -5 -1 -8l-58 -189q-5 -19 -19 -19h-47q-9 0 -9 10q0 6 1 9l46 189q4 19 20 19h56q11 0 11 -11zM163 741q0 -5 -1 -8l-58 -189q-5 -19 -19 -19h-47q-9 0 -9 10q0 6 1 9l46 189q4 19 20 19h56q11 0 11 -11z" />
    <glyph glyph-name="numbersign" unicode="#" horiz-adv-x="660" 
d="M610 512v-2l-2 -22q-2 -19 -20 -19h-97l-18 -202h98q16 0 16 -19v-2l-2 -21q-2 -19 -20 -19h-98l-16 -187q-2 -19 -18 -19h-44q-16 0 -16 17v2l16 187h-155l-16 -187q-2 -19 -18 -19h-45q-7 0 -11.5 5t-4.5 12v2l16 187h-93q-16 0 -16 19v2l2 21q2 19 20 19h93l18 202
h-94q-16 0 -16 19v2l2 22q2 19 20 19h93l17 193q1 8 6.5 13.5t12.5 5.5h45q15 0 15 -17v-2l-17 -193h155l17 193q2 19 19 19h44q15 0 15 -17v-2l-17 -193h98q16 0 16 -19zM413 469h-155l-18 -202h155z" />
    <glyph glyph-name="dollar" unicode="$" 
d="M528 193q0 -74 -42 -128t-141 -68v-94q0 -8 -6 -14t-14 -6h-47q-8 0 -14 6t-6 14v90q-72 1 -143 14q-12 2 -15.5 5.5t-3.5 12.5v41q0 16 17 16h3q104 -9 165 -9q84 0 118 31t34 89q0 37 -25 64t-95 70l-97 59q-72 44 -105 86.5t-33 100.5q0 152 180 174v86q0 8 6 14t14 6
h47q8 0 14 -6t6 -14v-83q80 -3 146 -13q17 -3 17 -17v-43q0 -16 -17 -16h-2q-132 9 -172 9q-79 0 -113 -21.5t-34 -75.5q0 -34 24 -59t85 -62l92 -55q87 -51 122 -97.5t35 -106.5z" />
    <glyph glyph-name="percent" unicode="%" horiz-adv-x="794" 
d="M749 155q0 -80 -35 -121t-99 -41t-99.5 41t-35.5 121v93q0 81 35.5 121.5t99.5 40.5t99 -40.5t35 -121.5v-93zM650 737q0 -3 -5 -13l-418 -708q-11 -20 -22 -20h-49q-10 0 -10 8q0 7 4 12l418 708q11 19 23 19h51q8 0 8 -6zM314 496q0 -80 -35 -121t-99 -41t-99.5 41
t-35.5 121v93q0 81 35 121t100 40q134 0 134 -161v-93zM687 155v93q0 105 -72 105q-73 0 -73 -105v-93q0 -105 73 -105q72 0 72 105zM252 496v93q0 105 -72 105q-73 0 -73 -105v-93q0 -105 73 -105q72 0 72 105z" />
    <glyph glyph-name="ampersand" unicode="&#x26;" horiz-adv-x="678" 
d="M641 11q0 -11 -11 -11h-69q-9 0 -16 7l-50 54q-79 -68 -197 -68q-48 0 -90 10t-78 30.5t-56.5 57t-20.5 85.5v8q0 61 33 104t111 93l-7 8q-65 74 -84.5 115t-19.5 79v8q0 78 55.5 118.5t154.5 40.5q87 0 143 -41.5t56 -117.5v-8q0 -53 -31 -95t-122 -103l-28 -19
l181 -195q39 69 39 176v14q0 16 16 16h43q17 0 17 -16v-14q0 -137 -63 -230l89 -95q5 -5 5 -11zM412 583v8q0 92 -116 92q-128 0 -128 -92v-8q0 -31 15 -60t70 -90l10 -11l34 21q72 44 93.5 71t21.5 69zM447 113l-199 213q-60 -38 -81.5 -67t-21.5 -75v-8q0 -57 43.5 -85.5
t109.5 -28.5q90 0 149 51z" />
    <glyph glyph-name="quotesingle" unicode="'" horiz-adv-x="192" 
d="M163 741q0 -5 -1 -8l-58 -189q-5 -19 -19 -19h-47q-9 0 -9 10q0 6 1 9l46 189q4 19 20 19h56q11 0 11 -11z" />
    <glyph glyph-name="parenleft" unicode="(" horiz-adv-x="305" 
d="M280 -201q0 -8 -10 -8h-47q-14 0 -23 11q-66 80 -103 204.5t-37 258.5v13q0 134 37 258.5t103 204.5q9 11 23 11h47q10 0 10 -8q0 -6 -3 -10q-129 -190 -129 -456v-13q0 -266 129 -456q3 -5 3 -10z" />
    <glyph glyph-name="parenright" unicode=")" horiz-adv-x="305" 
d="M259 265q0 -134 -37 -258.5t-103 -204.5q-9 -11 -23 -11h-47q-10 0 -10 8q0 5 3 10q129 190 129 456v13q0 266 -129 456q-3 5 -3 10q0 8 10 8h47q14 0 23 -11q66 -80 103 -204.5t37 -258.5v-13z" />
    <glyph glyph-name="asterisk" unicode="*" horiz-adv-x="465" 
d="M419 598q0 -10 -14 -15l-125 -39l77 -106q5 -7 5 -13q0 -7 -6 -11l-24 -18q-4 -3 -8 -3q-8 0 -15 10l-76 106l-76 -106q-7 -10 -15 -10q-4 0 -8 3l-25 18q-6 4 -6 11q0 6 5 13l78 106l-124 39q-15 6 -15 15q0 1 0.5 2.5t0.5 2.5l9 29q3 10 13 10q3 0 9 -2l124 -41v131
q0 19 15 19h30q15 0 15 -19l-1 -131l125 41q6 2 9 2q10 0 13 -10l9 -29q1 -2 1 -5z" />
    <glyph glyph-name="plus" unicode="+" 
d="M530 371q0 -16 -20 -16h-172v-171q0 -20 -16 -20h-40q-16 0 -16 20v171h-171q-20 0 -20 16v40q0 16 20 16h171v172q0 20 16 20h40q16 0 16 -20v-172h172q20 0 20 -16v-40z" />
    <glyph glyph-name="comma" unicode="," horiz-adv-x="214" 
d="M169 118q0 -2 -2 -8l-75 -189q-7 -19 -19 -19h-41q-12 0 -12 12q0 5 1 7l57 189q6 19 20 19h58q13 0 13 -11z" />
    <glyph glyph-name="hyphen" unicode="-" horiz-adv-x="333" 
d="M285 273q0 -17 -19 -17h-199q-19 0 -19 17v39q0 8 5.5 13t13.5 5h199q19 0 19 -18v-39z" />
    <glyph glyph-name="period" unicode="." horiz-adv-x="214" 
d="M150 21q0 -8 -5.5 -14t-13.5 -6h-48q-8 0 -13.5 6t-5.5 14v93q0 8 5.5 13.5t13.5 5.5h48q8 0 13.5 -5.5t5.5 -13.5v-93z" />
    <glyph glyph-name="slash" unicode="/" horiz-adv-x="355" 
d="M333 729q0 -4 -1 -6l-226 -703q-6 -20 -18 -20h-51q-14 0 -14 14q0 4 1 6l227 703q6 20 17 20h51q14 0 14 -14z" />
    <glyph glyph-name="zero" unicode="0" 
d="M548 304q0 -311 -245 -311q-246 0 -246 311v135q0 311 246 311q245 0 245 -311v-135zM457 304v135q0 234 -154 234t-154 -234v-135q0 -234 154 -234t154 234z" />
    <glyph glyph-name="one" unicode="1" 
d="M500 0h-410q-20 0 -20 18v44q0 17 20 17h159v570l-157 -66q-22 -8 -22 8v51q0 7 10 13l179 82q12 6 21 6h41q8 0 13.5 -5.5t5.5 -13.5v-645h160q20 0 20 -17v-44q0 -18 -20 -18z" />
    <glyph glyph-name="two" unicode="2" 
d="M526 571q0 -58 -29.5 -101.5t-100.5 -91.5l-96 -65q-82 -55 -111 -100.5t-29 -112.5v-21h337q20 0 20 -17v-44q0 -18 -20 -18h-397q-8 0 -14 5.5t-6 13.5v81q0 161 153 263l101 68q63 43 83 69.5t20 70.5q0 54 -35 78.5t-115 24.5q-72 0 -177 -15h-4q-16 0 -16 18v35
q0 14 19 18q78 20 178 20q122 0 180.5 -43.5t58.5 -135.5z" />
    <glyph glyph-name="three" unicode="3" 
d="M521 207q0 -108 -67 -161t-182 -53q-82 0 -169 20q-19 4 -19 19v34q0 17 17 17h3q105 -14 168 -14q82 0 119 33t37 105v21q0 48 -27.5 85t-89.5 37h-182q-19 0 -19 18v35q0 19 19 19h182q65 0 91 35t26 84v14q0 62 -36 90.5t-120 28.5q-46 0 -168 -15h-3q-17 0 -17 17v35
q0 15 19 19q96 20 169 20q120 0 184.5 -45t64.5 -150v-14q0 -51 -24.5 -92t-70.5 -64q95 -47 95 -157v-21z" />
    <glyph glyph-name="four" unicode="4" 
d="M567 216q0 -18 -19 -18h-87v-178q0 -20 -17 -20h-58q-17 0 -17 20v178h-289q-23 0 -32 8.5t-9 30.5v38q0 21 12 37l296 415q10 16 29 16h59q26 0 26 -22v-447h87q19 0 19 -18v-40zM370 274v342q0 6 -4 6h-1q-4 0 -8 -6l-231 -328q-3 -4 -3 -8q0 -6 8 -6h239z" />
    <glyph glyph-name="five" unicode="5" 
d="M528 226q0 -111 -67 -172t-188 -61q-101 0 -176 18q-19 5 -19 20v37q0 15 15 15h5q80 -14 175 -14q163 0 163 157v15q0 74 -48.5 104t-160.5 30h-120q-7 0 -11.5 5t-4.5 12v1l28 333q2 17 20 17h344q20 0 20 -17v-44q0 -16 -20 -16h-287l-16 -216h47q148 0 224.5 -47.5
t76.5 -161.5v-15z" />
    <glyph glyph-name="six" unicode="6" 
d="M546 246q0 -121 -61.5 -187t-182.5 -66q-115 0 -178.5 70.5t-63.5 213.5v175q0 157 65 227.5t196 70.5q95 0 172 -17q23 -6 23 -19v-39q0 -18 -18 -18q-1 0 -3 0.5t-3 0.5q-82 16 -171 16q-45 0 -77 -11t-50 -28.5t-28 -48t-13 -60.5t-3 -74v-11q91 20 151 20
q109 0 177 -48.5t68 -160.5v-6zM456 246v6q0 75 -43.5 106.5t-111.5 31.5q-79 0 -151 -18v-95q0 -117 37.5 -163.5t114.5 -46.5q74 0 114 41.5t40 137.5z" />
    <glyph glyph-name="seven" unicode="7" 
d="M533 680q0 -24 -13 -52l-288 -613q-8 -15 -22 -15h-60q-15 0 -15 15q0 5 3 11l302 628q1 1 1 4q0 7 -7 7h-341q-20 0 -20 17v42q0 8 6 13.5t14 5.5h365q75 0 75 -63z" />
    <glyph glyph-name="eight" unicode="8" 
d="M551 207q0 -105 -68.5 -159.5t-174.5 -54.5h-10q-106 0 -174.5 54.5t-68.5 159.5v19q0 47 25.5 92t71.5 70q-46 24 -70.5 64.5t-24.5 91.5v9q0 99 66 148t175 49h10q109 0 175 -49t66 -148v-9q0 -51 -24.5 -91.5t-70.5 -64.5q46 -25 71.5 -70t25.5 -92v-19zM461 544v9
q0 60 -39.5 91.5t-113.5 31.5h-10q-74 0 -113.5 -31.5t-39.5 -91.5v-9q0 -51 31 -85.5t96 -34.5h62q65 0 96 34.5t31 85.5zM460 207v19q0 50 -31.5 88t-94.5 38h-62q-63 0 -94.5 -38t-31.5 -88v-19q0 -65 39.5 -101.5t112.5 -36.5h10q73 0 112.5 36.5t39.5 101.5z" />
    <glyph glyph-name="nine" unicode="9" 
d="M537 291q0 -157 -65 -227.5t-196 -70.5q-95 0 -172 17q-24 6 -24 19v39q0 18 18 18q1 0 3 -0.5t3 -0.5q82 -16 171 -16q45 0 77 11t50.5 28.5t28.5 48t13 60.5t3 74v11q-93 -20 -151 -20q-110 0 -178 48.5t-68 160.5v6q0 121 62 187t182 66q116 0 179.5 -70.5
t63.5 -213.5v-175zM446 371l1 95q0 117 -37.5 163.5t-114.5 46.5q-75 0 -115 -41t-40 -138v-6q0 -75 43.5 -106.5t111.5 -31.5q79 0 151 18z" />
    <glyph glyph-name="colon" unicode=":" horiz-adv-x="219" 
d="M153 437q0 -8 -6 -13.5t-14 -5.5h-47q-8 0 -14 5.5t-6 13.5v93q0 8 6 14t14 6h47q8 0 14 -6t6 -14v-93zM153 19q0 -8 -6 -13.5t-14 -5.5h-47q-8 0 -14 5.5t-6 13.5v94q0 8 6 13.5t14 5.5h47q8 0 14 -5.5t6 -13.5v-94z" />
    <glyph glyph-name="semicolon" unicode=";" horiz-adv-x="219" 
d="M153 437q0 -19 -19 -19h-49q-8 0 -13.5 5.5t-5.5 13.5v93q0 8 5.5 14t13.5 6h49q8 0 13.5 -6t5.5 -14v-93zM157 117q0 -2 -2 -8l-75 -189q-4 -11 -7.5 -15.5t-11.5 -4.5h-40q-12 0 -12 13q0 5 1 7l57 189q6 19 20 19h57q13 0 13 -11z" />
    <glyph glyph-name="less" unicode="&#x3c;" 
d="M482 150q0 -10 -12 -10h-58q-15 0 -31 13l-241 204q-18 15 -18 34t18 34l241 204q16 13 31 13h58q12 0 12 -10q0 -8 -10 -17l-262 -224l262 -224q10 -9 10 -17z" />
    <glyph glyph-name="equal" unicode="=" 
d="M515 482q0 -16 -20 -16h-385q-20 0 -20 16v40q0 16 20 16h385q20 0 20 -16v-40zM515 261q0 -16 -20 -16h-385q-20 0 -20 16v40q0 16 20 16h385q20 0 20 -16v-40z" />
    <glyph glyph-name="greater" unicode="&#x3e;" 
d="M483 391q0 -19 -18 -34l-241 -204q-16 -13 -31 -13h-58q-12 0 -12 10q0 8 10 17l262 224l-262 224q-10 9 -10 17q0 10 12 10h58q15 0 31 -13l241 -204q18 -15 18 -34z" />
    <glyph glyph-name="question" unicode="?" horiz-adv-x="446" 
d="M386 587q0 -38 -18.5 -74t-72.5 -97l-45 -51q-23 -26 -31.5 -37t-15 -28t-6.5 -38v-49q0 -8 -6 -13.5t-14 -5.5h-44q-8 0 -13.5 5.5t-5.5 13.5v49q0 48 13.5 78t52.5 73l46 51q37 40 49.5 66t12.5 57v12q0 39 -24.5 55.5t-77.5 16.5q-54 0 -135 -9h-3q-15 0 -15 17v35
q0 20 17 23q67 13 136 13q200 0 200 -151v-12zM198 19q0 -19 -19 -19h-48q-8 0 -14 5.5t-6 13.5v93q0 8 6 14t14 6h48q8 0 13.5 -6t5.5 -14v-93z" />
    <glyph glyph-name="at" unicode="@" horiz-adv-x="767" 
d="M728 366q0 -176 -94 -248q-84 -64 -270 -64q-75 0 -118 36.5t-43 102.5q0 12 1 18l11 117q8 77 54.5 118t127.5 41q57 0 128 -15q21 -5 21 -21v-4l-30 -313q87 13 116.5 69.5t29.5 162.5q0 100 -64 166t-182 66q-129 0 -206 -69t-88 -185l-15 -152q-2 -22 -2 -32
q0 -95 64.5 -154t187.5 -59q60 0 144 7h1q4 0 6 -2t2 -4l1 -1v-32q0 -12 -16 -14q-69 -8 -139 -8q-143 0 -229 73.5t-86 194.5q0 21 1 31l15 156q13 139 109 223.5t253 84.5q147 0 228 -85t81 -205zM457 409q-42 6 -68 6q-44 0 -65 -21.5t-26 -67.5l-11 -114q-1 -6 -1 -17
q0 -69 82 -69h21q29 0 43 2z" />
    <glyph glyph-name="A" unicode="A" horiz-adv-x="633" 
d="M604 16q0 -16 -17 -16h-59q-13 0 -17 15l-65 230h-259l-64 -230q-4 -15 -18 -15h-59q-17 0 -17 16q0 5 1 7l185 651q21 76 102 76q80 0 101 -75l185 -652q1 -2 1 -7zM427 324l-91 329q-5 18 -19 18q-15 0 -20 -18l-91 -329h221z" />
    <glyph glyph-name="B" unicode="B" horiz-adv-x="616" 
d="M566 205q0 -212 -292 -212q-106 0 -163 9q-33 4 -33 37v666q0 34 32 37q66 8 159 8q293 0 293 -193v-16q0 -55 -28 -96t-79 -61q52 -18 81.5 -61t29.5 -101v-17zM471 541v16q0 67 -50.5 91.5t-151.5 24.5q-15 0 -99 -3v-248h154q147 0 147 119zM475 205v17
q0 127 -151 127h-154v-275q10 0 47 -2t57 -2q101 0 151 29t50 106z" />
    <glyph glyph-name="C" unicode="C" horiz-adv-x="545" 
d="M510 26q0 -16 -20 -20q-68 -13 -166 -13q-50 0 -94 15t-83.5 48t-63 96t-23.5 150v139q0 88 23.5 151t63.5 96t83.5 47.5t93.5 14.5q67 0 168 -16q16 -2 16 -13v-51q0 -11 -12 -11h-3q-108 9 -168 9q-174 0 -174 -227v-139q0 -119 47 -173t127 -54q69 0 165 8h4
q16 0 16 -16v-41z" />
    <glyph glyph-name="D" unicode="D" horiz-adv-x="641" 
d="M584 304q0 -156 -80 -233.5t-223 -77.5q-124 0 -182 10q-21 3 -21 25v687q0 22 21 25q58 10 182 10q144 0 223.5 -77t79.5 -234v-135zM493 304v135q0 127 -56.5 180t-155.5 53q-61 0 -111 -3v-596q32 -2 111 -2q212 0 212 233z" />
    <glyph glyph-name="E" unicode="E" horiz-adv-x="551" 
d="M496 12q0 -12 -10 -14q-48 -5 -195 -5q-107 0 -160 44t-53 142v385q0 98 53 142t160 44q132 0 195 -6q10 -2 10 -14v-50q0 -12 -11 -12h-193q-76 0 -99.5 -22t-23.5 -82v-139h307q8 0 14 -6t6 -14v-38q0 -8 -6 -14t-14 -6h-307v-168q0 -60 23.5 -82t99.5 -22h193
q11 0 11 -12v-51z" />
    <glyph glyph-name="F" unicode="F" horiz-adv-x="551" 
d="M496 367q0 -8 -6 -14t-14 -6h-307v-327q0 -8 -6 -14t-14 -6h-51q-8 0 -14 6t-6 14v544q0 98 53 142t160 44q132 0 195 -6q10 -2 10 -14v-50q0 -12 -11 -12h-193q-76 0 -99.5 -22t-23.5 -82v-139h307q8 0 14 -6t6 -14v-38z" />
    <glyph glyph-name="G" unicode="G" horiz-adv-x="612" 
d="M534 30q0 -19 -18 -22q-92 -15 -199 -15q-49 0 -93.5 17t-82.5 52t-60.5 97.5t-22.5 144.5v134q0 87 23.5 150.5t63.5 97.5t84.5 49t96.5 15q101 0 190 -14q17 -2 17 -15v-50q0 -10 -13 -10h-4q-83 7 -190 7q-177 0 -177 -230v-134q0 -117 46.5 -173.5t121.5 -56.5
q54 0 126 6v286q0 20 18 20h54q8 0 13.5 -6t5.5 -14v-336z" />
    <glyph glyph-name="H" unicode="H" horiz-adv-x="680" 
d="M602 20q0 -8 -6 -14t-14 -6h-51q-8 0 -14 6t-6 14v332h-342v-332q0 -8 -6 -14t-14 -6h-51q-8 0 -14 6t-6 14v703q0 8 6 14t14 6h51q8 0 14 -6t6 -14v-290h342v290q0 8 6 14t14 6h51q8 0 14 -6t6 -14v-703z" />
    <glyph glyph-name="I" unicode="I" horiz-adv-x="267" 
d="M179 20q0 -8 -5 -14t-13 -6h-55q-7 0 -12.5 6t-5.5 14v704q0 19 18 19h55q8 0 13 -5.5t5 -13.5v-704z" />
    <glyph glyph-name="J" unicode="J" horiz-adv-x="257" 
d="M179 -37q0 -73 -37 -108t-118 -35q-37 0 -53 8q-6 3 -6 11v37q0 17 20 17h39q38 0 51 15.5t13 54.5v761q0 8 6 13.5t13 5.5h53q8 0 13.5 -5.5t5.5 -13.5v-761z" />
    <glyph glyph-name="K" unicode="K" horiz-adv-x="607" 
d="M564 10q0 -10 -13 -10h-78q-13 0 -22 10l-282 343v-333q0 -8 -5 -14t-13 -6h-55q-7 0 -12.5 6t-5.5 14v704q0 8 5.5 13.5t13.5 5.5h53q8 0 13.5 -5.5t5.5 -13.5v-323l288 333q9 9 20 9h72q14 0 14 -11q0 -6 -4 -10l-301 -340l301 -360q5 -5 5 -12z" />
    <glyph glyph-name="L" unicode="L" horiz-adv-x="514" 
d="M496 16q0 -12 -10 -14q-58 -9 -195 -9q-36 0 -63.5 3.5t-57 15t-48.5 31t-31.5 54t-12.5 82.5v544q0 8 6 14t14 6h51q8 0 14 -6t6 -14v-544q0 -60 23.5 -82t99.5 -22h193q11 0 11 -12v-47z" />
    <glyph glyph-name="M" unicode="M" horiz-adv-x="761" 
d="M684 20q0 -8 -6 -14t-14 -6h-49q-8 0 -14 6t-6 14v593q0 3 -1 3t-2 -2l-143 -296q-8 -16 -17.5 -22.5t-27.5 -6.5h-46q-18 0 -27.5 6.5t-17.5 22.5l-143 296q-1 2 -2 2t-1 -3v-593q0 -8 -6 -14t-14 -6h-49q-8 0 -14 6t-6 14v694q0 12 8.5 20.5t20.5 8.5h65q24 0 32 -17
l165 -343q5 -11 12 -11t12 11l165 343q8 17 32 17h65q12 0 20.5 -8.5t8.5 -20.5v-694z" />
    <glyph glyph-name="N" unicode="N" horiz-adv-x="680" 
d="M602 29q0 -12 -8.5 -20.5t-20.5 -8.5h-62q-24 0 -32 16l-309 587q-2 3 -3 3t-1 -3v-584q0 -8 -5.5 -13.5t-12.5 -5.5h-52q-18 0 -18 12v703q0 12 8.5 20t20.5 8h55q20 0 27.5 -4t13.5 -16l307 -584l2 -3q1 0 1 3v585q0 8 5.5 13.5t12.5 5.5h53q18 0 18 -19v-695z" />
    <glyph glyph-name="O" unicode="O" horiz-adv-x="661" 
d="M601 307q0 -160 -73 -237t-197 -77t-197.5 77.5t-73.5 236.5v129q0 159 73.5 236.5t197.5 77.5t197 -77t73 -237v-129zM509 307v129q0 232 -178 232q-179 0 -179 -232v-129q0 -232 179 -232q178 0 178 232z" />
    <glyph glyph-name="P" unicode="P" horiz-adv-x="593" 
d="M548 520q0 -224 -280 -224q-35 0 -100 5v-281q0 -8 -5 -14t-13 -6h-54q-7 0 -12.5 6t-5.5 14v697q0 22 24 25q69 8 166 8q280 0 280 -217v-13zM457 520v13q0 75 -45.5 107.5t-143.5 32.5q-52 0 -100 -4v-293q92 -4 100 -4q102 0 145.5 34.5t43.5 113.5z" />
    <glyph glyph-name="Q" unicode="Q" horiz-adv-x="661" 
d="M601 307q0 -145 -60.5 -222t-166.5 -90v-43q0 -37 11.5 -47.5t50.5 -10.5h59q22 0 22 -16v-34q0 -24 -81 -24q-78 0 -114 28t-36 103v45q-105 13 -165.5 90t-60.5 221v129q0 159 73.5 236.5t197.5 77.5t197 -77t73 -237v-129zM509 307v129q0 232 -178 232
q-179 0 -179 -232v-129q0 -232 179 -232q178 0 178 232z" />
    <glyph glyph-name="R" unicode="R" horiz-adv-x="625" 
d="M586 13q0 -13 -13 -13h-64q-18 0 -26 13l-179 298h-9h-17q-30 0 -110 3v-294q0 -8 -5 -14t-13 -6h-54q-7 0 -12.5 6t-5.5 14v700q0 19 24 22q69 8 176 8q280 0 280 -215v-7q0 -81 -42.5 -132t-114.5 -70l182 -304q3 -4 3 -9zM468 528v7q0 73 -46.5 103t-143.5 30
q-86 0 -110 -3v-274q88 -2 110 -2q97 0 143.5 30.5t46.5 108.5z" />
    <glyph glyph-name="S" unicode="S" horiz-adv-x="550" 
d="M500 193q0 -39 -11.5 -72t-37.5 -63.5t-76.5 -47.5t-121.5 -17q-78 0 -166 14q-12 2 -15.5 5.5t-3.5 12.5v40q0 16 17 16h3q69 -6 165 -6q85 0 118.5 30.5t33.5 87.5q0 37 -25 64t-95 70l-97 59q-72 44 -105 86.5t-33 100.5q0 177 239 177q98 0 174 -12q17 -3 17 -17v-43
q0 -16 -17 -16h-2q-88 6 -172 6q-79 0 -113 -20.5t-34 -74.5q0 -34 24 -59t85 -62l92 -55q87 -51 122 -97.5t35 -106.5z" />
    <glyph glyph-name="T" unicode="T" horiz-adv-x="590" 
d="M555 681q0 -16 -19 -16h-195v-645q0 -8 -5 -14t-13 -6h-55q-7 0 -12.5 6t-5.5 14v645h-195q-20 0 -20 16v44q0 7 6 12.5t14 5.5h481q19 0 19 -18v-44z" />
    <glyph glyph-name="U" unicode="U" horiz-adv-x="662" 
d="M587 270q0 -277 -256 -277t-256 277v454q0 8 5.5 13.5t13.5 5.5h54q8 0 13.5 -5.5t5.5 -13.5v-454q0 -101 37 -150t127 -49t127 48.5t37 150.5v454q0 8 5.5 13.5t13.5 5.5h54q8 0 13.5 -5.5t5.5 -13.5v-454z" />
    <glyph glyph-name="V" unicode="V" horiz-adv-x="643" 
d="M609 726q0 -4 -1 -6l-184 -651q-22 -76 -102 -76t-102 76l-185 651q-1 2 -1 6q0 17 18 17h58q14 0 18 -15l174 -637q6 -21 20 -21q13 0 19 21l175 637q4 15 17 15h59q17 0 17 -17z" />
    <glyph glyph-name="W" unicode="W" horiz-adv-x="825" 
d="M791 726v-3l-111 -676q-9 -51 -62 -51h-43q-21 0 -36 13.5t-21 36.5l-98 370q-2 9 -6 9h-1h-1q-4 0 -6 -9l-99 -370q-6 -23 -21 -36.5t-36 -13.5h-42q-53 0 -62 51l-111 676v3q0 17 17 17h58q14 0 17 -17l97 -637q3 -15 5 -15q4 0 7 15l98 370q10 40 47 40h64
q37 0 47 -40l98 -370q3 -15 7 -15q2 0 5 15l97 637q3 17 17 17h58q17 0 17 -17z" />
    <glyph glyph-name="X" unicode="X" horiz-adv-x="646" 
d="M604 14q0 -14 -16 -14h-63q-11 0 -21 15l-183 291l-179 -291q-10 -15 -21 -15h-59q-16 0 -16 15q0 6 3 10l222 353l-220 341q-3 5 -3 10q0 14 15 14h65q12 0 18 -10l180 -285l174 285q7 10 19 10h59q16 0 16 -15q0 -4 -3 -9l-215 -343l225 -351q3 -4 3 -11z" />
    <glyph glyph-name="Y" unicode="Y" horiz-adv-x="583" 
d="M549 729q0 -5 -3 -11l-155 -348q-24 -52 -54 -66v-284q0 -8 -5.5 -14t-12.5 -6h-55q-7 0 -12.5 6t-5.5 14v284q-29 11 -54 66l-154 348q-3 6 -3 11q0 14 17 14h61q12 0 18 -14l138 -324q11 -26 23 -26t23 26l139 324q6 14 17 14h61q17 0 17 -14z" />
    <glyph glyph-name="Z" unicode="Z" horiz-adv-x="597" 
d="M544 18q0 -7 -6 -12.5t-14 -5.5h-385q-48 0 -65.5 14t-17.5 54q0 36 15 58l358 521q3 5 3 8q0 7 -10 7h-332q-20 0 -20 17v47q0 17 20 17h356q45 0 65 -13.5t20 -52.5q0 -35 -16 -59l-357 -521q-3 -4 -3 -9q0 -6 10 -6h359q20 0 20 -17v-47z" />
    <glyph glyph-name="bracketleft" unicode="[" horiz-adv-x="327" 
d="M303 -174q0 -8 -6 -14t-14 -6h-186q-7 0 -12 5.5t-5 13.5v899q0 8 5 13.5t12 5.5h186q8 0 14 -6t6 -14v-33q0 -8 -6 -14t-14 -6h-114v-791h114q8 0 14 -6t6 -14v-33z" />
    <glyph glyph-name="backslash" unicode="\" horiz-adv-x="355" 
d="M333 14q0 -14 -14 -14h-51q-12 0 -18 20l-226 703q-1 2 -1 6q0 14 14 14h51q11 0 17 -20l227 -703q1 -2 1 -6z" />
    <glyph glyph-name="bracketright" unicode="]" horiz-adv-x="327" 
d="M247 -175q0 -8 -5 -13.5t-12 -5.5h-186q-8 0 -14 6t-6 14v33q0 8 6 14t14 6h114v791h-114q-8 0 -14 6t-6 14v33q0 8 6 14t14 6h186q7 0 12 -5.5t5 -13.5v-899z" />
    <glyph glyph-name="asciicircum" unicode="^" 
d="M505 572q0 -9 -11 -9h-60q-13 0 -28 18l-103 120l-103 -120q-15 -18 -28 -18h-60q-11 0 -11 9q0 6 4 11l115 149q14 18 30 18h106q16 0 30 -18l115 -149q4 -5 4 -11z" />
    <glyph glyph-name="underscore" unicode="_" horiz-adv-x="494" 
d="M525 -90q0 -16 -20 -16h-515q-20 0 -20 16v25q0 16 20 16h515q20 0 20 -16v-25z" />
    <glyph glyph-name="grave" unicode="`" horiz-adv-x="372" 
d="M243 630q0 -7 -9 -7h-54q-10 0 -23 15l-113 126q-4 4 -4 8q0 7 11 7h66q13 0 25 -15l97 -124q4 -4 4 -10z" />
    <glyph glyph-name="a" unicode="a" horiz-adv-x="519" 
d="M451 20q0 -8 -6 -14t-14 -6h-46q-8 0 -14 6t-6 14v22q-84 -49 -154 -49q-72 0 -117.5 37.5t-45.5 124.5v12q0 83 55.5 122.5t185.5 39.5h74v40q0 63 -24 88t-83 25q-73 0 -153 -8h-5q-18 0 -18 16v35q0 16 21 19q76 13 155 13q195 0 195 -188v-349zM363 105v161h-74
q-89 0 -121 -21.5t-32 -76.5v-12q0 -51 22.5 -71t69.5 -20q61 0 135 40z" />
    <glyph glyph-name="b" unicode="b" horiz-adv-x="541" 
d="M491 240q0 -116 -54.5 -181.5t-163.5 -65.5q-96 0 -184 17q-13 2 -17 7t-4 16v700q0 19 18 19h51q8 0 13.5 -5.5t5.5 -13.5v-186q54 10 117 10q108 0 163 -63t55 -182v-72zM403 240v72q0 84 -29.5 126t-100.5 42q-78 0 -117 -7v-397q68 -6 117 -6q71 0 100.5 42t29.5 128
z" />
    <glyph glyph-name="c" unicode="c" horiz-adv-x="452" 
d="M408 26q0 -18 -20 -22q-60 -11 -125 -11q-101 0 -157 65.5t-56 177.5v78q0 112 56 177.5t157 65.5q65 0 125 -11q12 -2 16 -6.5t4 -15.5v-36q0 -15 -17 -15h-4q-62 7 -124 7q-125 0 -125 -166v-78q0 -166 125 -166q62 0 124 7h4q17 0 17 -15v-36z" />
    <glyph glyph-name="d" unicode="d" horiz-adv-x="541" 
d="M473 33q0 -11 -4 -16t-17 -7q-88 -17 -184 -17q-109 0 -163.5 65.5t-54.5 181.5v72q0 119 55 182t163 63q61 0 117 -10v186q0 8 5.5 13.5t13.5 5.5h51q8 0 13 -5.5t5 -13.5v-700zM385 76v397q-39 7 -117 7q-71 0 -100.5 -42t-29.5 -126v-72q0 -86 29.5 -128t100.5 -42
q49 0 117 6z" />
    <glyph glyph-name="e" unicode="e" horiz-adv-x="544" 
d="M492 269q0 -22 -19 -22h-335v-14q0 -87 34 -125t105 -38q106 0 178 11h5q16 0 16 -14v-34q0 -19 -20 -23q-88 -17 -179 -17q-46 0 -84.5 12t-71.5 38t-52 74.5t-19 115.5v90q0 109 58 171.5t164 62.5q107 0 163.5 -62.5t56.5 -171.5v-54zM403 314v9q0 83 -32 120t-99 37
q-134 0 -134 -157v-9h265z" />
    <glyph glyph-name="f" unicode="f" horiz-adv-x="381" 
d="M356 706q0 -15 -18 -15h-48q-36 0 -48.5 -14t-12.5 -55v-72h105q8 0 13.5 -5t5.5 -13v-39q0 -17 -19 -17h-105v-456q0 -8 -6 -14t-13 -6h-49q-8 0 -14 6t-6 14v456l-97 11q-19 2 -19 18v27q0 8 5.5 13t13.5 5h97v72q0 77 35 108t105 31q30 0 56 -6q19 -5 19 -16v-33z" />
    <glyph glyph-name="g" unicode="g" horiz-adv-x="559" 
d="M523 502q0 -16 -18 -19l-36 -7q34 -36 34 -103v-8q0 -171 -222 -171q-68 0 -116 20q-25 -12 -25 -34q0 -24 31 -32l149 -38q36 -9 58.5 -16t51 -19.5t44 -26.5t27 -36t11.5 -49v-8q0 -155 -228 -155q-116 0 -173 41.5t-57 117.5v9q0 79 63 127l-7 3q-46 20 -46 78v1
q0 49 41 72q-46 43 -46 116v8q0 77 51.5 127t170.5 50h219q9 0 16 -6.5t7 -15.5v-26zM416 365v8q0 50 -30 78.5t-105 28.5q-77 0 -106 -29t-29 -78v-8q0 -102 135 -102q76 0 105.5 26.5t29.5 75.5zM424 -45v8q0 28 -26 44t-96 34l-113 29q-25 -21 -37 -43.5t-12 -58.5v-9
q0 -45 32.5 -68t111.5 -23q81 0 110.5 21t29.5 66z" />
    <glyph glyph-name="h" unicode="h" horiz-adv-x="557" 
d="M489 20q0 -8 -6 -14t-14 -6h-48q-8 0 -14 6t-6 14v329q0 71 -27.5 101t-79.5 30q-76 0 -138 -28v-432q0 -8 -6 -14t-14 -6h-49q-8 0 -13.5 6t-5.5 14v712q0 8 5.5 14t13.5 6h50q8 0 13.5 -6t5.5 -14v-206q71 31 153 31q84 0 132 -51t48 -157v-329z" />
    <glyph glyph-name="i" unicode="i" horiz-adv-x="247" 
d="M169 658q0 -8 -6 -14t-14 -6h-51q-8 0 -14 6t-6 14v80q0 8 6 14t14 6h51q8 0 14 -6t6 -14v-80zM167 20q0 -8 -6 -14t-14 -6h-48q-8 0 -14 6t-6 14v510q0 8 6 14t14 6h48q8 0 14 -6t6 -14v-510z" />
    <glyph glyph-name="j" unicode="j" horiz-adv-x="247" 
d="M169 657q0 -8 -6 -13.5t-14 -5.5h-51q-8 0 -14 5.5t-6 13.5v81q0 8 6 14t14 6h51q8 0 14 -6t6 -14v-81zM167 -64q0 -75 -30.5 -104t-94.5 -29q-27 0 -54 4q-18 3 -18 16v37q0 14 21 14h41q28 0 37.5 12t9.5 50v594q0 8 5 14t13 6h52q18 0 18 -20v-594z" />
    <glyph glyph-name="k" unicode="k" horiz-adv-x="496" 
d="M461 13q0 -13 -11 -13h-72q-13 0 -23 13l-199 246v-239q0 -8 -6 -14t-14 -6h-48q-8 0 -14 6t-6 14v712q0 8 6 14t14 6h48q8 0 14 -6t6 -14v-416l200 225q8 9 20 9h70q15 0 15 -11q0 -6 -5 -11l-220 -238l222 -268q3 -3 3 -9z" />
    <glyph glyph-name="l" unicode="l" horiz-adv-x="244" 
d="M166 20q0 -8 -5 -14t-13 -6h-52q-7 0 -12.5 6t-5.5 14v713q0 19 18 19h52q8 0 13 -5.5t5 -13.5v-713z" />
    <glyph glyph-name="m" unicode="m" horiz-adv-x="798" 
d="M730 20q0 -8 -6 -14t-14 -6h-48q-8 0 -14 6t-6 14v354q0 107 -91 107q-47 0 -117 -27q9 -33 9 -78v-356q0 -8 -5 -14t-13 -6h-53q-17 0 -17 20v356q0 62 -17.5 83.5t-59.5 21.5q-44 0 -122 -39v-422q0 -8 -5 -14t-13 -6h-53q-17 0 -17 20v510q0 8 5.5 14t13.5 6h50
q8 0 13.5 -6t5.5 -14v-19q75 47 146 47q65 0 100 -41q87 41 166 41q162 0 162 -184v-354z" />
    <glyph glyph-name="n" unicode="n" horiz-adv-x="557" 
d="M489 20q0 -8 -6 -14t-14 -6h-48q-8 0 -14 6t-6 14v329q0 74 -25.5 103t-84.5 29q-57 0 -135 -39v-422q0 -8 -6 -14t-14 -6h-49q-8 0 -13.5 6t-5.5 14v510q0 8 5.5 14t13.5 6h50q8 0 13.5 -6t5.5 -14v-19q82 46 159 46q174 0 174 -208v-329z" />
    <glyph glyph-name="o" unicode="o" horiz-adv-x="545" 
d="M495 237q0 -113 -57.5 -178.5t-165.5 -65.5t-165 65.5t-57 178.5v76q0 113 57 178.5t165 65.5t165.5 -65.5t57.5 -178.5v-76zM407 237v76q0 167 -135 167q-134 0 -134 -167v-76q0 -167 134 -167q68 0 101.5 43.5t33.5 123.5z" />
    <glyph glyph-name="p" unicode="p" horiz-adv-x="541" 
d="M491 238q0 -119 -55 -182t-163 -63q-56 0 -117 11v-181q0 -8 -5.5 -13.5t-13.5 -5.5h-51q-8 0 -13 5.5t-5 13.5v688q0 10 4 15t17 8q94 23 184 23q109 0 163.5 -65.5t54.5 -181.5v-72zM403 238v72q0 84 -29.5 128.5t-100.5 44.5q-61 0 -117 -10v-396q55 -10 117 -10
q70 0 100 43t30 128z" />
    <glyph glyph-name="q" unicode="q" horiz-adv-x="541" 
d="M473 -177q0 -19 -18 -19h-51q-8 0 -13.5 5.5t-5.5 13.5v181q-60 -11 -117 -11q-108 0 -163 63t-55 182v72q0 116 54.5 181.5t163.5 65.5q90 0 184 -23q13 -3 17 -7.5t4 -15.5v-688zM385 77v396q-54 10 -117 10q-71 0 -100.5 -44t-29.5 -129v-72q0 -85 30 -128t100 -43
q62 0 117 10z" />
    <glyph glyph-name="r" unicode="r" horiz-adv-x="342" 
d="M315 498q0 -17 -21 -17q-68 0 -138 -42v-419q0 -8 -6 -14t-14 -6h-49q-8 0 -13.5 6t-5.5 14v510q0 8 5.5 14t13.5 6h47q8 0 13.5 -6t5.5 -14v-21q69 48 141 48q21 0 21 -18v-41z" />
    <glyph glyph-name="s" unicode="s" horiz-adv-x="466" 
d="M416 138q0 -74 -49.5 -109.5t-137.5 -35.5q-97 0 -158 15q-21 5 -21 20v35q0 15 18 15h4q88 -11 157 -11q51 0 75 16t24 55q0 22 -16 39.5t-59 43.5l-101 60q-102 62 -102 143q0 133 181 133q80 0 156 -13q19 -3 19 -20v-33q0 -17 -17 -17h-3q-93 8 -155 8
q-48 0 -70.5 -11.5t-22.5 -46.5q0 -21 16 -37.5t53 -38.5l99 -59q61 -36 85.5 -71t24.5 -80z" />
    <glyph glyph-name="t" unicode="t" horiz-adv-x="385" 
d="M360 15q0 -14 -18 -17q-33 -5 -65 -5q-73 0 -104.5 27.5t-31.5 106.5v349l-97 11q-19 2 -19 18v27q0 18 19 18h97v98q0 17 18 20l52 8h3q15 0 15 -17v-109h108q8 0 14 -6t6 -14v-34q0 -8 -6 -14t-14 -6h-108v-349q0 -40 11 -51.5t43 -11.5h56q21 0 21 -14v-35z" />
    <glyph glyph-name="u" unicode="u" horiz-adv-x="557" 
d="M489 20q0 -8 -5.5 -14t-13.5 -6h-50q-8 0 -13.5 6t-5.5 14v19q-82 -46 -159 -46q-174 0 -174 208v329q0 8 6 14t14 6h48q8 0 14 -6t6 -14v-329q0 -74 25.5 -103t84.5 -29q57 0 135 39v422q0 8 6 14t14 6h49q8 0 13.5 -6t5.5 -14v-510z" />
    <glyph glyph-name="v" unicode="v" horiz-adv-x="530" 
d="M491 533q0 -4 -1 -7l-135 -476q-16 -57 -90 -57t-90 57l-135 476q-1 3 -1 7q0 17 16 17h55q13 0 19 -19l115 -436q7 -29 21 -29t21 29l115 436q6 19 19 19h55q16 0 16 -17z" />
    <glyph glyph-name="w" unicode="w" horiz-adv-x="786" 
d="M748 530v-4l-97 -464q-10 -46 -24 -57.5t-60 -11.5q-40 0 -55 13t-27 59l-87 340q-2 7 -5 7t-5 -7l-87 -340q-11 -44 -27 -58t-55 -14q-46 0 -60 11.5t-24 57.5l-97 464v4q0 8 5.5 14t13.5 6h54q15 0 17 -16l83 -456q2 -12 8 -12q5 0 8 12l98 384q8 30 40 30h56
q32 0 40 -30l98 -384q3 -12 8 -12q6 0 8 12l83 456q2 16 17 16h54q8 0 13.5 -6t5.5 -14z" />
    <glyph glyph-name="x" unicode="x" horiz-adv-x="547" 
d="M511 11q0 -11 -13 -11h-69q-9 0 -14 8l-143 209l-143 -207q-7 -10 -17 -10h-60q-12 0 -12 10q0 7 5 13l180 257l-170 245q-5 8 -5 13q0 12 15 12h65q11 0 20 -14l127 -188l128 188q10 14 21 14h58q13 0 13 -12q0 -5 -5 -13l-168 -239l183 -263q4 -5 4 -12z" />
    <glyph glyph-name="y" unicode="y" horiz-adv-x="534" 
d="M495 533q0 -5 -1 -7l-165 -576q-24 -84 -61.5 -116t-121.5 -32q-46 0 -84 9q-21 5 -21 16v37q0 16 19 16h3q66 -6 89 -6q44 0 65.5 17t33.5 68l10 41h-14q-27 0 -44.5 13.5t-29.5 55.5l-133 457q-1 2 -1 7q0 17 18 17h55q13 0 17 -16l118 -434q5 -22 19 -22h16l122 457
q4 15 19 15h56q16 0 16 -17z" />
    <glyph glyph-name="z" unicode="z" horiz-adv-x="482" 
d="M432 20q0 -8 -6 -14t-14 -6h-302q-30 0 -45.5 16t-15.5 39v19q0 35 23 65l258 321q4 6 4 9q0 7 -10 7h-243q-8 0 -14 6t-6 14v34q0 8 6 14t14 6h294q56 0 56 -49v-24q0 -28 -23 -55l-263 -329q-5 -5 -5 -11q0 -8 8 -8h264q8 0 14 -6t6 -14v-34z" />
    <glyph glyph-name="braceleft" unicode="{" horiz-adv-x="331" 
d="M304 -174q0 -8 -6 -14t-14 -6h-51q-91 0 -122 29t-31 109v176q0 47 -12.5 74t-47.5 51v58q35 25 47.5 51t12.5 73v178q0 80 31 109t122 29h50q8 0 14 -6t6 -14v-33q0 -8 -6 -14t-14 -6h-45q-44 0 -56.5 -12.5t-12.5 -52.5v-178q0 -55 -16 -91t-55 -63q39 -27 55 -63
t16 -90v-176q0 -40 12.5 -52.5t56.5 -12.5h46q8 0 14 -6t6 -14v-33z" />
    <glyph glyph-name="bar" unicode="|" horiz-adv-x="249" 
d="M169 -175q0 -8 -5.5 -13.5t-12.5 -5.5h-52q-7 0 -13 6t-6 13v899q0 8 6 13.5t13 5.5h52q7 0 12.5 -5.5t5.5 -13.5v-899z" />
    <glyph glyph-name="braceright" unicode="}" horiz-adv-x="331" 
d="M311 245q-35 -24 -47.5 -51t-12.5 -74v-176q0 -80 -31 -109t-122 -29h-51q-8 0 -14 6t-6 14v33q0 8 6 14t14 6h46q44 0 56.5 12.5t12.5 52.5v176q0 54 16 90t55 63q-39 27 -55 63t-16 91v178q0 40 -12.5 52.5t-56.5 12.5h-45q-8 0 -14 6t-6 14v33q0 8 6 14t14 6h50
q91 0 122 -29t31 -109v-178q0 -47 12.5 -73t47.5 -51v-58z" />
    <glyph glyph-name="asciitilde" unicode="~" 
d="M514 467q0 -64 -25.5 -96t-83.5 -32q-40 0 -76 28l-73 58q-42 29 -53 31q-26 0 -34 -14t-8 -45v-26q0 -8 -6 -14t-14 -6h-29q-8 0 -14 6t-6 14v26q0 64 28.5 97t82.5 33q40 0 75 -28l85 -68q24 -20 42 -20q27 0 33.5 11.5t6.5 44.5v28q0 8 6 14t14 6h29q8 0 14 -6t6 -14
v-28z" />
    <glyph glyph-name="uni00A0" unicode="&#xa0;" horiz-adv-x="247" 
 />
    <glyph glyph-name="exclamdown" unicode="&#xa1;" horiz-adv-x="217" 
d="M153 437q0 -8 -5.5 -13.5t-13.5 -5.5h-48q-8 0 -13.5 5.5t-5.5 13.5v94q0 19 19 19h48q8 0 13.5 -5.5t5.5 -13.5v-94zM135 -203h-51q-8 0 -13.5 5.5t-5.5 13.5l7 520q0 8 6 13.5t14 5.5h35q8 0 14 -6t6 -13l8 -520q0 -8 -6 -13.5t-14 -5.5z" />
    <glyph glyph-name="cent" unicode="&#xa2;" 
d="M482 26q0 -18 -20 -22q-45 -7 -94 -10v-90q0 -8 -6 -14t-14 -6h-41q-8 0 -14 6t-6 14v94q-78 16 -120.5 78.5t-42.5 159.5v78q0 97 42.5 159.5t120.5 78.5v93q0 8 6 14t14 6h41q8 0 14 -6t6 -14v-89q49 -3 94 -10q12 -2 16 -6.5t4 -15.5v-36q0 -15 -17 -15h-4
q-70 8 -124 8q-125 0 -125 -167v-78q0 -167 125 -167q54 0 124 8h4q17 0 17 -15v-36z" />
    <glyph glyph-name="sterling" unicode="&#xa3;" 
d="M535 17q0 -17 -20 -17h-399q-17 0 -17 15v39q0 6 10 23q31 53 31 118v152h-52q-18 0 -18 18v42q0 7 6 12.5t14 5.5h50v65q0 130 49 191t172 61q77 0 155 -13q12 -2 15.5 -5.5t3.5 -11.5v-41q0 -17 -15 -17h-5q-97 11 -154 11q-77 0 -103.5 -36.5t-26.5 -138.5v-65h215
q8 0 13.5 -5t5.5 -13v-42q0 -7 -6 -12.5t-14 -5.5h-214v-152q0 -55 -35 -119h319q20 0 20 -15v-44z" />
    <glyph glyph-name="currency" unicode="&#xa4;" 
d="M548 574q0 -8 -7 -15l-82 -82q33 -47 33 -104q0 -59 -34 -106l82 -82q7 -7 7 -15q0 -7 -5 -12l-27 -27q-5 -5 -11 -5q-8 0 -15 7l-84 84q-47 -33 -102 -33q-57 0 -104 33l-82 -82q-8 -8 -16 -8q-5 0 -10 5l-27 28q-5 7 -5 11q0 8 7 15l81 81q-34 46 -34 106q0 58 32 103
l-81 81q-7 7 -7 15t5 12l28 27q5 5 11 5q7 0 15 -8l80 -80q47 34 106 34q58 0 106 -34l82 82q7 7 15 7q6 0 11 -5l27 -27q5 -5 5 -11zM421 373q0 49 -35 84t-85 35t-85 -35t-35 -84t35.5 -84.5t84.5 -35.5t84.5 35.5t35.5 84.5z" />
    <glyph glyph-name="yen" unicode="&#xa5;" 
d="M569 231q0 -8 -6 -14t-14 -6h-200v-191q0 -8 -5 -14t-13 -6h-57q-17 0 -17 20v191h-201q-8 0 -14 6t-6 14v30q0 8 6 14t14 6h201v21l-55 110h-146q-8 0 -14 6t-6 14v30q0 8 6 14t14 6h111l-119 236q-3 8 -3 12q0 13 16 13h63q11 0 17 -14l162 -339l162 339q6 14 17 14h62
q17 0 17 -14q0 -5 -3 -11l-119 -236h110q8 0 14 -6t6 -14v-30q0 -8 -6 -14t-14 -6h-145l-55 -110v-21h200q8 0 14 -6t6 -14v-30z" />
    <glyph glyph-name="brokenbar" unicode="&#xa6;" horiz-adv-x="249" 
d="M169 362q0 -8 -5.5 -14t-12.5 -6h-53q-7 0 -12.5 6t-5.5 14v347q0 8 5.5 13.5t12.5 5.5h53q7 0 12.5 -5.5t5.5 -13.5v-347zM169 -191q0 -8 -5.5 -14t-12.5 -6h-53q-7 0 -12.5 6t-5.5 14v347q0 8 5.5 13.5t12.5 5.5h53q7 0 12.5 -5.5t5.5 -13.5v-347z" />
    <glyph glyph-name="section" unicode="&#xa7;" horiz-adv-x="547" 
d="M499 -17q0 -41 -11.5 -74t-37.5 -62.5t-76.5 -46t-121.5 -16.5q-80 0 -168 14q-19 4 -19 19v42q0 17 20 17h2q108 -10 162 -10h3q84 0 117 30t33 87q0 40 -21.5 65.5t-86.5 64.5l-112 67q-78 47 -106 88t-28 100q0 51 34 105q-34 36 -34 101q0 86 56 131t183 45
q100 0 175 -13q18 -4 18 -19v-43q0 -17 -18 -17h-1q-22 1 -81.5 5t-92.5 4q-84 0 -114 -21.5t-30 -71.5q0 -34 20.5 -58t80.5 -59l109 -64q85 -50 115.5 -94.5t30.5 -105.5q0 -65 -29 -109q29 -43 29 -101zM407 193q0 39 -20.5 63.5t-81.5 62.5l-90 55q-63 40 -72 47
q-9 -27 -9 -53q0 -62 89 -114l110 -64q31 -18 67 -43q7 22 7 46z" />
    <glyph glyph-name="dieresis" unicode="&#xa8;" horiz-adv-x="373" 
d="M314 660q0 -8 -6 -13.5t-14 -5.5h-39q-8 0 -14 5.5t-6 13.5v81q0 7 6.5 13.5t13.5 6.5h39q8 0 14 -6.5t6 -13.5v-81zM139 660q0 -8 -6 -13.5t-14 -5.5h-39q-8 0 -14 5.5t-6 13.5v81q0 7 6 13.5t14 6.5h39q7 0 13.5 -6.5t6.5 -13.5v-81z" />
    <glyph glyph-name="copyright" unicode="&#xa9;" horiz-adv-x="750" 
d="M700 374q0 -134 -96 -229t-230 -95t-229 95t-95 229q0 135 95 231t229 96t230 -96.5t96 -230.5zM656 374q0 117 -82.5 200t-199.5 83t-199 -83t-82 -200t82 -198.5t199 -81.5t199.5 81.5t82.5 198.5zM476 183q0 -13 -15 -15q-35 -7 -91 -7q-69 0 -111 44t-42 139v66
q0 95 42 139.5t111 44.5q51 0 91 -8q15 -2 15 -14v-28q0 -12 -13 -12h-3q-53 5 -90 5q-91 0 -91 -127v-66q0 -126 91 -126q38 0 90 5h2q14 0 14 -13v-27z" />
    <glyph glyph-name="ordfeminine" unicode="&#xaa;" horiz-adv-x="294" 
d="M264 450q0 -14 -10 -16q-45 -13 -98 -13q-67 0 -96.5 23.5t-29.5 74.5v7q0 48 34.5 70t107.5 22h32v13q0 35 -12 49t-42 14q-27 0 -84 -5h-2q-14 0 -14 13v21q0 12 15 14q49 9 85 9q114 0 114 -115v-181zM205 473v103h-23h-9q-48 -2 -66.5 -12.5t-18.5 -37.5v-7
q0 -27 14.5 -39t53.5 -12q22 0 49 5z" />
    <glyph glyph-name="guillemotleft" unicode="&#xab;" horiz-adv-x="614" 
d="M560 79q0 -9 -11 -9h-58q-11 0 -21 10l-169 169q-11 11 -11 28t11 28l169 169q10 10 21 10h58q11 0 11 -9q0 -7 -6 -13l-178 -185l178 -185q6 -6 6 -13zM300 79q0 -9 -11 -9h-58q-11 0 -21 10l-169 169q-11 11 -11 28t11 28l169 169q10 10 21 10h58q11 0 11 -9
q0 -7 -6 -13l-178 -185l178 -185q6 -6 6 -13z" />
    <glyph glyph-name="logicalnot" unicode="&#xac;" 
d="M515 247q0 -8 -6 -14t-14 -6h-32q-8 0 -14 6t-6 14v219h-333q-20 0 -20 16v40q0 16 20 16h388q17 0 17 -17v-274z" />
    <glyph glyph-name="uni00AD" unicode="&#xad;" horiz-adv-x="333" 
d="M285 273q0 -17 -19 -17h-199q-19 0 -19 17v39q0 8 5.5 13t13.5 5h199q19 0 19 -18v-39z" />
    <glyph glyph-name="registered" unicode="&#xae;" horiz-adv-x="598" 
d="M569 484q0 -112 -79 -190t-191 -78t-190.5 78t-78.5 190t78.5 190.5t190.5 78.5t191 -78.5t79 -190.5zM528 484q0 94 -67 161.5t-162 67.5q-94 0 -160.5 -67t-66.5 -162q0 -94 66 -160.5t161 -66.5t162 66.5t67 160.5zM425 331q0 -13 -12 -13h-28q-8 0 -12 8l-81 128
l-12 3h-40v-124q0 -6 -4 -10.5t-10 -4.5h-25q-13 0 -13 15v302q0 21 18 22q23 3 76 3q65 0 98 -23t33 -78v-4q0 -71 -67 -90l77 -125q2 -4 2 -9zM363 555v4q0 30 -18 42t-60 12h-32h-14v-112q6 0 24 -0.5t22 -0.5q42 0 60 12.5t18 42.5z" />
    <glyph glyph-name="macron" unicode="&#xaf;" horiz-adv-x="373" 
d="M351 692q0 -17 -20 -17h-288q-20 0 -20 17v34q0 17 20 17h288q20 0 20 -17v-34z" />
    <glyph glyph-name="degree" unicode="&#xb0;" horiz-adv-x="342" 
d="M314 608q0 -58 -42 -100t-100 -42q-59 0 -101 42t-42 100t42 100t101 42q58 0 100 -42t42 -100zM260 608q0 36 -26 62t-62 26t-62 -26t-26 -62t26 -62t62 -26t62 26t26 62z" />
    <glyph glyph-name="plusminus" unicode="&#xb1;" 
d="M530 371q0 -16 -20 -16h-172v-171q0 -20 -16 -20h-40q-16 0 -16 20v171h-171q-20 0 -20 16v40q0 16 20 16h171v172q0 20 16 20h40q16 0 16 -20v-172h172q20 0 20 -16v-40zM530 16q0 -16 -20 -16h-415q-20 0 -20 16v33q0 16 20 16h415q20 0 20 -16v-33z" />
    <glyph glyph-name="two.superior" unicode="&#xb2;" horiz-adv-x="333" 
d="M294 642q0 -33 -17 -58t-55 -53q-39 -25 -52 -35q-42 -29 -57 -51.5t-15 -55.5v-4h173q18 0 18 -17v-23q0 -8 -5.5 -13t-12.5 -5h-214q-7 0 -12.5 5t-5.5 13v44q0 91 86 148l55 36h-1q33 24 42.5 36t9.5 33q0 48 -73 48q-38 0 -97 -9q-16 0 -16 18v19q0 13 15 18
q40 10 98 10q136 0 136 -104z" />
    <glyph glyph-name="three.superior" unicode="&#xb3;" horiz-adv-x="333" 
d="M292 446q0 -63 -38 -93t-104 -30q-38 0 -93 11q-16 4 -16 18v18q0 18 19 18q53 -8 90 -8q40 0 58 15.5t18 50.5v11q0 23 -13 41t-42 18h-98q-17 0 -17 16v20q0 17 17 17h98q55 0 55 57v7q0 30 -17.5 43.5t-58.5 13.5q-20 0 -80 -8q-1 0 -5 -0.5t-7 -0.5q-17 0 -17 18v18
q0 13 15 19q50 10 94 10q142 0 142 -113v-7q0 -56 -43 -84q43 -27 43 -85v-11z" />
    <glyph glyph-name="acute" unicode="&#xb4;" horiz-adv-x="373" 
d="M333 772q0 -4 -4 -8l-113 -126q-14 -15 -23 -15h-54q-9 0 -9 7q0 6 4 10l98 124q12 15 24 15h66q11 0 11 -7z" />
    <glyph glyph-name="mu" unicode="&#xb5;" horiz-adv-x="557" 
d="M489 44q0 -17 -19 -23q-76 -28 -185 -28q-79 0 -129 29v-198q0 -8 -6 -14t-14 -6h-48q-8 0 -14 6t-6 14v706q0 8 5.5 14t13.5 6h50q8 0 13.5 -6t5.5 -14v-329q0 -70 31 -101.5t98 -31.5q68 0 116 14v448q0 8 6 14t14 6h49q8 0 13.5 -6t5.5 -14v-486z" />
    <glyph glyph-name="paragraph" unicode="&#xb6;" horiz-adv-x="622" 
d="M557 -176q0 -8 -5 -13.5t-12 -5.5h-23q-7 0 -12 5.5t-5 13.5v865h-58v-865q0 -8 -5 -13.5t-12 -5.5h-23q-7 0 -12 5.5t-5 13.5v439h-104q-106 0 -171 58.5t-65 164.5v34q0 106 65 164.5t171 58.5h260q16 0 16 -19v-900z" />
    <glyph glyph-name="periodcentered" unicode="&#xb7;" horiz-adv-x="214" 
d="M150 345q0 -8 -5.5 -14t-13.5 -6h-48q-8 0 -13.5 6t-5.5 14v93q0 8 5.5 13.5t13.5 5.5h48q8 0 13.5 -5.5t5.5 -13.5v-93z" />
    <glyph glyph-name="cedilla" unicode="&#xb8;" horiz-adv-x="366" 
d="M254 -39q0 -4 -4 -8l-113 -126q-13 -15 -23 -15h-54q-9 0 -9 7q0 6 4 10l97 124q12 15 25 15h66q11 0 11 -7z" />
    <glyph glyph-name="one.superior" unicode="&#xb9;" horiz-adv-x="333" 
d="M135 672l-64 -27q-17 -6 -17 13v28q0 10 10 13l80 38q12 6 32 6h6q11 0 14 -4.5t3 -14.5v-378q0 -7 -5 -13t-12 -6h-30q-7 0 -12 5.5t-5 13.5v326z" />
    <glyph glyph-name="ordmasculine" unicode="&#xba;" horiz-adv-x="322" 
d="M291 566q0 -70 -33 -107.5t-96 -37.5t-96.5 37.5t-33.5 107.5v35q0 70 33.5 107.5t96.5 37.5t96 -37.5t33 -107.5v-35zM230 566v35q0 47 -16 69.5t-52 22.5q-70 0 -70 -92v-35q0 -93 70 -93q68 0 68 93z" />
    <glyph glyph-name="guillemotright" unicode="&#xbb;" horiz-adv-x="614" 
d="M584 277q0 -17 -11 -28l-169 -169q-10 -10 -21 -10h-58q-11 0 -11 9q0 7 6 13l178 185l-178 185q-6 6 -6 13q0 9 11 9h58q11 0 21 -10l169 -169q11 -11 11 -28zM324 277q0 -17 -11 -28l-169 -169q-10 -10 -21 -10h-58q-11 0 -11 9q0 7 6 13l178 185l-178 185q-6 6 -6 13
q0 9 11 9h58q11 0 21 -10l169 -169q11 -11 11 -28z" />
    <glyph glyph-name="onequarter" unicode="&#xbc;" horiz-adv-x="741" 
d="M580 737q0 -3 -5 -13l-418 -708q-11 -20 -22 -20h-49q-10 0 -10 8q0 7 4 12l418 708q11 19 23 19h51q8 0 8 -6zM121 672l-64 -27q-17 -6 -17 13v28q0 10 10 13l80 38q12 6 32 6h6q11 0 14 -4.5t3 -14.5v-378q0 -7 -5 -13t-12 -6h-30q-7 0 -12 5.5t-5 13.5v326zM701 124
q0 -17 -19 -17h-38v-88q0 -7 -5 -13t-13 -6h-31q-17 0 -17 19v88h-147q-17 0 -24 6t-7 22v20q0 15 8 26l162 224q6 11 20 11h31q23 0 23 -20v-233h38q8 0 13.5 -5t5.5 -12v-22zM579 163v162l-113 -162h113z" />
    <glyph glyph-name="onehalf" unicode="&#xbd;" horiz-adv-x="744" 
d="M580 737q0 -3 -5 -13l-418 -708q-11 -20 -22 -20h-49q-10 0 -10 8q0 7 4 12l418 708q11 19 23 19h51q8 0 8 -6zM121 672l-64 -27q-17 -6 -17 13v28q0 10 10 13l80 38q12 6 32 6h6q11 0 14 -4.5t3 -14.5v-378q0 -7 -5 -13t-12 -6h-30q-7 0 -12 5.5t-5 13.5v326zM704 315
q0 -33 -17 -58t-55 -53q-39 -25 -52 -35q-42 -29 -57 -51.5t-15 -55.5v-4h173q18 0 18 -17v-23q0 -8 -5.5 -13t-12.5 -5h-214q-7 0 -12.5 5t-5.5 13v44q0 91 86 148l55 36h-1q33 24 42.5 36t9.5 33q0 48 -73 48q-38 0 -97 -9q-16 0 -16 18v19q0 13 15 18q40 10 98 10
q136 0 136 -104z" />
    <glyph glyph-name="threequarters" unicode="&#xbe;" horiz-adv-x="826" 
d="M664 737q0 -3 -5 -13l-418 -708q-11 -20 -22 -20h-49q-10 0 -10 8q0 7 4 12l418 708q11 19 23 19h51q8 0 8 -6zM786 124q0 -17 -19 -17h-38v-88q0 -7 -5 -13t-13 -6h-31q-17 0 -17 19v88h-147q-17 0 -24 6t-7 22v20q0 15 8 26l162 224q5 11 20 11h31q23 0 23 -20v-233h38
q8 0 13.5 -5t5.5 -12v-22zM664 163v162l-113 -162h113zM291 446q0 -63 -38 -93t-104 -30q-38 0 -93 11q-16 4 -16 18v18q0 18 19 18q53 -8 90 -8q40 0 58 15.5t18 50.5v11q0 23 -13 41t-42 18h-98q-17 0 -17 16v20q0 17 17 17h98q55 0 55 57v7q0 30 -17.5 43.5t-58.5 13.5
q-20 0 -80 -8q-1 0 -5 -0.5t-7 -0.5q-17 0 -17 18v18q0 13 15 19q50 10 94 10q142 0 142 -113v-7q0 -56 -43 -84q43 -27 43 -85v-11z" />
    <glyph glyph-name="questiondown" unicode="&#xbf;" horiz-adv-x="446" 
d="M328 438q0 -8 -6 -14t-14 -6h-48q-8 0 -13.5 6t-5.5 14v93q0 19 19 19h48q8 0 14 -5.5t6 -13.5v-93zM406 -165q0 -20 -17 -23q-67 -13 -136 -13q-200 0 -200 151v12q0 38 18.5 74t72.5 97l45 51q23 26 31.5 37t15 28t6.5 38v49q0 8 6 13.5t14 5.5h44q8 0 13.5 -5.5
t5.5 -13.5v-49q0 -48 -13.5 -78t-52.5 -73l-46 -51q-37 -40 -49.5 -66t-12.5 -57v-12q0 -39 24.5 -55.5t77.5 -16.5q54 0 135 9h3q15 0 15 -17v-35z" />
    <glyph glyph-name="Agrave" unicode="&#xc0;" horiz-adv-x="633" 
d="M604 16q0 -16 -17 -16h-59q-13 0 -17 15l-65 230h-259l-64 -230q-4 -15 -18 -15h-59q-17 0 -17 16q0 5 1 7l185 651q21 76 102 76q80 0 101 -75l185 -652q1 -2 1 -7zM427 324l-91 329q-5 18 -19 18q-15 0 -20 -18l-91 -329h221zM385 801q0 -7 -9 -7h-54q-10 0 -23 15
l-113 126q-4 4 -4 8q0 7 11 7h66q13 0 25 -15l97 -124q4 -4 4 -10z" />
    <glyph glyph-name="Aacute" unicode="&#xc1;" horiz-adv-x="633" 
d="M604 16q0 -16 -17 -16h-59q-13 0 -17 15l-65 230h-259l-64 -230q-4 -15 -18 -15h-59q-17 0 -17 16q0 5 1 7l185 651q21 76 102 76q80 0 101 -75l185 -652q1 -2 1 -7zM427 324l-91 329q-5 18 -19 18q-15 0 -20 -18l-91 -329h221zM469 943q0 -4 -4 -8l-113 -126
q-14 -15 -23 -15h-54q-9 0 -9 7q0 6 4 10l98 124q12 15 24 15h66q11 0 11 -7z" />
    <glyph glyph-name="Acircumflex" unicode="&#xc2;" horiz-adv-x="633" 
d="M604 16q0 -16 -17 -16h-59q-13 0 -17 15l-65 230h-259l-64 -230q-4 -15 -18 -15h-59q-17 0 -17 16q0 5 1 7l185 651q21 76 102 76q80 0 101 -75l185 -652q1 -2 1 -7zM427 324l-91 329q-5 18 -19 18q-15 0 -20 -18l-91 -329h221zM488 801q0 -7 -9 -7h-52q-9 0 -23 15
l-82 97l-83 -97q-14 -15 -23 -15h-52q-9 0 -9 7q0 6 4 10l96 124q12 15 24 15h85q13 0 25 -15l95 -124q4 -4 4 -10z" />
    <glyph glyph-name="Atilde" unicode="&#xc3;" horiz-adv-x="633" 
d="M604 16q0 -16 -17 -16h-59q-13 0 -17 15l-65 230h-259l-64 -230q-4 -15 -18 -15h-59q-17 0 -17 16q0 5 1 7l185 651q21 76 102 76q80 0 101 -75l185 -652q1 -2 1 -7zM427 324l-91 329q-5 18 -19 18q-15 0 -20 -18l-91 -329h221zM497 894q0 -53 -22.5 -79t-71.5 -26
q-37 0 -64 21l-61 49q-28 22 -41 22q-31 0 -31 -46v-21q0 -7 -5 -12t-12 -5h-31q-7 0 -11.5 5t-4.5 12v21q0 53 25 81t70 28q29 0 60 -24l71 -56q18 -14 35 -14q16 0 23 9.5t7 34.5v23q0 7 5 12t12 5h31q7 0 11.5 -5t4.5 -12v-23z" />
    <glyph glyph-name="Adieresis" unicode="&#xc4;" horiz-adv-x="633" 
d="M604 16q0 -16 -17 -16h-59q-13 0 -17 15l-65 230h-259l-64 -230q-4 -15 -18 -15h-59q-17 0 -17 16q0 5 1 7l185 651q21 76 102 76q80 0 101 -75l185 -652q1 -2 1 -7zM427 324l-91 329q-5 18 -19 18q-15 0 -20 -18l-91 -329h221zM450 827q0 -8 -6 -13.5t-14 -5.5h-39
q-8 0 -14 5.5t-6 13.5v81q0 8 6.5 14t13.5 6h39q8 0 14 -6t6 -14v-81zM275 827q0 -8 -6 -13.5t-14 -5.5h-39q-8 0 -14 5.5t-6 13.5v81q0 8 6 14t14 6h39q7 0 13.5 -6t6.5 -14v-81z" />
    <glyph glyph-name="Aring" unicode="&#xc5;" horiz-adv-x="633" 
d="M604 16q0 -16 -17 -16h-59q-13 0 -17 15l-65 230h-259l-64 -230q-4 -15 -18 -15h-59q-17 0 -17 16q0 5 1 7l185 651q21 76 102 76q80 0 101 -75l185 -652q1 -2 1 -7zM427 324l-91 329q-5 18 -19 18q-15 0 -20 -18l-91 -329h221zM417 878q0 -42 -29.5 -71.5t-71.5 -29.5
t-72 29.5t-30 71.5t30 72t72 30t71.5 -30t29.5 -72zM369 879q0 22 -15.5 37t-37.5 15t-37 -15t-15 -37t15 -37.5t37 -15.5t37.5 15.5t15.5 37.5z" />
    <glyph glyph-name="AE" unicode="&#xc6;" horiz-adv-x="859" 
d="M804 14q0 -12 -10 -14q-65 -7 -165 -7q-107 0 -160 44t-53 142v66h-239l-64 -230q-4 -15 -18 -15h-59q-17 0 -17 16q0 5 1 7l185 645q22 75 102 75h487q10 0 10 -14v-53q0 -12 -11 -12h-286v-239h277q8 0 14 -6t6 -14v-38q0 -8 -6 -14t-14 -6h-277v-168q0 -60 23.5 -82
t99.5 -22h163q11 0 11 -12v-49zM416 324v340h-109q-15 0 -20 -17l-91 -323h220z" />
    <glyph glyph-name="Ccedilla" unicode="&#xc7;" horiz-adv-x="545" 
d="M510 26q0 -16 -20 -20q-68 -13 -166 -13q-50 0 -94 15t-83.5 48t-63 96t-23.5 150v139q0 88 23.5 151t63.5 96t83.5 47.5t93.5 14.5q67 0 168 -16q16 -2 16 -13v-51q0 -11 -12 -11h-3q-108 9 -168 9q-174 0 -174 -227v-139q0 -119 47 -173t127 -54q69 0 165 8h4
q16 0 16 -16v-41zM381 -39q0 -4 -4 -8l-113 -126q-14 -15 -23 -15h-54q-9 0 -9 7q0 4 4 10l97 124q12 15 25 15h66q11 0 11 -7z" />
    <glyph glyph-name="Egrave" unicode="&#xc8;" horiz-adv-x="551" 
d="M496 12q0 -12 -10 -14q-48 -5 -195 -5q-107 0 -160 44t-53 142v385q0 98 53 142t160 44q132 0 195 -6q10 -2 10 -14v-50q0 -12 -11 -12h-193q-76 0 -99.5 -22t-23.5 -82v-139h307q8 0 14 -6t6 -14v-38q0 -8 -6 -14t-14 -6h-307v-168q0 -60 23.5 -82t99.5 -22h193
q11 0 11 -12v-51zM360 800q0 -7 -9 -7h-54q-9 0 -23 15l-113 126q-4 4 -4 8q0 7 11 7h66q13 0 25 -15l97 -124q4 -4 4 -10z" />
    <glyph glyph-name="Eacute" unicode="&#xc9;" horiz-adv-x="551" 
d="M496 12q0 -12 -10 -14q-48 -5 -195 -5q-107 0 -160 44t-53 142v385q0 98 53 142t160 44q132 0 195 -6q10 -2 10 -14v-50q0 -12 -11 -12h-193q-76 0 -99.5 -22t-23.5 -82v-139h307q8 0 14 -6t6 -14v-38q0 -8 -6 -14t-14 -6h-307v-168q0 -60 23.5 -82t99.5 -22h193
q11 0 11 -12v-51zM436 943q0 -4 -4 -8l-113 -126q-13 -15 -23 -15h-54q-9 0 -9 7q0 6 4 10l98 124q12 15 24 15h66q11 0 11 -7z" />
    <glyph glyph-name="Ecircumflex" unicode="&#xca;" horiz-adv-x="551" 
d="M496 12q0 -12 -10 -14q-48 -5 -195 -5q-107 0 -160 44t-53 142v385q0 98 53 142t160 44q132 0 195 -6q10 -2 10 -14v-50q0 -12 -11 -12h-193q-76 0 -99.5 -22t-23.5 -82v-139h307q8 0 14 -6t6 -14v-38q0 -8 -6 -14t-14 -6h-307v-168q0 -60 23.5 -82t99.5 -22h193
q11 0 11 -12v-51zM456 801q0 -7 -9 -7h-52q-9 0 -23 15l-82 97l-83 -97q-14 -15 -23 -15h-52q-9 0 -9 7q0 6 4 10l96 124q12 15 24 15h85q13 0 25 -15l95 -124q4 -4 4 -10z" />
    <glyph glyph-name="Edieresis" unicode="&#xcb;" horiz-adv-x="551" 
d="M496 12q0 -12 -10 -14q-48 -5 -195 -5q-107 0 -160 44t-53 142v385q0 98 53 142t160 44q132 0 195 -6q10 -2 10 -14v-50q0 -12 -11 -12h-193q-76 0 -99.5 -22t-23.5 -82v-139h307q8 0 14 -6t6 -14v-38q0 -8 -6 -14t-14 -6h-307v-168q0 -60 23.5 -82t99.5 -22h193
q11 0 11 -12v-51zM424 829q0 -8 -6 -13.5t-14 -5.5h-39q-8 0 -14 5.5t-6 13.5v81q0 8 6.5 14t13.5 6h39q8 0 14 -6t6 -14v-81zM249 829q0 -8 -6 -13.5t-14 -5.5h-39q-8 0 -14 5.5t-6 13.5v81q0 8 6 14t14 6h39q7 0 13.5 -6t6.5 -14v-81z" />
    <glyph glyph-name="Igrave" unicode="&#xcc;" horiz-adv-x="267" 
d="M179 20q0 -8 -5 -14t-13 -6h-55q-7 0 -12.5 6t-5.5 14v704q0 19 18 19h55q8 0 13 -5.5t5 -13.5v-704zM198 801q0 -7 -9 -7h-54q-9 0 -23 15l-113 126q-4 4 -4 8q0 7 11 7h66q13 0 25 -15l97 -124q4 -4 4 -10z" />
    <glyph glyph-name="Iacute" unicode="&#xcd;" horiz-adv-x="267" 
d="M179 20q0 -8 -5 -14t-13 -6h-55q-7 0 -12.5 6t-5.5 14v704q0 19 18 19h55q8 0 13 -5.5t5 -13.5v-704zM272 943q0 -4 -4 -8l-113 -126q-13 -15 -23 -15h-54q-9 0 -9 7q0 6 4 10l98 124q12 15 24 15h66q11 0 11 -7z" />
    <glyph glyph-name="Icircumflex" unicode="&#xce;" horiz-adv-x="267" 
d="M179 20q0 -8 -5 -14t-13 -6h-55q-7 0 -12.5 6t-5.5 14v704q0 19 18 19h55q8 0 13 -5.5t5 -13.5v-704zM296 801q0 -7 -9 -7h-52q-9 0 -23 15l-82 97l-83 -97q-13 -15 -23 -15h-52q-9 0 -9 7q0 6 4 10l96 124q12 15 24 15h85q13 0 25 -15l95 -124q4 -4 4 -10z" />
    <glyph glyph-name="Idieresis" unicode="&#xcf;" horiz-adv-x="267" 
d="M179 20q0 -8 -5 -14t-13 -6h-55q-7 0 -12.5 6t-5.5 14v704q0 19 18 19h55q8 0 13 -5.5t5 -13.5v-704zM261 828q0 -8 -6 -13.5t-14 -5.5h-39q-8 0 -14 5.5t-6 13.5v81q0 7 6 13.5t14 6.5h39q7 0 13.5 -6.5t6.5 -13.5v-81zM86 828q0 -8 -6 -13.5t-14 -5.5h-39q-8 0 -14 5.5
t-6 13.5v81q0 7 6.5 13.5t13.5 6.5h39q8 0 14 -6.5t6 -13.5v-81z" />
    <glyph glyph-name="Eth" unicode="&#xd0;" horiz-adv-x="641" 
d="M584 304q0 -156 -80 -233.5t-223 -77.5q-124 0 -182 10q-21 3 -21 25v319h-38q-8 0 -14 6t-6 14v38q0 8 6 14t14 6h38v290q0 22 21 25q58 10 182 10q144 0 223.5 -77t79.5 -234v-135zM493 304v135q0 127 -56.5 180t-155.5 53q-61 0 -111 -3v-244h103q8 0 14 -6t6 -14v-38
q0 -8 -6 -14t-14 -6h-103v-274q32 -2 111 -2q212 0 212 233z" />
    <glyph glyph-name="Ntilde" unicode="&#xd1;" horiz-adv-x="680" 
d="M602 29q0 -12 -8.5 -20.5t-20.5 -8.5h-62q-24 0 -32 16l-309 587q-2 3 -3 3t-1 -3v-584q0 -8 -5.5 -13.5t-12.5 -5.5h-52q-18 0 -18 12v703q0 12 8.5 20t20.5 8h55q20 0 27.5 -4t13.5 -16l307 -584l2 -3q1 0 1 3v585q0 8 5.5 13.5t12.5 5.5h53q18 0 18 -19v-695zM508 892
q0 -53 -22.5 -79t-71.5 -26q-37 0 -64 21l-61 49q-28 22 -41 22q-31 0 -31 -46v-21q0 -7 -5 -12t-12 -5h-31q-7 0 -11.5 5t-4.5 12v21q0 53 25 81t70 28q29 0 60 -24l71 -56q17 -14 35 -14q16 0 23 9.5t7 34.5v23q0 7 5 12t12 5h31q7 0 11.5 -5t4.5 -12v-23z" />
    <glyph glyph-name="Ograve" unicode="&#xd2;" horiz-adv-x="661" 
d="M601 307q0 -160 -73 -237t-197 -77t-197.5 77.5t-73.5 236.5v129q0 159 73.5 236.5t197.5 77.5t197 -77t73 -237v-129zM509 307v129q0 232 -178 232q-179 0 -179 -232v-129q0 -232 179 -232q178 0 178 232zM397 801q0 -7 -9 -7h-54q-10 0 -23 15l-113 126q-4 4 -4 8
q0 7 11 7h66q13 0 25 -15l97 -124q4 -4 4 -10z" />
    <glyph glyph-name="Oacute" unicode="&#xd3;" horiz-adv-x="661" 
d="M601 307q0 -160 -73 -237t-197 -77t-197.5 77.5t-73.5 236.5v129q0 159 73.5 236.5t197.5 77.5t197 -77t73 -237v-129zM509 307v129q0 232 -178 232q-179 0 -179 -232v-129q0 -232 179 -232q178 0 178 232zM457 943q0 -4 -4 -8l-113 -126q-14 -15 -23 -15h-54q-9 0 -9 7
q0 6 4 10l98 124q12 15 24 15h66q11 0 11 -7z" />
    <glyph glyph-name="Ocircumflex" unicode="&#xd4;" horiz-adv-x="661" 
d="M601 307q0 -160 -73 -237t-197 -77t-197.5 77.5t-73.5 236.5v129q0 159 73.5 236.5t197.5 77.5t197 -77t73 -237v-129zM509 307v129q0 232 -178 232q-179 0 -179 -232v-129q0 -232 179 -232q178 0 178 232zM497 802q0 -7 -9 -7h-52q-10 0 -23 15l-82 97l-83 -97
q-14 -15 -23 -15h-52q-9 0 -9 7q0 6 4 10l96 124q12 15 24 15h85q13 0 25 -15l95 -124q4 -4 4 -10z" />
    <glyph glyph-name="Otilde" unicode="&#xd5;" horiz-adv-x="661" 
d="M601 307q0 -160 -73 -237t-197 -77t-197.5 77.5t-73.5 236.5v129q0 159 73.5 236.5t197.5 77.5t197 -77t73 -237v-129zM509 307v129q0 232 -178 232q-179 0 -179 -232v-129q0 -232 179 -232q178 0 178 232zM511 894q0 -53 -22.5 -79t-71.5 -26q-37 0 -64 21l-61 49
q-28 22 -41 22q-31 0 -31 -46v-21q0 -7 -5 -12t-12 -5h-31q-7 0 -11.5 5t-4.5 12v21q0 53 25 81t70 28q29 0 60 -24l71 -56q17 -14 35 -14q16 0 23 9.5t7 34.5v23q0 7 5 12t12 5h31q7 0 11.5 -5t4.5 -12v-23z" />
    <glyph glyph-name="Odieresis" unicode="&#xd6;" horiz-adv-x="661" 
d="M601 307q0 -160 -73 -237t-197 -77t-197.5 77.5t-73.5 236.5v129q0 159 73.5 236.5t197.5 77.5t197 -77t73 -237v-129zM509 307v129q0 232 -178 232q-179 0 -179 -232v-129q0 -232 179 -232q178 0 178 232zM458 829q0 -8 -6 -13.5t-14 -5.5h-39q-8 0 -14 5.5t-6 13.5v81
q0 8 6.5 14t13.5 6h39q8 0 14 -6t6 -14v-81zM283 829q0 -8 -6 -13.5t-14 -5.5h-39q-8 0 -14 5.5t-6 13.5v81q0 8 6 14t14 6h39q7 0 13.5 -6t6.5 -14v-81z" />
    <glyph glyph-name="multiply" unicode="&#xd7;" 
d="M488 243q0 -5 -5 -10l-28 -28q-5 -5 -10 -5q-8 0 -16 8l-132 132l-131 -131q-8 -8 -16 -8q-5 0 -10 5l-28 28q-5 5 -5 10q0 8 8 16l131 131l-131 132q-8 8 -8 15q0 5 5 10l28 28q5 5 11 5q8 0 15 -7l131 -132l132 132q8 8 16 8q5 0 10 -5l28 -28q5 -5 5 -10q0 -8 -8 -16
l-132 -132l132 -132q8 -8 8 -16z" />
    <glyph glyph-name="Oslash" unicode="&#xd8;" horiz-adv-x="661" 
d="M633 735q0 -3 -3 -8l-71 -98q42 -75 42 -193v-129q0 -160 -73 -237t-197 -77q-114 0 -183 63l-31 -44q-14 -19 -25 -19h-53q-11 0 -11 11q0 4 3 8l72 100q-43 74 -43 195v129q0 159 73.5 236.5t197.5 77.5q116 0 184 -64l29 41q14 19 26 19h52q11 0 11 -11zM462 613
q-45 55 -131 55q-179 0 -179 -232v-129q0 -59 13 -108zM509 307v129q0 62 -12 106l-297 -414q44 -53 131 -53q178 0 178 232z" />
    <glyph glyph-name="Ugrave" unicode="&#xd9;" horiz-adv-x="662" 
d="M587 270q0 -277 -256 -277t-256 277v454q0 8 5.5 13.5t13.5 5.5h54q8 0 13.5 -5.5t5.5 -13.5v-454q0 -101 37 -150t127 -49t127 48.5t37 150.5v454q0 8 5.5 13.5t13.5 5.5h54q8 0 13.5 -5.5t5.5 -13.5v-454zM389 801q0 -7 -9 -7h-54q-10 0 -23 15l-113 126q-4 4 -4 8
q0 7 11 7h66q13 0 25 -15l97 -124q4 -4 4 -10z" />
    <glyph glyph-name="Uacute" unicode="&#xda;" horiz-adv-x="662" 
d="M587 270q0 -277 -256 -277t-256 277v454q0 8 5.5 13.5t13.5 5.5h54q8 0 13.5 -5.5t5.5 -13.5v-454q0 -101 37 -150t127 -49t127 48.5t37 150.5v454q0 8 5.5 13.5t13.5 5.5h54q8 0 13.5 -5.5t5.5 -13.5v-454zM479 943q0 -4 -4 -8l-113 -126q-14 -15 -23 -15h-54q-9 0 -9 7
q0 6 4 10l98 124q12 15 24 15h66q11 0 11 -7z" />
    <glyph glyph-name="Ucircumflex" unicode="&#xdb;" horiz-adv-x="662" 
d="M587 270q0 -277 -256 -277t-256 277v454q0 8 5.5 13.5t13.5 5.5h54q8 0 13.5 -5.5t5.5 -13.5v-454q0 -101 37 -150t127 -49t127 48.5t37 150.5v454q0 8 5.5 13.5t13.5 5.5h54q8 0 13.5 -5.5t5.5 -13.5v-454zM494 801q0 -7 -9 -7h-52q-9 0 -23 15l-82 97l-83 -97
q-13 -15 -23 -15h-52q-9 0 -9 7q0 6 4 10l96 124q12 15 24 15h85q13 0 25 -15l95 -124q4 -4 4 -10z" />
    <glyph glyph-name="Udieresis" unicode="&#xdc;" horiz-adv-x="662" 
d="M587 270q0 -277 -256 -277t-256 277v454q0 8 5.5 13.5t13.5 5.5h54q8 0 13.5 -5.5t5.5 -13.5v-454q0 -101 37 -150t127 -49t127 48.5t37 150.5v454q0 8 5.5 13.5t13.5 5.5h54q8 0 13.5 -5.5t5.5 -13.5v-454zM456 829q0 -8 -6 -13.5t-14 -5.5h-39q-8 0 -14 5.5t-6 13.5v81
q0 8 6.5 14t13.5 6h39q8 0 14 -6t6 -14v-81zM281 829q0 -8 -6 -13.5t-14 -5.5h-39q-8 0 -14 5.5t-6 13.5v81q0 8 6 14t14 6h39q7 0 13.5 -6t6.5 -14v-81z" />
    <glyph glyph-name="Yacute" unicode="&#xdd;" horiz-adv-x="583" 
d="M549 729q0 -5 -3 -11l-155 -348q-24 -52 -54 -66v-284q0 -8 -5.5 -14t-12.5 -6h-55q-7 0 -12.5 6t-5.5 14v284q-29 11 -54 66l-154 348q-3 6 -3 11q0 14 17 14h61q12 0 18 -14l138 -324q11 -26 23 -26t23 26l139 324q6 14 17 14h61q17 0 17 -14zM438 943q0 -4 -4 -8
l-113 -126q-13 -15 -23 -15h-54q-9 0 -9 7q0 6 4 10l98 124q12 15 24 15h66q11 0 11 -7z" />
    <glyph glyph-name="Thorn" unicode="&#xde;" horiz-adv-x="593" 
d="M548 426q0 -226 -281 -226q-57 0 -99 3v-183q0 -20 -16 -20h-56q-7 0 -12.5 6t-5.5 14v704q0 8 5.5 13.5t12.5 5.5h55q7 0 12 -5.5t5 -13.5v-69q78 3 97 3q283 0 283 -218v-14zM457 426v14q0 76 -46.5 107.5t-143.5 31.5q-77 0 -99 -2v-296q69 -3 99 -3q98 0 144 35
t46 113z" />
    <glyph glyph-name="germandbls" unicode="&#xdf;" horiz-adv-x="581" 
d="M527 215q0 -112 -67 -167t-170 -55q-18 0 -48 3q-20 2 -20 19v41q0 11 11 11q7 0 22.5 -0.5t20.5 -0.5q78 0 120 33t42 116v14q0 57 -40.5 92.5t-114.5 35.5h-37q-8 0 -14 6t-6 14v29q0 8 6 14t14 6h37q71 0 105.5 35t34.5 87v12q0 121 -131 121q-70 0 -104 -40.5
t-34 -126.5v-493q0 -21 -18 -21h-53q-18 0 -18 21v493q0 122 60 183t167 61q100 0 159.5 -49.5t59.5 -148.5v-12q0 -52 -30 -93t-75 -61q54 -19 87.5 -63t33.5 -102v-14z" />
    <glyph glyph-name="agrave" unicode="&#xe0;" horiz-adv-x="519" 
d="M451 20q0 -8 -6 -14t-14 -6h-46q-8 0 -14 6t-6 14v22q-84 -49 -154 -49q-72 0 -117.5 37.5t-45.5 124.5v12q0 83 55.5 122.5t185.5 39.5h74v40q0 63 -24 88t-83 25q-73 0 -153 -8h-5q-18 0 -18 16v35q0 16 21 19q76 13 155 13q195 0 195 -188v-349zM363 105v161h-74
q-89 0 -121 -21.5t-32 -76.5v-12q0 -51 22.5 -71t69.5 -20q61 0 135 40zM324 630q0 -7 -9 -7h-54q-9 0 -23 15l-113 126q-4 4 -4 8q0 7 11 7h66q13 0 25 -15l97 -124q4 -4 4 -10z" />
    <glyph glyph-name="aacute" unicode="&#xe1;" horiz-adv-x="519" 
d="M451 20q0 -8 -6 -14t-14 -6h-46q-8 0 -14 6t-6 14v22q-84 -49 -154 -49q-72 0 -117.5 37.5t-45.5 124.5v12q0 83 55.5 122.5t185.5 39.5h74v40q0 63 -24 88t-83 25q-73 0 -153 -8h-5q-18 0 -18 16v35q0 16 21 19q76 13 155 13q195 0 195 -188v-349zM363 105v161h-74
q-89 0 -121 -21.5t-32 -76.5v-12q0 -51 22.5 -71t69.5 -20q61 0 135 40zM412 772q0 -4 -4 -8l-113 -126q-13 -15 -23 -15h-54q-9 0 -9 7q0 6 4 10l98 124q12 15 24 15h66q11 0 11 -7z" />
    <glyph glyph-name="acircumflex" unicode="&#xe2;" horiz-adv-x="519" 
d="M451 20q0 -8 -6 -14t-14 -6h-46q-8 0 -14 6t-6 14v22q-84 -49 -154 -49q-72 0 -117.5 37.5t-45.5 124.5v12q0 83 55.5 122.5t185.5 39.5h74v40q0 63 -24 88t-83 25q-73 0 -153 -8h-5q-18 0 -18 16v35q0 16 21 19q76 13 155 13q195 0 195 -188v-349zM363 105v161h-74
q-89 0 -121 -21.5t-32 -76.5v-12q0 -51 22.5 -71t69.5 -20q61 0 135 40zM425 630q0 -7 -9 -7h-52q-10 0 -23 15l-82 97l-83 -97q-14 -15 -23 -15h-52q-9 0 -9 7q0 6 4 10l96 124q12 15 24 15h85q13 0 25 -15l95 -124q4 -4 4 -10z" />
    <glyph glyph-name="atilde" unicode="&#xe3;" horiz-adv-x="519" 
d="M451 20q0 -8 -6 -14t-14 -6h-46q-8 0 -14 6t-6 14v22q-84 -49 -154 -49q-72 0 -117.5 37.5t-45.5 124.5v12q0 83 55.5 122.5t185.5 39.5h74v40q0 63 -24 88t-83 25q-73 0 -153 -8h-5q-18 0 -18 16v35q0 16 21 19q76 13 155 13q195 0 195 -188v-349zM363 105v161h-74
q-89 0 -121 -21.5t-32 -76.5v-12q0 -51 22.5 -71t69.5 -20q61 0 135 40zM446 731q0 -53 -22.5 -79t-71.5 -26q-37 0 -64 21l-61 49q-28 22 -41 22q-31 0 -31 -46v-21q0 -7 -5 -12t-12 -5h-31q-7 0 -11.5 5t-4.5 12v21q0 53 25 81t70 28q29 0 60 -24l71 -56q17 -14 35 -14
q16 0 23 9.5t7 34.5v23q0 7 5 12t12 5h31q7 0 11.5 -5t4.5 -12v-23z" />
    <glyph glyph-name="adieresis" unicode="&#xe4;" horiz-adv-x="519" 
d="M451 20q0 -8 -6 -14t-14 -6h-46q-8 0 -14 6t-6 14v22q-84 -49 -154 -49q-72 0 -117.5 37.5t-45.5 124.5v12q0 83 55.5 122.5t185.5 39.5h74v40q0 63 -24 88t-83 25q-73 0 -153 -8h-5q-18 0 -18 16v35q0 16 21 19q76 13 155 13q195 0 195 -188v-349zM363 105v161h-74
q-89 0 -121 -21.5t-32 -76.5v-12q0 -51 22.5 -71t69.5 -20q61 0 135 40zM388 660q0 -8 -6 -13.5t-14 -5.5h-39q-8 0 -14 5.5t-6 13.5v81q0 7 6.5 13.5t13.5 6.5h39q8 0 14 -6.5t6 -13.5v-81zM213 660q0 -8 -6 -13.5t-14 -5.5h-39q-8 0 -14 5.5t-6 13.5v81q0 7 6 13.5t14 6.5
h39q7 0 13.5 -6.5t6.5 -13.5v-81z" />
    <glyph glyph-name="aring" unicode="&#xe5;" horiz-adv-x="519" 
d="M451 20q0 -8 -6 -14t-14 -6h-46q-8 0 -14 6t-6 14v22q-84 -49 -154 -49q-72 0 -117.5 37.5t-45.5 124.5v12q0 83 55.5 122.5t185.5 39.5h74v40q0 63 -24 88t-83 25q-73 0 -153 -8h-5q-18 0 -18 16v35q0 16 21 19q76 13 155 13q195 0 195 -188v-349zM363 105v161h-74
q-89 0 -121 -21.5t-32 -76.5v-12q0 -51 22.5 -71t69.5 -20q61 0 135 40zM358 703q0 -42 -29.5 -71.5t-71.5 -29.5t-72 29.5t-30 71.5t30 72t72 30t71.5 -30t29.5 -72zM310 704q0 22 -15.5 37t-37.5 15t-37 -15t-15 -37t15 -37.5t37 -15.5t37.5 15.5t15.5 37.5z" />
    <glyph glyph-name="ae" unicode="&#xe6;" horiz-adv-x="853" 
d="M803 269q0 -22 -19 -22h-333v-32q0 -76 35.5 -112t110.5 -36q79 0 171 14h2h3q16 0 16 -14v-34q0 -19 -20 -23q-88 -17 -177 -17q-117 0 -173 59q-68 -59 -180 -59q-81 0 -136 41.5t-55 123.5v9q0 84 55 123t186 39h75v40q0 63 -24.5 88t-83.5 25q-73 0 -153 -8h-2h-3
q-18 0 -18 16v35q0 16 21 19q76 13 155 13q119 0 166 -70q59 70 163 70q106 0 162 -67.5t56 -178.5v-42zM716 314v5q0 163 -131 163q-64 0 -99 -42.5t-35 -120.5v-5h265zM364 94v171h-75q-89 0 -120.5 -21.5t-31.5 -76.5v-9q0 -50 31.5 -72.5t82.5 -22.5q72 0 113 31z" />
    <glyph glyph-name="ccedilla" unicode="&#xe7;" horiz-adv-x="452" 
d="M408 26q0 -18 -20 -22q-60 -11 -125 -11q-101 0 -157 65.5t-56 177.5v78q0 112 56 177.5t157 65.5q65 0 125 -11q12 -2 16 -6.5t4 -15.5v-36q0 -15 -17 -15h-4q-62 7 -124 7q-125 0 -125 -166v-78q0 -166 125 -166q62 0 124 7h4q17 0 17 -15v-36zM322 -39q0 -4 -4 -8
l-113 -126q-14 -15 -23 -15h-54q-9 0 -9 7q0 6 4 10l97 124q12 15 25 15h66q11 0 11 -7z" />
    <glyph glyph-name="egrave" unicode="&#xe8;" horiz-adv-x="544" 
d="M492 269q0 -22 -19 -22h-335v-14q0 -87 34 -125t105 -38q106 0 178 11h5q16 0 16 -14v-34q0 -19 -20 -23q-88 -17 -179 -17q-46 0 -84.5 12t-71.5 38t-52 74.5t-19 115.5v90q0 109 58 171.5t164 62.5q107 0 163.5 -62.5t56.5 -171.5v-54zM403 314v9q0 83 -32 120t-99 37
q-134 0 -134 -157v-9h265zM358 630q0 -7 -9 -7h-54q-9 0 -23 15l-113 126q-4 4 -4 8q0 7 11 7h66q13 0 25 -15l97 -124q4 -4 4 -10z" />
    <glyph glyph-name="eacute" unicode="&#xe9;" horiz-adv-x="544" 
d="M492 269q0 -22 -19 -22h-335v-14q0 -87 34 -125t105 -38q106 0 178 11h5q16 0 16 -14v-34q0 -19 -20 -23q-88 -17 -179 -17q-46 0 -84.5 12t-71.5 38t-52 74.5t-19 115.5v90q0 109 58 171.5t164 62.5q107 0 163.5 -62.5t56.5 -171.5v-54zM403 314v9q0 83 -32 120t-99 37
q-134 0 -134 -157v-9h265zM434 772q0 -4 -4 -8l-113 -126q-13 -15 -23 -15h-54q-9 0 -9 7q0 6 4 10l98 124q12 15 24 15h66q11 0 11 -7z" />
    <glyph glyph-name="ecircumflex" unicode="&#xea;" horiz-adv-x="544" 
d="M492 269q0 -22 -19 -22h-335v-14q0 -87 34 -125t105 -38q106 0 178 11h5q16 0 16 -14v-34q0 -19 -20 -23q-88 -17 -179 -17q-46 0 -84.5 12t-71.5 38t-52 74.5t-19 115.5v90q0 109 58 171.5t164 62.5q107 0 163.5 -62.5t56.5 -171.5v-54zM403 314v9q0 83 -32 120t-99 37
q-134 0 -134 -157v-9h265zM439 630q0 -7 -9 -7h-52q-10 0 -23 15l-82 97l-83 -97q-14 -15 -23 -15h-52q-9 0 -9 7q0 6 4 10l96 124q12 15 24 15h85q13 0 25 -15l95 -124q4 -4 4 -10z" />
    <glyph glyph-name="edieresis" unicode="&#xeb;" horiz-adv-x="544" 
d="M492 269q0 -22 -19 -22h-335v-14q0 -87 34 -125t105 -38q106 0 178 11h5q16 0 16 -14v-34q0 -19 -20 -23q-88 -17 -179 -17q-46 0 -84.5 12t-71.5 38t-52 74.5t-19 115.5v90q0 109 58 171.5t164 62.5q107 0 163.5 -62.5t56.5 -171.5v-54zM403 314v9q0 83 -32 120t-99 37
q-134 0 -134 -157v-9h265zM403 660q0 -8 -6 -13.5t-14 -5.5h-39q-8 0 -14 5.5t-6 13.5v81q0 7 6 13.5t14 6.5h39q7 0 13.5 -6.5t6.5 -13.5v-81zM228 660q0 -8 -6 -13.5t-14 -5.5h-39q-8 0 -14 5.5t-6 13.5v81q0 7 6.5 13.5t13.5 6.5h39q8 0 14 -6.5t6 -13.5v-81z" />
    <glyph glyph-name="igrave" unicode="&#xec;" horiz-adv-x="247" 
d="M167 20q0 -8 -6 -14t-14 -6h-48q-8 0 -14 6t-6 14v510q0 8 6 14t14 6h48q8 0 14 -6t6 -14v-510zM185 630q0 -7 -9 -7h-54q-10 0 -23 15l-113 126q-4 4 -4 8q0 7 11 7h66q13 0 25 -15l97 -124q4 -4 4 -10z" />
    <glyph glyph-name="iacute" unicode="&#xed;" horiz-adv-x="247" 
d="M167 20q0 -8 -6 -14t-14 -6h-48q-8 0 -14 6t-6 14v510q0 8 6 14t14 6h48q8 0 14 -6t6 -14v-510zM271 772q0 -4 -4 -8l-113 -126q-14 -15 -23 -15h-54q-9 0 -9 7q0 6 4 10l98 124q12 15 24 15h66q11 0 11 -7z" />
    <glyph glyph-name="icircumflex" unicode="&#xee;" horiz-adv-x="247" 
d="M167 20q0 -8 -6 -14t-14 -6h-48q-8 0 -14 6t-6 14v510q0 8 6 14t14 6h48q8 0 14 -6t6 -14v-510zM289 630q0 -7 -9 -7h-52q-10 0 -23 15l-82 97l-83 -97q-13 -15 -23 -15h-52q-9 0 -9 7q0 6 4 10l96 124q12 15 24 15h85q13 0 25 -15l95 -124q4 -4 4 -10z" />
    <glyph glyph-name="idieresis" unicode="&#xef;" horiz-adv-x="247" 
d="M167 20q0 -8 -6 -14t-14 -6h-48q-8 0 -14 6t-6 14v510q0 8 6 14t14 6h48q8 0 14 -6t6 -14v-510zM250 660q0 -8 -6 -13.5t-14 -5.5h-39q-8 0 -14 5.5t-6 13.5v81q0 7 6.5 13.5t13.5 6.5h39q8 0 14 -6.5t6 -13.5v-81zM75 660q0 -8 -6 -13.5t-14 -5.5h-39q-8 0 -14 5.5
t-6 13.5v81q0 7 6 13.5t14 6.5h39q7 0 13.5 -6.5t6.5 -13.5v-81z" />
    <glyph glyph-name="eth" unicode="&#xf0;" horiz-adv-x="545" 
d="M495 243q0 -122 -56 -186t-165 -64q-112 0 -168 65.5t-56 184.5v55q0 121 57.5 185.5t165.5 64.5q72 0 112 -36q-32 83 -147 137l-86 -66q-8 -6 -13 -6t-11 6l-17 19q-3 3 -3 7q0 9 10 17l61 47q-45 15 -79 22q-16 4 -16 15q0 3 1 5l12 34q4 11 14 11q5 0 8 -1
q71 -17 124 -37l94 71q5 4 13 4q7 0 12 -5l17 -18q4 -4 4 -8q0 -6 -10 -14l-73 -56q111 -63 153 -153t42 -245v-55zM407 243v55q0 175 -134 175t-134 -175v-55q0 -174 135 -174q70 0 101.5 43.5t31.5 130.5z" />
    <glyph glyph-name="ntilde" unicode="&#xf1;" horiz-adv-x="557" 
d="M489 20q0 -8 -6 -14t-14 -6h-48q-8 0 -14 6t-6 14v329q0 74 -25.5 103t-84.5 29q-57 0 -135 -39v-422q0 -8 -6 -14t-14 -6h-49q-8 0 -13.5 6t-5.5 14v510q0 8 5.5 14t13.5 6h50q8 0 13.5 -6t5.5 -14v-19q82 46 159 46q174 0 174 -208v-329zM460 731q0 -53 -22.5 -79
t-71.5 -26q-37 0 -64 21l-61 49q-28 22 -41 22q-31 0 -31 -46v-21q0 -7 -5 -12t-12 -5h-31q-7 0 -11.5 5t-4.5 12v21q0 53 25 81t70 28q29 0 60 -24l71 -56q18 -14 35 -14q16 0 23 9.5t7 34.5v23q0 7 5 12t12 5h31q7 0 11.5 -5t4.5 -12v-23z" />
    <glyph glyph-name="ograve" unicode="&#xf2;" horiz-adv-x="545" 
d="M495 237q0 -113 -57.5 -178.5t-165.5 -65.5t-165 65.5t-57 178.5v76q0 113 57 178.5t165 65.5t165.5 -65.5t57.5 -178.5v-76zM407 237v76q0 167 -135 167q-134 0 -134 -167v-76q0 -167 134 -167q68 0 101.5 43.5t33.5 123.5zM330 630q0 -7 -9 -7h-54q-9 0 -23 15
l-113 126q-4 4 -4 8q0 7 11 7h66q13 0 25 -15l97 -124q4 -4 4 -10z" />
    <glyph glyph-name="oacute" unicode="&#xf3;" horiz-adv-x="545" 
d="M495 237q0 -113 -57.5 -178.5t-165.5 -65.5t-165 65.5t-57 178.5v76q0 113 57 178.5t165 65.5t165.5 -65.5t57.5 -178.5v-76zM407 237v76q0 167 -135 167q-134 0 -134 -167v-76q0 -167 134 -167q68 0 101.5 43.5t33.5 123.5zM426 772q0 -4 -4 -8l-113 -126
q-13 -15 -23 -15h-54q-9 0 -9 7q0 6 4 10l98 124q12 15 24 15h66q11 0 11 -7z" />
    <glyph glyph-name="ocircumflex" unicode="&#xf4;" horiz-adv-x="545" 
d="M495 237q0 -113 -57.5 -178.5t-165.5 -65.5t-165 65.5t-57 178.5v76q0 113 57 178.5t165 65.5t165.5 -65.5t57.5 -178.5v-76zM407 237v76q0 167 -135 167q-134 0 -134 -167v-76q0 -167 134 -167q68 0 101.5 43.5t33.5 123.5zM440 630q0 -7 -9 -7h-52q-9 0 -23 15l-82 97
l-83 -97q-13 -15 -23 -15h-52q-9 0 -9 7q0 6 4 10l96 124q12 15 24 15h85q13 0 25 -15l95 -124q4 -4 4 -10z" />
    <glyph glyph-name="otilde" unicode="&#xf5;" horiz-adv-x="545" 
d="M495 237q0 -113 -57.5 -178.5t-165.5 -65.5t-165 65.5t-57 178.5v76q0 113 57 178.5t165 65.5t165.5 -65.5t57.5 -178.5v-76zM407 237v76q0 167 -135 167q-134 0 -134 -167v-76q0 -167 134 -167q68 0 101.5 43.5t33.5 123.5zM456 731q0 -53 -22.5 -79t-71.5 -26
q-37 0 -64 21l-61 49q-28 22 -41 22q-31 0 -31 -46v-21q0 -7 -5 -12t-12 -5h-31q-7 0 -11.5 5t-4.5 12v21q0 53 25 81t70 28q29 0 60 -24l71 -56q17 -14 35 -14q16 0 23 9.5t7 34.5v23q0 7 5 12t12 5h31q7 0 11.5 -5t4.5 -12v-23z" />
    <glyph glyph-name="odieresis" unicode="&#xf6;" horiz-adv-x="545" 
d="M495 237q0 -113 -57.5 -178.5t-165.5 -65.5t-165 65.5t-57 178.5v76q0 113 57 178.5t165 65.5t165.5 -65.5t57.5 -178.5v-76zM407 237v76q0 167 -135 167q-134 0 -134 -167v-76q0 -167 134 -167q68 0 101.5 43.5t33.5 123.5zM398 660q0 -8 -6 -13.5t-14 -5.5h-39
q-8 0 -14 5.5t-6 13.5v81q0 7 6.5 13.5t13.5 6.5h39q8 0 14 -6.5t6 -13.5v-81zM223 660q0 -8 -6 -13.5t-14 -5.5h-39q-8 0 -14 5.5t-6 13.5v81q0 7 6 13.5t14 6.5h39q7 0 13.5 -6.5t6.5 -13.5v-81z" />
    <glyph glyph-name="divide" unicode="&#xf7;" 
d="M345 527q0 -8 -5.5 -14t-13.5 -6h-48q-8 0 -14 6t-6 14v88q0 7 6 13t14 6h48q8 0 13.5 -6t5.5 -13v-88zM515 371q0 -16 -20 -16h-385q-20 0 -20 16v40q0 16 20 16h385q20 0 20 -16v-40zM345 162q0 -8 -5.5 -13.5t-13.5 -5.5h-48q-8 0 -14 5.5t-6 13.5v89q0 7 6 13t14 6
h48q8 0 13.5 -6t5.5 -13v-89z" />
    <glyph glyph-name="oslash" unicode="&#xf8;" horiz-adv-x="545" 
d="M528 575q0 -7 -4 -11l-70 -94q41 -62 41 -157v-76q0 -113 -57.5 -178.5t-165.5 -65.5q-85 0 -139 42l-44 -60q-8 -10 -16 -10h-49q-8 0 -8 8q0 7 4 11l71 96q-41 62 -41 157v76q0 113 57 178.5t165 65.5q86 0 140 -42l42 58q8 10 16 10h50q8 0 8 -8zM362 449
q-34 31 -90 31q-134 0 -134 -167v-76q0 -46 10 -79zM407 237v76q0 42 -11 78l-214 -290q33 -31 90 -31q135 0 135 167z" />
    <glyph glyph-name="ugrave" unicode="&#xf9;" horiz-adv-x="557" 
d="M489 20q0 -8 -5.5 -14t-13.5 -6h-50q-8 0 -13.5 6t-5.5 14v19q-82 -46 -159 -46q-174 0 -174 208v329q0 8 6 14t14 6h48q8 0 14 -6t6 -14v-329q0 -74 25.5 -103t84.5 -29q57 0 135 39v422q0 8 6 14t14 6h49q8 0 13.5 -6t5.5 -14v-510zM336 630q0 -7 -9 -7h-54
q-9 0 -23 15l-113 126q-4 4 -4 8q0 7 11 7h66q13 0 25 -15l97 -124q4 -4 4 -10z" />
    <glyph glyph-name="uacute" unicode="&#xfa;" horiz-adv-x="557" 
d="M489 20q0 -8 -5.5 -14t-13.5 -6h-50q-8 0 -13.5 6t-5.5 14v19q-82 -46 -159 -46q-174 0 -174 208v329q0 8 6 14t14 6h48q8 0 14 -6t6 -14v-329q0 -74 25.5 -103t84.5 -29q57 0 135 39v422q0 8 6 14t14 6h49q8 0 13.5 -6t5.5 -14v-510zM434 772q0 -4 -4 -8l-113 -126
q-13 -15 -23 -15h-54q-9 0 -9 7q0 6 4 10l98 124q12 15 24 15h66q11 0 11 -7z" />
    <glyph glyph-name="ucircumflex" unicode="&#xfb;" horiz-adv-x="557" 
d="M489 20q0 -8 -5.5 -14t-13.5 -6h-50q-8 0 -13.5 6t-5.5 14v19q-82 -46 -159 -46q-174 0 -174 208v329q0 8 6 14t14 6h48q8 0 14 -6t6 -14v-329q0 -74 25.5 -103t84.5 -29q57 0 135 39v422q0 8 6 14t14 6h49q8 0 13.5 -6t5.5 -14v-510zM446 630q0 -7 -9 -7h-52
q-9 0 -23 15l-82 97l-83 -97q-13 -15 -23 -15h-52q-9 0 -9 7q0 6 4 10l96 124q12 15 24 15h85q13 0 25 -15l95 -124q4 -4 4 -10z" />
    <glyph glyph-name="udieresis" unicode="&#xfc;" horiz-adv-x="557" 
d="M489 20q0 -8 -5.5 -14t-13.5 -6h-50q-8 0 -13.5 6t-5.5 14v19q-82 -46 -159 -46q-174 0 -174 208v329q0 8 6 14t14 6h48q8 0 14 -6t6 -14v-329q0 -74 25.5 -103t84.5 -29q57 0 135 39v422q0 8 6 14t14 6h49q8 0 13.5 -6t5.5 -14v-510zM405 660q0 -8 -6 -13.5t-14 -5.5
h-39q-8 0 -14 5.5t-6 13.5v81q0 7 6 13.5t14 6.5h39q7 0 13.5 -6.5t6.5 -13.5v-81zM230 660q0 -8 -6 -13.5t-14 -5.5h-39q-8 0 -14 5.5t-6 13.5v81q0 7 6.5 13.5t13.5 6.5h39q8 0 14 -6.5t6 -13.5v-81z" />
    <glyph glyph-name="yacute" unicode="&#xfd;" horiz-adv-x="534" 
d="M495 533q0 -5 -1 -7l-165 -576q-24 -84 -61.5 -116t-121.5 -32q-46 0 -84 9q-21 5 -21 16v37q0 16 19 16h3q66 -6 89 -6q44 0 65.5 17t33.5 68l10 41h-14q-27 0 -44.5 13.5t-29.5 55.5l-133 457q-1 2 -1 7q0 17 18 17h55q13 0 17 -16l118 -434q5 -22 19 -22h16l122 457
q4 15 19 15h56q16 0 16 -17zM446 772q0 -4 -4 -8l-113 -126q-13 -15 -23 -15h-54q-9 0 -9 7q0 6 4 10l98 124q12 15 24 15h66q11 0 11 -7z" />
    <glyph glyph-name="thorn" unicode="&#xfe;" horiz-adv-x="541" 
d="M491 238q0 -119 -55 -182t-163 -63q-56 0 -117 11v-181q0 -8 -5.5 -13.5t-13.5 -5.5h-51q-8 0 -13 5.5t-5 13.5v909q0 8 6 14t14 6h48q8 0 14 -6t6 -14v-185q65 10 117 10q109 0 163.5 -65.5t54.5 -181.5v-72zM403 238v72q0 84 -29.5 128.5t-100.5 44.5q-61 0 -117 -10
v-396q55 -10 117 -10q70 0 100 43t30 128z" />
    <glyph glyph-name="ydieresis" unicode="&#xff;" horiz-adv-x="534" 
d="M495 533q0 -5 -1 -7l-165 -576q-24 -84 -61.5 -116t-121.5 -32q-46 0 -84 9q-21 5 -21 16v37q0 16 19 16h3q66 -6 89 -6q44 0 65.5 17t33.5 68l10 41h-14q-27 0 -44.5 13.5t-29.5 55.5l-133 457q-1 2 -1 7q0 17 18 17h55q13 0 17 -16l118 -434q5 -22 19 -22h16l122 457
q4 15 19 15h56q16 0 16 -17zM404 660q0 -8 -6 -13.5t-14 -5.5h-39q-8 0 -14 5.5t-6 13.5v81q0 7 6.5 13.5t13.5 6.5h39q8 0 14 -6.5t6 -13.5v-81zM229 660q0 -8 -6 -13.5t-14 -5.5h-39q-8 0 -14 5.5t-6 13.5v81q0 7 6 13.5t14 6.5h39q7 0 13.5 -6.5t6.5 -13.5v-81z" />
    <glyph glyph-name="Amacron" unicode="&#x100;" horiz-adv-x="633" 
d="M604 16q0 -16 -17 -16h-59q-13 0 -17 15l-65 230h-259l-64 -230q-4 -15 -18 -15h-59q-17 0 -17 16q0 5 1 7l185 651q21 76 102 76q80 0 101 -75l185 -652q1 -2 1 -7zM427 324l-91 329q-5 18 -19 18q-15 0 -20 -18l-91 -329h221zM478 836q0 -17 -20 -17h-288q-20 0 -20 17
v34q0 17 20 17h288q20 0 20 -17v-34z" />
    <glyph glyph-name="amacron" unicode="&#x101;" horiz-adv-x="519" 
d="M451 20q0 -8 -6 -14t-14 -6h-46q-8 0 -14 6t-6 14v22q-84 -49 -154 -49q-72 0 -117.5 37.5t-45.5 124.5v12q0 83 55.5 122.5t185.5 39.5h74v40q0 63 -24 88t-83 25q-73 0 -153 -8h-5q-18 0 -18 16v35q0 16 21 19q76 13 155 13q195 0 195 -188v-349zM363 105v161h-74
q-89 0 -121 -21.5t-32 -76.5v-12q0 -51 22.5 -71t69.5 -20q61 0 135 40zM424 666q0 -17 -20 -17h-288q-20 0 -20 17v34q0 17 20 17h288q20 0 20 -17v-34z" />
    <glyph glyph-name="Abreve" unicode="&#x102;" horiz-adv-x="633" 
d="M604 16q0 -16 -17 -16h-59q-13 0 -17 15l-65 230h-259l-64 -230q-4 -15 -18 -15h-59q-17 0 -17 16q0 5 1 7l185 651q21 76 102 76q80 0 101 -75l185 -652q1 -2 1 -7zM427 324l-91 329q-5 18 -19 18q-15 0 -20 -18l-91 -329h221zM477 937v-4q-5 -66 -52.5 -103.5
t-110.5 -37.5t-110.5 37.5t-52.5 103.5v4q0 13 11 13h37q14 0 15 -16q4 -38 33 -59t67 -21t67 21t33 59q1 16 15 16h37q11 0 11 -13z" />
    <glyph glyph-name="abreve" unicode="&#x103;" horiz-adv-x="519" 
d="M451 20q0 -8 -6 -14t-14 -6h-46q-8 0 -14 6t-6 14v22q-84 -49 -154 -49q-72 0 -117.5 37.5t-45.5 124.5v12q0 83 55.5 122.5t185.5 39.5h74v40q0 63 -24 88t-83 25q-73 0 -153 -8h-5q-18 0 -18 16v35q0 16 21 19q76 13 155 13q195 0 195 -188v-349zM363 105v161h-74
q-89 0 -121 -21.5t-32 -76.5v-12q0 -51 22.5 -71t69.5 -20q61 0 135 40zM423 766v-4q-5 -66 -52.5 -103.5t-110.5 -37.5t-110.5 37.5t-52.5 103.5v4q0 13 11 13h37q14 0 15 -16q4 -38 33 -59t67 -21t67 21t33 59q1 16 15 16h37q11 0 11 -13z" />
    <glyph glyph-name="Aogonek" unicode="&#x104;" horiz-adv-x="633" 
d="M446 245h-259l-64 -230q-4 -15 -18 -15h-59q-17 0 -17 16q0 5 1 7l185 651q21 76 102 76q80 0 101 -75l183 -646q2 -8 2 -11q0 -9 -8 -15l-78 -45q-28 -16 -41 -30t-13 -32q0 -38 69 -38q14 0 29.5 2t25.5 3.5t12 1.5q5 0 5 -8v-36q0 -8 -11 -11q-30 -10 -72 -10
q-131 0 -131 96q0 35 17.5 54.5t58.5 43.5l44 26zM427 324l-91 329q-5 18 -19 18q-15 0 -20 -18l-91 -329h221z" />
    <glyph glyph-name="aogonek" unicode="&#x105;" horiz-adv-x="519" 
d="M443 4l-67 -46q-30 -20 -42 -34t-12 -33q0 -17 11.5 -25t44.5 -8q14 0 28.5 2.5t24 5t11.5 2.5q5 0 5 -8v-39q0 -8 -11 -11q-30 -10 -69 -10q-119 0 -119 93q0 31 16 51.5t49 42.5l52 33v22q-84 -49 -154 -49q-72 0 -117.5 37.5t-45.5 124.5v12q0 83 55.5 122.5
t185.5 39.5h74v40q0 63 -24 88t-83 25q-73 0 -153 -8h-5q-18 0 -18 16v35q0 16 21 19q76 13 155 13q195 0 195 -188v-349q0 -10 -8 -16zM363 105v161h-74q-89 0 -121 -21.5t-32 -76.5v-12q0 -51 22.5 -71t69.5 -20q61 0 135 40z" />
    <glyph glyph-name="Cacute" unicode="&#x106;" horiz-adv-x="545" 
d="M510 26q0 -16 -20 -20q-68 -13 -166 -13q-50 0 -94 15t-83.5 48t-63 96t-23.5 150v139q0 88 23.5 151t63.5 96t83.5 47.5t93.5 14.5q67 0 168 -16q16 -2 16 -13v-51q0 -11 -12 -11h-3q-108 9 -168 9q-174 0 -174 -227v-139q0 -119 47 -173t127 -54q69 0 165 8h4
q16 0 16 -16v-41zM443 943q0 -4 -4 -8l-113 -126q-14 -15 -23 -15h-54q-9 0 -9 7q0 6 4 10l98 124q12 15 24 15h66q11 0 11 -7z" />
    <glyph glyph-name="cacute" unicode="&#x107;" horiz-adv-x="452" 
d="M408 26q0 -18 -20 -22q-60 -11 -125 -11q-101 0 -157 65.5t-56 177.5v78q0 112 56 177.5t157 65.5q65 0 125 -11q12 -2 16 -6.5t4 -15.5v-36q0 -15 -17 -15h-4q-62 7 -124 7q-125 0 -125 -166v-78q0 -166 125 -166q62 0 124 7h4q17 0 17 -15v-36zM384 772q0 -4 -4 -8
l-113 -126q-13 -15 -23 -15h-54q-9 0 -9 7q0 6 4 10l98 124q12 15 24 15h66q11 0 11 -7z" />
    <glyph glyph-name="Ccircumflex" unicode="&#x108;" horiz-adv-x="545" 
d="M510 26q0 -16 -20 -20q-68 -13 -166 -13q-50 0 -94 15t-83.5 48t-63 96t-23.5 150v139q0 88 23.5 151t63.5 96t83.5 47.5t93.5 14.5q67 0 168 -16q16 -2 16 -13v-51q0 -11 -12 -11h-3q-108 9 -168 9q-174 0 -174 -227v-139q0 -119 47 -173t127 -54q69 0 165 8h4
q16 0 16 -16v-41zM473 801q0 -7 -9 -7h-52q-10 0 -23 15l-82 97l-83 -97q-13 -15 -23 -15h-52q-9 0 -9 7q0 6 4 10l96 124q12 15 24 15h85q13 0 25 -15l95 -124q4 -4 4 -10z" />
    <glyph glyph-name="ccircumflex" unicode="&#x109;" horiz-adv-x="452" 
d="M408 26q0 -18 -20 -22q-60 -11 -125 -11q-101 0 -157 65.5t-56 177.5v78q0 112 56 177.5t157 65.5q65 0 125 -11q12 -2 16 -6.5t4 -15.5v-36q0 -15 -17 -15h-4q-62 7 -124 7q-125 0 -125 -166v-78q0 -166 125 -166q62 0 124 7h4q17 0 17 -15v-36zM414 630q0 -7 -9 -7h-52
q-9 0 -23 15l-82 97l-83 -97q-13 -15 -23 -15h-52q-9 0 -9 7q0 6 4 10l96 124q12 15 24 15h85q13 0 25 -15l95 -124q4 -4 4 -10z" />
    <glyph glyph-name="Cdotaccent" unicode="&#x10a;" horiz-adv-x="545" 
d="M510 26q0 -16 -20 -20q-68 -13 -166 -13q-50 0 -94 15t-83.5 48t-63 96t-23.5 150v139q0 88 23.5 151t63.5 96t83.5 47.5t93.5 14.5q67 0 168 -16q16 -2 16 -13v-51q0 -11 -12 -11h-3q-108 9 -168 9q-174 0 -174 -227v-139q0 -119 47 -173t127 -54q69 0 165 8h4
q16 0 16 -16v-41zM352 814q0 -8 -5.5 -14t-13.5 -6h-48q-8 0 -14 6t-6 14v84q0 7 6 13t14 6h48q7 0 13 -5.5t6 -13.5v-84z" />
    <glyph glyph-name="cdotaccent" unicode="&#x10b;" horiz-adv-x="452" 
d="M408 26q0 -18 -20 -22q-60 -11 -125 -11q-101 0 -157 65.5t-56 177.5v78q0 112 56 177.5t157 65.5q65 0 125 -11q12 -2 16 -6.5t4 -15.5v-36q0 -15 -17 -15h-4q-62 7 -124 7q-125 0 -125 -166v-78q0 -166 125 -166q62 0 124 7h4q17 0 17 -15v-36zM299 658q0 -8 -5.5 -14
t-13.5 -6h-48q-8 0 -14 6t-6 14v84q0 7 6 13t14 6h48q8 0 13.5 -5.5t5.5 -13.5v-84z" />
    <glyph glyph-name="Ccaron" unicode="&#x10c;" horiz-adv-x="545" 
d="M510 26q0 -16 -20 -20q-68 -13 -166 -13q-50 0 -94 15t-83.5 48t-63 96t-23.5 150v139q0 88 23.5 151t63.5 96t83.5 47.5t93.5 14.5q67 0 168 -16q16 -2 16 -13v-51q0 -11 -12 -11h-3q-108 9 -168 9q-174 0 -174 -227v-139q0 -119 47 -173t127 -54q69 0 165 8h4
q16 0 16 -16v-41zM475 943q0 -6 -4 -10l-97 -124q-12 -15 -25 -15h-85q-12 0 -24 15l-98 124q-4 4 -4 10q0 7 9 7h54q9 0 23 -16l83 -96l82 96q14 16 23 16h54q9 0 9 -7z" />
    <glyph glyph-name="ccaron" unicode="&#x10d;" horiz-adv-x="452" 
d="M408 26q0 -18 -20 -22q-60 -11 -125 -11q-101 0 -157 65.5t-56 177.5v78q0 112 56 177.5t157 65.5q65 0 125 -11q12 -2 16 -6.5t4 -15.5v-36q0 -15 -17 -15h-4q-62 7 -124 7q-125 0 -125 -166v-78q0 -166 125 -166q62 0 124 7h4q17 0 17 -15v-36zM417 772q0 -6 -4 -10
l-97 -124q-12 -15 -25 -15h-85q-12 0 -24 15l-98 124q-4 4 -4 10q0 7 9 7h54q9 0 23 -16l83 -96l82 96q14 16 23 16h54q9 0 9 -7z" />
    <glyph glyph-name="Dcaron" unicode="&#x10e;" horiz-adv-x="641" 
d="M584 304q0 -156 -80 -233.5t-223 -77.5q-124 0 -182 10q-21 3 -21 25v687q0 22 21 25q58 10 182 10q144 0 223.5 -77t79.5 -234v-135zM493 304v135q0 127 -56.5 180t-155.5 53q-61 0 -111 -3v-596q32 -2 111 -2q212 0 212 233zM489 943q0 -6 -4 -10l-97 -124
q-12 -15 -25 -15h-85q-12 0 -24 15l-98 124q-4 4 -4 10q0 7 9 7h54q9 0 23 -16l83 -96l82 96q14 16 23 16h54q9 0 9 -7z" />
    <glyph glyph-name="dcaron" unicode="&#x10f;" horiz-adv-x="643" 
d="M668 743q0 -2 -2 -8l-75 -189q-7 -19 -19 -19h-41q-12 0 -12 12q0 5 1 7l57 189q6 19 20 19h58q13 0 13 -11zM473 33q0 -11 -4 -16t-17 -7q-88 -17 -184 -17q-109 0 -163.5 65.5t-54.5 181.5v72q0 119 55 182t163 63q61 0 117 -10v186q0 8 5.5 13.5t13.5 5.5h51
q8 0 13 -5.5t5 -13.5v-700zM385 76v397q-39 7 -117 7q-71 0 -100.5 -42t-29.5 -126v-72q0 -86 29.5 -128t100.5 -42q49 0 117 6z" />
    <glyph glyph-name="Dcroat" unicode="&#x110;" horiz-adv-x="641" 
d="M584 304q0 -156 -80 -233.5t-223 -77.5q-124 0 -182 10q-21 3 -21 25v319h-38q-8 0 -14 6t-6 14v38q0 8 6 14t14 6h38v290q0 22 21 25q58 10 182 10q144 0 223.5 -77t79.5 -234v-135zM493 304v135q0 127 -56.5 180t-155.5 53q-61 0 -111 -3v-244h103q8 0 14 -6t6 -14v-38
q0 -8 -6 -14t-14 -6h-103v-274q32 -2 111 -2q212 0 212 233z" />
    <glyph glyph-name="dcroat" unicode="&#x111;" horiz-adv-x="541" 
d="M473 33q0 -11 -4 -16t-17 -7q-88 -17 -184 -17q-109 0 -163.5 65.5t-54.5 181.5v72q0 119 55 182t163 63q61 0 117 -10v73h-160q-8 0 -14 6t-6 14v34q0 8 6 14t14 6h160v39q0 8 5.5 13.5t13.5 5.5h51q8 0 13 -5.5t5 -13.5v-39h35q8 0 14 -6t6 -14v-34q0 -8 -6 -14t-14 -6
h-35v-587zM385 76v397q-39 7 -117 7q-71 0 -100.5 -42t-29.5 -126v-72q0 -86 29.5 -128t100.5 -42q49 0 117 6z" />
    <glyph glyph-name="Emacron" unicode="&#x112;" horiz-adv-x="551" 
d="M496 12q0 -12 -10 -14q-48 -5 -195 -5q-107 0 -160 44t-53 142v385q0 98 53 142t160 44q132 0 195 -6q10 -2 10 -14v-50q0 -12 -11 -12h-193q-76 0 -99.5 -22t-23.5 -82v-139h307q8 0 14 -6t6 -14v-38q0 -8 -6 -14t-14 -6h-307v-168q0 -60 23.5 -82t99.5 -22h193
q11 0 11 -12v-51zM463 836q0 -17 -20 -17h-288q-20 0 -20 17v34q0 17 20 17h288q20 0 20 -17v-34z" />
    <glyph glyph-name="emacron" unicode="&#x113;" horiz-adv-x="544" 
d="M492 269q0 -22 -19 -22h-335v-14q0 -87 34 -125t105 -38q106 0 178 11h5q16 0 16 -14v-34q0 -19 -20 -23q-88 -17 -179 -17q-46 0 -84.5 12t-71.5 38t-52 74.5t-19 115.5v90q0 109 58 171.5t164 62.5q107 0 163.5 -62.5t56.5 -171.5v-54zM403 314v9q0 83 -32 120t-99 37
q-134 0 -134 -157v-9h265zM436 666q0 -17 -20 -17h-288q-20 0 -20 17v34q0 17 20 17h288q20 0 20 -17v-34z" />
    <glyph glyph-name="Ebreve" unicode="&#x114;" horiz-adv-x="551" 
d="M496 12q0 -12 -10 -14q-48 -5 -195 -5q-107 0 -160 44t-53 142v385q0 98 53 142t160 44q132 0 195 -6q10 -2 10 -14v-50q0 -12 -11 -12h-193q-76 0 -99.5 -22t-23.5 -82v-139h307q8 0 14 -6t6 -14v-38q0 -8 -6 -14t-14 -6h-307v-168q0 -60 23.5 -82t99.5 -22h193
q11 0 11 -12v-51zM470 939v-4q-5 -66 -52.5 -103.5t-110.5 -37.5t-110.5 37.5t-52.5 103.5v4q0 13 11 13h37q14 0 15 -16q4 -38 33 -59t67 -21t67 21t33 59q1 16 15 16h37q11 0 11 -13z" />
    <glyph glyph-name="ebreve" unicode="&#x115;" horiz-adv-x="544" 
d="M492 269q0 -22 -19 -22h-335v-14q0 -87 34 -125t105 -38q106 0 178 11h5q16 0 16 -14v-34q0 -19 -20 -23q-88 -17 -179 -17q-46 0 -84.5 12t-71.5 38t-52 74.5t-19 115.5v90q0 109 58 171.5t164 62.5q107 0 163.5 -62.5t56.5 -171.5v-54zM403 314v9q0 83 -32 120t-99 37
q-134 0 -134 -157v-9h265zM434 767v-4q-5 -66 -52.5 -103.5t-110.5 -37.5t-110.5 37.5t-52.5 103.5v4q0 13 11 13h37q14 0 15 -16q4 -38 33 -59t67 -21t67 21t33 59q1 16 15 16h37q11 0 11 -13z" />
    <glyph glyph-name="Edotaccent" unicode="&#x116;" horiz-adv-x="551" 
d="M496 12q0 -12 -10 -14q-48 -5 -195 -5q-107 0 -160 44t-53 142v385q0 98 53 142t160 44q132 0 195 -6q10 -2 10 -14v-50q0 -12 -11 -12h-193q-76 0 -99.5 -22t-23.5 -82v-139h307q8 0 14 -6t6 -14v-38q0 -8 -6 -14t-14 -6h-307v-168q0 -60 23.5 -82t99.5 -22h193
q11 0 11 -12v-51zM343 829q0 -8 -5.5 -14t-13.5 -6h-48q-8 0 -14 6t-6 14v84q0 7 6 13t14 6h48q8 0 13.5 -6t5.5 -13v-84z" />
    <glyph glyph-name="edotaccent" unicode="&#x117;" horiz-adv-x="544" 
d="M492 269q0 -22 -19 -22h-335v-14q0 -87 34 -125t105 -38q106 0 178 11h5q16 0 16 -14v-34q0 -19 -20 -23q-88 -17 -179 -17q-46 0 -84.5 12t-71.5 38t-52 74.5t-19 115.5v90q0 109 58 171.5t164 62.5q107 0 163.5 -62.5t56.5 -171.5v-54zM403 314v9q0 83 -32 120t-99 37
q-134 0 -134 -157v-9h265zM316 658q0 -8 -5.5 -14t-13.5 -6h-48q-8 0 -14 6t-6 14v84q0 7 6 13t14 6h48q7 0 13 -5.5t6 -13.5v-84z" />
    <glyph glyph-name="Eogonek" unicode="&#x118;" horiz-adv-x="551" 
d="M496 12q0 -12 -10 -14q-20 -2 -40 -2l-54 -38q-22 -15 -30.5 -21.5t-16 -17.5t-7.5 -23q0 -38 69 -38q14 0 30.5 2.5t27.5 5t13 2.5q5 0 5 -8v-39q0 -8 -11 -11q-30 -10 -76 -10q-131 0 -131 96q0 54 64 91l10 6h-48q-107 0 -160 44t-53 142v385q0 98 53 142t160 44
q132 0 195 -6q10 -2 10 -14v-50q0 -12 -11 -12h-193q-76 0 -99.5 -22t-23.5 -82v-139h307q8 0 14 -6t6 -14v-38q0 -8 -6 -14t-14 -6h-307v-168q0 -60 23.5 -82t99.5 -22h193q11 0 11 -12v-51z" />
    <glyph glyph-name="eogonek" unicode="&#x119;" horiz-adv-x="544" 
d="M403 314v9q0 83 -32 120t-99 37q-134 0 -134 -157v-9h265zM337 -5q-38 -2 -60 -2q-46 0 -84.5 12t-71.5 38t-52 74.5t-19 115.5v90q0 109 58 171.5t164 62.5q107 0 163.5 -62.5t56.5 -171.5v-54q0 -22 -19 -22h-335v-14q0 -87 34 -125t105 -38q27 0 56 1t51.5 3t41.5 4
t30 3t12 1q8 0 8 -15v-34q0 -14 -9 -20l-80 -55q-22 -15 -30.5 -21.5t-16 -17.5t-7.5 -23q0 -38 69 -38q14 0 30.5 2.5t27.5 5t13 2.5q5 0 5 -8v-39q0 -8 -11 -11q-30 -10 -76 -10q-131 0 -131 96q0 52 64 91z" />
    <glyph glyph-name="Ecaron" unicode="&#x11a;" horiz-adv-x="551" 
d="M496 12q0 -12 -10 -14q-48 -5 -195 -5q-107 0 -160 44t-53 142v385q0 98 53 142t160 44q132 0 195 -6q10 -2 10 -14v-50q0 -12 -11 -12h-193q-76 0 -99.5 -22t-23.5 -82v-139h307q8 0 14 -6t6 -14v-38q0 -8 -6 -14t-14 -6h-307v-168q0 -60 23.5 -82t99.5 -22h193
q11 0 11 -12v-51zM455 943q0 -6 -4 -10l-97 -124q-12 -15 -25 -15h-85q-12 0 -24 15l-98 124q-4 4 -4 10q0 7 9 7h54q9 0 23 -16l83 -96l82 96q14 16 23 16h54q9 0 9 -7z" />
    <glyph glyph-name="ecaron" unicode="&#x11b;" horiz-adv-x="544" 
d="M492 269q0 -22 -19 -22h-335v-14q0 -87 34 -125t105 -38q106 0 178 11h5q16 0 16 -14v-34q0 -19 -20 -23q-88 -17 -179 -17q-46 0 -84.5 12t-71.5 38t-52 74.5t-19 115.5v90q0 109 58 171.5t164 62.5q107 0 163.5 -62.5t56.5 -171.5v-54zM403 314v9q0 83 -32 120t-99 37
q-134 0 -134 -157v-9h265zM441 772q0 -6 -4 -10l-97 -124q-12 -15 -25 -15h-85q-12 0 -24 15l-98 124q-4 4 -4 10q0 7 9 7h54q9 0 23 -16l83 -96l82 96q14 16 23 16h54q9 0 9 -7z" />
    <glyph glyph-name="Gcircumflex" unicode="&#x11c;" horiz-adv-x="612" 
d="M534 30q0 -19 -18 -22q-92 -15 -199 -15q-49 0 -93.5 17t-82.5 52t-60.5 97.5t-22.5 144.5v134q0 87 23.5 150.5t63.5 97.5t84.5 49t96.5 15q101 0 190 -14q17 -2 17 -15v-50q0 -10 -13 -10h-4q-83 7 -190 7q-177 0 -177 -230v-134q0 -117 46.5 -173.5t121.5 -56.5
q54 0 126 6v286q0 20 18 20h54q8 0 13.5 -6t5.5 -14v-336zM486 801q0 -7 -9 -7h-52q-9 0 -23 15l-82 97l-83 -97q-13 -15 -23 -15h-52q-9 0 -9 7q0 6 4 10l96 124q12 15 24 15h85q13 0 25 -15l95 -124q4 -4 4 -10z" />
    <glyph glyph-name="gcircumflex" unicode="&#x11d;" horiz-adv-x="559" 
d="M523 502q0 -16 -18 -19l-36 -7q34 -36 34 -103v-8q0 -171 -222 -171q-68 0 -116 20q-25 -12 -25 -34q0 -24 31 -32l149 -38q36 -9 58.5 -16t51 -19.5t44 -26.5t27 -36t11.5 -49v-8q0 -155 -228 -155q-116 0 -173 41.5t-57 117.5v9q0 79 63 127l-7 3q-46 20 -46 78v1
q0 49 41 72q-46 43 -46 116v8q0 77 51.5 127t170.5 50h219q9 0 16 -6.5t7 -15.5v-26zM416 365v8q0 50 -30 78.5t-105 28.5q-77 0 -106 -29t-29 -78v-8q0 -102 135 -102q76 0 105.5 26.5t29.5 75.5zM424 -45v8q0 28 -26 44t-96 34l-113 29q-25 -21 -37 -43.5t-12 -58.5v-9
q0 -45 32.5 -68t111.5 -23q81 0 110.5 21t29.5 66zM455 630q0 -7 -9 -7h-52q-10 0 -23 15l-82 97l-83 -97q-13 -15 -23 -15h-52q-9 0 -9 7q0 6 4 10l96 124q12 15 24 15h85q13 0 25 -15l95 -124q4 -4 4 -10z" />
    <glyph glyph-name="Gbreve" unicode="&#x11e;" horiz-adv-x="612" 
d="M534 30q0 -19 -18 -22q-92 -15 -199 -15q-49 0 -93.5 17t-82.5 52t-60.5 97.5t-22.5 144.5v134q0 87 23.5 150.5t63.5 97.5t84.5 49t96.5 15q101 0 190 -14q17 -2 17 -15v-50q0 -10 -13 -10h-4q-83 7 -190 7q-177 0 -177 -230v-134q0 -117 46.5 -173.5t121.5 -56.5
q54 0 126 6v286q0 20 18 20h54q8 0 13.5 -6t5.5 -14v-336zM469 937v-4q-5 -66 -52.5 -103.5t-110.5 -37.5t-110.5 37.5t-52.5 103.5v4q0 13 11 13h37q14 0 15 -16q4 -38 33 -59t67 -21t67 21t33 59q1 16 15 16h37q11 0 11 -13z" />
    <glyph glyph-name="gbreve" unicode="&#x11f;" horiz-adv-x="559" 
d="M523 502q0 -16 -18 -19l-36 -7q34 -36 34 -103v-8q0 -171 -222 -171q-68 0 -116 20q-25 -12 -25 -34q0 -24 31 -32l149 -38q36 -9 58.5 -16t51 -19.5t44 -26.5t27 -36t11.5 -49v-8q0 -155 -228 -155q-116 0 -173 41.5t-57 117.5v9q0 79 63 127l-7 3q-46 20 -46 78v1
q0 49 41 72q-46 43 -46 116v8q0 77 51.5 127t170.5 50h219q9 0 16 -6.5t7 -15.5v-26zM416 365v8q0 50 -30 78.5t-105 28.5q-77 0 -106 -29t-29 -78v-8q0 -102 135 -102q76 0 105.5 26.5t29.5 75.5zM424 -45v8q0 28 -26 44t-96 34l-113 29q-25 -21 -37 -43.5t-12 -58.5v-9
q0 -45 32.5 -68t111.5 -23q81 0 110.5 21t29.5 66zM443 766v-4q-5 -66 -52.5 -103.5t-110.5 -37.5t-110.5 37.5t-52.5 103.5v4q0 13 11 13h37q14 0 15 -16q4 -38 33 -59t67 -21t67 21t33 59q1 16 15 16h37q11 0 11 -13z" />
    <glyph glyph-name="Gdotaccent" unicode="&#x120;" horiz-adv-x="612" 
d="M534 30q0 -19 -18 -22q-92 -15 -199 -15q-49 0 -93.5 17t-82.5 52t-60.5 97.5t-22.5 144.5v134q0 87 23.5 150.5t63.5 97.5t84.5 49t96.5 15q101 0 190 -14q17 -2 17 -15v-50q0 -10 -13 -10h-4q-83 7 -190 7q-177 0 -177 -230v-134q0 -117 46.5 -173.5t121.5 -56.5
q54 0 126 6v286q0 20 18 20h54q8 0 13.5 -6t5.5 -14v-336zM365 814q0 -8 -5.5 -14t-13.5 -6h-48q-8 0 -14 6t-6 14v84q0 7 6 13t14 6h48q8 0 13.5 -5.5t5.5 -13.5v-84z" />
    <glyph glyph-name="gdotaccent" unicode="&#x121;" horiz-adv-x="559" 
d="M523 502q0 -16 -18 -19l-36 -7q34 -36 34 -103v-8q0 -171 -222 -171q-68 0 -116 20q-25 -12 -25 -34q0 -24 31 -32l149 -38q36 -9 58.5 -16t51 -19.5t44 -26.5t27 -36t11.5 -49v-8q0 -155 -228 -155q-116 0 -173 41.5t-57 117.5v9q0 79 63 127l-7 3q-46 20 -46 78v1
q0 49 41 72q-46 43 -46 116v8q0 77 51.5 127t170.5 50h219q9 0 16 -6.5t7 -15.5v-26zM416 365v8q0 50 -30 78.5t-105 28.5q-77 0 -106 -29t-29 -78v-8q0 -102 135 -102q76 0 105.5 26.5t29.5 75.5zM424 -45v8q0 28 -26 44t-96 34l-113 29q-25 -21 -37 -43.5t-12 -58.5v-9
q0 -45 32.5 -68t111.5 -23q81 0 110.5 21t29.5 66zM334 658q0 -8 -5.5 -14t-13.5 -6h-48q-8 0 -14 6t-6 14v84q0 7 6 13t14 6h48q7 0 13 -5.5t6 -13.5v-84z" />
    <glyph glyph-name="Gcommaaccent" unicode="&#x122;" horiz-adv-x="612" 
d="M291 -49h69q11 0 11 -11l-1 -8l-54 -109q-3 -6 -4.5 -8.5t-4 -5.5t-6 -4t-9.5 -1h-41q-9 0 -9 8q0 4 1 8l28 112q4 19 20 19zM534 30q0 -19 -18 -22q-92 -15 -199 -15q-49 0 -93.5 17t-82.5 52t-60.5 97.5t-22.5 144.5v134q0 87 23.5 150.5t63.5 97.5t84.5 49t96.5 15
q101 0 190 -14q17 -2 17 -15v-50q0 -10 -13 -10h-4q-83 7 -190 7q-177 0 -177 -230v-134q0 -117 46.5 -173.5t121.5 -56.5q54 0 126 6v286q0 20 18 20h54q8 0 13.5 -6t5.5 -14v-336z" />
    <glyph glyph-name="gcommaaccent" unicode="&#x123;" horiz-adv-x="559" 
d="M311 605h-69q-12 0 -12 11q0 5 2 8l54 109q3 6 4.5 8.5t4 5.5t6 4t9.5 1h41q9 0 9 -8q0 -4 -1 -8l-28 -112q-4 -19 -20 -19zM523 502q0 -16 -18 -19l-36 -7q34 -36 34 -103v-8q0 -171 -222 -171q-68 0 -116 20q-25 -12 -25 -34q0 -24 31 -32l149 -38q36 -9 58.5 -16
t51 -19.5t44 -26.5t27 -36t11.5 -49v-8q0 -155 -228 -155q-116 0 -173 41.5t-57 117.5v9q0 79 63 127l-7 3q-46 20 -46 78v1q0 49 41 72q-46 43 -46 116v8q0 77 51.5 127t170.5 50h219q9 0 16 -6.5t7 -15.5v-26zM416 365v8q0 50 -30 78.5t-105 28.5q-77 0 -106 -29t-29 -78
v-8q0 -102 135 -102q76 0 105.5 26.5t29.5 75.5zM424 -45v8q0 28 -26 44t-96 34l-113 29q-25 -21 -37 -43.5t-12 -58.5v-9q0 -45 32.5 -68t111.5 -23q81 0 110.5 21t29.5 66z" />
    <glyph glyph-name="Hcircumflex" unicode="&#x124;" horiz-adv-x="680" 
d="M602 20q0 -8 -6 -14t-14 -6h-51q-8 0 -14 6t-6 14v332h-342v-332q0 -8 -6 -14t-14 -6h-51q-8 0 -14 6t-6 14v703q0 8 6 14t14 6h51q8 0 14 -6t6 -14v-290h342v290q0 8 6 14t14 6h51q8 0 14 -6t6 -14v-703zM507 800q0 -7 -9 -7h-52q-10 0 -23 15l-82 97l-83 -97
q-14 -15 -23 -15h-52q-9 0 -9 7q0 6 4 10l96 124q12 15 24 15h85q13 0 25 -15l95 -124q4 -4 4 -10z" />
    <glyph glyph-name="hcircumflex" unicode="&#x125;" horiz-adv-x="557" 
d="M489 20q0 -8 -6 -14t-14 -6h-48q-8 0 -14 6t-6 14v329q0 71 -27.5 101t-79.5 30q-76 0 -138 -28v-432q0 -8 -6 -14t-14 -6h-49q-8 0 -13.5 6t-5.5 14v712q0 8 5.5 14t13.5 6h50q8 0 13.5 -6t5.5 -14v-206q71 31 153 31q84 0 132 -51t48 -157v-329zM456 800q0 -7 -9 -7
h-52q-9 0 -23 15l-82 97l-83 -97q-14 -15 -23 -15h-52q-9 0 -9 7q0 6 4 10l96 124q12 15 24 15h85q13 0 25 -15l95 -124q4 -4 4 -10z" />
    <glyph glyph-name="Hbar" unicode="&#x126;" horiz-adv-x="680" 
d="M660 562q0 -8 -6 -14t-14 -6h-38v-522q0 -8 -6 -14t-14 -6h-51q-8 0 -14 6t-6 14v332h-342v-332q0 -8 -6 -14t-14 -6h-51q-8 0 -14 6t-6 14v522h-38q-8 0 -14 6t-6 14v41q0 8 6 14t14 6h38v100q0 8 6 14t14 6h51q8 0 14 -6t6 -14v-100h342v100q0 8 6 14t14 6h51
q8 0 14 -6t6 -14v-100h38q8 0 14 -6t6 -14v-41zM169 433h342v109h-342v-109z" />
    <glyph glyph-name="hbar" unicode="&#x127;" horiz-adv-x="557" 
d="M34 697h34v35q0 8 5.5 14t13.5 6h50q8 0 13.5 -6t5.5 -14v-35h161q8 0 14 -6t6 -14v-34q0 -8 -6 -14t-14 -6h-161v-97q71 31 153 31q84 0 132 -51t48 -157v-329q0 -8 -6 -14t-14 -6h-48q-8 0 -14 6t-6 14v329q0 71 -27.5 101t-79.5 30q-76 0 -138 -28v-432q0 -8 -6 -14
t-14 -6h-49q-8 0 -13.5 6t-5.5 14v603h-34q-8 0 -14 6t-6 14v34q0 8 6 14t14 6z" />
    <glyph glyph-name="Itilde" unicode="&#x128;" horiz-adv-x="267" 
d="M179 20q0 -8 -5 -14t-13 -6h-55q-7 0 -12.5 6t-5.5 14v704q0 19 18 19h55q8 0 13 -5.5t5 -13.5v-704zM310 891q0 -53 -22.5 -79t-71.5 -26q-37 0 -64 21l-61 49q-28 22 -41 22q-31 0 -31 -46v-21q0 -7 -5 -12t-12 -5h-31q-7 0 -11.5 5t-4.5 12v21q0 53 25 81t70 28
q29 0 60 -24l71 -56q17 -14 35 -14q16 0 23 9.5t7 34.5v23q0 7 5 12t12 5h31q7 0 11.5 -5t4.5 -12v-23z" />
    <glyph glyph-name="itilde" unicode="&#x129;" horiz-adv-x="247" 
d="M167 20q0 -8 -6 -14t-14 -6h-48q-8 0 -14 6t-6 14v510q0 8 6 14t14 6h48q8 0 14 -6t6 -14v-510zM301 731q0 -53 -22.5 -79t-71.5 -26q-37 0 -64 21l-61 49q-28 22 -41 22q-31 0 -31 -46v-21q0 -7 -5 -12t-12 -5h-31q-7 0 -11.5 5t-4.5 12v21q0 53 25 81t70 28
q29 0 60 -24l71 -56q17 -14 35 -14q16 0 23 9.5t7 34.5v23q0 7 5 12t12 5h31q7 0 11.5 -5t4.5 -12v-23z" />
    <glyph glyph-name="Imacron" unicode="&#x12a;" horiz-adv-x="267" 
d="M179 20q0 -8 -5 -14t-13 -6h-55q-7 0 -12.5 6t-5.5 14v704q0 19 18 19h55q8 0 13 -5.5t5 -13.5v-704zM297 837q0 -17 -20 -17h-288q-20 0 -20 17v34q0 17 20 17h288q20 0 20 -17v-34z" />
    <glyph glyph-name="imacron" unicode="&#x12b;" horiz-adv-x="247" 
d="M167 20q0 -8 -6 -14t-14 -6h-48q-8 0 -14 6t-6 14v510q0 8 6 14t14 6h48q8 0 14 -6t6 -14v-510zM287 666q0 -17 -20 -17h-288q-20 0 -20 17v34q0 17 20 17h288q20 0 20 -17v-34z" />
    <glyph glyph-name="Ibreve" unicode="&#x12c;" horiz-adv-x="267" 
d="M179 20q0 -8 -5 -14t-13 -6h-55q-7 0 -12.5 6t-5.5 14v704q0 19 18 19h55q8 0 13 -5.5t5 -13.5v-704zM296 938v-4q-5 -66 -52.5 -103.5t-110.5 -37.5t-110.5 37.5t-52.5 103.5v4q0 13 11 13h37q14 0 15 -16q4 -38 33 -59t67 -21t67 21t33 59q1 16 15 16h37q11 0 11 -13z
" />
    <glyph glyph-name="ibreve" unicode="&#x12d;" horiz-adv-x="247" 
d="M167 20q0 -8 -6 -14t-14 -6h-48q-8 0 -14 6t-6 14v510q0 8 6 14t14 6h48q8 0 14 -6t6 -14v-510zM286 766v-4q-5 -66 -52.5 -103.5t-110.5 -37.5t-110.5 37.5t-52.5 103.5v4q0 13 11 13h37q14 0 15 -16q4 -38 33 -59t67 -21t67 21t33 59q1 16 15 16h37q11 0 11 -13z" />
    <glyph glyph-name="Iogonek" unicode="&#x12e;" horiz-adv-x="267" 
d="M8 -104q0 55 62 99l18 13v716q0 19 18 19h55q8 0 13 -5.5t5 -13.5v-707q0 -11 -8 -17l-36 -29q-35 -28 -44.5 -41.5t-9.5 -33.5q0 -38 69 -38q14 0 30.5 2.5t27.5 5t13 2.5q5 0 5 -8v-39q0 -8 -11 -11q-30 -10 -76 -10q-131 0 -131 96z" />
    <glyph glyph-name="iogonek" unicode="&#x12f;" horiz-adv-x="247" 
d="M-2 -104q0 55 62 99l18 13v523q0 19 18 19h53q8 0 13 -5.5t5 -13.5v-514q0 -11 -8 -17l-36 -29q-34 -28 -43 -41.5t-9 -33.5q0 -38 69 -38q14 0 30.5 2.5t27.5 5t13 2.5q5 0 5 -8v-39q0 -8 -11 -11q-30 -10 -76 -10q-131 0 -131 96zM169 658q0 -8 -6 -14t-14 -6h-51
q-8 0 -14 6t-6 14v80q0 8 6 14t14 6h51q8 0 14 -6t6 -14v-80z" />
    <glyph glyph-name="Idotaccent" unicode="&#x130;" horiz-adv-x="267" 
d="M179 20q0 -8 -5 -14t-13 -6h-55q-7 0 -12.5 6t-5.5 14v704q0 19 18 19h55q8 0 13 -5.5t5 -13.5v-704zM177 829q0 -8 -5.5 -14t-13.5 -6h-48q-8 0 -14 6t-6 14v84q0 7 6 13t14 6h48q8 0 13.5 -6t5.5 -13v-84z" />
    <glyph glyph-name="dotlessi" unicode="&#x131;" horiz-adv-x="247" 
d="M167 20q0 -8 -6 -14t-14 -6h-48q-8 0 -14 6t-6 14v510q0 8 6 14t14 6h48q8 0 14 -6t6 -14v-510z" />
    <glyph glyph-name="IJ" unicode="&#x132;" horiz-adv-x="524" 
d="M179 20q0 -8 -5 -14t-13 -6h-55q-7 0 -12.5 6t-5.5 14v704q0 19 18 19h55q8 0 13 -5.5t5 -13.5v-704zM446 -37q0 -73 -37 -108t-118 -35q-37 0 -53 8q-6 3 -6 11v37q0 17 20 17h39q38 0 51 15.5t13 54.5v761q0 8 5.5 13.5t13.5 5.5h53q7 0 13 -5.5t6 -13.5v-761z" />
    <glyph glyph-name="ij" unicode="&#x133;" horiz-adv-x="494" 
d="M169 658q0 -8 -6 -14t-14 -6h-51q-8 0 -14 6t-6 14v80q0 8 6 14t14 6h51q8 0 14 -6t6 -14v-80zM167 20q0 -8 -6 -14t-14 -6h-48q-8 0 -14 6t-6 14v510q0 8 6 14t14 6h48q8 0 14 -6t6 -14v-510zM416 657q0 -8 -6 -13.5t-14 -5.5h-51q-8 0 -14 5.5t-6 13.5v81q0 8 6 14
t14 6h51q8 0 14 -6t6 -14v-81zM414 -64q0 -75 -30.5 -104t-94.5 -29q-27 0 -54 4q-18 3 -18 16v37q0 14 21 14h41q28 0 37.5 12t9.5 50v594q0 8 5 14t13 6h52q18 0 18 -20v-594z" />
    <glyph glyph-name="Jcircumflex" unicode="&#x134;" horiz-adv-x="257" 
d="M179 -37q0 -73 -37 -108t-118 -35q-37 0 -53 8q-6 3 -6 11v37q0 17 20 17h39q38 0 51 15.5t13 54.5v761q0 8 6 13.5t13 5.5h53q8 0 13.5 -5.5t5.5 -13.5v-761zM301 801q0 -7 -9 -7h-52q-9 0 -23 15l-82 97l-83 -97q-14 -15 -23 -15h-52q-9 0 -9 7q0 6 4 10l96 124
q12 15 24 15h85q13 0 25 -15l95 -124q4 -4 4 -10z" />
    <glyph glyph-name="jcircumflex" unicode="&#x135;" horiz-adv-x="247" 
d="M167 -64q0 -75 -30.5 -104t-94.5 -29q-27 0 -54 4q-18 3 -18 16v37q0 14 21 14h41q28 0 37.5 12t9.5 50v594q0 8 5 14t13 6h52q18 0 18 -20v-594zM288 630q0 -7 -9 -7h-52q-9 0 -23 15l-82 97l-83 -97q-14 -15 -23 -15h-52q-9 0 -9 7q0 6 4 10l96 124q12 15 24 15h85
q13 0 25 -15l95 -124q4 -4 4 -10z" />
    <glyph glyph-name="Kcommaaccent" unicode="&#x136;" horiz-adv-x="607" 
d="M288 -49h69q11 0 11 -11l-1 -8l-54 -109q-3 -6 -4.5 -8.5t-4 -5.5t-6 -4t-9.5 -1h-41q-9 0 -9 8q0 4 1 8l28 112q4 19 20 19zM564 10q0 -10 -13 -10h-78q-13 0 -22 10l-282 343v-333q0 -8 -5 -14t-13 -6h-55q-7 0 -12.5 6t-5.5 14v704q0 8 5.5 13.5t13.5 5.5h53
q8 0 13.5 -5.5t5.5 -13.5v-323l288 333q9 9 20 9h72q14 0 14 -11q0 -6 -4 -10l-301 -340l301 -360q5 -5 5 -12z" />
    <glyph glyph-name="kcommaaccent" unicode="&#x137;" horiz-adv-x="496" 
d="M233 -49h69q11 0 11 -11l-1 -8l-54 -109q-3 -6 -4.5 -8.5t-4 -5.5t-6 -4t-9.5 -1h-41q-9 0 -9 8q0 4 1 8l28 112q4 19 20 19zM461 13q0 -13 -11 -13h-72q-13 0 -23 13l-199 246v-239q0 -8 -6 -14t-14 -6h-48q-8 0 -14 6t-6 14v712q0 8 6 14t14 6h48q8 0 14 -6t6 -14v-416
l200 225q8 9 20 9h70q15 0 15 -11q0 -6 -5 -11l-220 -238l222 -268q3 -3 3 -9z" />
    <glyph glyph-name="kgreenlandic" unicode="&#x138;" horiz-adv-x="496" 
d="M461 13q0 -13 -11 -13h-72q-13 0 -23 13l-199 246v-239q0 -8 -6 -14t-14 -6h-48q-8 0 -14 6t-6 14v510q0 8 6 14t14 6h48q8 0 14 -6t6 -14v-214l200 225q8 9 20 9h70q15 0 15 -11q0 -6 -5 -11l-220 -238l222 -268q3 -3 3 -9z" />
    <glyph glyph-name="Lacute" unicode="&#x139;" horiz-adv-x="514" 
d="M496 16q0 -12 -10 -14q-58 -9 -195 -9q-36 0 -63.5 3.5t-57 15t-48.5 31t-31.5 54t-12.5 82.5v544q0 8 6 14t14 6h51q8 0 14 -6t6 -14v-544q0 -60 23.5 -82t99.5 -22h193q11 0 11 -12v-47zM394 943q0 -4 -4 -8l-113 -126q-13 -15 -23 -15h-54q-9 0 -9 7q0 6 4 10l98 124
q12 15 24 15h66q11 0 11 -7z" />
    <glyph glyph-name="lacute" unicode="&#x13a;" horiz-adv-x="244" 
d="M166 20q0 -8 -5 -14t-13 -6h-52q-7 0 -12.5 6t-5.5 14v713q0 19 18 19h52q8 0 13 -5.5t5 -13.5v-713zM258 945q0 -4 -4 -8l-113 -126q-13 -15 -23 -15h-54q-9 0 -9 7q0 6 4 10l98 124q12 15 24 15h66q11 0 11 -7z" />
    <glyph glyph-name="Lcommaaccent" unicode="&#x13b;" horiz-adv-x="514" 
d="M252 -49h69q11 0 11 -11l-1 -8l-54 -109q-3 -6 -4.5 -8.5t-4 -5.5t-6 -4t-9.5 -1h-41q-9 0 -9 8q0 4 1 8l28 112q4 19 20 19zM496 16q0 -12 -10 -14q-58 -9 -195 -9q-36 0 -63.5 3.5t-57 15t-48.5 31t-31.5 54t-12.5 82.5v544q0 8 6 14t14 6h51q8 0 14 -6t6 -14v-544
q0 -60 23.5 -82t99.5 -22h193q11 0 11 -12v-47z" />
    <glyph glyph-name="lcommaaccent" unicode="&#x13c;" horiz-adv-x="244" 
d="M90 -49h69q11 0 11 -11l-1 -8l-54 -109q-3 -6 -4.5 -8.5t-4 -5.5t-6 -4t-9.5 -1h-41q-9 0 -9 8q0 4 1 8l28 112q4 19 20 19zM166 20q0 -8 -5 -14t-13 -6h-52q-7 0 -12.5 6t-5.5 14v713q0 19 18 19h52q8 0 13 -5.5t5 -13.5v-713z" />
    <glyph glyph-name="Lcaron" unicode="&#x13d;" horiz-adv-x="514" 
d="M428 741q0 -2 -2 -8l-75 -189q-7 -19 -19 -19h-41q-12 0 -12 12q0 5 1 7l57 189q6 19 20 19h58q13 0 13 -11zM496 16q0 -12 -10 -14q-58 -9 -195 -9q-36 0 -63.5 3.5t-57 15t-48.5 31t-31.5 54t-12.5 82.5v544q0 8 6 14t14 6h51q8 0 14 -6t6 -14v-544q0 -60 23.5 -82
t99.5 -22h193q11 0 11 -12v-47z" />
    <glyph glyph-name="lcaron" unicode="&#x13e;" horiz-adv-x="346" 
d="M371 743q0 -2 -2 -8l-75 -189q-7 -19 -19 -19h-41q-12 0 -12 12q0 5 1 7l57 189q6 19 20 19h58q13 0 13 -11zM166 20q0 -8 -5 -14t-13 -6h-52q-7 0 -12.5 6t-5.5 14v713q0 19 18 19h52q8 0 13 -5.5t5 -13.5v-713z" />
    <glyph glyph-name="Ldot" unicode="&#x13f;" horiz-adv-x="514" 
d="M496 16q0 -12 -10 -14q-58 -9 -195 -9q-36 0 -63.5 3.5t-57 15t-48.5 31t-31.5 54t-12.5 82.5v544q0 8 6 14t14 6h51q8 0 14 -6t6 -14v-544q0 -60 23.5 -82t99.5 -22h193q11 0 11 -12v-47zM402 323q0 -8 -5.5 -14t-13.5 -6h-48q-8 0 -14 6t-6 14v84q0 7 6 13t14 6h48
q7 0 13 -6t6 -13v-84z" />
    <glyph glyph-name="ldot" unicode="&#x140;" horiz-adv-x="369" 
d="M166 20q0 -8 -5 -14t-13 -6h-52q-7 0 -12.5 6t-5.5 14v713q0 19 18 19h52q8 0 13 -5.5t5 -13.5v-713zM334 326q0 -8 -5.5 -14t-13.5 -6h-48q-8 0 -14 6t-6 14v84q0 7 6 13t14 6h48q7 0 13 -5.5t6 -13.5v-84z" />
    <glyph glyph-name="Lslash" unicode="&#x141;" horiz-adv-x="514" 
d="M496 16q0 -12 -10 -14q-58 -9 -195 -9q-107 0 -160 44t-53 142v117l-61 -75q-5 -6 -11 -6q-7 0 -7 6v63v1q0 13 7 22l72 89v327q0 8 6 14t14 6h51q8 0 14 -6t6 -14v-216l68 84q6 7 11 7q7 0 7 -7v-65q0 -13 -8 -23l-78 -96v-228q0 -60 23.5 -82t99.5 -22h193q11 0 11 -12
v-47z" />
    <glyph glyph-name="lslash" unicode="&#x142;" horiz-adv-x="244" 
d="M248 522q0 -8 -6 -16l-76 -94v-392q0 -20 -18 -20h-52q-7 0 -12.5 6t-5.5 14v284l-68 -83q-4 -5 -9 -5q-9 0 -9 8v60v1q0 14 7 22l79 97v329q0 19 18 19h52q8 0 13 -5.5t5 -13.5v-221l64 79q4 5 9 5q9 0 9 -9v-65z" />
    <glyph glyph-name="Nacute" unicode="&#x143;" horiz-adv-x="680" 
d="M602 29q0 -12 -8.5 -20.5t-20.5 -8.5h-62q-24 0 -32 16l-309 587q-2 3 -3 3t-1 -3v-584q0 -8 -5.5 -13.5t-12.5 -5.5h-52q-18 0 -18 12v703q0 12 8.5 20t20.5 8h55q20 0 27.5 -4t13.5 -16l307 -584l2 -3q1 0 1 3v585q0 8 5.5 13.5t12.5 5.5h53q18 0 18 -19v-695zM477 943
q0 -4 -4 -8l-113 -126q-14 -15 -23 -15h-54q-9 0 -9 7q0 6 4 10l98 124q12 15 24 15h66q11 0 11 -7z" />
    <glyph glyph-name="nacute" unicode="&#x144;" horiz-adv-x="557" 
d="M489 20q0 -8 -6 -14t-14 -6h-48q-8 0 -14 6t-6 14v329q0 74 -25.5 103t-84.5 29q-57 0 -135 -39v-422q0 -8 -6 -14t-14 -6h-49q-8 0 -13.5 6t-5.5 14v510q0 8 5.5 14t13.5 6h50q8 0 13.5 -6t5.5 -14v-19q82 46 159 46q174 0 174 -208v-329zM415 772q0 -4 -4 -8l-113 -126
q-14 -15 -23 -15h-54q-9 0 -9 7q0 6 4 10l98 124q12 15 24 15h66q11 0 11 -7z" />
    <glyph glyph-name="Ncommaaccent" unicode="&#x145;" horiz-adv-x="680" 
d="M315 -49h69q11 0 11 -11l-1 -8l-54 -109q-3 -6 -4.5 -8.5t-4 -5.5t-6 -4t-9.5 -1h-41q-9 0 -9 8q0 4 1 8l28 112q4 19 20 19zM602 29q0 -12 -8.5 -20.5t-20.5 -8.5h-62q-24 0 -32 16l-309 587q-2 3 -3 3t-1 -3v-584q0 -8 -5.5 -13.5t-12.5 -5.5h-52q-18 0 -18 12v703
q0 12 8.5 20t20.5 8h55q20 0 27.5 -4t13.5 -16l307 -584l2 -3q1 0 1 3v585q0 8 5.5 13.5t12.5 5.5h53q18 0 18 -19v-695z" />
    <glyph glyph-name="ncommaaccent" unicode="&#x146;" horiz-adv-x="557" 
d="M245 -49h69q11 0 11 -11l-1 -8l-54 -109q-3 -6 -4.5 -8.5t-4 -5.5t-6 -4t-9.5 -1h-41q-9 0 -9 8q0 4 1 8l28 112q4 19 20 19zM489 20q0 -8 -6 -14t-14 -6h-48q-8 0 -14 6t-6 14v329q0 74 -25.5 103t-84.5 29q-57 0 -135 -39v-422q0 -8 -6 -14t-14 -6h-49q-8 0 -13.5 6
t-5.5 14v510q0 8 5.5 14t13.5 6h50q8 0 13.5 -6t5.5 -14v-19q82 46 159 46q174 0 174 -208v-329z" />
    <glyph glyph-name="Ncaron" unicode="&#x147;" horiz-adv-x="680" 
d="M602 29q0 -12 -8.5 -20.5t-20.5 -8.5h-62q-24 0 -32 16l-309 587q-2 3 -3 3t-1 -3v-584q0 -8 -5.5 -13.5t-12.5 -5.5h-52q-18 0 -18 12v703q0 12 8.5 20t20.5 8h55q20 0 27.5 -4t13.5 -16l307 -584l2 -3q1 0 1 3v585q0 8 5.5 13.5t12.5 5.5h53q18 0 18 -19v-695zM509 943
q0 -6 -4 -10l-97 -124q-12 -15 -25 -15h-85q-12 0 -24 15l-98 124q-4 4 -4 10q0 7 9 7h54q9 0 23 -16l83 -96l82 96q14 16 23 16h54q9 0 9 -7z" />
    <glyph glyph-name="ncaron" unicode="&#x148;" horiz-adv-x="557" 
d="M489 20q0 -8 -6 -14t-14 -6h-48q-8 0 -14 6t-6 14v329q0 74 -25.5 103t-84.5 29q-57 0 -135 -39v-422q0 -8 -6 -14t-14 -6h-49q-8 0 -13.5 6t-5.5 14v510q0 8 5.5 14t13.5 6h50q8 0 13.5 -6t5.5 -14v-19q82 46 159 46q174 0 174 -208v-329zM447 772q0 -6 -4 -10l-97 -124
q-12 -15 -25 -15h-85q-12 0 -24 15l-98 124q-4 4 -4 10q0 7 9 7h54q9 0 23 -16l83 -96l82 96q14 16 23 16h54q9 0 9 -7z" />
    <glyph glyph-name="napostrophe" unicode="&#x149;" horiz-adv-x="663" 
d="M157 741q0 -5 -1 -8l-61 -189q-5 -19 -19 -19h-38q-9 0 -9 10q0 6 1 9l37 189q4 19 20 19h59q11 0 11 -11zM595 20q0 -8 -6 -14t-14 -6h-48q-8 0 -14 6t-6 14v329q0 74 -25.5 103t-84.5 29q-57 0 -135 -39v-422q0 -8 -6 -14t-14 -6h-49q-8 0 -13.5 6t-5.5 14v510
q0 8 5.5 14t13.5 6h50q8 0 13.5 -6t5.5 -14v-19q82 46 159 46q174 0 174 -208v-329z" />
    <glyph glyph-name="Eng" unicode="&#x14a;" horiz-adv-x="680" 
d="M602 -37q0 -73 -37 -108t-118 -35q-37 0 -53 8q-6 3 -6 11v37q0 17 20 17h39q38 0 51.5 16t13.5 54v37h-1q-24 0 -32 16l-309 587q-2 3 -3 3t-1 -3v-584q0 -8 -5.5 -13.5t-12.5 -5.5h-52q-18 0 -18 12v703q0 12 8.5 20t20.5 8h55q20 0 27.5 -4t13.5 -16l307 -584l2 -3
q1 0 1 3v585q0 8 5.5 13.5t12.5 5.5h53q18 0 18 -19v-761z" />
    <glyph glyph-name="eng" unicode="&#x14b;" horiz-adv-x="557" 
d="M489 -64q0 -75 -30.5 -104t-94.5 -29q-27 0 -54 4q-18 3 -18 16v37q0 14 21 14h41q28 0 37.5 12t9.5 50v413q0 74 -25.5 103t-84.5 29q-57 0 -135 -39v-422q0 -8 -6 -14t-14 -6h-49q-8 0 -13.5 6t-5.5 14v510q0 8 5.5 14t13.5 6h50q8 0 13.5 -6t5.5 -14v-19q82 46 159 46
q174 0 174 -208v-413z" />
    <glyph glyph-name="Omacron" unicode="&#x14c;" horiz-adv-x="661" 
d="M601 307q0 -160 -73 -237t-197 -77t-197.5 77.5t-73.5 236.5v129q0 159 73.5 236.5t197.5 77.5t197 -77t73 -237v-129zM509 307v129q0 232 -178 232q-179 0 -179 -232v-129q0 -232 179 -232q178 0 178 232zM495 836q0 -17 -20 -17h-288q-20 0 -20 17v34q0 17 20 17h288
q20 0 20 -17v-34z" />
    <glyph glyph-name="omacron" unicode="&#x14d;" horiz-adv-x="545" 
d="M495 237q0 -113 -57.5 -178.5t-165.5 -65.5t-165 65.5t-57 178.5v76q0 113 57 178.5t165 65.5t165.5 -65.5t57.5 -178.5v-76zM407 237v76q0 167 -135 167q-134 0 -134 -167v-76q0 -167 134 -167q68 0 101.5 43.5t33.5 123.5zM435 666q0 -17 -20 -17h-288q-20 0 -20 17v34
q0 17 20 17h288q20 0 20 -17v-34z" />
    <glyph glyph-name="Obreve" unicode="&#x14e;" horiz-adv-x="661" 
d="M601 307q0 -160 -73 -237t-197 -77t-197.5 77.5t-73.5 236.5v129q0 159 73.5 236.5t197.5 77.5t197 -77t73 -237v-129zM509 307v129q0 232 -178 232q-179 0 -179 -232v-129q0 -232 179 -232q178 0 178 232zM503 940v-4q-5 -66 -52.5 -103.5t-110.5 -37.5t-110.5 37.5
t-52.5 103.5v4q0 13 11 13h37q14 0 15 -16q4 -38 33 -59t67 -21t67 21t33 59q1 16 15 16h37q11 0 11 -13z" />
    <glyph glyph-name="obreve" unicode="&#x14f;" horiz-adv-x="545" 
d="M495 237q0 -113 -57.5 -178.5t-165.5 -65.5t-165 65.5t-57 178.5v76q0 113 57 178.5t165 65.5t165.5 -65.5t57.5 -178.5v-76zM407 237v76q0 167 -135 167q-134 0 -134 -167v-76q0 -167 134 -167q68 0 101.5 43.5t33.5 123.5zM434 766v-4q-5 -66 -52.5 -103.5
t-110.5 -37.5t-110.5 37.5t-52.5 103.5v4q0 13 11 13h37q14 0 15 -16q4 -38 33 -59t67 -21t67 21t33 59q1 16 15 16h37q11 0 11 -13z" />
    <glyph glyph-name="Ohungarumlaut" unicode="&#x150;" horiz-adv-x="661" 
d="M601 307q0 -160 -73 -237t-197 -77t-197.5 77.5t-73.5 236.5v129q0 159 73.5 236.5t197.5 77.5t197 -77t73 -237v-129zM509 307v129q0 232 -178 232q-179 0 -179 -232v-129q0 -232 179 -232q178 0 178 232zM554 943q0 -4 -4 -8l-112 -126q-14 -15 -23 -15h-54q-9 0 -9 7
q0 6 4 10l97 124q12 15 25 15h65q11 0 11 -7zM379 943q0 -4 -4 -8l-112 -126q-13 -15 -23 -15h-54q-9 0 -9 7q0 6 4 10l97 124q12 15 25 15h65q11 0 11 -7z" />
    <glyph glyph-name="ohungarumlaut" unicode="&#x151;" horiz-adv-x="545" 
d="M495 237q0 -113 -57.5 -178.5t-165.5 -65.5t-165 65.5t-57 178.5v76q0 113 57 178.5t165 65.5t165.5 -65.5t57.5 -178.5v-76zM407 237v76q0 167 -135 167q-134 0 -134 -167v-76q0 -167 134 -167q68 0 101.5 43.5t33.5 123.5zM497 772q0 -4 -4 -8l-112 -126
q-13 -15 -23 -15h-54q-9 0 -9 7q0 6 4 10l97 124q12 15 25 15h65q11 0 11 -7zM322 772q0 -4 -4 -8l-112 -126q-13 -15 -23 -15h-54q-9 0 -9 7q0 6 4 10l97 124q12 15 25 15h65q11 0 11 -7z" />
    <glyph glyph-name="OE" unicode="&#x152;" horiz-adv-x="983" 
d="M928 15q0 -12 -10 -14q-58 -9 -195 -9q-147 0 -191 83q-70 -82 -201 -82q-124 0 -197.5 77.5t-73.5 236.5v129q0 159 73.5 236.5t197.5 77.5q131 0 201 -82q45 82 191 82q137 0 195 -9q10 -2 10 -14v-47q0 -12 -11 -12h-193q-76 0 -99.5 -22t-23.5 -82v-139h307
q8 0 14 -6t6 -14v-38q0 -8 -6 -14t-14 -6h-307v-169q0 -60 23.5 -82t99.5 -22h193q11 0 11 -12v-47zM510 306v134q0 228 -179 228t-179 -232v-129q0 -232 179 -232t179 231z" />
    <glyph glyph-name="oe" unicode="&#x153;" horiz-adv-x="899" 
d="M849 269q0 -22 -19 -22h-335v-10q0 -83 30 -125t109 -42q106 0 178 11h5q16 0 16 -14v-34q0 -19 -20 -23q-88 -17 -179 -17q-128 0 -184 82q-58 -82 -178 -82q-108 0 -165 65.5t-57 178.5v76q0 113 57 178.5t165 65.5q121 0 179 -82q57 82 178 82q107 0 163.5 -62.5
t56.5 -171.5v-54zM760 314v9q0 83 -32 120t-99 37q-134 0 -134 -157v-9h265zM407 237v76q0 167 -135 167q-134 0 -134 -167v-76q0 -167 134 -167q68 0 101.5 43.5t33.5 123.5z" />
    <glyph glyph-name="Racute" unicode="&#x154;" horiz-adv-x="625" 
d="M586 13q0 -13 -13 -13h-64q-18 0 -26 13l-179 298h-9h-17q-30 0 -110 3v-294q0 -8 -5 -14t-13 -6h-54q-7 0 -12.5 6t-5.5 14v700q0 19 24 22q69 8 176 8q280 0 280 -215v-7q0 -81 -42.5 -132t-114.5 -70l182 -304q3 -4 3 -9zM468 528v7q0 73 -46.5 103t-143.5 30
q-86 0 -110 -3v-274q88 -2 110 -2q97 0 143.5 30.5t46.5 108.5zM449 943q0 -4 -4 -8l-113 -126q-14 -15 -23 -15h-54q-9 0 -9 7q0 6 4 10l98 124q12 15 24 15h66q11 0 11 -7z" />
    <glyph glyph-name="racute" unicode="&#x155;" horiz-adv-x="342" 
d="M315 498q0 -17 -21 -17q-68 0 -138 -42v-419q0 -8 -6 -14t-14 -6h-49q-8 0 -13.5 6t-5.5 14v510q0 8 5.5 14t13.5 6h47q8 0 13.5 -6t5.5 -14v-21q69 48 141 48q21 0 21 -18v-41zM307 772q0 -4 -4 -8l-113 -126q-14 -15 -23 -15h-54q-9 0 -9 7q0 6 4 10l98 124
q12 15 24 15h66q11 0 11 -7z" />
    <glyph glyph-name="Rcommaaccent" unicode="&#x156;" horiz-adv-x="625" 
d="M297 -49h69q11 0 11 -11l-1 -8l-54 -109q-3 -6 -4.5 -8.5t-4 -5.5t-6 -4t-9.5 -1h-41q-9 0 -9 8q0 4 1 8l28 112q4 19 20 19zM586 13q0 -13 -13 -13h-64q-18 0 -26 13l-179 298h-9h-17q-30 0 -110 3v-294q0 -8 -5 -14t-13 -6h-54q-7 0 -12.5 6t-5.5 14v700q0 19 24 22
q69 8 176 8q280 0 280 -215v-7q0 -81 -42.5 -132t-114.5 -70l182 -304q3 -4 3 -9zM468 528v7q0 73 -46.5 103t-143.5 30q-86 0 -110 -3v-274q88 -2 110 -2q97 0 143.5 30.5t46.5 108.5z" />
    <glyph glyph-name="rcommaaccent" unicode="&#x157;" horiz-adv-x="342" 
d="M155 -49h69q11 0 11 -11l-1 -8l-54 -109q-3 -6 -4.5 -8.5t-4 -5.5t-6 -4t-9.5 -1h-41q-9 0 -9 8q0 4 1 8l28 112q4 19 20 19zM315 498q0 -17 -21 -17q-68 0 -138 -42v-419q0 -8 -6 -14t-14 -6h-49q-8 0 -13.5 6t-5.5 14v510q0 8 5.5 14t13.5 6h47q8 0 13.5 -6t5.5 -14
v-21q69 48 141 48q21 0 21 -18v-41z" />
    <glyph glyph-name="Rcaron" unicode="&#x158;" horiz-adv-x="625" 
d="M586 13q0 -13 -13 -13h-64q-18 0 -26 13l-179 298h-9h-17q-30 0 -110 3v-294q0 -8 -5 -14t-13 -6h-54q-7 0 -12.5 6t-5.5 14v700q0 19 24 22q69 8 176 8q280 0 280 -215v-7q0 -81 -42.5 -132t-114.5 -70l182 -304q3 -4 3 -9zM468 528v7q0 73 -46.5 103t-143.5 30
q-86 0 -110 -3v-274q88 -2 110 -2q97 0 143.5 30.5t46.5 108.5zM481 943q0 -6 -4 -10l-97 -124q-12 -15 -25 -15h-85q-12 0 -24 15l-98 124q-4 4 -4 10q0 7 9 7h54q9 0 23 -16l83 -96l82 96q14 16 23 16h54q9 0 9 -7z" />
    <glyph glyph-name="rcaron" unicode="&#x159;" horiz-adv-x="342" 
d="M315 498q0 -17 -21 -17q-68 0 -138 -42v-419q0 -8 -6 -14t-14 -6h-49q-8 0 -13.5 6t-5.5 14v510q0 8 5.5 14t13.5 6h47q8 0 13.5 -6t5.5 -14v-21q69 48 141 48q21 0 21 -18v-41zM339 772q0 -6 -4 -10l-97 -124q-12 -15 -25 -15h-85q-12 0 -24 15l-98 124q-4 4 -4 10
q0 7 9 7h54q9 0 23 -16l83 -96l82 96q14 16 23 16h54q9 0 9 -7z" />
    <glyph glyph-name="Sacute" unicode="&#x15a;" horiz-adv-x="550" 
d="M500 193q0 -39 -11.5 -72t-37.5 -63.5t-76.5 -47.5t-121.5 -17q-78 0 -166 14q-12 2 -15.5 5.5t-3.5 12.5v40q0 16 17 16h3q69 -6 165 -6q85 0 118.5 30.5t33.5 87.5q0 37 -25 64t-95 70l-97 59q-72 44 -105 86.5t-33 100.5q0 177 239 177q98 0 174 -12q17 -3 17 -17v-43
q0 -16 -17 -16h-2q-88 6 -172 6q-79 0 -113 -20.5t-34 -74.5q0 -34 24 -59t85 -62l92 -55q87 -51 122 -97.5t35 -106.5zM412 943q0 -4 -4 -8l-113 -126q-13 -15 -23 -15h-54q-9 0 -9 7q0 6 4 10l98 124q12 15 24 15h66q11 0 11 -7z" />
    <glyph glyph-name="sacute" unicode="&#x15b;" horiz-adv-x="466" 
d="M416 138q0 -74 -49.5 -109.5t-137.5 -35.5q-97 0 -158 15q-21 5 -21 20v35q0 15 18 15h4q88 -11 157 -11q51 0 75 16t24 55q0 22 -16 39.5t-59 43.5l-101 60q-102 62 -102 143q0 133 181 133q80 0 156 -13q19 -3 19 -20v-33q0 -17 -17 -17h-3q-93 8 -155 8
q-48 0 -70.5 -11.5t-22.5 -46.5q0 -21 16 -37.5t53 -38.5l99 -59q61 -36 85.5 -71t24.5 -80zM370 772q0 -4 -4 -8l-113 -126q-14 -15 -23 -15h-54q-9 0 -9 7q0 6 4 10l98 124q12 15 24 15h66q11 0 11 -7z" />
    <glyph glyph-name="Scircumflex" unicode="&#x15c;" horiz-adv-x="550" 
d="M500 193q0 -39 -11.5 -72t-37.5 -63.5t-76.5 -47.5t-121.5 -17q-78 0 -166 14q-12 2 -15.5 5.5t-3.5 12.5v40q0 16 17 16h3q69 -6 165 -6q85 0 118.5 30.5t33.5 87.5q0 37 -25 64t-95 70l-97 59q-72 44 -105 86.5t-33 100.5q0 177 239 177q98 0 174 -12q17 -3 17 -17v-43
q0 -16 -17 -16h-2q-88 6 -172 6q-79 0 -113 -20.5t-34 -74.5q0 -34 24 -59t85 -62l92 -55q87 -51 122 -97.5t35 -106.5zM428 801q0 -7 -9 -7h-52q-9 0 -23 15l-82 97l-83 -97q-13 -15 -23 -15h-52q-9 0 -9 7q0 6 4 10l96 124q12 15 24 15h85q13 0 25 -15l95 -124q4 -4 4 -10
z" />
    <glyph glyph-name="scircumflex" unicode="&#x15d;" horiz-adv-x="466" 
d="M416 138q0 -74 -49.5 -109.5t-137.5 -35.5q-97 0 -158 15q-21 5 -21 20v35q0 15 18 15h4q88 -11 157 -11q51 0 75 16t24 55q0 22 -16 39.5t-59 43.5l-101 60q-102 62 -102 143q0 133 181 133q80 0 156 -13q19 -3 19 -20v-33q0 -17 -17 -17h-3q-93 8 -155 8
q-48 0 -70.5 -11.5t-22.5 -46.5q0 -21 16 -37.5t53 -38.5l99 -59q61 -36 85.5 -71t24.5 -80zM396 630q0 -7 -9 -7h-52q-9 0 -23 15l-82 97l-83 -97q-13 -15 -23 -15h-52q-9 0 -9 7q0 6 4 10l96 124q12 15 24 15h85q13 0 25 -15l95 -124q4 -4 4 -10z" />
    <glyph glyph-name="uni015E" unicode="&#x15e;" horiz-adv-x="550" 
d="M500 193q0 -39 -11.5 -72t-37.5 -63.5t-76.5 -47.5t-121.5 -17q-78 0 -166 14q-12 2 -15.5 5.5t-3.5 12.5v40q0 16 17 16h3q69 -6 165 -6q85 0 118.5 30.5t33.5 87.5q0 37 -25 64t-95 70l-97 59q-72 44 -105 86.5t-33 100.5q0 177 239 177q98 0 174 -12q17 -3 17 -17v-43
q0 -16 -17 -16h-2q-88 6 -172 6q-79 0 -113 -20.5t-34 -74.5q0 -34 24 -59t85 -62l92 -55q87 -51 122 -97.5t35 -106.5zM327 -39q0 -4 -4 -8l-113 -126q-14 -15 -23 -15h-54q-9 0 -9 7q0 6 4 10l97 124q12 15 25 15h66q11 0 11 -7z" />
    <glyph glyph-name="uni015F" unicode="&#x15f;" horiz-adv-x="466" 
d="M416 138q0 -74 -49.5 -109.5t-137.5 -35.5q-97 0 -158 15q-21 5 -21 20v35q0 15 18 15h4q88 -11 157 -11q51 0 75 16t24 55q0 22 -16 39.5t-59 43.5l-101 60q-102 62 -102 143q0 133 181 133q80 0 156 -13q19 -3 19 -20v-33q0 -17 -17 -17h-3q-93 8 -155 8
q-48 0 -70.5 -11.5t-22.5 -46.5q0 -21 16 -37.5t53 -38.5l99 -59q61 -36 85.5 -71t24.5 -80zM285 -39q0 -4 -4 -8l-113 -126q-13 -15 -23 -15h-54q-9 0 -9 7q0 6 4 10l97 124q12 15 25 15h66q11 0 11 -7z" />
    <glyph glyph-name="Scaron" unicode="&#x160;" horiz-adv-x="550" 
d="M500 193q0 -39 -11.5 -72t-37.5 -63.5t-76.5 -47.5t-121.5 -17q-78 0 -166 14q-12 2 -15.5 5.5t-3.5 12.5v40q0 16 17 16h3q69 -6 165 -6q85 0 118.5 30.5t33.5 87.5q0 37 -25 64t-95 70l-97 59q-72 44 -105 86.5t-33 100.5q0 177 239 177q98 0 174 -12q17 -3 17 -17v-43
q0 -16 -17 -16h-2q-88 6 -172 6q-79 0 -113 -20.5t-34 -74.5q0 -34 24 -59t85 -62l92 -55q87 -51 122 -97.5t35 -106.5zM456 943q0 -6 -4 -10l-97 -124q-12 -15 -25 -15h-85q-12 0 -24 15l-98 124q-4 4 -4 10q0 7 9 7h54q9 0 23 -16l83 -96l82 96q14 16 23 16h54q9 0 9 -7z
" />
    <glyph glyph-name="scaron" unicode="&#x161;" horiz-adv-x="466" 
d="M416 138q0 -74 -49.5 -109.5t-137.5 -35.5q-97 0 -158 15q-21 5 -21 20v35q0 15 18 15h4q88 -11 157 -11q51 0 75 16t24 55q0 22 -16 39.5t-59 43.5l-101 60q-102 62 -102 143q0 133 181 133q80 0 156 -13q19 -3 19 -20v-33q0 -17 -17 -17h-3q-93 8 -155 8
q-48 0 -70.5 -11.5t-22.5 -46.5q0 -21 16 -37.5t53 -38.5l99 -59q61 -36 85.5 -71t24.5 -80zM396 772q0 -6 -4 -10l-97 -124q-12 -15 -25 -15h-85q-12 0 -24 15l-98 124q-4 4 -4 10q0 7 9 7h54q9 0 23 -16l83 -96l82 96q14 16 23 16h54q9 0 9 -7z" />
    <glyph glyph-name="Tcommaaccent" unicode="&#x162;" horiz-adv-x="590" 
d="M264 -49h69q11 0 11 -11l-1 -8l-54 -109q-3 -6 -4.5 -8.5t-4 -5.5t-6 -4t-9.5 -1h-41q-9 0 -9 8q0 4 1 8l28 112q4 19 20 19zM555 681q0 -16 -19 -16h-195v-645q0 -8 -5 -14t-13 -6h-55q-7 0 -12.5 6t-5.5 14v645h-195q-20 0 -20 16v44q0 7 6 12.5t14 5.5h481
q19 0 19 -18v-44z" />
    <glyph glyph-name="tcommaaccent" unicode="&#x163;" horiz-adv-x="385" 
d="M177 -49h69q11 0 11 -11l-1 -8l-54 -109q-3 -6 -4.5 -8.5t-4 -5.5t-6 -4t-9.5 -1h-41q-9 0 -9 8q0 4 1 8l28 112q4 19 20 19zM360 15q0 -14 -18 -17q-33 -5 -65 -5q-73 0 -104.5 27.5t-31.5 106.5v349l-97 11q-19 2 -19 18v27q0 18 19 18h97v98q0 17 18 20l52 8h3
q15 0 15 -17v-109h108q8 0 14 -6t6 -14v-34q0 -8 -6 -14t-14 -6h-108v-349q0 -40 11 -51.5t43 -11.5h56q21 0 21 -14v-35z" />
    <glyph glyph-name="Tcaron" unicode="&#x164;" horiz-adv-x="590" 
d="M555 681q0 -16 -19 -16h-195v-645q0 -8 -5 -14t-13 -6h-55q-7 0 -12.5 6t-5.5 14v645h-195q-20 0 -20 16v44q0 7 6 12.5t14 5.5h481q19 0 19 -18v-44zM464 943q0 -6 -4 -10l-97 -124q-12 -15 -25 -15h-85q-12 0 -24 15l-98 124q-4 4 -4 10q0 7 9 7h54q9 0 23 -16l83 -96
l82 96q14 16 23 16h54q9 0 9 -7z" />
    <glyph glyph-name="tcaron" unicode="&#x165;" horiz-adv-x="513" 
d="M538 741q0 -2 -2 -8l-75 -189q-7 -19 -19 -19h-41q-12 0 -12 12q0 5 1 7l57 189q6 19 20 19h58q13 0 13 -11zM360 15q0 -14 -18 -17q-33 -5 -65 -5q-73 0 -104.5 27.5t-31.5 106.5v349l-97 11q-19 2 -19 18v27q0 18 19 18h97v98q0 17 18 20l52 8h3q15 0 15 -17v-109h108
q8 0 14 -6t6 -14v-34q0 -8 -6 -14t-14 -6h-108v-349q0 -40 11 -51.5t43 -11.5h56q21 0 21 -14v-35z" />
    <glyph glyph-name="Tbar" unicode="&#x166;" horiz-adv-x="590" 
d="M536 465h-195v-445q0 -8 -5 -14t-13 -6h-55q-7 0 -12.5 6t-5.5 14v445h-195q-20 0 -20 16v44q0 7 6 12.5t14 5.5h195v122h-195q-20 0 -20 16v44q0 7 6 12.5t14 5.5h481q19 0 19 -18v-44q0 -16 -19 -16h-195v-122h195q19 0 19 -18v-44q0 -16 -19 -16z" />
    <glyph glyph-name="tbar" unicode="&#x167;" horiz-adv-x="385" 
d="M360 15q0 -14 -18 -17q-33 -5 -65 -5q-73 0 -104.5 27.5t-31.5 106.5v179l-97 11q-19 2 -19 18v27q0 18 19 18h97v96l-97 11q-19 2 -19 18v27q0 18 19 18h97v98q0 17 18 20l52 8h3q15 0 15 -17v-109h108q8 0 14 -6t6 -14v-34q0 -8 -6 -14t-14 -6h-108v-96h108q8 0 14 -6
t6 -14v-34q0 -8 -6 -14t-14 -6h-108v-179q0 -40 11 -51.5t43 -11.5h56q21 0 21 -14v-35z" />
    <glyph glyph-name="Utilde" unicode="&#x168;" horiz-adv-x="662" 
d="M587 270q0 -277 -256 -277t-256 277v454q0 8 5.5 13.5t13.5 5.5h54q8 0 13.5 -5.5t5.5 -13.5v-454q0 -101 37 -150t127 -49t127 48.5t37 150.5v454q0 8 5.5 13.5t13.5 5.5h54q8 0 13.5 -5.5t5.5 -13.5v-454zM505 892q0 -53 -22.5 -79t-71.5 -26q-37 0 -64 21l-61 49
q-28 22 -41 22q-31 0 -31 -46v-21q0 -7 -5 -12t-12 -5h-31q-7 0 -11.5 5t-4.5 12v21q0 53 25 81t70 28q29 0 60 -24l71 -56q18 -14 35 -14q16 0 23 9.5t7 34.5v23q0 7 5 12t12 5h31q7 0 11.5 -5t4.5 -12v-23z" />
    <glyph glyph-name="utilde" unicode="&#x169;" horiz-adv-x="557" 
d="M489 20q0 -8 -5.5 -14t-13.5 -6h-50q-8 0 -13.5 6t-5.5 14v19q-82 -46 -159 -46q-174 0 -174 208v329q0 8 6 14t14 6h48q8 0 14 -6t6 -14v-329q0 -74 25.5 -103t84.5 -29q57 0 135 39v422q0 8 6 14t14 6h49q8 0 13.5 -6t5.5 -14v-510zM459 721q0 -53 -22.5 -79t-71.5 -26
q-37 0 -64 21l-61 49q-28 22 -41 22q-31 0 -31 -46v-21q0 -7 -5 -12t-12 -5h-31q-7 0 -11.5 5t-4.5 12v21q0 53 25 81t70 28q29 0 60 -24l71 -56q18 -14 35 -14q16 0 23 9.5t7 34.5v23q0 7 5 12t12 5h31q7 0 11.5 -5t4.5 -12v-23z" />
    <glyph glyph-name="Umacron" unicode="&#x16a;" horiz-adv-x="662" 
d="M587 270q0 -277 -256 -277t-256 277v454q0 8 5.5 13.5t13.5 5.5h54q8 0 13.5 -5.5t5.5 -13.5v-454q0 -101 37 -150t127 -49t127 48.5t37 150.5v454q0 8 5.5 13.5t13.5 5.5h54q8 0 13.5 -5.5t5.5 -13.5v-454zM495 837q0 -17 -20 -17h-288q-20 0 -20 17v34q0 17 20 17h288
q20 0 20 -17v-34z" />
    <glyph glyph-name="umacron" unicode="&#x16b;" horiz-adv-x="557" 
d="M489 20q0 -8 -5.5 -14t-13.5 -6h-50q-8 0 -13.5 6t-5.5 14v19q-82 -46 -159 -46q-174 0 -174 208v329q0 8 6 14t14 6h48q8 0 14 -6t6 -14v-329q0 -74 25.5 -103t84.5 -29q57 0 135 39v422q0 8 6 14t14 6h49q8 0 13.5 -6t5.5 -14v-510zM443 666q0 -17 -20 -17h-288
q-20 0 -20 17v34q0 17 20 17h288q20 0 20 -17v-34z" />
    <glyph glyph-name="Ubreve" unicode="&#x16c;" horiz-adv-x="662" 
d="M587 270q0 -277 -256 -277t-256 277v454q0 8 5.5 13.5t13.5 5.5h54q8 0 13.5 -5.5t5.5 -13.5v-454q0 -101 37 -150t127 -49t127 48.5t37 150.5v454q0 8 5.5 13.5t13.5 5.5h54q8 0 13.5 -5.5t5.5 -13.5v-454zM491 940v-4q-5 -66 -52.5 -103.5t-110.5 -37.5t-110.5 37.5
t-52.5 103.5v4q0 13 11 13h37q14 0 15 -16q4 -38 33 -59t67 -21t67 21t33 59q1 16 15 16h37q11 0 11 -13z" />
    <glyph glyph-name="ubreve" unicode="&#x16d;" horiz-adv-x="557" 
d="M489 20q0 -8 -5.5 -14t-13.5 -6h-50q-8 0 -13.5 6t-5.5 14v19q-82 -46 -159 -46q-174 0 -174 208v329q0 8 6 14t14 6h48q8 0 14 -6t6 -14v-329q0 -74 25.5 -103t84.5 -29q57 0 135 39v422q0 8 6 14t14 6h49q8 0 13.5 -6t5.5 -14v-510zM441 766v-4q-5 -66 -52.5 -103.5
t-110.5 -37.5t-110.5 37.5t-52.5 103.5v4q0 13 11 13h37q14 0 15 -16q4 -38 33 -59t67 -21t67 21t33 59q1 16 15 16h37q11 0 11 -13z" />
    <glyph glyph-name="Uring" unicode="&#x16e;" horiz-adv-x="662" 
d="M587 270q0 -277 -256 -277t-256 277v454q0 8 5.5 13.5t13.5 5.5h54q8 0 13.5 -5.5t5.5 -13.5v-454q0 -101 37 -150t127 -49t127 48.5t37 150.5v454q0 8 5.5 13.5t13.5 5.5h54q8 0 13.5 -5.5t5.5 -13.5v-454zM433 878q0 -42 -29.5 -71.5t-71.5 -29.5t-72 29.5t-30 71.5
t30 72t72 30t71.5 -30t29.5 -72zM385 879q0 22 -15.5 37t-37.5 15t-37 -15t-15 -37t15 -37.5t37 -15.5t37.5 15.5t15.5 37.5z" />
    <glyph glyph-name="uring" unicode="&#x16f;" horiz-adv-x="557" 
d="M489 20q0 -8 -5.5 -14t-13.5 -6h-50q-8 0 -13.5 6t-5.5 14v19q-82 -46 -159 -46q-174 0 -174 208v329q0 8 6 14t14 6h48q8 0 14 -6t6 -14v-329q0 -74 25.5 -103t84.5 -29q57 0 135 39v422q0 8 6 14t14 6h49q8 0 13.5 -6t5.5 -14v-510zM380 703q0 -42 -29.5 -71.5
t-71.5 -29.5t-72 29.5t-30 71.5t30 72t72 30t71.5 -30t29.5 -72zM332 704q0 22 -15.5 37t-37.5 15t-37 -15t-15 -37t15 -37.5t37 -15.5t37.5 15.5t15.5 37.5z" />
    <glyph glyph-name="Uhungarumlaut" unicode="&#x170;" horiz-adv-x="662" 
d="M587 270q0 -277 -256 -277t-256 277v454q0 8 5.5 13.5t13.5 5.5h54q8 0 13.5 -5.5t5.5 -13.5v-454q0 -101 37 -150t127 -49t127 48.5t37 150.5v454q0 8 5.5 13.5t13.5 5.5h54q8 0 13.5 -5.5t5.5 -13.5v-454zM555 943q0 -4 -4 -8l-112 -126q-13 -15 -23 -15h-54q-9 0 -9 7
q0 6 4 10l97 124q12 15 25 15h65q11 0 11 -7zM380 943q0 -4 -4 -8l-112 -126q-13 -15 -23 -15h-54q-9 0 -9 7q0 6 4 10l97 124q12 15 25 15h65q11 0 11 -7z" />
    <glyph glyph-name="uhungarumlaut" unicode="&#x171;" horiz-adv-x="557" 
d="M489 20q0 -8 -5.5 -14t-13.5 -6h-50q-8 0 -13.5 6t-5.5 14v19q-82 -46 -159 -46q-174 0 -174 208v329q0 8 6 14t14 6h48q8 0 14 -6t6 -14v-329q0 -74 25.5 -103t84.5 -29q57 0 135 39v422q0 8 6 14t14 6h49q8 0 13.5 -6t5.5 -14v-510zM502 772q0 -4 -4 -8l-112 -126
q-14 -15 -23 -15h-54q-9 0 -9 7q0 6 4 10l97 124q12 15 25 15h65q11 0 11 -7zM327 772q0 -4 -4 -8l-112 -126q-13 -15 -23 -15h-54q-9 0 -9 7q0 6 4 10l97 124q12 15 25 15h65q11 0 11 -7z" />
    <glyph glyph-name="Uogonek" unicode="&#x172;" horiz-adv-x="662" 
d="M587 270q1 -90 -23.5 -146t-87.5 -99l-96 -67q-41 -29 -49 -41q-5 -10 -5 -21q0 -38 69 -38q14 0 30.5 2.5t27.5 5t13 2.5q5 0 5 -8v-39q0 -8 -11 -11q-30 -10 -76 -10q-131 0 -131 96q0 60 64 91l11 6q-253 2 -253 277v454q0 8 5.5 13.5t13.5 5.5h54q8 0 13.5 -5.5
t5.5 -13.5v-454q0 -101 37 -150t127 -49t127 48.5t37 150.5v454q0 8 5.5 13.5t13.5 5.5h54q8 0 13.5 -5.5t5.5 -13.5v-454z" />
    <glyph glyph-name="uogonek" unicode="&#x173;" horiz-adv-x="557" 
d="M403 20v20q-83 -47 -161 -47q-174 0 -174 208v329q0 8 6 14t14 6h48q8 0 14 -6t6 -14v-329q0 -74 25.5 -103t84.5 -29q57 0 135 39v422q0 8 6 14t14 6h49q8 0 13.5 -6t5.5 -14v-510q0 -10 -8 -16l-67 -46q-30 -20 -42 -34t-12 -33q0 -17 11.5 -25t44.5 -8q14 0 28.5 2.5
t24 5t11.5 2.5q5 0 5 -8v-39q0 -8 -11 -11q-30 -10 -69 -10q-119 0 -119 93q0 31 16 51.5t49 42.5z" />
    <glyph glyph-name="Wcircumflex" unicode="&#x174;" horiz-adv-x="825" 
d="M791 726v-3l-111 -676q-9 -51 -62 -51h-43q-21 0 -36 13.5t-21 36.5l-98 370q-2 9 -6 9h-1h-1q-4 0 -6 -9l-99 -370q-6 -23 -21 -36.5t-36 -13.5h-42q-53 0 -62 51l-111 676v3q0 17 17 17h58q14 0 17 -17l97 -637q3 -15 5 -15q4 0 7 15l98 370q10 40 47 40h64
q37 0 47 -40l98 -370q3 -15 7 -15q2 0 5 15l97 637q3 17 17 17h58q17 0 17 -17zM579 801q0 -7 -9 -7h-52q-10 0 -23 15l-82 97l-83 -97q-14 -15 -23 -15h-52q-9 0 -9 7q0 6 4 10l96 124q12 15 24 15h85q13 0 25 -15l95 -124q4 -4 4 -10z" />
    <glyph glyph-name="wcircumflex" unicode="&#x175;" horiz-adv-x="786" 
d="M748 530v-4l-97 -464q-10 -46 -24 -57.5t-60 -11.5q-40 0 -55 13t-27 59l-87 340q-2 7 -5 7t-5 -7l-87 -340q-11 -44 -27 -58t-55 -14q-46 0 -60 11.5t-24 57.5l-97 464v4q0 8 5.5 14t13.5 6h54q15 0 17 -16l83 -456q2 -12 8 -12q5 0 8 12l98 384q8 30 40 30h56
q32 0 40 -30l98 -384q3 -12 8 -12q6 0 8 12l83 456q2 16 17 16h54q8 0 13.5 -6t5.5 -14zM560 630q0 -7 -9 -7h-52q-9 0 -23 15l-82 97l-83 -97q-13 -15 -23 -15h-52q-9 0 -9 7q0 6 4 10l96 124q12 15 24 15h85q13 0 25 -15l95 -124q4 -4 4 -10z" />
    <glyph glyph-name="Ycircumflex" unicode="&#x176;" horiz-adv-x="583" 
d="M549 729q0 -5 -3 -11l-155 -348q-24 -52 -54 -66v-284q0 -8 -5.5 -14t-12.5 -6h-55q-7 0 -12.5 6t-5.5 14v284q-29 11 -54 66l-154 348q-3 6 -3 11q0 14 17 14h61q12 0 18 -14l138 -324q11 -26 23 -26t23 26l139 324q6 14 17 14h61q17 0 17 -14zM460 802q0 -7 -9 -7h-52
q-9 0 -23 15l-82 97l-83 -97q-13 -15 -23 -15h-52q-9 0 -9 7q0 6 4 10l96 124q12 15 24 15h85q13 0 25 -15l95 -124q4 -4 4 -10z" />
    <glyph glyph-name="ycircumflex" unicode="&#x177;" horiz-adv-x="534" 
d="M495 533q0 -5 -1 -7l-165 -576q-24 -84 -61.5 -116t-121.5 -32q-46 0 -84 9q-21 5 -21 16v37q0 16 19 16h3q66 -6 89 -6q44 0 65.5 17t33.5 68l10 41h-14q-27 0 -44.5 13.5t-29.5 55.5l-133 457q-1 2 -1 7q0 17 18 17h55q13 0 17 -16l118 -434q5 -22 19 -22h16l122 457
q4 15 19 15h56q16 0 16 -17zM434 630q0 -7 -9 -7h-52q-9 0 -23 15l-82 97l-83 -97q-13 -15 -23 -15h-52q-9 0 -9 7q0 6 4 10l96 124q12 15 24 15h85q13 0 25 -15l95 -124q4 -4 4 -10z" />
    <glyph glyph-name="Ydieresis" unicode="&#x178;" horiz-adv-x="583" 
d="M549 729q0 -5 -3 -11l-155 -348q-24 -52 -54 -66v-284q0 -8 -5.5 -14t-12.5 -6h-55q-7 0 -12.5 6t-5.5 14v284q-29 11 -54 66l-154 348q-3 6 -3 11q0 14 17 14h61q12 0 18 -14l138 -324q11 -26 23 -26t23 26l139 324q6 14 17 14h61q17 0 17 -14zM418 821q0 -8 -6 -13.5
t-14 -5.5h-39q-8 0 -14 5.5t-6 13.5v81q0 8 6.5 14t13.5 6h39q8 0 14 -6t6 -14v-81zM243 821q0 -8 -6 -13.5t-14 -5.5h-39q-8 0 -14 5.5t-6 13.5v81q0 8 6 14t14 6h39q7 0 13.5 -6t6.5 -14v-81z" />
    <glyph glyph-name="Zacute" unicode="&#x179;" horiz-adv-x="597" 
d="M544 18q0 -7 -6 -12.5t-14 -5.5h-385q-48 0 -65.5 14t-17.5 54q0 36 15 58l358 521q3 5 3 8q0 7 -10 7h-332q-20 0 -20 17v47q0 17 20 17h356q45 0 65 -13.5t20 -52.5q0 -35 -16 -59l-357 -521q-3 -4 -3 -9q0 -6 10 -6h359q20 0 20 -17v-47zM435 943q0 -4 -4 -8
l-113 -126q-14 -15 -23 -15h-54q-9 0 -9 7q0 6 4 10l98 124q12 15 24 15h66q11 0 11 -7z" />
    <glyph glyph-name="zacute" unicode="&#x17a;" horiz-adv-x="482" 
d="M432 20q0 -8 -6 -14t-14 -6h-302q-30 0 -45.5 16t-15.5 39v19q0 35 23 65l258 321q4 6 4 9q0 7 -10 7h-243q-8 0 -14 6t-6 14v34q0 8 6 14t14 6h294q56 0 56 -49v-24q0 -28 -23 -55l-263 -329q-5 -5 -5 -11q0 -8 8 -8h264q8 0 14 -6t6 -14v-34zM398 772q0 -4 -4 -8
l-113 -126q-13 -15 -23 -15h-54q-9 0 -9 7q0 6 4 10l98 124q12 15 24 15h66q11 0 11 -7z" />
    <glyph glyph-name="Zdotaccent" unicode="&#x17b;" horiz-adv-x="597" 
d="M544 18q0 -7 -6 -12.5t-14 -5.5h-385q-48 0 -65.5 14t-17.5 54q0 36 15 58l358 521q3 5 3 8q0 7 -10 7h-332q-20 0 -20 17v47q0 17 20 17h356q45 0 65 -13.5t20 -52.5q0 -35 -16 -59l-357 -521q-3 -4 -3 -9q0 -6 10 -6h359q20 0 20 -17v-47zM342 829q0 -8 -5.5 -14
t-13.5 -6h-48q-8 0 -14 6t-6 14v84q0 7 6 13t14 6h48q7 0 13 -6t6 -13v-84z" />
    <glyph glyph-name="zdotaccent" unicode="&#x17c;" horiz-adv-x="482" 
d="M432 20q0 -8 -6 -14t-14 -6h-302q-30 0 -45.5 16t-15.5 39v19q0 35 23 65l258 321q4 6 4 9q0 7 -10 7h-243q-8 0 -14 6t-6 14v34q0 8 6 14t14 6h294q56 0 56 -49v-24q0 -28 -23 -55l-263 -329q-5 -5 -5 -11q0 -8 8 -8h264q8 0 14 -6t6 -14v-34zM285 658q0 -8 -5.5 -14
t-13.5 -6h-48q-8 0 -14 6t-6 14v84q0 7 6 13t14 6h48q8 0 13.5 -5.5t5.5 -13.5v-84z" />
    <glyph glyph-name="Zcaron" unicode="&#x17d;" horiz-adv-x="597" 
d="M544 18q0 -7 -6 -12.5t-14 -5.5h-385q-48 0 -65.5 14t-17.5 54q0 36 15 58l358 521q3 5 3 8q0 7 -10 7h-332q-20 0 -20 17v47q0 17 20 17h356q45 0 65 -13.5t20 -52.5q0 -35 -16 -59l-357 -521q-3 -4 -3 -9q0 -6 10 -6h359q20 0 20 -17v-47zM470 943q0 -6 -4 -10
l-97 -124q-12 -15 -25 -15h-85q-12 0 -24 15l-98 124q-4 4 -4 10q0 7 9 7h54q9 0 23 -16l83 -96l82 96q14 16 23 16h54q9 0 9 -7z" />
    <glyph glyph-name="zcaron" unicode="&#x17e;" horiz-adv-x="482" 
d="M432 20q0 -8 -6 -14t-14 -6h-302q-30 0 -45.5 16t-15.5 39v19q0 35 23 65l258 321q4 6 4 9q0 7 -10 7h-243q-8 0 -14 6t-6 14v34q0 8 6 14t14 6h294q56 0 56 -49v-24q0 -28 -23 -55l-263 -329q-5 -5 -5 -11q0 -8 8 -8h264q8 0 14 -6t6 -14v-34zM413 772q0 -6 -4 -10
l-97 -124q-12 -15 -25 -15h-85q-12 0 -24 15l-98 124q-4 4 -4 10q0 7 9 7h54q9 0 23 -16l83 -96l82 96q14 16 23 16h54q9 0 9 -7z" />
    <glyph glyph-name="florin" unicode="&#x192;" 
d="M548 742v-3l-4 -32q-2 -15 -24 -15h-55q-36 0 -52.5 -14.5t-21.5 -53.5l-27 -196h143q17 0 17 -15v-3l-5 -37q-2 -18 -22 -18h-143l-50 -357q-20 -137 -160 -137q-32 0 -69 5q-17 3 -17 14v3l4 32q2 15 24 15h55q36 0 52.5 14.5t21.5 53.5l50 357h-128q-18 0 -18 16v2
l5 37q1 7 8 12.5t15 5.5h128l27 196q18 137 160 137q32 0 69 -5q17 -3 17 -14z" />
    <glyph glyph-name="AEacute" unicode="&#x1fc;" horiz-adv-x="859" 
d="M804 14q0 -12 -10 -14q-65 -7 -165 -7q-107 0 -160 44t-53 142v66h-239l-64 -230q-4 -15 -18 -15h-59q-17 0 -17 16q0 5 1 7l185 645q22 75 102 75h487q10 0 10 -14v-53q0 -12 -11 -12h-286v-239h277q8 0 14 -6t6 -14v-38q0 -8 -6 -14t-14 -6h-277v-168q0 -60 23.5 -82
t99.5 -22h163q11 0 11 -12v-49zM416 324v340h-109q-15 0 -20 -17l-91 -323h220zM669 944q0 -4 -4 -8l-113 -126q-14 -15 -23 -15h-54q-9 0 -9 7q0 6 4 10l98 124q12 15 24 15h66q11 0 11 -7z" />
    <glyph glyph-name="aeacute" unicode="&#x1fd;" horiz-adv-x="853" 
d="M803 269q0 -22 -19 -22h-333v-32q0 -76 35.5 -112t110.5 -36q79 0 171 14h2h3q16 0 16 -14v-34q0 -19 -20 -23q-88 -17 -177 -17q-117 0 -173 59q-68 -59 -180 -59q-81 0 -136 41.5t-55 123.5v9q0 84 55 123t186 39h75v40q0 63 -24.5 88t-83.5 25q-73 0 -153 -8h-2h-3
q-18 0 -18 16v35q0 16 21 19q76 13 155 13q119 0 166 -70q59 70 163 70q106 0 162 -67.5t56 -178.5v-42zM716 314v5q0 163 -131 163q-64 0 -99 -42.5t-35 -120.5v-5h265zM364 94v171h-75q-89 0 -120.5 -21.5t-31.5 -76.5v-9q0 -50 31.5 -72.5t82.5 -22.5q72 0 113 31z
M592 772q0 -4 -4 -8l-113 -126q-13 -15 -23 -15h-54q-9 0 -9 7q0 6 4 10l98 124q12 15 24 15h66q11 0 11 -7z" />
    <glyph glyph-name="Oslashacute" unicode="&#x1fe;" horiz-adv-x="661" 
d="M633 735q0 -3 -3 -8l-71 -98q42 -75 42 -193v-129q0 -160 -73 -237t-197 -77q-114 0 -183 63l-31 -44q-14 -19 -25 -19h-53q-11 0 -11 11q0 4 3 8l72 100q-43 74 -43 195v129q0 159 73.5 236.5t197.5 77.5q116 0 184 -64l29 41q14 19 26 19h52q11 0 11 -11zM462 613
q-45 55 -131 55q-179 0 -179 -232v-129q0 -59 13 -108zM509 307v129q0 62 -12 106l-297 -414q44 -53 131 -53q178 0 178 232zM485 943q0 -4 -4 -8l-113 -126q-14 -15 -23 -15h-54q-9 0 -9 7q0 6 4 10l98 124q12 15 24 15h66q11 0 11 -7z" />
    <glyph glyph-name="oslashacute" unicode="&#x1ff;" horiz-adv-x="545" 
d="M528 575q0 -7 -4 -11l-70 -94q41 -62 41 -157v-76q0 -113 -57.5 -178.5t-165.5 -65.5q-85 0 -139 42l-44 -60q-8 -10 -16 -10h-49q-8 0 -8 8q0 7 4 11l71 96q-41 62 -41 157v76q0 113 57 178.5t165 65.5q86 0 140 -42l42 58q8 10 16 10h50q8 0 8 -8zM362 449
q-34 31 -90 31q-134 0 -134 -167v-76q0 -46 10 -79zM407 237v76q0 42 -11 78l-214 -290q33 -31 90 -31q135 0 135 167zM422 772q0 -4 -4 -8l-113 -126q-13 -15 -23 -15h-54q-9 0 -9 7q0 6 4 10l98 124q12 15 24 15h66q11 0 11 -7z" />
    <glyph glyph-name="uni0218" unicode="&#x218;" horiz-adv-x="550" 
d="M250 -49h69q11 0 11 -11l-1 -8l-54 -109q-3 -6 -4.5 -8.5t-4 -5.5t-6 -4t-9.5 -1h-41q-9 0 -9 8q0 4 1 8l28 112q4 19 20 19zM500 193q0 -39 -11.5 -72t-37.5 -63.5t-76.5 -47.5t-121.5 -17q-78 0 -166 14q-12 2 -15.5 5.5t-3.5 12.5v40q0 16 17 16h3q69 -6 165 -6
q85 0 118.5 30.5t33.5 87.5q0 37 -25 64t-95 70l-97 59q-72 44 -105 86.5t-33 100.5q0 177 239 177q98 0 174 -12q17 -3 17 -17v-43q0 -16 -17 -16h-2q-88 6 -172 6q-79 0 -113 -20.5t-34 -74.5q0 -34 24 -59t85 -62l92 -55q87 -51 122 -97.5t35 -106.5z" />
    <glyph glyph-name="uni0219" unicode="&#x219;" horiz-adv-x="466" 
d="M197 -49h69q11 0 11 -11l-1 -8l-54 -109q-3 -6 -4.5 -8.5t-4 -5.5t-6 -4t-9.5 -1h-41q-9 0 -9 8q0 4 1 8l28 112q4 19 20 19zM416 138q0 -74 -49.5 -109.5t-137.5 -35.5q-97 0 -158 15q-21 5 -21 20v35q0 15 18 15h4q88 -11 157 -11q51 0 75 16t24 55q0 22 -16 39.5
t-59 43.5l-101 60q-102 62 -102 143q0 133 181 133q80 0 156 -13q19 -3 19 -20v-33q0 -17 -17 -17h-3q-93 8 -155 8q-48 0 -70.5 -11.5t-22.5 -46.5q0 -21 16 -37.5t53 -38.5l99 -59q61 -36 85.5 -71t24.5 -80z" />
    <glyph glyph-name="uni021A" unicode="&#x21a;" horiz-adv-x="590" 
d="M264 -49h69q11 0 11 -11l-1 -8l-54 -109q-3 -6 -4.5 -8.5t-4 -5.5t-6 -4t-9.5 -1h-41q-9 0 -9 8q0 4 1 8l28 112q4 19 20 19zM555 681q0 -16 -19 -16h-195v-645q0 -8 -5 -14t-13 -6h-55q-7 0 -12.5 6t-5.5 14v645h-195q-20 0 -20 16v44q0 7 6 12.5t14 5.5h481
q19 0 19 -18v-44z" />
    <glyph glyph-name="uni021B" unicode="&#x21b;" horiz-adv-x="385" 
d="M177 -49h69q11 0 11 -11l-1 -8l-54 -109q-3 -6 -4.5 -8.5t-4 -5.5t-6 -4t-9.5 -1h-41q-9 0 -9 8q0 4 1 8l28 112q4 19 20 19zM360 15q0 -14 -18 -17q-33 -5 -65 -5q-73 0 -104.5 27.5t-31.5 106.5v349l-97 11q-19 2 -19 18v27q0 18 19 18h97v98q0 17 18 20l52 8h3
q15 0 15 -17v-109h108q8 0 14 -6t6 -14v-34q0 -8 -6 -14t-14 -6h-108v-349q0 -40 11 -51.5t43 -11.5h56q21 0 21 -14v-35z" />
    <glyph glyph-name="circumflex" unicode="&#x2c6;" horiz-adv-x="373" 
d="M353 630q0 -7 -9 -7h-52q-10 0 -23 15l-82 97l-83 -97q-14 -15 -23 -15h-52q-9 0 -9 7q0 6 4 10l96 124q12 15 24 15h85q13 0 25 -15l95 -124q4 -4 4 -10z" />
    <glyph glyph-name="caron" unicode="&#x2c7;" horiz-adv-x="373" 
d="M355 772q0 -6 -4 -10l-97 -124q-12 -15 -25 -15h-85q-12 0 -24 15l-98 124q-4 4 -4 10q0 7 9 7h54q9 0 23 -16l83 -96l82 96q14 16 23 16h54q9 0 9 -7z" />
    <glyph glyph-name="uni02C9" unicode="&#x2c9;" horiz-adv-x="373" 
d="M351 692q0 -17 -20 -17h-288q-20 0 -20 17v34q0 17 20 17h288q20 0 20 -17v-34z" />
    <glyph glyph-name="breve" unicode="&#x2d8;" horiz-adv-x="373" 
d="M350 766v-4q-5 -66 -52.5 -103.5t-110.5 -37.5t-110.5 37.5t-52.5 103.5v4q0 13 11 13h37q14 0 15 -16q4 -38 33 -59t67 -21t67 21t33 59q1 16 15 16h37q11 0 11 -13z" />
    <glyph glyph-name="dotaccent" unicode="&#x2d9;" horiz-adv-x="373" 
d="M230 658q0 -8 -5.5 -14t-13.5 -6h-48q-8 0 -14 6t-6 14v84q0 7 6 13t14 6h48q7 0 13 -5.5t6 -13.5v-84z" />
    <glyph glyph-name="ring" unicode="&#x2da;" horiz-adv-x="373" 
d="M288 703q0 -42 -29.5 -71.5t-71.5 -29.5t-72 29.5t-30 71.5t30 72t72 30t71.5 -30t29.5 -72zM240 704q0 22 -15.5 37t-37.5 15t-37 -15t-15 -37t15 -37.5t37 -15.5t37.5 15.5t15.5 37.5z" />
    <glyph glyph-name="ogonek" unicode="&#x2db;" horiz-adv-x="366" 
d="M297 -179q0 -8 -11 -11q-30 -10 -76 -10q-131 0 -131 96q0 54 64 91l66 40q14 10 25 10h52q6 0 9 -3.5t2.5 -8t-4.5 -7.5l-87 -60q-22 -15 -30.5 -21.5t-16 -17.5t-7.5 -23q0 -38 69 -38q14 0 30.5 2.5t27.5 5t13 2.5q5 0 5 -8v-39z" />
    <glyph glyph-name="tilde" unicode="&#x2dc;" horiz-adv-x="493" 
d="M419 731q0 -53 -22.5 -79t-71.5 -26q-37 0 -64 21l-61 49q-28 22 -41 22q-31 0 -31 -46v-21q0 -7 -5 -12t-12 -5h-31q-7 0 -11.5 5t-4.5 12v21q0 53 25 81t70 28q29 0 60 -24l71 -56q18 -14 35 -14q16 0 23 9.5t7 34.5v23q0 7 5 12t12 5h31q7 0 11.5 -5t4.5 -12v-23z" />
    <glyph glyph-name="hungarumlaut" unicode="&#x2dd;" horiz-adv-x="373" 
d="M412 772q0 -4 -4 -8l-112 -126q-14 -15 -23 -15h-54q-9 0 -9 7q0 6 4 10l97 124q12 15 25 15h65q11 0 11 -7zM237 772q0 -4 -4 -8l-112 -126q-13 -15 -23 -15h-54q-9 0 -9 7q0 6 4 10l97 124q12 15 25 15h65q11 0 11 -7z" />
    <glyph glyph-name="uni03A9" unicode="&#x3a9;" horiz-adv-x="592" 
d="M556 21q0 -21 -23 -21h-181q-21 0 -21 21v113q0 13 2.5 17.5t11.5 7.5q125 44 125 214v88q0 213 -174 213t-174 -213v-88q0 -170 125 -214q9 -3 11.5 -7.5t2.5 -17.5v-113q0 -21 -21 -21h-181q-23 0 -23 21v34q0 20 23 20h121v37q-148 63 -148 261v88q0 140 69.5 217
t194.5 77t194.5 -77t69.5 -217v-88q0 -198 -148 -261v-37h121q23 0 23 -20v-34z" />
    <glyph glyph-name="uni03BC" unicode="&#x3bc;" horiz-adv-x="557" 
d="M489 44q0 -17 -19 -23q-76 -28 -185 -28q-79 0 -129 29v-198q0 -8 -6 -14t-14 -6h-48q-8 0 -14 6t-6 14v706q0 8 5.5 14t13.5 6h50q8 0 13.5 -6t5.5 -14v-329q0 -70 31 -101.5t98 -31.5q68 0 116 14v448q0 8 6 14t14 6h49q8 0 13.5 -6t5.5 -14v-486z" />
    <glyph glyph-name="pi" unicode="&#x3c0;" horiz-adv-x="552" 
d="M516 469h-69v-335q0 -46 9.5 -60.5t40.5 -14.5h24q10 0 10 -11v-43q0 -5 -1.5 -8t-3 -3.5t-6.5 -1.5q-20 -4 -40 -4q-67 0 -93.5 32.5t-26.5 113.5v335h-166v-449q0 -20 -14 -20h-60q-15 0 -15 20v449h-69q-9 0 -12 3t-3 12v50q0 10 3.5 13t11.5 3h480q8 0 11.5 -3
t3.5 -13v-50q0 -9 -3 -12t-12 -3z" />
    <glyph glyph-name="Wgrave" unicode="&#x1e80;" horiz-adv-x="825" 
d="M791 726v-3l-111 -676q-9 -51 -62 -51h-43q-21 0 -36 13.5t-21 36.5l-98 370q-2 9 -6 9h-1h-1q-4 0 -6 -9l-99 -370q-6 -23 -21 -36.5t-36 -13.5h-42q-53 0 -62 51l-111 676v3q0 17 17 17h58q14 0 17 -17l97 -637q3 -15 5 -15q4 0 7 15l98 370q10 40 47 40h64
q37 0 47 -40l98 -370q3 -15 7 -15q2 0 5 15l97 637q3 17 17 17h58q17 0 17 -17zM484 801q0 -7 -9 -7h-54q-9 0 -23 15l-113 126q-4 4 -4 8q0 7 11 7h66q13 0 25 -15l97 -124q4 -4 4 -10z" />
    <glyph glyph-name="wgrave" unicode="&#x1e81;" horiz-adv-x="786" 
d="M748 530v-4l-97 -464q-10 -46 -24 -57.5t-60 -11.5q-40 0 -55 13t-27 59l-87 340q-2 7 -5 7t-5 -7l-87 -340q-11 -44 -27 -58t-55 -14q-46 0 -60 11.5t-24 57.5l-97 464v4q0 8 5.5 14t13.5 6h54q15 0 17 -16l83 -456q2 -12 8 -12q5 0 8 12l98 384q8 30 40 30h56
q32 0 40 -30l98 -384q3 -12 8 -12q6 0 8 12l83 456q2 16 17 16h54q8 0 13.5 -6t5.5 -14zM464 630q0 -7 -9 -7h-54q-9 0 -23 15l-113 126q-4 4 -4 8q0 7 11 7h66q13 0 25 -15l97 -124q4 -4 4 -10z" />
    <glyph glyph-name="Wacute" unicode="&#x1e82;" horiz-adv-x="825" 
d="M791 726v-3l-111 -676q-9 -51 -62 -51h-43q-21 0 -36 13.5t-21 36.5l-98 370q-2 9 -6 9h-1h-1q-4 0 -6 -9l-99 -370q-6 -23 -21 -36.5t-36 -13.5h-42q-53 0 -62 51l-111 676v3q0 17 17 17h58q14 0 17 -17l97 -637q3 -15 5 -15q4 0 7 15l98 370q10 40 47 40h64
q37 0 47 -40l98 -370q3 -15 7 -15q2 0 5 15l97 637q3 17 17 17h58q17 0 17 -17zM559 944q0 -4 -4 -8l-113 -126q-14 -15 -23 -15h-54q-9 0 -9 7q0 6 4 10l98 124q12 15 24 15h66q11 0 11 -7z" />
    <glyph glyph-name="wacute" unicode="&#x1e83;" horiz-adv-x="786" 
d="M748 530v-4l-97 -464q-10 -46 -24 -57.5t-60 -11.5q-40 0 -55 13t-27 59l-87 340q-2 7 -5 7t-5 -7l-87 -340q-11 -44 -27 -58t-55 -14q-46 0 -60 11.5t-24 57.5l-97 464v4q0 8 5.5 14t13.5 6h54q15 0 17 -16l83 -456q2 -12 8 -12q5 0 8 12l98 384q8 30 40 30h56
q32 0 40 -30l98 -384q3 -12 8 -12q6 0 8 12l83 456q2 16 17 16h54q8 0 13.5 -6t5.5 -14zM542 772q0 -4 -4 -8l-113 -126q-13 -15 -23 -15h-54q-9 0 -9 7q0 6 4 10l98 124q12 15 24 15h66q11 0 11 -7z" />
    <glyph glyph-name="Wdieresis" unicode="&#x1e84;" horiz-adv-x="825" 
d="M791 726v-3l-111 -676q-9 -51 -62 -51h-43q-21 0 -36 13.5t-21 36.5l-98 370q-2 9 -6 9h-1h-1q-4 0 -6 -9l-99 -370q-6 -23 -21 -36.5t-36 -13.5h-42q-53 0 -62 51l-111 676v3q0 17 17 17h58q14 0 17 -17l97 -637q3 -15 5 -15q4 0 7 15l98 370q10 40 47 40h64
q37 0 47 -40l98 -370q3 -15 7 -15q2 0 5 15l97 637q3 17 17 17h58q17 0 17 -17zM539 813q0 -8 -6 -13.5t-14 -5.5h-39q-8 0 -14 5.5t-6 13.5v81q0 8 6 14t14 6h39q7 0 13.5 -6t6.5 -14v-81zM364 813q0 -8 -6 -13.5t-14 -5.5h-39q-8 0 -14 5.5t-6 13.5v81q0 8 6.5 14t13.5 6
h39q8 0 14 -6t6 -14v-81z" />
    <glyph glyph-name="wdieresis" unicode="&#x1e85;" horiz-adv-x="786" 
d="M748 530v-4l-97 -464q-10 -46 -24 -57.5t-60 -11.5q-40 0 -55 13t-27 59l-87 340q-2 7 -5 7t-5 -7l-87 -340q-11 -44 -27 -58t-55 -14q-46 0 -60 11.5t-24 57.5l-97 464v4q0 8 5.5 14t13.5 6h54q15 0 17 -16l83 -456q2 -12 8 -12q5 0 8 12l98 384q8 30 40 30h56
q32 0 40 -30l98 -384q3 -12 8 -12q6 0 8 12l83 456q2 16 17 16h54q8 0 13.5 -6t5.5 -14zM520 660q0 -8 -6 -13.5t-14 -5.5h-39q-8 0 -14 5.5t-6 13.5v81q0 7 6.5 13.5t13.5 6.5h39q8 0 14 -6.5t6 -13.5v-81zM345 660q0 -8 -6 -13.5t-14 -5.5h-39q-8 0 -14 5.5t-6 13.5v81
q0 7 6 13.5t14 6.5h39q7 0 13.5 -6.5t6.5 -13.5v-81z" />
    <glyph glyph-name="Ygrave" unicode="&#x1ef2;" horiz-adv-x="583" 
d="M549 729q0 -5 -3 -11l-155 -348q-24 -52 -54 -66v-284q0 -8 -5.5 -14t-12.5 -6h-55q-7 0 -12.5 6t-5.5 14v284q-29 11 -54 66l-154 348q-3 6 -3 11q0 14 17 14h61q12 0 18 -14l138 -324q11 -26 23 -26t23 26l139 324q6 14 17 14h61q17 0 17 -14zM356 801q0 -7 -9 -7h-54
q-9 0 -23 15l-113 126q-4 4 -4 8q0 7 11 7h66q13 0 25 -15l97 -124q4 -4 4 -10z" />
    <glyph glyph-name="ygrave" unicode="&#x1ef3;" horiz-adv-x="534" 
d="M495 533q0 -5 -1 -7l-165 -576q-24 -84 -61.5 -116t-121.5 -32q-46 0 -84 9q-21 5 -21 16v37q0 16 19 16h3q66 -6 89 -6q44 0 65.5 17t33.5 68l10 41h-14q-27 0 -44.5 13.5t-29.5 55.5l-133 457q-1 2 -1 7q0 17 18 17h55q13 0 17 -16l118 -434q5 -22 19 -22h16l122 457
q4 15 19 15h56q16 0 16 -17zM336 630q0 -7 -9 -7h-54q-9 0 -23 15l-113 126q-4 4 -4 8q0 7 11 7h66q13 0 25 -15l97 -124q4 -4 4 -10z" />
    <glyph glyph-name="endash" unicode="&#x2013;" horiz-adv-x="310" 
d="M325 263q0 -17 -19 -17h-302q-19 0 -19 17v39q0 8 5.5 13t13.5 5h302q8 0 13.5 -5t5.5 -13v-39z" />
    <glyph glyph-name="emdash" unicode="&#x2014;" horiz-adv-x="600" 
d="M615 263q0 -17 -19 -17h-592q-19 0 -19 17v39q0 8 5.5 13t13.5 5h592q8 0 13.5 -5t5.5 -13v-39z" />
    <glyph glyph-name="quoteleft" unicode="&#x2018;" horiz-adv-x="186" 
d="M157 742q0 -6 -1 -9l-37 -189q-4 -19 -20 -19h-59q-11 0 -11 11q0 5 1 8l61 189q5 19 19 19h38q9 0 9 -10z" />
    <glyph glyph-name="quoteright" unicode="&#x2019;" horiz-adv-x="186" 
d="M157 741q0 -5 -1 -8l-61 -189q-5 -19 -19 -19h-38q-9 0 -9 10q0 6 1 9l37 189q4 19 20 19h59q11 0 11 -11z" />
    <glyph glyph-name="quotesinglbase" unicode="&#x201a;" horiz-adv-x="186" 
d="M169 118q0 -2 -2 -8l-75 -189q-7 -19 -19 -19h-41q-12 0 -12 12q0 5 1 7l57 189q6 19 20 19h58q13 0 13 -11z" />
    <glyph glyph-name="quotedblleft" unicode="&#x201c;" horiz-adv-x="336" 
d="M307 742q0 -6 -1 -9l-37 -189q-4 -19 -20 -19h-59q-11 0 -11 11q0 5 1 8l61 189q5 19 19 19h38q9 0 9 -10zM157 742q0 -6 -1 -9l-37 -189q-4 -19 -20 -19h-59q-11 0 -11 11q0 5 1 8l61 189q5 19 19 19h38q9 0 9 -10z" />
    <glyph glyph-name="quotedblright" unicode="&#x201d;" horiz-adv-x="336" 
d="M307 741q0 -5 -1 -8l-61 -189q-5 -19 -19 -19h-38q-9 0 -9 10q0 6 1 9l37 189q4 19 20 19h59q11 0 11 -11zM157 741q0 -5 -1 -8l-61 -189q-5 -19 -19 -19h-38q-9 0 -9 10q0 6 1 9l37 189q4 19 20 19h59q11 0 11 -11z" />
    <glyph glyph-name="quotedblbase" unicode="&#x201e;" horiz-adv-x="336" 
d="M349 118q0 -2 -2 -8l-75 -189q-7 -19 -19 -19h-41q-12 0 -12 12q0 5 1 7l57 189q6 19 20 19h58q13 0 13 -11zM169 118q0 -2 -2 -8l-75 -189q-7 -19 -19 -19h-41q-12 0 -12 12q0 5 1 7l57 189q6 19 20 19h58q13 0 13 -11z" />
    <glyph glyph-name="dagger" unicode="&#x2020;" horiz-adv-x="404" 
d="M367 495q0 -16 -19 -16h-109v-459q0 -20 -16 -20h-57q-16 0 -16 20v459h-94q-19 0 -19 16v45q0 15 19 15h94v178q0 19 17 19h56q16 0 16 -19v-178h109q19 0 19 -15v-45z" />
    <glyph glyph-name="daggerdbl" unicode="&#x2021;" horiz-adv-x="404" 
d="M367 285q0 -16 -19 -16h-109v-249q0 -20 -16 -20h-57q-16 0 -16 20v249h-94q-19 0 -19 16v45q0 15 19 15h94v134h-94q-19 0 -19 16v45q0 15 19 15h94v178q0 19 17 19h56q16 0 16 -19v-178h109q19 0 19 -15v-45q0 -16 -19 -16h-109v-134h109q19 0 19 -15v-45z" />
    <glyph glyph-name="bullet" unicode="&#x2022;" horiz-adv-x="418" 
d="M368 367q0 -66 -46.5 -112.5t-112.5 -46.5t-112.5 46.5t-46.5 112.5t46.5 112.5t112.5 46.5t112.5 -46.5t46.5 -112.5z" />
    <glyph glyph-name="ellipsis" unicode="&#x2026;" horiz-adv-x="606" 
d="M548 19q0 -8 -5.5 -13.5t-13.5 -5.5h-48q-8 0 -14 5.5t-6 13.5v94q0 7 6 13t14 6h48q7 0 13 -6t6 -13v-94zM347 19q0 -8 -6 -13.5t-14 -5.5h-48q-8 0 -13.5 5.5t-5.5 13.5v94q0 7 6 13t13 6h48q8 0 14 -6t6 -13v-94zM145 19q0 -8 -5.5 -13.5t-13.5 -5.5h-48q-8 0 -14 5.5
t-6 13.5v94q0 7 6 13t14 6h48q8 0 13.5 -6t5.5 -13v-94z" />
    <glyph glyph-name="perthousand" unicode="&#x2030;" horiz-adv-x="1134" 
d="M1089 155q0 -80 -35 -121t-99 -41t-99.5 41t-35.5 121v93q0 81 35.5 121.5t99.5 40.5t99 -40.5t35 -121.5v-93zM749 155q0 -80 -35 -121t-99 -41t-99.5 41t-35.5 121v93q0 81 35.5 121.5t99.5 40.5t99 -40.5t35 -121.5v-93zM650 737q0 -3 -5 -13l-418 -708
q-11 -20 -22 -20h-52q-8 0 -8 6t5 14l418 708q11 19 23 19h51q8 0 8 -6zM314 496q0 -80 -35 -121t-99 -41t-99.5 41t-35.5 121v93q0 81 35 121t100 40q134 0 134 -161v-93zM1027 155v93q0 105 -72 105q-73 0 -73 -105v-93q0 -105 73 -105q72 0 72 105zM687 155v93
q0 105 -72 105q-73 0 -73 -105v-93q0 -105 73 -105q72 0 72 105zM252 496v93q0 105 -72 105q-73 0 -73 -105v-93q0 -105 73 -105q72 0 72 105z" />
    <glyph glyph-name="guilsinglleft" unicode="&#x2039;" horiz-adv-x="354" 
d="M300 79q0 -9 -11 -9h-58q-11 0 -21 10l-169 169q-11 11 -11 28t11 28l169 169q10 10 21 10h58q11 0 11 -9q0 -7 -6 -13l-178 -185l178 -185q6 -6 6 -13z" />
    <glyph glyph-name="guilsinglright" unicode="&#x203a;" horiz-adv-x="354" 
d="M324 277q0 -17 -11 -28l-169 -169q-10 -10 -21 -10h-58q-11 0 -11 9q0 7 6 13l178 185l-178 185q-6 6 -6 13q0 9 11 9h58q11 0 21 -10l169 -169q11 -11 11 -28z" />
    <glyph glyph-name="fraction" unicode="&#x2044;" horiz-adv-x="255" 
d="M369 743q17 0 6 -19l-418 -708q-11 -20 -22 -20h-47q-8 0 -10.5 5.5t2.5 14.5l421 713q6 10 9 12t11 2h48z" />
    <glyph glyph-name="n.superior" unicode="&#x207f;" horiz-adv-x="326" 
d="M286 337q0 -16 -17 -16h-26q-16 0 -16 16v185q0 39 -13.5 54t-43.5 15t-71 -19v-235q0 -6 -5 -11t-11 -5h-27q-16 0 -16 16v287q0 16 16 16h27q16 0 16 -16v-2q41 21 85 21q102 0 102 -121v-185z" />
    <glyph glyph-name="franc" unicode="&#x20a3;" horiz-adv-x="551" 
d="M496 680q0 -12 -11 -12h-193q-76 0 -99.5 -22t-23.5 -82v-139h307q8 0 14 -6t6 -14v-38q0 -8 -6 -14t-14 -6h-307v-95h118q8 0 14 -6t6 -14v-38q0 -8 -6 -14t-14 -6h-118v-154q0 -8 -6 -14t-14 -6h-51q-8 0 -14 6t-6 14v154h-58q-8 0 -14 6t-6 14v38q0 8 6 14t14 6h58
v312q0 98 53 142t160 44q132 0 195 -6q10 -2 10 -14v-50z" />
    <glyph glyph-name="lira" unicode="&#x20a4;" 
d="M445 217h-214v-22q0 -55 -35 -119h319q20 0 20 -15v-44q0 -17 -20 -17h-399q-17 0 -17 15v39q0 6 10 23q31 53 31 118v22h-52q-18 0 -18 18v42q0 7 6 12.5t14 5.5h50v72h-52q-18 0 -18 18v42q0 7 6 12.5t14 5.5h50v45q0 130 49 191t172 61q77 0 155 -13q12 -2 15.5 -5.5
t3.5 -11.5v-41q0 -17 -15 -17h-5q-97 11 -154 11q-77 0 -103.5 -36.5t-26.5 -138.5v-45h215q8 0 13.5 -5t5.5 -13v-42q0 -7 -6 -12.5t-14 -5.5h-214v-72h215q8 0 13.5 -5t5.5 -13v-42q0 -7 -6 -12.5t-14 -5.5z" />
    <glyph glyph-name="peseta" unicode="&#x20a7;" horiz-adv-x="1444" 
d="M548 520q0 -224 -280 -224q-35 0 -100 5v-281q0 -8 -5 -14t-13 -6h-54q-7 0 -12.5 6t-5.5 14v697q0 22 24 25q69 8 166 8q280 0 280 -217v-13zM457 520v13q0 75 -45.5 107.5t-143.5 32.5q-52 0 -100 -4v-293q92 -4 100 -4q102 0 145.5 34.5t43.5 113.5zM953 15
q0 -14 -18 -17q-33 -5 -65 -5q-73 0 -104.5 27.5t-31.5 106.5v349l-97 11q-19 2 -19 18v27q0 18 19 18h97v98q0 17 18 20l52 8h3q15 0 15 -17v-109h108q8 0 14 -6t6 -14v-34q0 -8 -6 -14t-14 -6h-108v-349q0 -40 11 -51.5t43 -11.5h56q21 0 21 -14v-35zM1394 138
q0 -74 -49.5 -109.5t-137.5 -35.5q-97 0 -158 15q-21 5 -21 20v35q0 15 18 15h4q88 -11 157 -11q51 0 75 16t24 55q0 22 -16 39.5t-59 43.5l-101 60q-102 62 -102 143q0 133 181 133q80 0 156 -13q19 -3 19 -20v-33q0 -17 -17 -17h-3q-93 8 -155 8q-48 0 -70.5 -11.5
t-22.5 -46.5q0 -21 16 -37.5t53 -38.5l99 -59q61 -36 85.5 -71t24.5 -80z" />
    <glyph glyph-name="Euro" unicode="&#x20ac;" 
d="M554 26q0 -16 -20 -20q-68 -13 -150 -13q-48 0 -92 13.5t-85.5 43t-69 85t-32.5 130.5h-33q-8 0 -14 6t-6 14v28q0 8 6 14t14 6h32v81h-32q-8 0 -14 6t-6 14v28q0 8 6 14t14 6h33q4 61 23.5 108.5t47.5 77t64.5 48.5t71.5 26.5t72 7.5q51 0 152 -16q16 -2 16 -13v-51
q0 -11 -12 -11h-3q-108 9 -152 9q-75 0 -127 -44t-61 -142h290q17 0 17 -16v-2l-1 -2l-7 -28q-5 -20 -20 -20h-281v-81h257q15 0 15 -15l-1 -2v-3l-7 -28q-5 -20 -20 -20h-243q8 -99 60.5 -144.5t128.5 -45.5q53 0 149 8h4q16 0 16 -16v-41z" />
    <glyph glyph-name="afii61289" unicode="&#x2113;" horiz-adv-x="450" 
d="M416 66q8 -14 -3 -24q-25 -23 -66.5 -38t-79.5 -15q-73 0 -105 40.5t-32 124.5v107l-62 -51q-15 -13 -24 0l-11 17q-8 13 2 22l95 80v273q0 92 34.5 136.5t109.5 44.5t110.5 -36.5t35.5 -92.5q0 -152 -201 -333v-163q0 -94 69 -94q41 0 89 31q16 11 26 -2zM363 654
q0 79 -72 79q-42 0 -57 -30t-15 -101v-212q75 77 109.5 137t34.5 127z" />
    <glyph glyph-name="trademark" unicode="&#x2122;" horiz-adv-x="790" 
d="M747 346q0 -10 -10 -10h-41q-10 0 -10 10v240q0 63 -18 83t-87 20v-343q0 -10 -10 -10h-42q-10 0 -10 10v343q-50 0 -106 -6v-337q0 -10 -9 -10h-41q-10 0 -10 10v371q0 18 15 19q97 10 182 10q110 0 153.5 -31.5t43.5 -128.5v-240zM317 703q0 -14 -17 -14h-97v-337
q0 -6 -4.5 -11t-11.5 -5h-32q-15 0 -15 16v337h-99q-16 0 -16 14v25q0 15 16 15h259q6 0 11.5 -4.5t5.5 -10.5v-25z" />
    <glyph glyph-name="Omega" unicode="&#x2126;" horiz-adv-x="592" 
d="M556 21q0 -21 -23 -21h-181q-21 0 -21 21v113q0 13 2.5 17.5t11.5 7.5q125 44 125 214v88q0 213 -174 213t-174 -213v-88q0 -170 125 -214q9 -3 11.5 -7.5t2.5 -17.5v-113q0 -21 -21 -21h-181q-23 0 -23 21v34q0 20 23 20h121v37q-148 63 -148 261v88q0 140 69.5 217
t194.5 77t194.5 -77t69.5 -217v-88q0 -198 -148 -261v-37h121q23 0 23 -20v-34z" />
    <glyph glyph-name="estimated" unicode="&#x212e;" horiz-adv-x="606" 
d="M577 282h-429v-193q66 -63 152 -63q76 0 123 33t87 94l31 -19q-44 -68 -99 -104.5t-142 -36.5q-119 0 -195 84.5t-76 205.5q0 123 75 206.5t200 83.5q124 0 198.5 -84.5t74.5 -206.5zM457 315v163q-68 62 -153 62q-96 0 -156 -62v-163h309z" />
    <glyph glyph-name="onethird" unicode="&#x2153;" horiz-adv-x="747" 
d="M580 737q0 -3 -5 -13l-418 -708q-11 -20 -22 -20h-49q-10 0 -10 8q0 7 4 12l418 708q11 19 23 19h51q8 0 8 -6zM121 672l-64 -27q-17 -6 -17 13v28q0 10 10 13l80 38q12 6 32 6h6q11 0 14 -4.5t3 -14.5v-378q0 -7 -5 -13t-12 -6h-30q-7 0 -12 5.5t-5 13.5v326zM707 119
q0 -63 -38 -93t-104 -30q-38 0 -93 11q-16 4 -16 18v18q0 18 19 18q53 -8 90 -8q40 0 58 15.5t18 50.5v11q0 23 -13 41t-42 18h-98q-17 0 -17 16v20q0 17 17 17h98q55 0 55 57v7q0 30 -17.5 43.5t-58.5 13.5q-20 0 -80 -8q-1 0 -5 -0.5t-7 -0.5q-17 0 -17 18v18q0 13 15 19
q50 10 94 10q142 0 142 -113v-7q0 -56 -43 -84q43 -27 43 -85v-11z" />
    <glyph glyph-name="twothirds" unicode="&#x2154;" horiz-adv-x="886" 
d="M295 642q0 -33 -17 -58t-55 -53q-39 -25 -52 -35q-42 -29 -57 -51.5t-15 -55.5v-4h173q18 0 18 -17v-23q0 -8 -5.5 -13t-12.5 -5h-214q-7 0 -12.5 5t-5.5 13v44q0 91 86 148l55 36h-1q33 24 42.5 36t9.5 33q0 48 -73 48q-38 0 -97 -9q-16 0 -16 18v19q0 13 15 18
q40 10 98 10q136 0 136 -104zM683 743q17 0 6 -19l-418 -708q-11 -20 -22 -20h-47q-8 0 -10.5 5.5t2.5 14.5l421 713q6 10 9 12t11 2h48zM846 119q0 -63 -38 -93t-104 -30q-38 0 -93 11q-16 4 -16 18v18q0 18 19 18q53 -8 90 -8q40 0 58 15.5t18 50.5v11q0 23 -13 41t-42 18
h-98q-17 0 -17 16v20q0 17 17 17h98q55 0 55 57v7q0 30 -17.5 43.5t-58.5 13.5q-20 0 -80 -8q-1 0 -5 -0.5t-7 -0.5q-17 0 -17 18v18q0 13 15 19q50 10 94 10q142 0 142 -113v-7q0 -56 -43 -84q43 -27 43 -85v-11z" />
    <glyph glyph-name="oneeighth" unicode="&#x215b;" horiz-adv-x="759" 
d="M569 743q17 0 6 -19l-418 -708q-11 -20 -22 -20h-47q-8 0 -10.5 5.5t2.5 14.5l421 713q6 10 9 12t11 2h48zM121 672l-64 -27q-17 -6 -17 13v28q0 10 10 13l80 38q12 6 32 6h6q11 0 14 -4.5t3 -14.5v-378q0 -7 -5 -13t-12 -6h-30q-7 0 -12 5.5t-5 13.5v326zM719 119
q0 -60 -39.5 -91.5t-99.5 -31.5h-5q-60 0 -99.5 32t-39.5 91v10q0 24 12 48t33 39q-44 33 -44 84v5q0 57 38 85.5t100 28.5h5q63 0 100.5 -28.5t37.5 -85.5v-5q0 -53 -44 -84q45 -31 45 -87v-10zM654 119v10q0 24 -14.5 42.5t-44.5 18.5h-34q-30 0 -45 -18.5t-15 -42.5v-10
q0 -66 74 -66h5q74 0 74 66zM655 300v5q0 59 -75 59h-5q-74 0 -74 -59v-5q0 -24 14.5 -40.5t45.5 -16.5h34q30 0 45 16.5t15 40.5z" />
    <glyph glyph-name="threeeighths" unicode="&#x215c;" horiz-adv-x="833" 
d="M793 119q0 -60 -39.5 -91.5t-99.5 -31.5h-5q-60 0 -99.5 32t-39.5 91v10q0 24 12 48t33 39q-44 33 -44 84v5q0 57 38 85.5t100 28.5h5q63 0 100.5 -28.5t37.5 -85.5v-5q0 -53 -44 -84q45 -31 45 -87v-10zM728 119v10q0 24 -14.5 42.5t-44.5 18.5h-34q-30 0 -45 -18.5
t-15 -42.5v-10q0 -66 74 -66h5q74 0 74 66zM729 300v5q0 59 -75 59h-5q-74 0 -74 -59v-5q0 -24 14.5 -40.5t45.5 -16.5h34q30 0 45 16.5t15 40.5zM643 743q17 0 6 -19l-418 -708q-11 -20 -22 -20h-47q-8 0 -10.5 5.5t2.5 14.5l421 713q6 10 9 12t11 2h48zM291 446
q0 -63 -38 -93t-104 -30q-38 0 -93 11q-16 4 -16 18v18q0 18 19 18q53 -8 90 -8q40 0 58 15.5t18 50.5v11q0 23 -13 41t-42 18h-98q-17 0 -17 16v20q0 17 17 17h98q55 0 55 57v7q0 30 -17.5 43.5t-58.5 13.5q-20 0 -80 -8q-1 0 -5 -0.5t-7 -0.5q-17 0 -17 18v18q0 13 15 19
q50 10 94 10q142 0 142 -113v-7q0 -56 -43 -84q43 -27 43 -85v-11z" />
    <glyph glyph-name="fiveeighths" unicode="&#x215d;" horiz-adv-x="829" 
d="M639 743q17 0 6 -19l-418 -708q-11 -20 -22 -20h-47q-8 0 -10.5 5.5t2.5 14.5l421 713q6 10 9 12t11 2h48zM789 119q0 -60 -39.5 -91.5t-99.5 -31.5h-5q-60 0 -99.5 32t-39.5 91v10q0 24 12 48t33 39q-44 33 -44 84v5q0 57 38 85.5t100 28.5h5q63 0 100.5 -28.5
t37.5 -85.5v-5q0 -53 -44 -84q45 -31 45 -87v-10zM724 119v10q0 24 -14.5 42.5t-44.5 18.5h-34q-30 0 -45 -18.5t-15 -42.5v-10q0 -66 74 -66h5q74 0 74 66zM725 300v5q0 59 -75 59h-5q-74 0 -74 -59v-5q0 -24 14.5 -40.5t45.5 -16.5h34q30 0 45 16.5t15 40.5zM297 456
q0 -63 -38 -98t-107 -35q-57 0 -96 10q-16 5 -16 18v20q0 17 19 17q47 -8 93 -8q81 0 81 76v9q0 35 -24.5 49t-80.5 14h-65q-6 0 -11 6t-5 13l14 179q3 17 19 17h186q18 0 18 -18v-24q0 -16 -18 -16h-148l-7 -100h17q84 0 126.5 -27t42.5 -93v-9z" />
    <glyph glyph-name="seveneighths" unicode="&#x215e;" horiz-adv-x="774" 
d="M584 743q17 0 6 -19l-418 -708q-11 -20 -22 -20h-47q-8 0 -10.5 5.5t2.5 14.5l421 713q6 10 9 12t11 2h48zM734 119q0 -60 -39.5 -91.5t-99.5 -31.5h-5q-60 0 -99.5 32t-39.5 91v10q0 24 12 48t33 39q-44 33 -44 84v5q0 57 38 85.5t100 28.5h5q63 0 100.5 -28.5
t37.5 -85.5v-5q0 -53 -44 -84q45 -31 45 -87v-10zM669 119v10q0 24 -14.5 42.5t-44.5 18.5h-34q-30 0 -45 -18.5t-15 -42.5v-10q0 -66 74 -66h5q74 0 74 66zM670 300v5q0 59 -75 59h-5q-74 0 -74 -59v-5q0 -24 14.5 -40.5t45.5 -16.5h34q30 0 45 16.5t15 40.5zM76 351
l160 334h-177q-19 0 -19 16v23q0 8 6 13.5t13 5.5h205q39 0 39 -36q0 -21 -8 -38l-156 -333q-5 -9 -17 -9h-36q-9 0 -12 7t2 17z" />
    <glyph glyph-name="partialdiff" unicode="&#x2202;" horiz-adv-x="560" 
d="M520 474q0 -102 -22 -232q-46 -252 -262 -252q-98 0 -147 50.5t-49 140.5q0 40 13 121q40 238 255 238q84 0 128 -48q-1 4 -3 14q-2 47 -11 82t-30 68t-63 51t-103 18q-52 0 -100 -8q-9 -2 -13.5 0.5t-3.5 9.5l4 29q1 16 17 20q49 10 107 10q283 0 283 -312zM421 355
q0 56 -26.5 84.5t-86.5 28.5q-138 0 -165 -175q-13 -89 -13 -113q0 -119 113 -119q135 0 164 176q14 82 14 118z" />
    <glyph glyph-name="Delta" unicode="&#x2206;" horiz-adv-x="633" 
d="M604 16q0 -16 -17 -16h-541q-17 0 -17 16q0 5 1 7l185 651q21 76 102 76q80 0 101 -75l185 -652q1 -2 1 -7zM492 79l-156 574q-5 18 -19 18q-15 0 -20 -18l-156 -574h351z" />
    <glyph glyph-name="product" unicode="&#x220f;" horiz-adv-x="641" 
d="M620 671q0 -10 -11 -10h-72v-718q0 -18 -17 -18h-56q-17 0 -17 18v718h-252v-718q0 -18 -17 -18h-56q-17 0 -17 18v718h-73q-11 0 -11 10v61q0 7 2.5 9t8.5 2h577q6 0 8.5 -2t2.5 -9v-61z" />
    <glyph glyph-name="summation" unicode="&#x2211;" horiz-adv-x="517" 
d="M462 -59q0 -16 -14 -16h-376q-17 0 -17 20v46q0 14 6 24l191 307q3 5 3 12t-3 12l-191 307q-6 10 -6 24v46q0 20 17 20h376q14 0 14 -16v-48q0 -17 -14 -17h-278q-8 0 -3 -9l177 -285q6 -9 6 -20v-28q0 -11 -6 -20l-177 -285q-5 -9 3 -9h278q14 0 14 -17v-48z" />
    <glyph glyph-name="minus" unicode="&#x2212;" 
d="M526 371q0 -16 -20 -16h-415q-20 0 -20 16v40q0 16 20 16h415q20 0 20 -16v-40z" />
    <glyph glyph-name="uni2215" unicode="&#x2215;" horiz-adv-x="255" 
d="M369 743q17 0 6 -19l-418 -708q-11 -20 -22 -20h-47q-8 0 -10.5 5.5t2.5 14.5l421 713q6 10 9 12t11 2h48z" />
    <glyph glyph-name="uni2219" unicode="&#x2219;" horiz-adv-x="214" 
d="M150 345q0 -8 -5.5 -14t-13.5 -6h-48q-8 0 -13.5 6t-5.5 14v93q0 8 5.5 13.5t13.5 5.5h48q8 0 13.5 -5.5t5.5 -13.5v-93z" />
    <glyph glyph-name="radical" unicode="&#x221a;" horiz-adv-x="730" 
d="M694 859l-285 -918q-4 -16 -25 -16h-74q-14 0 -20 18l-138 452q-2 7 -4 9t-8 2h-97q-11 0 -11 12v47q0 14 11 14h148q15 0 20 -15l139 -472l262 866q5 13 10 14q2 1 7 1h55q15 0 10 -14z" />
    <glyph glyph-name="infinity" unicode="&#x221e;" horiz-adv-x="614" 
d="M574 364q0 -217 -154 -217h-6q-77 0 -124 52q-35 -54 -97 -54h-6q-38 0 -65.5 14t-43 35t-24.5 52t-11.5 57.5t-2.5 59.5v25q0 218 153 218h7q72 0 122 -53q35 54 100 54h6q38 0 65.5 -14t42.5 -35t24 -52t11.5 -57.5t2.5 -59.5v-25zM502 364v25q0 36 -2 59.5t-9 48
t-23 36.5t-40 12h-6q-36 0 -52 -35t-30 -135q-14 -92 -23 -119q42 -48 97 -48h6q82 0 82 156zM294 493q-43 51 -95 51h-5q-81 0 -81 -156v-25q0 -36 2 -59t9 -47.5t22.5 -37t40.5 -12.5h6q34 0 51 36.5t31 137.5q14 96 19 112z" />
    <glyph glyph-name="integral" unicode="&#x222b;" horiz-adv-x="451" 
d="M413 700q0 -10 -11 -9q-38 2 -76 2q-39 0 -48 -15.5t-9 -70.5v-654q0 -38 -4 -62t-16.5 -47.5t-40.5 -35t-71 -11.5q-49 0 -89 10q-10 1 -10 13v40q0 10 11 9q38 -2 76 -2q39 0 48 15.5t9 70.5v654q0 38 4 62t16.5 47.5t40.5 35t71 11.5q49 0 89 -10q10 -1 10 -13v-40z
" />
    <glyph glyph-name="approxequal" unicode="&#x2248;" 
d="M481 542q0 -105 -89 -105q-42 0 -78 28l-52 42q-28 22 -44 22q-28 0 -28 -46v-21q0 -17 -17 -17h-31q-16 0 -16 17v21q0 53 24 81t65 28q21 0 37 -7t43 -28l57 -45q18 -14 38 -14q27 0 27 44v23q0 17 17 17h31q16 0 16 -17v-23zM481 302q0 -105 -89 -105q-42 0 -78 28
l-52 42q-28 22 -44 22q-28 0 -28 -46v-21q0 -17 -17 -17h-31q-16 0 -16 17v21q0 53 24 81t65 28q21 0 37 -7t43 -28l57 -45q18 -14 38 -14q27 0 27 44v23q0 17 17 17h31q16 0 16 -17v-23z" />
    <glyph glyph-name="notequal" unicode="&#x2260;" 
d="M515 261q0 -16 -20 -16h-203l-77 -226q-6 -19 -25 -19h-37q-7 0 -11 5.5t-2 13.5l77 226h-107q-20 0 -20 16v40q0 16 20 16h132l51 149h-183q-20 0 -20 16v40q0 16 20 16h208l66 192q6 19 25 19h37q7 0 11 -5.5t2 -13.5l-66 -192h102q20 0 20 -16v-40q0 -16 -20 -16h-127
l-51 -149h178q20 0 20 -16v-40z" />
    <glyph glyph-name="lessequal" unicode="&#x2264;" horiz-adv-x="525" 
d="M405 163q0 -11 -13 -11h-69q-13 0 -24 12l-201 201q-13 10 -13 33q0 22 13 32l201 201q11 12 24 12h69q13 0 13 -11q0 -8 -8 -15l-220 -219l220 -220q8 -7 8 -15zM490 16q0 -16 -20 -16h-415q-20 0 -20 16v33q0 16 20 16h415q20 0 20 -16v-33z" />
    <glyph glyph-name="greaterequal" unicode="&#x2265;" horiz-adv-x="525" 
d="M120 163q0 8 8 15l220 220l-220 219q-8 7 -8 15q0 11 13 11h69q13 0 24 -12l201 -201q13 -10 13 -32q0 -23 -13 -33l-201 -201q-11 -12 -24 -12h-69q-13 0 -13 11zM35 16v33q0 16 20 16h415q20 0 20 -16v-33q0 -16 -20 -16h-415q-20 0 -20 16z" />
    <glyph glyph-name="lozenge" unicode="&#x25ca;" horiz-adv-x="517" 
d="M477 360q0 -23 -22 -50l-154 -190q-23 -29 -42 -29q-20 0 -43 29l-154 190q-22 29 -22 50q0 23 22 51l156 195q18 22 41 22t40 -22l156 -195q22 -28 22 -51zM395 359q0 9 -11 25l-106 135q-10 13 -19 13q-8 0 -20 -13l-106 -135q-10 -14 -10 -25q0 -12 12 -27l103 -129
q15 -16 21 -16t21 16l103 129q12 17 12 27z" />
    <glyph glyph-name="j.dotless" unicode="&#xe008;" horiz-adv-x="247" 
d="M167 -64q0 -75 -30.5 -104t-94.5 -29q-27 0 -54 4q-18 3 -18 16v37q0 14 21 14h41q28 0 37.5 12t9.5 50v594q0 8 5 14t13 6h52q18 0 18 -20v-594z" />
    <glyph glyph-name="uni2014.alt" unicode="&#xe009;" horiz-adv-x="600" 
d="M555 263q0 -17 -19 -17h-472q-19 0 -19 17v39q0 8 5.5 13t13.5 5h472q8 0 13.5 -5t5.5 -13v-39z" />
    <glyph glyph-name="zero.fitted" unicode="&#xf639;" 
d="M548 304q0 -311 -245 -311q-246 0 -246 311v135q0 311 246 311q245 0 245 -311v-135zM457 304v135q0 234 -154 234t-154 -234v-135q0 -234 154 -234t154 234z" />
    <glyph glyph-name="two.fitted" unicode="&#xf63a;" 
d="M526 571q0 -58 -29.5 -101.5t-100.5 -91.5l-96 -65q-82 -55 -111 -100.5t-29 -112.5v-21h337q20 0 20 -17v-44q0 -18 -20 -18h-397q-8 0 -14 5.5t-6 13.5v81q0 161 153 263l101 68q63 43 83 69.5t20 70.5q0 54 -35 78.5t-115 24.5q-72 0 -177 -15h-4q-16 0 -16 18v35
q0 14 19 18q78 20 178 20q122 0 180.5 -43.5t58.5 -135.5z" />
    <glyph glyph-name="three.fitted" unicode="&#xf63b;" 
d="M521 207q0 -108 -67 -161t-182 -53q-82 0 -169 20q-19 4 -19 19v34q0 17 17 17h3q105 -14 168 -14q82 0 119 33t37 105v21q0 48 -27.5 85t-89.5 37h-182q-19 0 -19 18v35q0 19 19 19h182q65 0 91 35t26 84v14q0 62 -36 90.5t-120 28.5q-46 0 -168 -15h-3q-17 0 -17 17v35
q0 15 19 19q96 20 169 20q120 0 184.5 -45t64.5 -150v-14q0 -51 -24.5 -92t-70.5 -64q95 -47 95 -157v-21z" />
    <glyph glyph-name="four.fitted" unicode="&#xf63c;" 
d="M567 216q0 -18 -19 -18h-87v-178q0 -20 -17 -20h-58q-17 0 -17 20v178h-289q-23 0 -32 8.5t-9 30.5v38q0 21 12 37l296 415q10 16 29 16h59q26 0 26 -22v-447h87q19 0 19 -18v-40zM370 274v342q0 6 -4 6h-1q-4 0 -8 -6l-231 -328q-3 -4 -3 -8q0 -6 8 -6h239z" />
    <glyph glyph-name="five.fitted" unicode="&#xf63d;" 
d="M528 226q0 -111 -67 -172t-188 -61q-101 0 -176 18q-19 5 -19 20v37q0 15 15 15h5q80 -14 175 -14q163 0 163 157v15q0 74 -48.5 104t-160.5 30h-120q-7 0 -11.5 5t-4.5 12v1l28 333q2 17 20 17h344q20 0 20 -17v-44q0 -16 -20 -16h-287l-16 -216h47q148 0 224.5 -47.5
t76.5 -161.5v-15z" />
    <glyph glyph-name="six.fitted" unicode="&#xf63e;" 
d="M546 246q0 -121 -61.5 -187t-182.5 -66q-115 0 -178.5 70.5t-63.5 213.5v175q0 157 65 227.5t196 70.5q95 0 172 -17q23 -6 23 -19v-39q0 -18 -18 -18q-1 0 -3 0.5t-3 0.5q-82 16 -171 16q-45 0 -77 -11t-50 -28.5t-28 -48t-13 -60.5t-3 -74v-11q91 20 151 20
q109 0 177 -48.5t68 -160.5v-6zM456 246v6q0 75 -43.5 106.5t-111.5 31.5q-79 0 -151 -18v-95q0 -117 37.5 -163.5t114.5 -46.5q74 0 114 41.5t40 137.5z" />
    <glyph glyph-name="seven.fitted" unicode="&#xf63f;" horiz-adv-x="541" 
d="M500 680q0 -24 -13 -52l-288 -613q-7 -15 -22 -15h-60q-15 0 -15 15q0 5 3 11l302 628q1 1 1 4q0 7 -7 7h-341q-20 0 -20 17v42q0 8 6 13.5t14 5.5h365q75 0 75 -63z" />
    <glyph glyph-name="eight.fitted" unicode="&#xf640;" 
d="M551 207q0 -105 -68.5 -159.5t-174.5 -54.5h-10q-106 0 -174.5 54.5t-68.5 159.5v19q0 47 25.5 92t71.5 70q-46 24 -70.5 64.5t-24.5 91.5v9q0 99 66 148t175 49h10q109 0 175 -49t66 -148v-9q0 -51 -24.5 -91.5t-70.5 -64.5q46 -25 71.5 -70t25.5 -92v-19zM461 544v9
q0 60 -39.5 91.5t-113.5 31.5h-10q-74 0 -113.5 -31.5t-39.5 -91.5v-9q0 -51 31 -85.5t96 -34.5h62q65 0 96 34.5t31 85.5zM460 207v19q0 50 -31.5 88t-94.5 38h-62q-63 0 -94.5 -38t-31.5 -88v-19q0 -65 39.5 -101.5t112.5 -36.5h10q73 0 112.5 36.5t39.5 101.5z" />
    <glyph glyph-name="nine.fitted" unicode="&#xf641;" 
d="M537 291q0 -157 -65 -227.5t-196 -70.5q-95 0 -172 17q-24 6 -24 19v39q0 18 18 18q1 0 3 -0.5t3 -0.5q82 -16 171 -16q45 0 77 11t50.5 28.5t28.5 48t13 60.5t3 74v11q-93 -20 -151 -20q-110 0 -178 48.5t-68 160.5v6q0 121 62 187t182 66q116 0 179.5 -70.5
t63.5 -213.5v-175zM446 371l1 95q0 117 -37.5 163.5t-114.5 46.5q-75 0 -115 -41t-40 -138v-6q0 -75 43.5 -106.5t111.5 -31.5q79 0 151 18z" />
    <glyph glyph-name="zero.taboldstyle" unicode="&#xf643;" 
d="M548 269q0 -139 -64 -207.5t-181 -68.5t-181.5 68.5t-64.5 207.5v15q0 139 64.5 207.5t181.5 68.5t181 -68.5t64 -207.5v-15zM457 269v15q0 101 -40.5 150t-113.5 49t-113.5 -49t-40.5 -150v-15q0 -101 40.5 -150t113.5 -49t113.5 49t40.5 150z" />
    <glyph glyph-name="one.taboldstyle" unicode="&#xf644;" 
d="M500 0h-410q-20 0 -20 18v44q0 17 20 17h159v376l-157 -66q-22 -8 -22 8v51q0 7 10 13l179 82q12 6 21 6h41q8 0 13.5 -5.5t5.5 -13.5v-451h160q20 0 20 -17v-44q0 -18 -20 -18z" />
    <glyph glyph-name="two.taboldstyle" unicode="&#xf645;" 
d="M526 395q0 -75 -51 -120.5t-138 -78.5q-102 -38 -129.5 -59t-37.5 -58h327q20 0 20 -17v-44q0 -18 -20 -18h-397q-8 0 -14 5.5t-6 13.5v38q0 89 68 138q34 24 144 72q94 40 119.5 60.5t25.5 67.5q0 52 -33 70.5t-117 18.5q-72 0 -177 -15h-4q-16 0 -16 18v35q0 14 19 18
q78 20 178 20q125 0 182 -37.5t57 -127.5z" />
    <glyph glyph-name="three.taboldstyle" unicode="&#xf646;" 
d="M521 17q0 -108 -67 -161t-182 -53q-82 0 -169 20q-19 4 -19 19v34q0 17 17 17h3q105 -14 168 -14q82 0 119 33t37 105v21q0 48 -27.5 85t-89.5 37h-182q-19 0 -19 18v35q0 19 19 19h182q65 0 91 35t26 84v14q0 62 -36 90.5t-120 28.5q-46 0 -168 -15h-3q-17 0 -17 17v35
q0 15 19 19q96 20 169 20q120 0 184.5 -45t64.5 -150v-14q0 -51 -24.5 -92t-70.5 -64q95 -47 95 -157v-21z" />
    <glyph glyph-name="four.taboldstyle" unicode="&#xf647;" 
d="M567 22q0 -18 -19 -18h-87v-178q0 -20 -17 -20h-58q-17 0 -17 20v178h-289q-23 0 -32 8.5t-9 30.5v38q0 21 12 37l296 415q10 16 29 16h59q26 0 26 -22v-447h87q19 0 19 -18v-40zM370 80v342q0 6 -4 6h-1q-4 0 -8 -6l-231 -328q-3 -4 -3 -8q0 -6 8 -6h239z" />
    <glyph glyph-name="five.taboldstyle" unicode="&#xf648;" 
d="M528 33q0 -111 -67 -172t-188 -61q-101 0 -176 18q-19 5 -19 20v37q0 15 15 15h5q80 -14 175 -14q163 0 163 157v15q0 74 -48.5 104t-160.5 30h-120q-7 0 -11.5 5t-4.5 12v1l28 333q2 17 20 17h344q20 0 20 -17v-44q0 -16 -20 -16h-287l-16 -216h47q148 0 224.5 -47.5
t76.5 -161.5v-15z" />
    <glyph glyph-name="six.taboldstyle" unicode="&#xf649;" 
d="M546 246q0 -121 -61.5 -187t-182.5 -66q-115 0 -178.5 70.5t-63.5 213.5v175q0 157 65 227.5t196 70.5q95 0 172 -17q23 -6 23 -19v-39q0 -18 -18 -18q-1 0 -3 0.5t-3 0.5q-82 16 -171 16q-45 0 -77 -11t-50 -28.5t-28 -48t-13 -60.5t-3 -74v-11q91 20 151 20
q109 0 177 -48.5t68 -160.5v-6zM456 246v6q0 75 -43.5 106.5t-111.5 31.5q-79 0 -151 -18v-95q0 -117 37.5 -163.5t114.5 -46.5q74 0 114 41.5t40 137.5z" />
    <glyph glyph-name="seven.taboldstyle" unicode="&#xf64a;" 
d="M533 486q0 -24 -13 -52l-288 -613q-8 -15 -22 -15h-60q-15 0 -15 15q0 5 3 11l302 628q1 1 1 4q0 7 -7 7h-341q-20 0 -20 17v42q0 8 6 13.5t14 5.5h365q75 0 75 -63z" />
    <glyph glyph-name="eight.taboldstyle" unicode="&#xf64b;" 
d="M551 207q0 -105 -68.5 -159.5t-174.5 -54.5h-10q-106 0 -174.5 54.5t-68.5 159.5v19q0 47 25.5 92t71.5 70q-46 24 -70.5 64.5t-24.5 91.5v9q0 99 66 148t175 49h10q109 0 175 -49t66 -148v-9q0 -51 -24.5 -91.5t-70.5 -64.5q46 -25 71.5 -70t25.5 -92v-19zM461 544v9
q0 60 -39.5 91.5t-113.5 31.5h-10q-74 0 -113.5 -31.5t-39.5 -91.5v-9q0 -51 31 -85.5t96 -34.5h62q65 0 96 34.5t31 85.5zM460 207v19q0 50 -31.5 88t-94.5 38h-62q-63 0 -94.5 -38t-31.5 -88v-19q0 -65 39.5 -101.5t112.5 -36.5h10q73 0 112.5 36.5t39.5 101.5z" />
    <glyph glyph-name="nine.taboldstyle" unicode="&#xf64c;" 
d="M537 101q0 -157 -65 -227.5t-196 -70.5q-95 0 -172 17q-24 6 -24 19v39q0 18 18 18q1 0 3 -0.5t3 -0.5q82 -16 171 -16q45 0 77 11t50.5 28.5t28.5 48t13 60.5t3 74v11q-93 -20 -151 -20q-110 0 -178 48.5t-68 160.5v6q0 121 62 187t182 66q116 0 179.5 -70.5
t63.5 -213.5v-175zM446 181l1 95q0 117 -37.5 163.5t-114.5 46.5q-75 0 -115 -41t-40 -138v-6q0 -75 43.5 -106.5t111.5 -31.5q79 0 151 18z" />
    <glyph glyph-name="zero.denominator" unicode="&#xf655;" horiz-adv-x="333" 
d="M306 171q0 -175 -139 -175q-141 0 -141 175v72q0 176 141 176q139 0 139 -176v-72zM241 171v72q0 119 -74 119q-75 0 -75 -119v-72q0 -117 75 -117q74 0 74 117z" />
    <glyph glyph-name="one.denominator" unicode="&#xf656;" horiz-adv-x="333" 
d="M175 345l-64 -27q-17 -6 -17 13v28q0 10 10 13l80 38q12 6 32 6h6q11 0 14 -4.5t3 -14.5v-378q0 -7 -5 -13t-12 -6h-30q-7 0 -12 5.5t-5 13.5v326z" />
    <glyph glyph-name="two.denominator" unicode="&#xf657;" horiz-adv-x="333" 
d="M294 315q0 -33 -17 -58t-55 -53q-39 -25 -52 -35q-42 -29 -57 -51.5t-15 -55.5v-4h173q18 0 18 -17v-23q0 -8 -5.5 -13t-12.5 -5h-214q-7 0 -12.5 5t-5.5 13v44q0 91 86 148l55 36h-1q33 24 42.5 36t9.5 33q0 48 -73 48q-38 0 -97 -9q-16 0 -16 18v19q0 13 15 18
q40 10 98 10q136 0 136 -104z" />
    <glyph glyph-name="three.denominator" unicode="&#xf658;" horiz-adv-x="333" 
d="M292 119q0 -63 -38 -93t-104 -30q-38 0 -93 11q-16 4 -16 18v18q0 18 19 18q53 -8 90 -8q40 0 58 15.5t18 50.5v11q0 23 -13 41t-42 18h-98q-17 0 -17 16v20q0 17 17 17h98q55 0 55 57v7q0 30 -17.5 43.5t-58.5 13.5q-20 0 -80 -8q-1 0 -5 -0.5t-7 -0.5q-17 0 -17 18v18
q0 13 15 19q50 10 94 10q142 0 142 -113v-7q0 -56 -43 -84q43 -27 43 -85v-11z" />
    <glyph glyph-name="four.denominator" unicode="&#xf659;" horiz-adv-x="333" 
d="M317 124q0 -17 -19 -17h-38v-88q0 -7 -5 -13t-13 -6h-31q-17 0 -17 19v88h-147q-17 0 -24 6t-7 22v20q0 15 8 26l162 224q6 11 20 11h31q23 0 23 -20v-233h38q8 0 13.5 -5t5.5 -12v-22zM195 163v162l-113 -162h113z" />
    <glyph glyph-name="five.denominator" unicode="&#xf65a;" horiz-adv-x="333" 
d="M295 129q0 -63 -38 -98t-107 -35q-57 0 -96 10q-16 5 -16 18v20q0 17 19 17q47 -8 93 -8q81 0 81 76v9q0 35 -24.5 49t-80.5 14h-65q-6 0 -11 6t-5 13l14 179q3 17 19 17h186q18 0 18 -18v-24q0 -16 -18 -16h-148l-7 -100h17q84 0 126.5 -27t42.5 -93v-9z" />
    <glyph glyph-name="six.denominator" unicode="&#xf65b;" horiz-adv-x="333" 
d="M305 140q0 -69 -35 -106.5t-104 -37.5q-65 0 -101.5 40t-36.5 120v95q0 89 37 128.5t112 39.5q54 0 94 -9q18 -4 18 -18v-21q0 -13 -8 -15t-23 1q-63 6 -81 6q-52 0 -68 -26.5t-16 -81.5q34 9 73 9q62 0 100.5 -28t38.5 -92v-4zM241 140v4q0 66 -75 66q-43 0 -73 -8v-46
q0 -58 18 -81t55 -23q75 0 75 88z" />
    <glyph glyph-name="seven.denominator" unicode="&#xf65c;" horiz-adv-x="333" 
d="M71 24l160 334h-177q-19 0 -19 16v23q0 7 5.5 13t13.5 6h205q39 0 39 -36q0 -21 -8 -38l-156 -333q-4 -9 -17 -9h-36q-9 0 -12 7t2 17z" />
    <glyph glyph-name="eight.denominator" unicode="&#xf65d;" horiz-adv-x="333" 
d="M308 119q0 -60 -39.5 -91.5t-99.5 -31.5h-5q-60 0 -99.5 32t-39.5 91v10q0 24 12 48t33 39q-44 33 -44 84v5q0 57 38 85.5t100 28.5h5q63 0 100.5 -28.5t37.5 -85.5v-5q0 -53 -44 -84q45 -31 45 -87v-10zM243 119v10q0 24 -14.5 42.5t-44.5 18.5h-34q-30 0 -45 -18.5
t-15 -42.5v-10q0 -66 74 -66h5q74 0 74 66zM244 300v5q0 59 -75 59h-5q-74 0 -74 -59v-5q0 -24 14.5 -40.5t45.5 -16.5h34q30 0 45 16.5t15 40.5z" />
    <glyph glyph-name="nine.denominator" unicode="&#xf65e;" horiz-adv-x="333" 
d="M29 276q0 69 35 106.5t104 37.5q65 0 101.5 -40t36.5 -120v-95q0 -89 -37 -128.5t-112 -39.5q-54 0 -94 9q-18 4 -18 18v21q0 13 8 15t23 -1q63 -6 81 -6q52 0 68 26.5t16 81.5q-34 -9 -73 -9q-62 0 -100.5 28t-38.5 92v4zM93 276v-4q0 -66 75 -66q43 0 73 8v46
q0 58 -18 81t-55 23q-75 0 -75 -88z" />
    <glyph glyph-name="zero.numerator" unicode="&#xf661;" horiz-adv-x="333" 
d="M306 498q0 -175 -139 -175q-141 0 -141 175v72q0 176 141 176q139 0 139 -176v-72zM241 498v72q0 119 -74 119q-75 0 -75 -119v-72q0 -117 75 -117q74 0 74 117z" />
    <glyph glyph-name="one.numerator" unicode="&#xf662;" horiz-adv-x="333" 
d="M146 672l-64 -27q-17 -6 -17 13v28q0 10 10 13l80 38q12 6 32 6h6q11 0 14 -4.5t3 -14.5v-378q0 -7 -5 -13t-12 -6h-30q-7 0 -12 5.5t-5 13.5v326z" />
    <glyph glyph-name="two.numerator" unicode="&#xf663;" horiz-adv-x="333" 
d="M294 642q0 -33 -17 -58t-55 -53q-39 -25 -52 -35q-42 -29 -57 -51.5t-15 -55.5v-4h173q18 0 18 -17v-23q0 -8 -5.5 -13t-12.5 -5h-214q-7 0 -12.5 5t-5.5 13v44q0 91 86 148l55 36h-1q33 24 42.5 36t9.5 33q0 48 -73 48q-38 0 -97 -9q-16 0 -16 18v19q0 13 15 18
q40 10 98 10q136 0 136 -104z" />
    <glyph glyph-name="three.numerator" unicode="&#xf664;" horiz-adv-x="333" 
d="M292 446q0 -63 -38 -93t-104 -30q-38 0 -93 11q-16 4 -16 18v18q0 18 19 18q53 -8 90 -8q40 0 58 15.5t18 50.5v11q0 23 -13 41t-42 18h-98q-17 0 -17 16v20q0 17 17 17h98q55 0 55 57v7q0 30 -17.5 43.5t-58.5 13.5q-20 0 -80 -8q-1 0 -5 -0.5t-7 -0.5q-17 0 -17 18v18
q0 13 15 19q50 10 94 10q142 0 142 -113v-7q0 -56 -43 -84q43 -27 43 -85v-11z" />
    <glyph glyph-name="four.numerator" unicode="&#xf665;" horiz-adv-x="333" 
d="M317 451q0 -17 -19 -17h-38v-88q0 -7 -5 -13t-13 -6h-31q-17 0 -17 19v88h-147q-17 0 -24 6t-7 22v20q0 15 8 26l162 224q6 11 20 11h31q23 0 23 -20v-233h38q8 0 13.5 -5t5.5 -12v-22zM195 490v162l-113 -162h113z" />
    <glyph glyph-name="five.numerator" unicode="&#xf666;" horiz-adv-x="333" 
d="M295 456q0 -63 -38 -98t-107 -35q-57 0 -96 10q-16 5 -16 18v20q0 17 19 17q47 -8 93 -8q81 0 81 76v9q0 35 -24.5 49t-80.5 14h-65q-6 0 -11 6t-5 13l14 179q3 17 19 17h186q18 0 18 -18v-24q0 -16 -18 -16h-148l-7 -100h17q84 0 126.5 -27t42.5 -93v-9z" />
    <glyph glyph-name="six.numerator" unicode="&#xf667;" horiz-adv-x="333" 
d="M305 467q0 -69 -35 -106.5t-104 -37.5q-65 0 -101.5 40t-36.5 120v95q0 89 37 128.5t112 39.5q54 0 94 -9q18 -4 18 -18v-21q0 -13 -8 -15t-23 1q-63 6 -81 6q-52 0 -68 -26.5t-16 -81.5q34 9 73 9q62 0 100.5 -28t38.5 -92v-4zM241 467v4q0 66 -75 66q-43 0 -73 -8v-46
q0 -58 18 -81t55 -23q75 0 75 88z" />
    <glyph glyph-name="seven.numerator" unicode="&#xf668;" horiz-adv-x="333" 
d="M71 351l160 334h-177q-19 0 -19 16v23q0 8 5.5 13.5t13.5 5.5h205q39 0 39 -36q0 -21 -8 -38l-156 -333q-4 -9 -17 -9h-36q-9 0 -12 7t2 17z" />
    <glyph glyph-name="eight.numerator" unicode="&#xf669;" horiz-adv-x="333" 
d="M308 446q0 -60 -39.5 -91.5t-99.5 -31.5h-5q-60 0 -99.5 32t-39.5 91v10q0 24 12 48t33 39q-44 33 -44 84v5q0 57 38 85.5t100 28.5h5q63 0 100.5 -28.5t37.5 -85.5v-5q0 -53 -44 -84q45 -31 45 -87v-10zM243 446v10q0 24 -14.5 42.5t-44.5 18.5h-34q-30 0 -45 -18.5
t-15 -42.5v-10q0 -66 74 -66h5q74 0 74 66zM244 627v5q0 59 -75 59h-5q-74 0 -74 -59v-5q0 -24 14.5 -40.5t45.5 -16.5h34q30 0 45 16.5t15 40.5z" />
    <glyph glyph-name="nine.numerator" unicode="&#xf66a;" horiz-adv-x="333" 
d="M29 603q0 69 35 106.5t104 37.5q65 0 101.5 -40t36.5 -120v-95q0 -89 -37 -128.5t-112 -39.5q-54 0 -94 9q-18 4 -18 18v21q0 13 8 15t23 -1q63 -6 81 -6q52 0 68 26.5t16 81.5q-34 -9 -73 -9q-62 0 -100.5 28t-38.5 92v4zM93 603v-4q0 -66 75 -66q43 0 73 8v46
q0 58 -18 81t-55 23q-75 0 -75 -88z" />
    <glyph glyph-name="commaaccent" unicode="&#xf6c3;" horiz-adv-x="342" 
d="M155 -49h69q11 0 11 -11l-1 -8l-54 -109q-3 -6 -4.5 -8.5t-4 -5.5t-6 -4t-9.5 -1h-41q-9 0 -9 8q0 4 1 8l28 112q4 19 20 19z" />
    <glyph glyph-name="one.fitted" unicode="&#xf6dc;" horiz-adv-x="409" 
d="M283 20q0 -8 -5 -14t-13 -6h-55q-18 0 -18 20v629l-129 -56q-7 -3 -13 -3q-9 0 -9 11v51q0 7 10 13l151 72q12 6 21 6h41q8 0 13.5 -5.5t5.5 -13.5v-704z" />
    <glyph glyph-name="a.superior" unicode="&#xf6e9;" horiz-adv-x="316" 
d="M276 337q0 -7 -4.5 -11.5t-10.5 -4.5h-27q-16 0 -16 16v4q-43 -24 -82 -24q-96 0 -96 96v7q0 49 32 72.5t109 23.5h36v17q0 32 -13 45.5t-42 13.5q-34 0 -76 -4q-1 0 -5.5 -0.5t-7.5 -0.5q-15 0 -15 14v20q0 15 16 15q40 7 88 7q114 0 114 -110v-196zM217 388v83h-36
q-47 0 -64 -11.5t-17 -38.5v-7q0 -26 11.5 -36.5t34.5 -10.5q32 0 71 21z" />
    <glyph glyph-name="b.superior" unicode="&#xf6ea;" horiz-adv-x="317" 
d="M287 461q0 -68 -31.5 -106t-95.5 -38q-55 0 -104 10q-11 1 -13.5 5t-2.5 13v393q0 16 15 16h28q16 0 16 -16v-99q28 4 61 4q63 0 95 -36.5t32 -105.5v-40zM228 461v40q0 90 -68 90q-42 0 -61 -3v-215q2 0 5 -0.5t5 -0.5q34 -2 51 -2q37 0 52.5 22.5t15.5 68.5z" />
    <glyph glyph-name="d.superior" unicode="&#xf6eb;" horiz-adv-x="318" 
d="M278 345q0 -16 -16 -18q-50 -10 -104 -10q-64 0 -96 38t-32 106v40q0 69 32.5 105.5t95.5 36.5q32 0 60 -4v99q0 16 16 16h28q16 0 16 -16v-393zM218 373v215q-27 3 -60 3q-37 0 -52.5 -22.5t-15.5 -67.5v-40q0 -46 15.5 -68.5t52.5 -22.5q16 0 50 2q3 0 5.5 0.5t4.5 0.5
z" />
    <glyph glyph-name="e.superior" unicode="&#xf6ec;" horiz-adv-x="318" 
d="M288 477q0 -17 -15 -17h-183v-3q0 -46 17.5 -66.5t55.5 -20.5q59 0 101 6q15 0 15 -13v-18q0 -15 -15 -18q-46 -10 -101 -10q-58 0 -95.5 32.5t-37.5 107.5v50q0 64 34 100t96 36q63 0 95.5 -36t32.5 -100v-30zM229 507q0 44 -17 64t-52 20q-70 0 -70 -84h139z" />
    <glyph glyph-name="i.superior" unicode="&#xf6ed;" horiz-adv-x="142" 
d="M101 337q0 -16 -16 -16h-28q-16 0 -16 16v287q0 16 16 16h28q16 0 16 -16v-287zM102 696q0 -16 -16 -16h-29q-7 0 -12 4.5t-5 11.5v45q0 7 5 11.5t12 4.5h29q16 0 16 -16v-45z" />
    <glyph glyph-name="l.superior" unicode="&#xf6ee;" horiz-adv-x="141" 
d="M101 337q0 -6 -4.5 -11t-11.5 -5h-29q-16 0 -16 16v401q0 16 16 16h29q16 0 16 -16v-401z" />
    <glyph glyph-name="m.superior" unicode="&#xf6ef;" horiz-adv-x="461" 
d="M421 337q0 -16 -16 -16h-27q-16 0 -16 16v199q0 55 -46 55q-20 0 -59 -13q4 -16 4 -41v-200q0 -6 -4.5 -11t-11.5 -5h-30q-15 0 -15 16v200q0 32 -8.5 43t-29.5 11q-25 0 -63 -19v-235q0 -6 -4.5 -11t-10.5 -5h-30q-14 0 -14 16v287q0 16 15 16h28q16 0 16 -16v-1
q37 21 77 21q36 0 57 -20q50 20 93 20q95 0 95 -108v-199z" />
    <glyph glyph-name="o.superior" unicode="&#xf6f0;" horiz-adv-x="320" 
d="M290 459q0 -66 -33.5 -104t-96.5 -38t-96.5 38t-33.5 104v42q0 66 33.5 104t96.5 38t96.5 -38t33.5 -104v-42zM231 459v42q0 90 -71 90q-70 0 -70 -90v-42q0 -89 70 -89q71 0 71 89z" />
    <glyph glyph-name="r.superior" unicode="&#xf6f1;" horiz-adv-x="209" 
d="M189 606q0 -15 -17 -15q-36 0 -73 -22v-232q0 -6 -5 -11t-11 -5h-27q-16 0 -16 16v287q0 16 16 16h25q16 0 16 -16v-3q36 22 75 22q17 0 17 -14v-23z" />
    <glyph glyph-name="s.superior" unicode="&#xf6f2;" horiz-adv-x="275" 
d="M245 404q0 -44 -29 -65.5t-80 -21.5q-55 0 -91 9q-15 2 -15 16v19q0 13 18 13q54 -6 88 -6q26 0 38 8t12 28q0 19 -39 42l-57 34q-60 35 -60 85q0 78 107 78q53 0 89 -7q14 0 14 -15v-19q0 -15 -16 -15q-50 5 -87 5q-25 0 -36 -5t-11 -22t36 -40l55 -32q64 -39 64 -89z
" />
    <glyph glyph-name="t.superior" unicode="&#xf6f3;" horiz-adv-x="219" 
d="M209 335q0 -13 -14 -15q-16 -3 -38 -3q-44 0 -63 16.5t-19 63.5v191l-24 3.5t-26 3.5q-15 0 -15 15v15q0 15 16 15h49v50q0 16 16 16l31 4q14 0 14 -13v-57h55q16 0 16 -16v-19q0 -17 -16 -17h-55v-191q0 -19 5 -25t19 -6h32q17 0 17 -12v-19z" />
    <glyph glyph-name="zero.oldstyle" unicode="&#xf730;" 
d="M548 269q0 -139 -64 -207.5t-181 -68.5t-181.5 68.5t-64.5 207.5v15q0 139 64.5 207.5t181.5 68.5t181 -68.5t64 -207.5v-15zM457 269v15q0 101 -40.5 150t-113.5 49t-113.5 -49t-40.5 -150v-15q0 -101 40.5 -150t113.5 -49t113.5 49t40.5 150z" />
    <glyph glyph-name="one.oldstyle" unicode="&#xf731;" horiz-adv-x="430" 
d="M283 20q0 -8 -5 -14t-13 -6h-55q-18 0 -18 20v436l-129 -56q-7 -3 -13 -3q-9 0 -9 11v51q0 7 10 13l151 72q12 6 21 6h41q8 0 13.5 -5.5t5.5 -13.5v-511z" />
    <glyph glyph-name="two.oldstyle" unicode="&#xf732;" horiz-adv-x="560" 
d="M506 395q0 -75 -51 -120.5t-138 -78.5q-102 -38 -129.5 -59t-37.5 -58h327q20 0 20 -17v-44q0 -18 -20 -18h-397q-8 0 -14 5.5t-6 13.5v38q0 89 68 138q34 24 144 72q94 40 119.5 60.5t25.5 67.5q0 52 -33 70.5t-117 18.5q-72 0 -177 -15h-4q-16 0 -16 18v35q0 14 19 18
q78 20 178 20q125 0 182 -37.5t57 -127.5z" />
    <glyph glyph-name="three.oldstyle" unicode="&#xf733;" 
d="M521 17q0 -108 -67 -161t-182 -53q-82 0 -169 20q-19 4 -19 19v34q0 17 17 17h3q105 -14 168 -14q82 0 119 33t37 105v21q0 48 -27.5 85t-89.5 37h-182q-19 0 -19 18v35q0 19 19 19h182q65 0 91 35t26 84v14q0 62 -36 90.5t-120 28.5q-46 0 -168 -15h-3q-17 0 -17 17v35
q0 15 19 19q96 20 169 20q120 0 184.5 -45t64.5 -150v-14q0 -51 -24.5 -92t-70.5 -64q95 -47 95 -157v-21z" />
    <glyph glyph-name="four.oldstyle" unicode="&#xf734;" 
d="M567 22q0 -18 -19 -18h-87v-178q0 -20 -17 -20h-58q-17 0 -17 20v178h-289q-23 0 -32 8.5t-9 30.5v38q0 21 12 37l296 415q10 16 29 16h59q26 0 26 -22v-447h87q19 0 19 -18v-40zM370 80v342q0 6 -4 6h-1q-4 0 -8 -6l-231 -328q-3 -4 -3 -8q0 -6 8 -6h239z" />
    <glyph glyph-name="five.oldstyle" unicode="&#xf735;" 
d="M528 33q0 -111 -67 -172t-188 -61q-101 0 -176 18q-19 5 -19 20v37q0 15 15 15h5q80 -14 175 -14q163 0 163 157v15q0 74 -48.5 104t-160.5 30h-120q-7 0 -11.5 5t-4.5 12v1l28 333q2 17 20 17h344q20 0 20 -17v-44q0 -16 -20 -16h-287l-16 -216h47q148 0 224.5 -47.5
t76.5 -161.5v-15z" />
    <glyph glyph-name="six.oldstyle" unicode="&#xf736;" 
d="M546 246q0 -121 -61.5 -187t-182.5 -66q-115 0 -178.5 70.5t-63.5 213.5v175q0 157 65 227.5t196 70.5q95 0 172 -17q23 -6 23 -19v-39q0 -18 -18 -18q-1 0 -3 0.5t-3 0.5q-82 16 -171 16q-45 0 -77 -11t-50 -28.5t-28 -48t-13 -60.5t-3 -74v-11q91 20 151 20
q109 0 177 -48.5t68 -160.5v-6zM456 246v6q0 75 -43.5 106.5t-111.5 31.5q-79 0 -151 -18v-95q0 -117 37.5 -163.5t114.5 -46.5q74 0 114 41.5t40 137.5z" />
    <glyph glyph-name="seven.oldstyle" unicode="&#xf737;" horiz-adv-x="563" 
d="M510 486q0 -24 -13 -52l-288 -613q-7 -15 -22 -15h-60q-15 0 -15 15q0 5 3 11l302 628q1 1 1 4q0 7 -7 7h-341q-20 0 -20 17v42q0 8 6 13.5t14 5.5h365q75 0 75 -63z" />
    <glyph glyph-name="eight.oldstyle" unicode="&#xf738;" 
d="M551 207q0 -105 -68.5 -159.5t-174.5 -54.5h-10q-106 0 -174.5 54.5t-68.5 159.5v19q0 47 25.5 92t71.5 70q-46 24 -70.5 64.5t-24.5 91.5v9q0 99 66 148t175 49h10q109 0 175 -49t66 -148v-9q0 -51 -24.5 -91.5t-70.5 -64.5q46 -25 71.5 -70t25.5 -92v-19zM461 544v9
q0 60 -39.5 91.5t-113.5 31.5h-10q-74 0 -113.5 -31.5t-39.5 -91.5v-9q0 -51 31 -85.5t96 -34.5h62q65 0 96 34.5t31 85.5zM460 207v19q0 50 -31.5 88t-94.5 38h-62q-63 0 -94.5 -38t-31.5 -88v-19q0 -65 39.5 -101.5t112.5 -36.5h10q73 0 112.5 36.5t39.5 101.5z" />
    <glyph glyph-name="nine.oldstyle" unicode="&#xf739;" 
d="M537 101q0 -157 -65 -227.5t-196 -70.5q-95 0 -172 17q-24 6 -24 19v39q0 18 18 18q1 0 3 -0.5t3 -0.5q82 -16 171 -16q45 0 77 11t50.5 28.5t28.5 48t13 60.5t3 74v11q-93 -20 -151 -20q-110 0 -178 48.5t-68 160.5v6q0 121 62 187t182 66q116 0 179.5 -70.5
t63.5 -213.5v-175zM446 181l1 95q0 117 -37.5 163.5t-114.5 46.5q-75 0 -115 -41t-40 -138v-6q0 -75 43.5 -106.5t111.5 -31.5q79 0 151 18z" />
    </font>
</defs>
</svg>
