<?xml version="1.0" standalone="no"?>
<!DOCTYPE svg PUBLIC "-//W3C//DTD SVG 1.1//EN" "http://www.w3.org/Graphics/SVG/1.1/DTD/svg11.dtd" >
<svg>
<metadata>
Created by FontForge 20090622 at Thu Jan 10 19:53:10 2019
 By deploy user
Copyright 2004 Monotype Imaging, Inc. All rights reserved.
</metadata>
<defs>
<font id="NeoSansPro-Light" horiz-adv-x="580" >
  <font-face 
    font-family="Neo Sans Pro Light"
    font-weight="300"
    font-stretch="normal"
    units-per-em="1000"
    panose-1="2 11 3 4 3 5 4 4 2 4"
    ascent="765"
    descent="-235"
    x-height="537"
    cap-height="743"
    bbox="-87 -216 1285 980"
    underline-thickness="42"
    underline-position="-35"
    unicode-range="U+0020-U+FB04"
  />
<missing-glyph horiz-adv-x="500" 
d="M12 0v665h475v-665h-475zM88 618l162 -243l161 243h-323zM60 575v-484l40 61l80 120l41 61zM440 575l-162 -242l162 -243v485zM411 48l-161 242l-162 -242h323z" />
    <glyph glyph-name="f_b" unicode="fb" horiz-adv-x="881" 
d="M447 709h-144q-61 0 -81 -14.5t-20 -64.5v-93h119q19 0 19 -16v-9q0 -16 -19 -16h-119v-477q0 -8 -5.5 -13.5t-12.5 -5.5h-7q-8 0 -13.5 5.5t-5.5 13.5v477h-99q-19 0 -19 16v9q0 16 19 16h99v93q0 68 32.5 93t110.5 25q116 0 173 -3q7 0 12 -5.5t5 -13.5v-199
q67 15 139 15q196 0 196 -239v-66q0 -113 -48 -178t-148 -65q-75 0 -168 19q-15 4 -15 19v677zM782 237v66q0 101 -35.5 150.5t-116.5 49.5q-77 0 -139 -13v-444q78 -13 139 -13q81 0 116.5 51.5t35.5 152.5z" />
    <glyph glyph-name="f_f_b" unicode="ffb" horiz-adv-x="1170" 
d="M447 496h-245v-477q0 -8 -5.5 -13.5t-12.5 -5.5h-7q-8 0 -13.5 5.5t-5.5 13.5v477h-99q-19 0 -19 16v9q0 16 19 16h99v93q0 118 113 118q33 0 52 -3t19 -16v-7q0 -13 -21 -13h-50q-36 0 -52.5 -17.5t-16.5 -61.5v-93h245v93q0 68 32.5 93t110.5 25q116 0 173 -3
q7 0 12 -5.5t5 -13.5v-199q67 15 139 15q196 0 196 -239v-66q0 -113 -48 -178t-148 -65q-75 0 -168 19q-15 4 -15 19v677h-144q-61 0 -81 -14.5t-20 -64.5v-93h119q19 0 19 -16v-9q0 -16 -19 -16h-119v-477q0 -8 -5.5 -13.5t-12.5 -5.5h-7q-8 0 -13.5 5.5t-5.5 13.5v477z
M1071 237v66q0 101 -35.5 150.5t-116.5 49.5q-77 0 -139 -13v-444q78 -13 139 -13q81 0 116.5 51.5t35.5 152.5z" />
    <glyph glyph-name="f_f_h" unicode="ffh" horiz-adv-x="1171" 
d="M447 496h-245v-477q0 -8 -5.5 -13.5t-12.5 -5.5h-7q-8 0 -13.5 5.5t-5.5 13.5v477h-99q-19 0 -19 16v9q0 16 19 16h99v93q0 118 113 118q33 0 52 -3t19 -16v-7q0 -13 -21 -13h-50q-36 0 -52.5 -17.5t-16.5 -61.5v-93h245v93q0 68 32.5 93t110.5 25q135 0 173 -3
q17 -1 17 -19v-202q70 18 135 18q191 0 191 -192v-337q0 -19 -17 -19h-10q-16 0 -16 19v337q0 76 -35 114.5t-113 38.5q-73 0 -135 -18v-472q0 -8 -5 -13.5t-12 -5.5h-10q-7 0 -12 5.5t-5 13.5v696h-144q-61 0 -81 -14.5t-20 -64.5v-93h119q19 0 19 -16v-9q0 -16 -19 -16
h-119v-477q0 -8 -5.5 -13.5t-12.5 -5.5h-7q-8 0 -13.5 5.5t-5.5 13.5v477z" />
    <glyph glyph-name="f_f_j" unicode="ffj" horiz-adv-x="870" 
d="M790 -86q0 -62 -25 -85.5t-78 -23.5q-19 0 -42 3q-17 2 -17 14v9q0 12 21 12h38q34 0 46.5 13.5t12.5 57.5v582h-255v-477q0 -8 -5.5 -13.5t-12.5 -5.5h-7q-8 0 -13.5 5.5t-5.5 13.5v477h-245v-477q0 -8 -5.5 -13.5t-12.5 -5.5h-7q-8 0 -13.5 5.5t-5.5 13.5v477h-99
q-19 0 -19 16v9q0 16 19 16h99v93q0 118 113 118q33 0 52 -3t19 -16v-7q0 -13 -21 -13h-50q-36 0 -52.5 -17.5t-16.5 -61.5v-93h245v93q0 118 113 118q32 0 52 -3q19 -3 19 -16v-7q0 -13 -21 -13h-50q-36 0 -52.5 -17.5t-16.5 -61.5v-93h282q17 0 17 -19v-604zM790 655
q0 -8 -5.5 -13.5t-13.5 -5.5h-6q-8 0 -13.5 5.5t-5.5 13.5v74q0 7 6 13t13 6h6q7 0 13 -6t6 -13v-74z" />
    <glyph glyph-name="f_f_k" unicode="ffk" horiz-adv-x="1111" 
d="M447 496h-245v-477q0 -8 -5.5 -13.5t-12.5 -5.5h-7q-8 0 -13.5 5.5t-5.5 13.5v477h-99q-19 0 -19 16v9q0 16 19 16h99v93q0 118 113 118q33 0 52 -3t19 -16v-7q0 -13 -21 -13h-50q-36 0 -52.5 -17.5t-16.5 -61.5v-93h245v93q0 68 32.5 93t110.5 25q135 0 173 -3
q17 -1 17 -19v-423l246 230q10 9 24 9q17 0 20.5 -12t-7.5 -21l-245 -224l246 -260q9 -10 5 -20.5t-17 -10.5q-18 0 -30 12l-242 259v-252q0 -7 -6 -13t-13 -6h-6q-7 0 -13 6t-6 13v696h-144q-61 0 -81 -14.5t-20 -64.5v-93h119q19 0 19 -16v-9q0 -16 -19 -16h-119v-477
q0 -8 -5.5 -13.5t-12.5 -5.5h-7q-8 0 -13.5 5.5t-5.5 13.5v477z" />
    <glyph glyph-name="f_h" unicode="fh" horiz-adv-x="882" 
d="M491 726v-202q70 18 135 18q191 0 191 -192v-337q0 -19 -17 -19h-10q-16 0 -16 19v337q0 76 -35 114.5t-113 38.5q-73 0 -135 -18v-472q0 -8 -5 -13.5t-12 -5.5h-10q-7 0 -12 5.5t-5 13.5v696h-144q-61 0 -81 -14.5t-20 -64.5v-93h119q19 0 19 -16v-9q0 -16 -19 -16h-119
v-477q0 -8 -5.5 -13.5t-12.5 -5.5h-7q-8 0 -13.5 5.5t-5.5 13.5v477h-99q-19 0 -19 16v9q0 16 19 16h99v93q0 68 32.5 93t110.5 25q135 0 173 -3q17 -1 17 -19z" />
    <glyph glyph-name="f_j" unicode="fj" horiz-adv-x="581" 
d="M501 -86q0 -62 -25 -85.5t-78 -23.5q-20 0 -42 3q-17 2 -17 14v9q0 12 21 12h38q34 0 46.5 13.5t12.5 57.5v582h-255v-477q0 -8 -5.5 -13.5t-12.5 -5.5h-7q-8 0 -13.5 5.5t-5.5 13.5v477h-99q-19 0 -19 16v9q0 16 19 16h99v93q0 118 113 118q33 0 52 -3t19 -16v-7
q0 -13 -21 -13h-50q-36 0 -52.5 -17.5t-16.5 -61.5v-93h282q17 0 17 -19v-604zM501 655q0 -8 -5.5 -13.5t-13.5 -5.5h-6q-8 0 -13.5 5.5t-5.5 13.5v74q0 7 5.5 13t13.5 6h6q8 0 13.5 -6t5.5 -13v-74z" />
    <glyph glyph-name="f_k" unicode="fk" horiz-adv-x="822" 
d="M447 709h-144q-61 0 -81 -14.5t-20 -64.5v-93h119q19 0 19 -16v-9q0 -16 -19 -16h-119v-477q0 -8 -5.5 -13.5t-12.5 -5.5h-7q-8 0 -13.5 5.5t-5.5 13.5v477h-99q-19 0 -19 16v9q0 16 19 16h99v93q0 68 32.5 93t110.5 25q135 0 173 -3q17 -1 17 -19v-423l246 230
q11 9 24 9q17 0 20.5 -12t-7.5 -21l-245 -224l246 -260q9 -10 5 -20.5t-17 -10.5q-18 0 -30 12l-242 259v-252q0 -7 -5.5 -13t-13.5 -6h-6q-8 0 -13.5 6t-5.5 13v696z" />
    <glyph glyph-name="f_f" unicode="ff" horiz-adv-x="666" 
d="M631 722q0 -13 -21 -13h-50q-36 0 -52.5 -17.5t-16.5 -61.5v-93h119q19 0 19 -16v-9q0 -16 -19 -16h-119v-477q0 -8 -5.5 -13.5t-12.5 -5.5h-7q-8 0 -13.5 5.5t-5.5 13.5v477h-245v-477q0 -8 -5.5 -13.5t-12.5 -5.5h-7q-8 0 -13.5 5.5t-5.5 13.5v477h-99q-19 0 -19 16v9
q0 16 19 16h99v93q0 118 113 118q33 0 52 -3t19 -16v-7q0 -13 -21 -13h-50q-36 0 -52.5 -17.5t-16.5 -61.5v-93h245v93q0 118 113 118q32 0 52 -3q19 -3 19 -16v-7z" />
    <glyph glyph-name="fi" unicode="fi" horiz-adv-x="571" 
d="M342 722q0 -13 -21 -13h-50q-36 0 -52.5 -17.5t-16.5 -61.5v-93h270q8 0 13.5 -5.5t5.5 -13.5v-499q0 -7 -5.5 -13t-13.5 -6h-6q-8 0 -13.5 6t-5.5 13v477h-245v-477q0 -8 -5.5 -13.5t-12.5 -5.5h-7q-8 0 -13.5 5.5t-5.5 13.5v477h-99q-19 0 -19 16v9q0 16 19 16h99v93
q0 118 113 118q33 0 52 -3t19 -16v-7zM491 655q0 -8 -5.5 -13.5t-13.5 -5.5h-6q-8 0 -13.5 5.5t-5.5 13.5v74q0 7 5.5 13t13.5 6h6q8 0 13.5 -6t5.5 -13v-74z" />
    <glyph glyph-name="fl" unicode="fl" horiz-adv-x="571" 
d="M491 19q0 -8 -5 -13.5t-12 -5.5h-10q-7 0 -12 5.5t-5 13.5v690h-144q-61 0 -81 -14.5t-20 -64.5v-93h119q19 0 19 -16v-9q0 -16 -19 -16h-119v-477q0 -8 -5.5 -13.5t-12.5 -5.5h-7q-8 0 -13.5 5.5t-5.5 13.5v477h-99q-19 0 -19 16v9q0 16 19 16h99v93q0 68 32.5 93
t110.5 25q116 0 173 -3q7 0 12 -5.5t5 -13.5v-707z" />
    <glyph glyph-name="f_f_i" unicode="ffi" horiz-adv-x="870" 
d="M790 19q0 -7 -6 -13t-13 -6h-6q-7 0 -13 6t-6 13v477h-255v-477q0 -8 -5.5 -13.5t-12.5 -5.5h-7q-8 0 -13.5 5.5t-5.5 13.5v477h-245v-477q0 -8 -5.5 -13.5t-12.5 -5.5h-7q-8 0 -13.5 5.5t-5.5 13.5v477h-99q-19 0 -19 16v9q0 16 19 16h99v93q0 118 113 118q33 0 52 -3
t19 -16v-7q0 -13 -21 -13h-50q-36 0 -52.5 -17.5t-16.5 -61.5v-93h245v93q0 118 113 118q32 0 52 -3q19 -3 19 -16v-7q0 -13 -21 -13h-50q-36 0 -52.5 -17.5t-16.5 -61.5v-93h280q19 0 19 -19v-499zM790 655q0 -8 -5.5 -13.5t-13.5 -5.5h-6q-8 0 -13.5 5.5t-5.5 13.5v74
q0 7 6 13t13 6h6q7 0 13 -6t6 -13v-74z" />
    <glyph glyph-name="f_f_l" unicode="ffl" horiz-adv-x="860" 
d="M342 722q0 -13 -21 -13h-50q-36 0 -52.5 -17.5t-16.5 -61.5v-93h245v93q0 68 32.5 93t110.5 25q116 0 173 -3q7 0 12 -5.5t5 -13.5v-707q0 -8 -5 -13.5t-12 -5.5h-10q-7 0 -12 5.5t-5 13.5v690h-144q-61 0 -81 -14.5t-20 -64.5v-93h119q19 0 19 -16v-9q0 -16 -19 -16
h-119v-477q0 -8 -5.5 -13.5t-12.5 -5.5h-7q-8 0 -13.5 5.5t-5.5 13.5v477h-245v-477q0 -8 -5.5 -13.5t-12.5 -5.5h-7q-8 0 -13.5 5.5t-5.5 13.5v477h-99q-19 0 -19 16v9q0 16 19 16h99v93q0 118 113 118q33 0 52 -3t19 -16v-7z" />
    <glyph glyph-name=".notdef" horiz-adv-x="500" 
d="M12 0v665h475v-665h-475zM88 618l162 -243l161 243h-323zM60 575v-484l40 61l80 120l41 61zM440 575l-162 -242l162 -243v485zM411 48l-161 242l-162 -242h323z" />
    <glyph glyph-name=".null" horiz-adv-x="0" 
 />
    <glyph glyph-name="nonmarkingreturn" horiz-adv-x="333" 
 />
    <glyph glyph-name="space" unicode=" " horiz-adv-x="215" 
 />
    <glyph glyph-name="exclam" unicode="!" horiz-adv-x="204" 
d="M124 192q0 -8 -6 -13.5t-13 -5.5h-6q-7 0 -13 5.5t-6 13.5v532q0 8 6 13.5t13 5.5h6q7 0 13 -5.5t6 -13.5v-532zM124 13q0 -8 -5.5 -13.5t-13.5 -5.5h-6q-8 0 -13.5 5.5t-5.5 13.5v74q0 7 6 13t13 6h6q7 0 13 -6t6 -13v-74z" />
    <glyph glyph-name="quotedbl" unicode="&#x22;" horiz-adv-x="295" 
d="M256 732q0 -5 -1 -8l-48 -172q-5 -19 -19 -19h-15q-9 0 -9 10q0 6 1 9l41 172q4 19 20 19h19q11 0 11 -11zM131 732q0 -5 -1 -8l-48 -172q-5 -19 -19 -19h-15q-9 0 -9 10q0 6 1 9l41 172q4 19 20 19h19q11 0 11 -11z" />
    <glyph glyph-name="numbersign" unicode="#" horiz-adv-x="636" 
d="M586 497q0 -7 -6 -12t-14 -5h-104l-20 -226h104q17 0 17 -17v-3q0 -17 -20 -17h-105l-17 -198q-2 -19 -18 -19h-9q-16 0 -16 17v2l17 198h-180l-17 -198q-2 -19 -18 -19h-10q-7 0 -11.5 5t-4.5 12v2l17 198h-103q-18 0 -18 17v3q0 17 21 17h104l20 226h-104q-18 0 -18 17
v4q0 7 6.5 12t14.5 5h104l18 206q1 8 6.5 13.5t12.5 5.5h10q15 0 15 -17v-2l-18 -206h180l18 206q2 19 19 19h9q15 0 15 -17v-2l-18 -206h104q17 0 17 -17v-4zM419 480h-180l-20 -226h180z" />
    <glyph glyph-name="dollar" unicode="$" 
d="M500 184q0 -171 -188 -188v-105q0 -19 -16 -19h-10q-16 0 -16 19v103h-2q-45 0 -155 11q-18 2 -18 16v13q0 13 19 13h4q17 -1 47 -4.5t54 -5t49 -1.5q105 0 145.5 39t40.5 109q0 49 -25.5 78t-109.5 81l-100 62q-81 50 -110 89t-29 92q0 145 190 160v87q0 19 16 19h10
q16 0 16 -19v-85h2q42 0 149 -10q17 -2 17 -15v-13q0 -14 -19 -14q-7 0 -63 5t-85 5q-98 0 -142.5 -28.5t-44.5 -91.5q0 -43 24.5 -72t96.5 -73l98 -60q93 -56 124 -98t31 -99z" />
    <glyph glyph-name="percent" unicode="%" horiz-adv-x="757" 
d="M697 150q0 -77 -33 -116.5t-93 -39.5t-93.5 39.5t-33.5 116.5v104q0 77 33.5 116t93.5 39t93 -39t33 -116v-104zM617 738q0 -5 -6 -14l-420 -711q-11 -19 -21 -19h-27q-7 0 -7 5t6 14l420 711q11 19 21 19h26q8 0 8 -5zM313 489q0 -77 -33 -116.5t-93 -39.5t-93.5 39.5
t-33.5 116.5v104q0 77 33.5 116t93.5 39t93 -39t33 -116v-104zM658 150v104q0 117 -87 117q-88 0 -88 -117v-104q0 -117 88 -117q87 0 87 117zM274 489v104q0 117 -87 117q-88 0 -88 -117v-104q0 -117 88 -117q87 0 87 117z" />
    <glyph glyph-name="ampersand" unicode="&#x26;" horiz-adv-x="637" 
d="M599 7q0 -7 -8 -7h-32q-10 0 -16 7l-63 67q-77 -80 -204 -80q-41 0 -78 8.5t-72 27t-55.5 53.5t-20.5 84v6q0 61 33 105.5t119 99.5q-76 88 -98 130.5t-22 80.5v6q0 80 52 116.5t139 36.5q77 0 130 -37t53 -116v-6q0 -57 -35.5 -102.5t-121.5 -97.5l-33 -20l94 -101
l119 -128q51 79 51 208v11q0 19 15 19h14q16 0 16 -19v-11q0 -146 -66 -240l88 -95q2 -4 2 -6zM410 589v6q0 113 -137 113q-70 0 -107.5 -24.5t-37.5 -88.5v-6q0 -34 19.5 -70t91.5 -118l37 22q79 47 106.5 82.5t27.5 83.5zM452 105l-124 133q-80 86 -99 108
q-78 -50 -105 -84t-27 -89v-6q0 -68 52 -100.5t127 -32.5q110 0 176 71z" />
    <glyph glyph-name="quotesingle" unicode="'" horiz-adv-x="170" 
d="M131 732q0 -5 -1 -8l-48 -172q-5 -19 -19 -19h-15q-9 0 -9 10q0 6 1 9l41 172q4 19 20 19h19q11 0 11 -11z" />
    <glyph glyph-name="parenleft" unicode="(" horiz-adv-x="265" 
d="M245 -190q0 -5 -8 -5h-30q-11 0 -17 7q-65 79 -97.5 202.5t-32.5 232.5v54q0 109 32.5 232.5t97.5 202.5q6 7 17 7h30q8 0 8 -5q0 -4 -5 -9q-64 -69 -99.5 -194t-35.5 -234v-54q0 -109 35.5 -234t99.5 -194q5 -5 5 -9z" />
    <glyph glyph-name="parenright" unicode=")" horiz-adv-x="265" 
d="M205 247q0 -109 -32.5 -232.5t-97.5 -202.5q-6 -7 -17 -7h-30q-8 0 -8 5q0 4 5 9q64 69 99.5 194t35.5 234v54q0 109 -35.5 234t-99.5 194q-5 5 -5 9q0 5 8 5h30q11 0 17 -7q65 -79 97.5 -202.5t32.5 -232.5v-54z" />
    <glyph glyph-name="asterisk" unicode="*" horiz-adv-x="417" 
d="M383 615q0 -13 -14 -16l-130 -42l80 -111q5 -7 5 -12q0 -6 -6 -11l-7 -5q-5 -3 -8 -3q-7 0 -14 9l-81 111l-80 -111q-6 -8 -14 -8q-5 0 -8 2l-8 5q-6 3 -6 10q0 6 5 13l81 111l-130 42q-14 3 -14 16q0 3 1 4l3 8q3 9 14 9q4 0 7 -1l131 -42v137q0 18 14 18h9q14 0 14 -18
v-137l131 42q3 1 7 1q11 0 14 -9l3 -8q1 -1 1 -4z" />
    <glyph glyph-name="plus" unicode="+" 
d="M513 386q0 -16 -20 -16h-182v-181q0 -20 -16 -20h-10q-16 0 -16 20v181h-181q-20 0 -20 16v10q0 16 20 16h181v182q0 20 16 20h10q16 0 16 -20v-182h182q20 0 20 -16v-10z" />
    <glyph glyph-name="comma" unicode="," horiz-adv-x="168" 
d="M130 95q0 -2 -2 -8l-63 -168q-7 -19 -19 -19h-12q-10 0 -10 10q0 3 2 9l53 168q5 19 20 19h19q12 0 12 -11z" />
    <glyph glyph-name="hyphen" unicode="-" horiz-adv-x="344" 
d="M292 273q0 -16 -19 -16h-202q-19 0 -19 16v8q0 8 5.5 13t13.5 5h202q8 0 13.5 -5t5.5 -13v-8z" />
    <glyph glyph-name="period" unicode="." horiz-adv-x="168" 
d="M106 13q0 -8 -5.5 -13.5t-13.5 -5.5h-6q-8 0 -13.5 5.5t-5.5 13.5v74q0 7 6 13t13 6h6q7 0 13 -6t6 -13v-74z" />
    <glyph glyph-name="slash" unicode="/" horiz-adv-x="312" 
d="M298 736q0 -5 -1 -7l-235 -716q-6 -19 -16 -19h-22q-10 0 -10 12q0 5 1 7l235 716q6 19 16 19h21q11 0 11 -12z" />
    <glyph glyph-name="zero" unicode="0" 
d="M520 273q0 -141 -60.5 -210t-169.5 -69t-169.5 69t-60.5 210v197q0 140 60.5 209t169.5 69t169.5 -69t60.5 -209v-197zM476 273v197q0 118 -47.5 178t-138.5 60t-138.5 -60t-47.5 -178v-197q0 -118 47.5 -178.5t138.5 -60.5t138.5 60.5t47.5 178.5z" />
    <glyph glyph-name="one" unicode="1" 
d="M85 41h171v659l-172 -22h-5q-15 0 -15 13v5q0 16 20 20l193 27h5q18 0 18 -20v-682h171q20 0 20 -15v-11q0 -15 -20 -15h-386q-20 0 -20 15v11q0 15 20 15z" />
    <glyph glyph-name="two" unicode="2" 
d="M500 573q0 -57 -29 -98.5t-106 -93.5l-102 -69q-47 -32 -75.5 -59t-42 -56t-17 -53t-3.5 -63v-40h346q20 0 20 -15v-11q0 -15 -20 -15h-371q-9 0 -14.5 6t-5.5 14v61q0 83 30.5 142.5t124.5 122.5l102 69q68 46 91.5 78t23.5 80q0 69 -43 101t-141 32q-76 0 -153 -15
q-1 0 -3 -1h-2q-16 0 -16 16v11q0 12 19 16q70 15 155 15q232 0 232 -175z" />
    <glyph glyph-name="three" unicode="3" 
d="M496 206q0 -212 -248 -212q-75 0 -146 15q-18 4 -18 18v6q0 16 16 16h4q78 -13 144 -13q104 0 152.5 40t48.5 130v20q0 50 -35.5 96.5t-106.5 46.5h-187q-8 0 -13.5 5t-5.5 13v7q0 18 19 18h187q41 0 70.5 14t44 37t21 45t6.5 45v12q0 81 -47.5 111t-153.5 30
q-54 0 -144 -15h-4q-16 0 -16 16v8q0 14 18 18q84 15 146 15q124 0 186 -40t62 -143v-12q0 -120 -104 -165q53 -24 78.5 -70.5t25.5 -91.5v-20z" />
    <glyph glyph-name="four" unicode="4" 
d="M542 233q0 -17 -19 -17h-100v-197q0 -19 -16 -19h-12q-16 0 -16 19v197h-277q-30 0 -47 15.5t-17 38.5q0 21 14 42l280 411q16 25 51 25q40 0 40 -48v-442h100q19 0 19 -16v-9zM379 258v436q0 8 -6 8q-4 0 -10 -8l-273 -401q-10 -16 -10 -23q0 -12 22 -12h277z" />
    <glyph glyph-name="five" unicode="5" 
d="M503 215q0 -106 -69 -163.5t-184 -57.5q-77 0 -154 18q-19 3 -19 19v11q0 13 13 13q5 0 8 -1q77 -18 152 -18q101 0 155 45t54 134v25q0 86 -56 120.5t-185 34.5h-106q-20 0 -20 20v2l23 309q2 17 20 17h326q20 0 20 -16v-11q0 -14 -20 -14h-303l-18 -266h78
q158 0 221.5 -48t63.5 -148v-25z" />
    <glyph glyph-name="six" unicode="6" 
d="M516 251q0 -129 -55.5 -193t-175.5 -64q-112 0 -166.5 64t-54.5 195v235q0 137 61 198.5t184 61.5q74 0 159 -19q22 -4 22 -18v-10q0 -14 -16 -14q-5 0 -8 1q-87 18 -157 18q-105 0 -153 -49.5t-48 -168.5v-62q102 26 185 26q44 0 81.5 -10t70.5 -31t52 -61t19 -94v-5z
M472 251v5q0 44 -15.5 75.5t-42 48t-56.5 24t-65 7.5q-93 0 -185 -24v-134q0 -118 42.5 -168.5t134.5 -50.5q93 0 140 51t47 166z" />
    <glyph glyph-name="seven" unicode="7" 
d="M517 708q0 -12 -5 -22l-320 -676q-4 -10 -18 -10h-15q-15 0 -15 15q0 6 3 12l316 659q1 2 1 6q0 8 -8 8h-374q-20 0 -20 16v8q0 8 6 13.5t14 5.5h396q17 0 28 -9.5t11 -25.5z" />
    <glyph glyph-name="eight" unicode="8" 
d="M524 197q0 -100 -64 -151.5t-170 -51.5t-170 51.5t-64 151.5v30q0 46 27 93t77 69q-48 17 -76 59.5t-28 95.5v22q0 91 63 136.5t171 45.5t171 -45.5t63 -136.5v-22q0 -53 -28 -95.5t-76 -59.5q50 -22 77 -69t27 -93v-30zM477 544v22q0 140 -187 140t-187 -140v-22
q0 -52 34.5 -92t111.5 -40h82q77 0 111.5 40t34.5 92zM477 197v30q0 20 -7 42t-22.5 45.5t-46 39t-70.5 15.5h-82q-40 0 -70.5 -15.5t-46 -39t-22.5 -45.5t-7 -42v-30q0 -79 48.5 -120t138.5 -41t138.5 41t48.5 120z" />
    <glyph glyph-name="nine" unicode="9" 
d="M516 254q0 -137 -61 -198.5t-184 -61.5q-74 0 -159 19q-22 4 -22 18v10q0 14 16 14q5 0 8 -1q87 -18 157 -18q105 0 153 49.5t48 168.5v62q-102 -26 -185 -26q-44 0 -81.5 10t-70.5 31t-52 61t-19 94v5q0 129 55.5 193t175.5 64q112 0 166.5 -64t54.5 -195v-235zM472 355
v134q0 118 -42.5 168.5t-134.5 50.5q-93 0 -140 -51t-47 -166v-5q0 -44 15.5 -75.5t42 -48t56.5 -24t65 -7.5q93 0 185 24z" />
    <glyph glyph-name="colon" unicode=":" horiz-adv-x="178" 
d="M111 449q0 -8 -5.5 -13.5t-13.5 -5.5h-6q-8 0 -13.5 5.5t-5.5 13.5v74q0 7 5.5 13t13.5 6h6q8 0 13.5 -6t5.5 -13v-74zM111 13q0 -8 -5.5 -13.5t-13.5 -5.5h-6q-8 0 -13.5 5.5t-5.5 13.5v74q0 7 5.5 13t13.5 6h6q8 0 13.5 -6t5.5 -13v-74z" />
    <glyph glyph-name="semicolon" unicode=";" horiz-adv-x="178" 
d="M111 449q0 -8 -5.5 -13.5t-13.5 -5.5h-6q-8 0 -13.5 5.5t-5.5 13.5v74q0 7 5.5 13t13.5 6h6q8 0 13.5 -6t5.5 -13v-74zM118 95q0 -2 -2 -8l-63 -168q-7 -19 -19 -19h-12q-10 0 -10 10q0 3 2 9l53 168q5 19 20 19h19q12 0 12 -11z" />
    <glyph glyph-name="less" unicode="&#x3c;" 
d="M431 159q0 -6 -5 -11l-7 -7q-4 -4 -10 -4q-7 0 -16 7l-266 218q-15 12 -15 29t15 29l266 218q9 7 16 7q6 0 10 -4l7 -7q5 -5 5 -11q0 -9 -8 -15l-265 -217l265 -217q8 -6 8 -15z" />
    <glyph glyph-name="equal" unicode="=" 
d="M493 486q0 -16 -20 -16h-365q-20 0 -20 16v10q0 16 20 16h365q20 0 20 -16v-10zM493 286q0 -16 -20 -16h-365q-20 0 -20 16v10q0 16 20 16h365q20 0 20 -16v-10z" />
    <glyph glyph-name="greater" unicode="&#x3e;" 
d="M482 391q0 -17 -15 -29l-266 -218q-9 -7 -16 -7q-6 0 -10 4l-7 7q-5 5 -5 11q0 9 8 15l265 217l-265 217q-8 6 -8 15q0 6 5 11l7 7q4 4 10 4q7 0 16 -7l266 -218q15 -12 15 -29z" />
    <glyph glyph-name="question" unicode="?" horiz-adv-x="424" 
d="M364 595q0 -46 -22.5 -85t-87.5 -104l-30 -30q-38 -38 -49 -60.5t-11 -63.5v-60q0 -8 -5.5 -13.5t-13.5 -5.5h-6q-8 0 -13.5 5.5t-5.5 13.5v60q0 49 15 80.5t59 75.5l28 28q58 58 76 89.5t18 69.5v8q0 56 -35.5 81t-109.5 25q-39 0 -121 -7h-2q-13 0 -13 12v8q0 17 17 19
q57 7 119 7q83 0 138 -34.5t55 -110.5v-8zM163 13q0 -8 -5.5 -13.5t-13.5 -5.5h-6q-8 0 -13.5 5.5t-5.5 13.5v74q0 7 5.5 13t13.5 6h6q8 0 13.5 -6t5.5 -13v-74z" />
    <glyph glyph-name="at" unicode="@" horiz-adv-x="758" 
d="M708 373q0 -103 -18.5 -161t-62.5 -90q-78 -57 -272 -57q-70 0 -105.5 36t-35.5 95q0 12 1 18l11 118q6 66 46.5 106.5t114.5 40.5q59 0 123 -14q14 -3 14 -13v-2l-31 -339q35 4 62 14t45 22t30.5 32.5t19.5 38t10.5 47t4 51t0.5 57.5q0 103 -68 169.5t-187 66.5
q-127 0 -209 -75.5t-93 -188.5l-14 -142q-1 -10 -1 -29q0 -101 65 -168t190 -67q56 0 126 5h1h3q15 0 15 -12q0 -4 -1 -7q-3 -13 -20 -16q-62 -8 -128 -8q-138 0 -216 79t-78 194q0 19 1 29l14 143q12 131 105.5 216.5t242.5 85.5q138 0 216.5 -81t78.5 -194zM479 431
q-61 9 -94 9q-107 0 -117 -109l-11 -117q-1 -6 -1 -17q0 -92 99 -92h34q42 0 61 3z" />
    <glyph glyph-name="A" unicode="A" horiz-adv-x="619" 
d="M579 22q7 -25 -14 -25h-12q-12 0 -16 13l-84 271h-288l-82 -271q-4 -13 -16 -13h-13q-21 0 -14 25l205 677q15 49 65 49t64 -48zM442 325l-109 363q-6 20 -23 20q-18 0 -23 -19l-110 -364h265z" />
    <glyph glyph-name="B" unicode="B" 
d="M528 203q0 -210 -279 -210q-78 0 -150 8q-19 1 -19 19v703q0 17 19 19q82 6 150 6q275 0 275 -181v-11q0 -124 -119 -166q123 -37 123 -170v-17zM480 556v11q0 35 -13 61.5t-34 41.5t-52.5 24t-62 12t-69.5 3q-26 0 -75 -2t-50 -2v-293h181q175 0 175 144zM484 203v17
q0 149 -179 149h-181v-330q86 -6 125 -6q50 0 88 6.5t73.5 23.5t54.5 52.5t19 87.5z" />
    <glyph glyph-name="C" unicode="C" horiz-adv-x="537" 
d="M497 21q0 -15 -19 -17q-87 -10 -173 -10q-50 0 -91.5 15.5t-77.5 49.5t-56 97t-20 149v132q0 86 20 149t56 97t77.5 49.5t91.5 15.5q86 0 173 -10q19 -2 19 -17v-12q0 -14 -19 -12q-81 9 -173 9q-91 0 -146 -64.5t-55 -204.5v-132q0 -140 55 -204.5t146 -64.5q92 0 173 9
q19 2 19 -12v-12z" />
    <glyph glyph-name="D" unicode="D" horiz-adv-x="613" 
d="M553 309q0 -164 -78 -239.5t-214 -75.5q-118 0 -164 8q-17 4 -17 19v700q0 15 17 19q46 8 164 8q292 0 292 -315v-124zM509 309v124q0 276 -248 276q-49 0 -137 -6v-666q59 -4 137 -4q248 0 248 276z" />
    <glyph glyph-name="E" unicode="E" horiz-adv-x="533" 
d="M478 17q0 -17 -19 -17h-258q-60 0 -90.5 25.5t-30.5 86.5v519q0 61 30.5 86.5t90.5 25.5h258q19 0 19 -17v-8q0 -16 -19 -16h-258q-40 0 -58.5 -14t-18.5 -57v-220h335q19 0 19 -16v-10q0 -17 -19 -17h-335v-256q0 -43 18.5 -57t58.5 -14h258q19 0 19 -16v-8z" />
    <glyph glyph-name="F" unicode="F" horiz-adv-x="518" 
d="M478 385q0 -17 -19 -17h-335v-349q0 -8 -5 -13.5t-12 -5.5h-10q-7 0 -12 5.5t-5 13.5v612q0 61 30.5 86.5t90.5 25.5h258q19 0 19 -17v-8q0 -16 -19 -16h-258q-40 0 -58.5 -14t-18.5 -57v-220h335q19 0 19 -16v-10z" />
    <glyph glyph-name="G" unicode="G" horiz-adv-x="588" 
d="M508 712q0 -18 -21 -15q-101 10 -176 10q-32 0 -60 -7.5t-56 -26.5t-47.5 -49t-31.5 -79t-12 -112v-124q0 -138 54.5 -205.5t152.5 -67.5q80 0 152 9v318q0 19 17 19h10q17 0 17 -19v-337q0 -17 -17 -19q-104 -13 -179 -13q-113 0 -182 78.5t-69 236.5v124q0 72 15 128.5
t39.5 91t58 56.5t67 30.5t71.5 8.5q94 0 180 -10q17 -2 17 -16v-10z" />
    <glyph glyph-name="H" unicode="H" horiz-adv-x="647" 
d="M567 19q0 -19 -17 -19h-9q-17 0 -17 19v358h-400v-358q0 -8 -5 -13.5t-12 -5.5h-10q-7 0 -12 5.5t-5 13.5v705q0 8 5 13.5t12 5.5h10q7 0 12 -5.5t5 -13.5v-306h400v306q0 19 17 19h9q17 0 17 -19v-705z" />
    <glyph glyph-name="I" unicode="I" horiz-adv-x="224" 
d="M134 19q0 -8 -5 -13.5t-12 -5.5h-10q-7 0 -12 5.5t-5 13.5v705q0 8 5 13.5t12 5.5h10q7 0 12 -5.5t5 -13.5v-705z" />
    <glyph glyph-name="J" unicode="J" horiz-adv-x="224" 
d="M134 -60q0 -72 -32 -103.5t-112 -31.5h-14q-20 0 -20 14v10q0 15 20 15h14q62 0 81 18.5t19 77.5v784q0 8 5 13.5t12 5.5h10q7 0 12 -5.5t5 -13.5v-784z" />
    <glyph glyph-name="K" unicode="K" horiz-adv-x="542" 
d="M506 730q0 -10 -8 -18l-336 -326l343 -356q10 -11 6 -21.5t-18 -10.5q-15 0 -23 8l-346 360v-347q0 -8 -5 -13.5t-12 -5.5h-10q-7 0 -12 5.5t-5 13.5v705q0 8 6 13.5t13 5.5h6q7 0 13 -5.5t6 -13.5v-320l340 332q12 11 23 11q8 0 13.5 -5.5t5.5 -11.5z" />
    <glyph glyph-name="L" unicode="L" horiz-adv-x="483" 
d="M448 17q0 -17 -19 -17h-228q-60 0 -90.5 25.5t-30.5 86.5v612q0 8 5 13.5t12 5.5h10q7 0 12 -5.5t5 -13.5v-612q0 -43 18.5 -57t58.5 -14h228q19 0 19 -16v-8z" />
    <glyph glyph-name="M" unicode="M" horiz-adv-x="730" 
d="M650 19q0 -8 -5 -13.5t-12 -5.5h-10q-7 0 -12 5.5t-5 13.5v680q0 7 -7 7q-5 0 -10 -9l-173 -365q-17 -36 -51 -36t-51 36l-173 365q-5 9 -10 9q-7 0 -7 -7v-680q0 -8 -5 -13.5t-12 -5.5h-10q-7 0 -12 5.5t-5 13.5v680q0 49 51 49q31 0 46 -31l175 -367q6 -13 13 -13
t13 13l175 367q15 31 46 31q51 0 51 -49v-680z" />
    <glyph glyph-name="N" unicode="N" horiz-adv-x="651" 
d="M571 45q0 -23 -13 -37t-32 -14q-25 0 -34 7q-11 9 -18 23l-337 675q-3 7 -8 7t-5 -7v-680q0 -8 -5 -13.5t-12 -5.5h-10q-7 0 -12 5.5t-5 13.5v680q0 22 13.5 35.5t35.5 13.5q33 0 48 -31l336 -674q3 -7 8 -7t5 9v679q0 19 16 19h12q17 0 17 -19v-679z" />
    <glyph glyph-name="O" unicode="O" horiz-adv-x="632" 
d="M572 309q0 -160 -69 -237.5t-187 -77.5t-187 77.5t-69 237.5v124q0 160 69 237.5t187 77.5t187 -77.5t69 -237.5v-124zM528 309v124q0 273 -212 273t-212 -273v-124q0 -273 212 -273t212 273z" />
    <glyph glyph-name="P" unicode="P" horiz-adv-x="540" 
d="M505 528q0 -114 -69.5 -164t-202.5 -50q-53 0 -109 4v-299q0 -8 -5 -13.5t-12 -5.5h-10q-7 0 -12 5.5t-5 13.5v705q0 7 5 12.5t12 6.5q87 5 136 5q272 0 272 -203v-17zM461 528v17q0 90 -56 127t-172 37q-65 0 -109 -3v-349q62 -4 109 -4q118 0 173 40.5t55 134.5z" />
    <glyph glyph-name="Q" unicode="Q" horiz-adv-x="632" 
d="M572 309q0 -153 -63 -230.5t-172 -83.5v-67q0 -56 15 -70t78 -14h21q20 0 20 -16v-7q0 -16 -20 -16h-21q-75 0 -106 23t-31 100v67q-108 7 -170.5 84.5t-62.5 229.5v124q0 160 69 237.5t187 77.5t187 -77.5t69 -237.5v-124zM528 309v124q0 273 -212 273t-212 -273v-124
q0 -273 212 -273t212 273z" />
    <glyph glyph-name="R" unicode="R" horiz-adv-x="598" 
d="M548 29q7 -10 4 -19.5t-15 -9.5h-13q-8 0 -15 9l-213 326q-4 -1 -22.5 -0.5t-20.5 0.5l-129 1v-317q0 -8 -5 -13.5t-12 -5.5h-10q-7 0 -12 5.5t-5 13.5v706q0 7 5 12.5t12 6.5q70 4 156 4q140 0 206 -46.5t66 -157.5v-5q0 -89 -44 -136.5t-135 -62.5zM481 539v5
q0 90 -55.5 126t-172.5 36q-89 0 -129 -4v-324q13 0 63.5 -0.5t65.5 -0.5q121 0 174.5 34.5t53.5 127.5z" />
    <glyph glyph-name="S" unicode="S" horiz-adv-x="530" 
d="M475 185q0 -191 -232 -191q-84 0 -146 10q-27 4 -27 21v4q0 19 23 17q80 -10 150 -10q105 0 145.5 39.5t40.5 109.5q0 19 -3 33t-13 28.5t-18.5 24t-31.5 26t-37.5 26t-50.5 31.5l-63 39q-82 50 -119.5 92t-37.5 108q0 44 19.5 75.5t54 48.5t74 24t86.5 7q74 0 139 -9
q27 -3 27 -20v-5q0 -19 -31 -16q-72 8 -136 8q-188 0 -188 -113q0 -50 30.5 -83t104.5 -78l64 -39q98 -59 137 -101t39 -107z" />
    <glyph glyph-name="T" unicode="T" horiz-adv-x="571" 
d="M541 717q0 -15 -19 -15h-214v-683q0 -8 -5 -13.5t-12 -5.5h-10q-7 0 -12 5.5t-5 13.5v683h-215q-19 0 -19 15v9q0 17 19 17h473q19 0 19 -17v-9z" />
    <glyph glyph-name="U" unicode="U" horiz-adv-x="633" 
d="M553 264q0 -130 -58.5 -200t-177.5 -70q-120 0 -178.5 70t-58.5 200v460q0 8 5 13.5t12 5.5h10q7 0 12 -5.5t5 -13.5v-460q0 -113 45.5 -171t147.5 -58t147 58t45 171v460q0 8 5 13.5t12 5.5h10q7 0 12 -5.5t5 -13.5v-460z" />
    <glyph glyph-name="V" unicode="V" horiz-adv-x="630" 
d="M585 718l-205 -675q-14 -49 -65 -49t-65 49l-205 675q-3 10 1.5 17.5t14.5 7.5h11q12 0 16 -14l204 -673q6 -20 23 -20t23 20l204 673q4 14 16 14h11q10 0 14.5 -7.5t1.5 -17.5z" />
    <glyph glyph-name="W" unicode="W" horiz-adv-x="788" 
d="M743 720l-123 -679q-9 -47 -48 -47q-35 0 -48 45l-122 387q-4 12 -8 12t-8 -12l-122 -387q-13 -45 -48 -45q-39 0 -48 47l-123 679q-2 9 2.5 16t13.5 7h10q15 0 18 -16l121 -677q3 -15 6 -15q4 0 8 15l125 389q12 39 45 39t45 -39l125 -389q4 -15 8 -15q3 0 6 15l121 677
q3 16 18 16h10q9 0 13.5 -7t2.5 -16z" />
    <glyph glyph-name="X" unicode="X" horiz-adv-x="602" 
d="M557 29q7 -10 3.5 -19.5t-15.5 -9.5h-8q-9 0 -16 9l-220 333l-220 -333q-7 -9 -16 -9h-9q-12 0 -15.5 9.5t3.5 19.5l231 351l-220 333q-7 10 -4 20t14 10h11q9 0 16 -9l208 -316l209 316q7 9 16 9h9q12 0 15.5 -10t-3.5 -20l-220 -334z" />
    <glyph glyph-name="Y" unicode="Y" horiz-adv-x="551" 
d="M502 716l-158 -349q-22 -48 -47 -58v-290q0 -8 -5 -13.5t-12 -5.5h-10q-7 0 -12 5.5t-5 13.5v290q-25 10 -47 58l-158 349q-12 27 14 27h10q10 0 16 -12l157 -350q10 -22 15.5 -28.5t14.5 -6.5t14.5 6.5t15.5 28.5l157 350q6 12 16 12h10q26 0 14 -27z" />
    <glyph glyph-name="Z" unicode="Z" horiz-adv-x="595" 
d="M535 16q0 -16 -21 -16h-392q-54 0 -54 43q0 19 11 36l379 610q2 3 2 7q0 6 -8 6h-362q-21 0 -21 15v10q0 16 21 16h362q29 0 41 -8q17 -10 17 -32q0 -15 -11 -34l-382 -617q-2 -4 -2 -7q0 -4 7 -4h392q21 0 21 -15v-10z" />
    <glyph glyph-name="bracketleft" unicode="[" horiz-adv-x="298" 
d="M278 -179q0 -16 -19 -16h-152q-7 0 -12 5.5t-5 13.5v900q0 8 5 13.5t12 5.5h152q19 0 19 -17v-8q0 -16 -19 -16h-125v-856h125q19 0 19 -17v-8z" />
    <glyph glyph-name="backslash" unicode="\" horiz-adv-x="325" 
d="M305 6q0 -12 -10 -12h-22q-10 0 -16 19l-235 716q-1 2 -1 7q0 12 11 12h21q10 0 16 -19l235 -716q1 -2 1 -7z" />
    <glyph glyph-name="bracketright" unicode="]" horiz-adv-x="298" 
d="M208 -176q0 -8 -5 -13.5t-12 -5.5h-152q-19 0 -19 16v8q0 17 19 17h125v856h-125q-19 0 -19 16v8q0 17 19 17h152q7 0 12 -5.5t5 -13.5v-900z" />
    <glyph glyph-name="asciicircum" unicode="^" 
d="M462 569q0 -9 -11 -9h-18q-4 0 -6.5 0.5t-5 3l-4 4t-5 6t-5.5 6.5l-117 139l-117 -139q-2 -2 -5.5 -6.5t-5 -6l-4 -4t-5 -3t-6.5 -0.5h-18q-11 0 -11 9q0 4 5 11l117 150q14 18 27 18h46q13 0 27 -18l117 -150q5 -7 5 -11z" />
    <glyph glyph-name="underscore" unicode="_" horiz-adv-x="465" 
d="M495 -82q0 -16 -20 -16h-485q-20 0 -20 16v10q0 16 20 16h485q20 0 20 -16v-10z" />
    <glyph glyph-name="grave" unicode="`" horiz-adv-x="330" 
d="M212 625q0 -7 -9 -7h-22q-8 0 -22 17l-107 128q-4 4 -4 8q0 7 11 7h26q11 0 23 -15l100 -128q4 -4 4 -10z" />
    <glyph glyph-name="a" unicode="a" horiz-adv-x="488" 
d="M418 20q0 -8 -6 -14t-14 -6h-5q-8 0 -14 6t-6 14v25q-93 -51 -170 -51q-65 0 -109 37.5t-44 123.5v13q0 79 57 116.5t190 37.5h77v36q0 80 -27.5 112.5t-98.5 32.5q-57 0 -142 -9q-23 -2 -23 15v6q0 15 23 18q76 9 142 9q95 0 132.5 -47.5t37.5 -136.5v-338zM374 84v199
h-77q-113 0 -158 -25.5t-45 -89.5v-13q0 -122 109 -122q76 0 171 51z" />
    <glyph glyph-name="b" unicode="b" horiz-adv-x="504" 
d="M449 237q0 -113 -48 -178t-148 -65q-75 0 -168 19q-15 4 -15 19v692q0 8 5 13.5t12 5.5h10q7 0 12 -5.5t5 -13.5v-197q67 15 139 15q196 0 196 -239v-66zM405 237v66q0 101 -35.5 150.5t-116.5 49.5q-77 0 -139 -13v-444q78 -13 139 -13q81 0 116.5 51.5t35.5 152.5z" />
    <glyph glyph-name="c" unicode="c" horiz-adv-x="437" 
d="M393 21q0 -15 -19 -18q-76 -9 -121 -9q-101 0 -149.5 67.5t-48.5 174.5v67q0 108 48 173.5t150 65.5q45 0 121 -9q19 -3 19 -18v-7q0 -18 -21 -14q-70 9 -119 9q-154 0 -154 -200v-67q0 -203 154 -203q49 0 119 9q21 4 21 -14v-7z" />
    <glyph glyph-name="d" unicode="d" horiz-adv-x="504" 
d="M434 32q0 -15 -15 -19q-93 -19 -168 -19q-100 0 -148 65t-48 178v66q0 239 196 239q72 0 139 -15v197q0 8 5 13.5t12 5.5h10q7 0 12 -5.5t5 -13.5v-692zM390 46v444q-62 13 -139 13q-81 0 -116.5 -49.5t-35.5 -150.5v-66q0 -101 35.5 -152.5t116.5 -51.5q61 0 139 13z
" />
    <glyph glyph-name="e" unicode="e" horiz-adv-x="511" 
d="M456 277q0 -8 -5.5 -13.5t-13.5 -5.5h-338v-21q0 -116 48 -160t133 -44q65 0 148 17q21 4 21 -13v-7q0 -15 -19 -19q-82 -17 -150 -17q-225 0 -225 243v66q0 107 53 173t149 66q100 0 149.5 -63.5t49.5 -174.5v-27zM412 298v6q0 98 -36.5 148.5t-118.5 50.5
q-80 0 -119 -53.5t-39 -146.5v-5h313z" />
    <glyph glyph-name="f" unicode="f" horiz-adv-x="377" 
d="M342 722q0 -13 -21 -13h-50q-36 0 -52.5 -17.5t-16.5 -61.5v-93h119q19 0 19 -16v-9q0 -16 -19 -16h-119v-477q0 -8 -5.5 -13.5t-12.5 -5.5h-7q-8 0 -13.5 5.5t-5.5 13.5v477h-99q-19 0 -19 16v9q0 16 19 16h99v93q0 118 113 118q33 0 52 -3t19 -16v-7z" />
    <glyph glyph-name="g" unicode="g" horiz-adv-x="534" 
d="M489 510q0 -16 -19 -16h-52q55 -44 55 -124v-8q0 -163 -207 -163q-65 0 -122 23q-34 -15 -34 -43q0 -23 29 -31l180 -47q87 -23 123.5 -50t36.5 -87v-7q0 -155 -212 -155t-212 155v9q0 48 23 87.5t52 56.5l-7 2q-53 16 -53 67q0 45 42 64q-52 43 -52 119v8q0 167 206 167
h204q19 0 19 -16v-11zM430 362v8q0 60 -36.5 94.5t-127.5 34.5q-94 0 -128 -35.5t-34 -93.5v-8q0 -22 6.5 -41.5t22.5 -39.5t50 -32t83 -12q92 0 128 33.5t36 91.5zM435 -43v7q0 41 -25 60t-101 39l-138 36q-73 -48 -73 -133v-9q0 -57 38.5 -87.5t130.5 -30.5q95 0 131.5 29
t36.5 89z" />
    <glyph glyph-name="h" unicode="h" horiz-adv-x="505" 
d="M440 13q0 -19 -17 -19h-10q-16 0 -16 19v337q0 76 -35 114.5t-113 38.5q-73 0 -135 -18v-472q0 -8 -5 -13.5t-12 -5.5h-10q-7 0 -12 5.5t-5 13.5v711q0 8 5 13.5t12 5.5h10q7 0 12 -5.5t5 -13.5v-200q70 18 135 18q191 0 191 -192v-337z" />
    <glyph glyph-name="i" unicode="i" horiz-adv-x="204" 
d="M124 655q0 -8 -5.5 -13.5t-13.5 -5.5h-6q-8 0 -13.5 5.5t-5.5 13.5v74q0 7 6 13t13 6h6q7 0 13 -6t6 -13v-74zM124 13q0 -7 -6 -13t-13 -6h-6q-7 0 -13 6t-6 13v505q0 8 6 13.5t13 5.5h6q7 0 13 -5.5t6 -13.5v-505z" />
    <glyph glyph-name="j" unicode="j" horiz-adv-x="204" 
d="M124 655q0 -8 -5.5 -13.5t-13.5 -5.5h-6q-8 0 -13.5 5.5t-5.5 13.5v74q0 7 6 13t13 6h6q7 0 13 -6t6 -13v-74zM124 -86q0 -62 -25 -85.5t-78 -23.5q-20 0 -42 3q-17 2 -17 14v9q0 12 21 12h38q34 0 46.5 13.5t12.5 57.5v604q0 19 16 19h11q17 0 17 -19v-604z" />
    <glyph glyph-name="k" unicode="k" horiz-adv-x="444" 
d="M398 25q9 -10 5.5 -20.5t-17.5 -10.5q-18 0 -30 12l-242 259v-252q0 -7 -6 -13t-13 -6h-6q-7 0 -13 6t-6 13v711q0 8 6 13.5t13 5.5h6q7 0 13 -5.5t6 -13.5v-421l246 230q10 9 24 9t19 -12t-6 -21l-245 -224z" />
    <glyph glyph-name="l" unicode="l" horiz-adv-x="204" 
d="M124 13q0 -8 -5 -13.5t-12 -5.5h-10q-7 0 -12 5.5t-5 13.5v711q0 8 5 13.5t12 5.5h10q7 0 12 -5.5t5 -13.5v-711z" />
    <glyph glyph-name="m" unicode="m" horiz-adv-x="746" 
d="M676 19q0 -19 -17 -19h-10q-17 0 -17 19v358q0 68 -29.5 97t-87.5 29q-65 0 -135 -34q15 -38 15 -88v-362q0 -19 -15 -19h-15q-14 0 -14 19v362q0 122 -94 122q-55 0 -143 -42v-442q0 -19 -15 -19h-14q-15 0 -15 19v498q0 20 18 20h8q18 0 18 -20v-18q88 43 152 43
q61 0 95 -41q85 41 161 41q68 0 111 -40.5t43 -124.5v-358z" />
    <glyph glyph-name="n" unicode="n" horiz-adv-x="521" 
d="M451 19q0 -8 -5.5 -13.5t-13.5 -5.5h-7q-7 0 -12.5 5.5t-5.5 13.5v332q0 152 -135 152q-73 0 -158 -41v-443q0 -7 -6 -13t-13 -6h-6q-7 0 -13 6t-6 13v498q0 20 18 20h8q18 0 18 -20v-16q85 41 161 41q78 0 127 -46.5t49 -144.5v-332z" />
    <glyph glyph-name="o" unicode="o" horiz-adv-x="522" 
d="M467 233q0 -115 -52.5 -177t-153.5 -62t-153.5 62t-52.5 177v70q0 115 52.5 177t153.5 62t153.5 -62t52.5 -177v-70zM423 233v70q0 200 -162 200t-162 -200v-70q0 -200 162 -200t162 200z" />
    <glyph glyph-name="p" unicode="p" horiz-adv-x="504" 
d="M449 233q0 -239 -196 -239q-72 0 -139 15v-185q0 -8 -5 -13.5t-12 -5.5h-10q-7 0 -12 5.5t-5 13.5v680q0 15 15 19q93 19 168 19q100 0 148 -65t48 -178v-66zM405 233v66q0 101 -35.5 152.5t-116.5 51.5q-61 0 -139 -13v-444q62 -13 139 -13q81 0 116.5 49.5t35.5 150.5z
" />
    <glyph glyph-name="q" unicode="q" horiz-adv-x="504" 
d="M434 -176q0 -8 -5 -13.5t-12 -5.5h-10q-7 0 -12 5.5t-5 13.5v185q-67 -15 -139 -15q-196 0 -196 239v66q0 113 48 178t148 65q75 0 168 -19q15 -4 15 -19v-680zM390 46v444q-78 13 -139 13q-81 0 -116.5 -51.5t-35.5 -152.5v-66q0 -101 35.5 -150.5t116.5 -49.5
q77 0 139 13z" />
    <glyph glyph-name="r" unicode="r" horiz-adv-x="309" 
d="M280 519q0 -16 -27 -16q-66 0 -139 -46v-438q0 -7 -6 -13t-13 -6h-6q-7 0 -13 6t-6 13v498q0 20 18 20h8q18 0 18 -20v-21q71 46 139 46q27 0 27 -15v-8z" />
    <glyph glyph-name="s" unicode="s" horiz-adv-x="440" 
d="M390 133q0 -139 -173 -139q-73 0 -145 14l-12 3t-7 4.5t-3 8.5v11q0 18 22 14q96 -16 147 -16q60 0 93.5 21.5t33.5 78.5q0 31 -21.5 52.5t-84.5 56.5l-64 35q-64 35 -92.5 65t-28.5 77q0 65 43 94t110 29q66 0 143 -9q8 -1 12 -2.5t6.5 -5t2.5 -9.5v-8q0 -12 -4.5 -15
t-16.5 -1q-95 11 -139 11q-55 0 -84 -17.5t-29 -66.5q0 -31 23 -53t74 -51l67 -37q69 -38 98 -68.5t29 -76.5z" />
    <glyph glyph-name="t" unicode="t" horiz-adv-x="380" 
d="M340 13q0 -14 -17 -16q-23 -3 -52 -3q-57 0 -85 23.5t-28 84.5v394h-99q-19 0 -19 16v10q0 15 19 15h99v103q0 19 17 19h11q16 0 16 -19v-103h119q19 0 19 -15v-10q0 -16 -19 -16h-119v-394q0 -42 16 -55.5t53 -13.5h48q21 0 21 -14v-6z" />
    <glyph glyph-name="u" unicode="u" horiz-adv-x="521" 
d="M70 518q0 8 5.5 13.5t13.5 5.5h7q7 0 12.5 -5.5t5.5 -13.5v-332q0 -152 135 -152q69 0 158 41v443q0 8 5.5 13.5t13.5 5.5h6q8 0 13.5 -5.5t5.5 -13.5v-498q0 -20 -18 -20h-8q-18 0 -18 20v16q-85 -41 -161 -41q-78 0 -127 46.5t-49 144.5v332z" />
    <glyph glyph-name="v" unicode="v" horiz-adv-x="480" 
d="M440 512l-131 -455q-10 -37 -26.5 -50t-41.5 -13q-52 0 -70 63l-131 455q-3 11 1 18t14 7h10q13 0 18 -18l128 -451q11 -36 30 -36q17 0 28 36l128 451q5 18 18 18h12q20 0 13 -25z" />
    <glyph glyph-name="w" unicode="w" horiz-adv-x="752" 
d="M702 513l-110 -465q-7 -29 -18 -41.5t-34 -12.5q-22 0 -32.5 13t-18.5 44l-106 380q-3 9 -7 9t-7 -9l-106 -380q-8 -31 -18.5 -44t-32.5 -13q-23 0 -34 12.5t-18 41.5l-110 465q-6 24 18 24h6q12 0 16 -14l108 -465q4 -17 6.5 -21t7.5 -4q6 0 13 24l108 386q10 36 43 36
t43 -36l108 -386q7 -24 13 -24q8 0 14 25l108 465q4 14 16 14h6q24 0 18 -24z" />
    <glyph glyph-name="x" unicode="x" horiz-adv-x="493" 
d="M455 14q0 -14 -14 -14h-8q-13 0 -19 8l-166 232l-163 -232q-6 -8 -11 -8h-17q-14 0 -14 12q0 7 5 14l176 249l-170 238q-4 6 -4 11q0 13 18 13h6q14 0 19 -8l158 -220l153 218q7 10 19 10h9q15 0 15 -12q0 -7 -7 -17l-165 -235l177 -248q3 -5 3 -11z" />
    <glyph glyph-name="y" unicode="y" horiz-adv-x="486" 
d="M446 512l-164 -568q-23 -80 -57.5 -109.5t-104.5 -29.5q-26 0 -62 6q-20 3 -20 14v11q0 17 21 14q45 -6 65 -6q54 0 77.5 21.5t41.5 87.5l13 47h-14q-25 0 -38 11t-23 45l-135 457q-7 24 16 24h9q12 0 16 -14l135 -460q6 -22 23 -22h23l137 483q4 13 18 13h9q22 0 14 -25
z" />
    <glyph glyph-name="z" unicode="z" horiz-adv-x="446" 
d="M406 16q0 -16 -20 -16h-286q-60 0 -60 41q0 22 18 45l293 391q4 5 4 10q0 9 -14 9h-263q-20 0 -20 15v10q0 16 20 16h262q58 0 58 -43q0 -23 -16 -45l-290 -389q-5 -8 -5 -12q0 -7 9 -7h290q20 0 20 -15v-10z" />
    <glyph glyph-name="braceleft" unicode="{" horiz-adv-x="300" 
d="M280 -178q0 -17 -19 -17h-46q-70 0 -96.5 23.5t-26.5 86.5v204q0 55 -11.5 82t-50.5 55v36q39 28 50.5 55t11.5 82v204q0 62 27 86t96 24h46q19 0 19 -17v-8q0 -16 -19 -16h-46q-50 0 -64.5 -12.5t-14.5 -56.5v-204q0 -56 -13.5 -91t-50.5 -65q36 -29 50 -64t14 -90v-204
q0 -44 14.5 -56.5t64.5 -12.5h46q19 0 19 -16v-8z" />
    <glyph glyph-name="bar" unicode="|" horiz-adv-x="224" 
d="M134 -176q0 -8 -5 -13.5t-12 -5.5h-10q-7 0 -12 5.5t-5 13.5v900q0 8 5 13.5t12 5.5h10q7 0 12 -5.5t5 -13.5v-900z" />
    <glyph glyph-name="braceright" unicode="}" horiz-adv-x="300" 
d="M270 256q-39 -28 -50.5 -55t-11.5 -82v-204q0 -63 -26.5 -86.5t-96.5 -23.5h-46q-19 0 -19 17v8q0 16 19 16h46q50 0 64.5 12.5t14.5 56.5v204q0 55 14 90t50 64q-37 30 -50.5 65t-13.5 91v204q0 44 -14.5 56.5t-64.5 12.5h-46q-19 0 -19 16v8q0 17 19 17h46q69 0 96 -24
t27 -86v-204q0 -55 11.5 -82t50.5 -55v-36z" />
    <glyph glyph-name="asciitilde" unicode="~" 
d="M476 459q0 -104 -90 -104q-43 0 -77 32l-57 55q-37 35 -59 35q-50 0 -50 -68v-30q0 -19 -11 -19h-15q-13 0 -13 19v30q0 52 24 79t65 27q44 0 80 -34l57 -55q33 -31 55 -31q27 0 39.5 14t12.5 50v31q0 18 11 18h15q13 0 13 -18v-31z" />
    <glyph glyph-name="uni00A0" unicode="&#xa0;" horiz-adv-x="215" 
 />
    <glyph glyph-name="exclamdown" unicode="&#xa1;" horiz-adv-x="204" 
d="M124 449q0 -7 -6 -13t-13 -6h-6q-7 0 -13 6t-6 13v74q0 8 5.5 13.5t13.5 5.5h6q8 0 13.5 -5.5t5.5 -13.5v-74zM124 -188q0 -8 -6 -13.5t-13 -5.5h-6q-7 0 -13 5.5t-6 13.5v532q0 8 6 13.5t13 5.5h6q7 0 13 -5.5t6 -13.5v-532z" />
    <glyph glyph-name="cent" unicode="&#xa2;" 
d="M432 21q0 -15 -19 -18q-67 -8 -100 -9v-101q0 -19 -16 -19h-10q-16 0 -16 19v102q-90 7 -133.5 73.5t-43.5 167.5v67q0 101 43.5 166t133.5 72v102q0 19 16 19h10q16 0 16 -19v-101q33 -1 100 -9q19 -3 19 -18v-7q0 -14 -16 -14h-5q-71 9 -119 9q-154 0 -154 -200v-67
q0 -203 154 -203q48 0 119 9h5q16 0 16 -14v-7z" />
    <glyph glyph-name="sterling" unicode="&#xa3;" 
d="M510 16q0 -16 -20 -16h-372q-20 0 -20 20q0 7 3 11q41 69 41 138v200h-53q-18 0 -18 17v9q0 17 20 17h51v74q0 130 45 196t154 66q74 0 148 -9q19 -3 19 -16v-8q0 -15 -15 -15h-6q-70 8 -146 8q-90 0 -121.5 -54.5t-31.5 -167.5v-74h245q18 0 18 -17v-9q0 -17 -20 -17
h-243v-200q0 -72 -32 -128h334q20 0 20 -14v-11z" />
    <glyph glyph-name="currency" unicode="&#xa4;" 
d="M525 161q0 -7 -5 -12l-7 -7q-5 -5 -11 -5q-8 0 -15 7l-81 82q-52 -41 -117 -41q-66 0 -116 40l-80 -80q-7 -7 -15 -7q-6 0 -11 5l-7 7q-5 5 -5 11q0 8 7 15l79 79q-42 53 -42 119q0 65 41 117l-78 78q-7 7 -7 15q0 7 5 12l7 7q4 4 10 4q9 0 16 -7l78 -78q52 41 117 41
q66 0 119 -42l80 80q7 7 15 7q6 0 11 -5l7 -7q5 -5 5 -11q0 -8 -7 -15l-80 -80q40 -50 40 -116q0 -65 -41 -117l81 -81q7 -7 7 -15zM437 374q0 61 -43.5 104t-104.5 43q-62 0 -105 -43t-43 -104q0 -62 43.5 -105t104.5 -43t104.5 43t43.5 105z" />
    <glyph glyph-name="yen" unicode="&#xa5;" 
d="M535 254q0 -16 -20 -16h-203v-219q0 -8 -5 -13.5t-12 -5.5h-10q-7 0 -12 5.5t-5 13.5v219h-205q-18 0 -18 16v9q0 16 20 16h203v30l-61 121h-144q-18 0 -18 16v9q0 16 20 16h121l-123 245q-13 27 14 27h12q10 0 16 -12l186 -370l185 370q6 12 16 12h11q27 0 14 -27
l-123 -245h123q18 0 18 -16v-9q0 -16 -20 -16h-142l-61 -121v-30h205q18 0 18 -16v-9z" />
    <glyph glyph-name="brokenbar" unicode="&#xa6;" horiz-adv-x="224" 
d="M134 361q0 -8 -5 -13.5t-12 -5.5h-10q-7 0 -12 5.5t-5 13.5v348q0 8 5 13.5t12 5.5h10q7 0 12 -5.5t5 -13.5v-348zM134 -192q0 -8 -5 -13.5t-12 -5.5h-10q-7 0 -12 5.5t-5 13.5v348q0 8 5 13.5t12 5.5h10q7 0 12 -5.5t5 -13.5v-348z" />
    <glyph glyph-name="section" unicode="&#xa7;" horiz-adv-x="521" 
d="M469 -29q0 -39 -9.5 -69.5t-33.5 -58.5t-72 -43.5t-117 -15.5q-89 0 -153 8q-18 2 -18 19v6q0 17 19 17h2q104 -8 150 -8q107 0 147.5 36.5t40.5 108.5q0 50 -26.5 81.5t-108.5 81.5l-100 61q-82 50 -110 87t-28 94q0 69 35 107q-35 39 -35 103q0 84 54 123t176 39
q96 0 152 -7q17 -1 17 -21v-3q0 -20 -21 -19q-6 0 -34.5 2.5t-59.5 4t-54 1.5q-98 0 -142 -28.5t-44 -91.5q0 -43 25 -72t97 -73l98 -60q92 -56 122.5 -99t30.5 -101q0 -69 -29 -111q29 -39 29 -99zM425 181q0 50 -26.5 81.5t-108.5 81.5l-100 61q-39 24 -69 47
q-25 -28 -25 -76q0 -43 25 -72t97 -73l98 -60q63 -39 93 -67q16 32 16 77z" />
    <glyph glyph-name="dieresis" unicode="&#xa8;" horiz-adv-x="330" 
d="M262 661q0 -8 -5.5 -13.5t-13.5 -5.5h-6q-8 0 -13.5 5.5t-5.5 13.5v74q0 7 6 13t13 6h6q7 0 13 -6t6 -13v-74zM112 661q0 -8 -5.5 -13.5t-13.5 -5.5h-6q-8 0 -13.5 5.5t-5.5 13.5v74q0 7 6 13t13 6h6q7 0 13 -6t6 -13v-74z" />
    <glyph glyph-name="copyright" unicode="&#xa9;" horiz-adv-x="730" 
d="M685 374q0 -133 -94 -226t-227 -93t-226 93t-93 226t93.5 227.5t225.5 94.5q133 0 227 -94.5t94 -227.5zM646 374q0 117 -82.5 200t-199.5 83t-199.5 -83t-82.5 -200t82.5 -199t199.5 -82t199.5 82t82.5 199zM465 183q0 -13 -16 -16q-45 -6 -97 -6q-62 0 -102.5 42.5
t-40.5 137.5v72q0 95 40.5 137.5t102.5 42.5q52 0 97 -6q16 -3 16 -15v-8q0 -12 -14 -12h-4q-50 5 -95 5q-47 0 -76 -34t-29 -110v-72q0 -76 29 -110t76 -34q45 0 95 5h2q16 0 16 -14v-5z" />
    <glyph glyph-name="ordfeminine" unicode="&#xaa;" horiz-adv-x="268" 
d="M230 469q0 -14 -11 -16q-39 -11 -81 -11q-60 0 -85 21.5t-25 68.5v7q0 45 30.5 66t101.5 21h37v14q0 41 -13 57t-48 16q-34 0 -74 -5h-2q-15 0 -15 13v3q0 12 16 14q37 5 75 5q94 0 94 -103v-171zM197 478v117h-36q-58 0 -79.5 -12.5t-21.5 -43.5v-7q0 -32 15.5 -46
t62.5 -14q23 0 59 6z" />
    <glyph glyph-name="guillemotleft" unicode="&#xab;" horiz-adv-x="535" 
d="M482 92q0 -6 -5 -11l-7 -7q-4 -4 -10 -4q-7 0 -16 7l-178 163q-14 12 -14 29q0 15 14 29l178 163q9 7 16 7q6 0 10 -4l7 -7q5 -5 5 -11q0 -9 -8 -15l-177 -162l177 -162q8 -6 8 -15zM252 92q0 -6 -5 -11l-7 -7q-4 -4 -10 -4q-7 0 -16 7l-178 163q-14 12 -14 29
q0 15 14 29l178 163q9 7 16 7q6 0 10 -4l7 -7q5 -5 5 -11q0 -9 -8 -15l-177 -162l177 -162q8 -6 8 -15z" />
    <glyph glyph-name="logicalnot" unicode="&#xac;" 
d="M493 290q0 -20 -16 -20h-10q-16 0 -16 20v180h-343q-20 0 -20 16v10q0 16 20 16h369q16 0 16 -18v-204z" />
    <glyph glyph-name="uni00AD" unicode="&#xad;" horiz-adv-x="344" 
d="M292 273q0 -16 -19 -16h-202q-19 0 -19 16v8q0 8 5.5 13t13.5 5h202q8 0 13.5 -5t5.5 -13v-8z" />
    <glyph glyph-name="registered" unicode="&#xae;" horiz-adv-x="616" 
d="M571 484q0 -109 -77 -185.5t-186 -76.5t-186 76.5t-77 185.5t77 186t186 77t186 -77t77 -186zM536 484q0 94 -67 161t-161 67t-160.5 -66.5t-66.5 -161.5q0 -94 66.5 -160.5t160.5 -66.5q95 0 161.5 66.5t66.5 160.5zM427 330q0 -13 -14 -13h-5q-8 0 -13 7l-91 139
q-3 0 -7.5 0.5t-7.5 0.5h-49v-131q0 -6 -4.5 -11t-10.5 -5h-4q-6 0 -10.5 5t-4.5 11v308q0 14 14 16q30 2 69 2q63 0 94.5 -22t31.5 -75v-2q0 -75 -73 -92l82 -127q3 -4 3 -11zM381 560v2q0 35 -21.5 49.5t-70.5 14.5q-35 0 -49 -1v-128q7 0 25.5 -0.5t23.5 -0.5
q51 0 71.5 14t20.5 50z" />
    <glyph glyph-name="macron" unicode="&#xaf;" horiz-adv-x="330" 
d="M318 704q0 -16 -20 -16h-266q-20 0 -20 16v11q0 15 20 15h266q20 0 20 -15v-11z" />
    <glyph glyph-name="degree" unicode="&#xb0;" horiz-adv-x="331" 
d="M301 613q0 -55 -39.5 -95t-95.5 -40t-96 40t-40 95t40 95t96 40t95.5 -40t39.5 -95zM263 613q0 40 -28.5 69t-68.5 29t-68.5 -29t-28.5 -69t28.5 -68.5t68.5 -28.5t68.5 28.5t28.5 68.5z" />
    <glyph glyph-name="plusminus" unicode="&#xb1;" 
d="M513 386q0 -16 -20 -16h-182v-181q0 -20 -16 -20h-10q-16 0 -16 20v181h-181q-20 0 -20 16v10q0 16 20 16h181v182q0 20 16 20h10q16 0 16 -20v-182h182q20 0 20 -16v-10zM513 16q0 -16 -20 -16h-405q-20 0 -20 16v10q0 16 20 16h405q20 0 20 -16v-10z" />
    <glyph glyph-name="two.superior" unicode="&#xb2;" horiz-adv-x="319" 
d="M67 709q-20 -2 -20 12v3q0 17 19 19q39 6 81 6q133 0 133 -93q0 -33 -16 -61t-60 -57l-55 -37q-44 -30 -57 -54.5t-13 -62.5v-14h178q18 0 18 -16v-6q0 -16 -18 -16h-200q-8 0 -13 6t-5 13v33q0 45 17.5 78.5t69.5 69.5l55 38q34 23 46 40t12 46q0 58 -92 58
q-33 0 -80 -5z" />
    <glyph glyph-name="three.superior" unicode="&#xb3;" horiz-adv-x="319" 
d="M237 461v-11q0 -46 -24.5 -66t-75.5 -20q-23 0 -77 6q-19 2 -19 -12v-4q0 -16 16 -18q39 -7 80 -7q69 0 105 28t36 93v11q0 61 -47 87q47 30 47 89v7q0 60 -35 82.5t-106 22.5q-42 0 -80 -7q-16 -2 -16 -18v-4q0 -14 19 -12q54 6 77 6q53 0 76.5 -15t23.5 -55v-7
q0 -68 -68 -68h-101q-18 0 -18 -17v-4q0 -17 18 -17h101q68 0 68 -70z" />
    <glyph glyph-name="acute" unicode="&#xb4;" horiz-adv-x="330" 
d="M282 771q0 -4 -4 -8l-107 -128q-14 -17 -22 -17h-22q-9 0 -9 7q0 6 4 10l100 128q12 15 23 15h26q11 0 11 -7z" />
    <glyph glyph-name="mu" unicode="&#xb5;" horiz-adv-x="521" 
d="M451 38q0 -14 -13 -18q-80 -26 -171 -26q-101 0 -153 58v-228q0 -8 -5 -13.5t-12 -5.5h-10q-7 0 -12 5.5t-5 13.5v694q0 8 5.5 13.5t13.5 5.5h7q7 0 12.5 -5.5t5.5 -13.5v-333q0 -152 153 -152q74 0 140 19v466q0 8 5.5 13.5t13.5 5.5h6q8 0 13.5 -5.5t5.5 -13.5v-480z
" />
    <glyph glyph-name="paragraph" unicode="&#xb6;" horiz-adv-x="599" 
d="M529 -176q0 -8 -5 -13.5t-12 -5.5h-10q-7 0 -12 5.5t-5 13.5v878h-56v-878q0 -8 -5 -13.5t-12 -5.5h-10q-7 0 -12 5.5t-5 13.5v451h-109q-106 0 -168.5 58.5t-62.5 164.5v22q0 106 62.5 164.5t168.5 58.5h237q16 0 16 -19v-900z" />
    <glyph glyph-name="periodcentered" unicode="&#xb7;" horiz-adv-x="168" 
d="M106 360q0 -8 -5.5 -13.5t-13.5 -5.5h-6q-8 0 -13.5 5.5t-5.5 13.5v74q0 8 6 13.5t13 5.5h6q7 0 13 -5.5t6 -13.5v-74z" />
    <glyph glyph-name="cedilla" unicode="&#xb8;" horiz-adv-x="330" 
d="M195 -62q0 -4 -4 -8l-91 -108q-14 -17 -22 -17h-22q-9 0 -9 7q0 6 4 10l84 108q12 15 23 15h26q11 0 11 -7z" />
    <glyph glyph-name="one.superior" unicode="&#xb9;" horiz-adv-x="210" 
d="M92 707v-357q0 -18 16 -18h8q16 0 16 18v379q0 11 -4 16t-17 3l-76 -11q-18 -4 -18 -19q0 -22 20 -19z" />
    <glyph glyph-name="ordmasculine" unicode="&#xba;" horiz-adv-x="287" 
d="M257 574q0 -63 -28.5 -97.5t-84.5 -34.5t-85 34.5t-29 97.5v37q0 63 29 97.5t85 34.5t84.5 -34.5t28.5 -97.5v-37zM224 574v37q0 102 -80 102q-81 0 -81 -102v-37q0 -102 81 -102q80 0 80 102z" />
    <glyph glyph-name="guillemotright" unicode="&#xbb;" horiz-adv-x="535" 
d="M513 269q0 -17 -14 -29l-178 -163q-9 -7 -16 -7q-6 0 -10 4l-7 7q-5 5 -5 11q0 9 8 15l177 162l-177 162q-8 6 -8 15q0 6 5 11l7 7q4 4 10 4q7 0 16 -7l178 -163q14 -14 14 -29zM283 269q0 -17 -14 -29l-178 -163q-9 -7 -16 -7q-6 0 -10 4l-7 7q-5 5 -5 11q0 9 8 15
l177 162l-177 162q-8 6 -8 15q0 6 5 11l7 7q4 4 10 4q7 0 16 -7l178 -163q14 -14 14 -29z" />
    <glyph glyph-name="onequarter" unicode="&#xbc;" horiz-adv-x="632" 
d="M518 738q0 -5 -6 -14l-412 -705q-11 -19 -21 -19h-27q-8 0 -8 6t5 13l412 705q11 19 21 19h28q8 0 8 -5zM105 707v-357q0 -18 16 -18h8q16 0 16 18v379q0 11 -4 16t-17 3l-76 -11q-18 -4 -18 -19q0 -22 20 -19zM498 154h-135q-8 0 -4 7l134 201q5 7 5 -1v-207zM514 0h8
q16 0 16 18v99h46q18 0 18 17v4q0 16 -18 16h-46v230q0 33 -29 33q-24 0 -36 -19l-147 -215q-11 -16 -11 -30q0 -16 11.5 -26t30.5 -10h141v-99q0 -18 16 -18z" />
    <glyph glyph-name="onehalf" unicode="&#xbd;" horiz-adv-x="663" 
d="M518 738q0 -5 -6 -14l-412 -705q-11 -19 -21 -19h-27q-8 0 -8 6t5 13l412 705q11 19 21 19h28q8 0 8 -5zM105 707v-357q0 -18 16 -18h8q16 0 16 18v379q0 11 -4 16t-17 3l-76 -11q-18 -4 -18 -19q0 -22 20 -19zM420 377q-20 -2 -20 12v3q0 17 19 19q39 6 81 6
q133 0 133 -93q0 -33 -16 -61t-60 -57l-55 -37q-44 -30 -57 -54.5t-13 -62.5v-14h178q18 0 18 -16v-6q0 -16 -18 -16h-200q-8 0 -13 6t-5 13v33q0 45 17.5 78.5t69.5 69.5l55 38q34 23 46 40t12 46q0 58 -92 58q-33 0 -80 -5z" />
    <glyph glyph-name="threequarters" unicode="&#xbe;" horiz-adv-x="713" 
d="M599 738q0 -5 -6 -14l-412 -705q-11 -19 -21 -19h-27q-8 0 -8 6t5 13l412 705q11 19 21 19h28q8 0 8 -5zM579 154h-135q-8 0 -4 7l134 201q5 7 5 -1v-207zM595 0h8q16 0 16 18v99h46q18 0 18 17v4q0 16 -18 16h-46v230q0 33 -29 33q-24 0 -36 -19l-147 -215
q-11 -16 -11 -30q0 -16 11.5 -26t30.5 -10h141v-99q0 -18 16 -18zM226 461v-11q0 -46 -24.5 -66t-75.5 -20q-23 0 -77 6q-19 2 -19 -12v-4q0 -16 16 -18q39 -7 80 -7q69 0 105 28t36 93v11q0 61 -47 87q47 30 47 89v7q0 60 -35 82.5t-106 22.5q-42 0 -80 -7q-16 -2 -16 -18
v-4q0 -14 19 -12q54 6 77 6q53 0 76.5 -15t23.5 -55v-7q0 -68 -68 -68h-101q-18 0 -18 -17v-4q0 -17 18 -17h101q68 0 68 -70z" />
    <glyph glyph-name="questiondown" unicode="&#xbf;" horiz-adv-x="424" 
d="M305 449q0 -7 -5.5 -13t-13.5 -6h-6q-8 0 -13.5 6t-5.5 13v74q0 8 5.5 13.5t13.5 5.5h6q8 0 13.5 -5.5t5.5 -13.5v-74zM389 -186q0 -17 -17 -19q-57 -7 -119 -7q-83 0 -138 34.5t-55 110.5v8q0 46 22.5 85t87.5 104l30 30q38 38 49 60.5t11 63.5v60q0 8 5.5 13.5
t13.5 5.5h6q8 0 13.5 -5.5t5.5 -13.5v-60q0 -49 -15 -80.5t-59 -75.5l-28 -28q-58 -58 -76 -89.5t-18 -69.5v-8q0 -56 35.5 -81t109.5 -25q39 0 121 7h2q13 0 13 -12v-8z" />
    <glyph glyph-name="Agrave" unicode="&#xc0;" horiz-adv-x="619" 
d="M579 22q7 -25 -14 -25h-12q-12 0 -16 13l-84 271h-288l-82 -271q-4 -13 -16 -13h-13q-21 0 -14 25l205 677q15 49 65 49t64 -48zM442 325l-109 363q-6 20 -23 20q-18 0 -23 -19l-110 -364h265zM367 801q0 -7 -9 -7h-22q-8 0 -22 17l-107 128q-4 4 -4 8q0 7 11 7h26
q11 0 23 -15l100 -128q4 -4 4 -10z" />
    <glyph glyph-name="Aacute" unicode="&#xc1;" horiz-adv-x="619" 
d="M579 22q7 -25 -14 -25h-12q-12 0 -16 13l-84 271h-288l-82 -271q-4 -13 -16 -13h-13q-21 0 -14 25l205 677q15 49 65 49t64 -48zM442 325l-109 363q-6 20 -23 20q-18 0 -23 -19l-110 -364h265zM415 946q0 -4 -4 -8l-107 -128q-14 -17 -22 -17h-22q-9 0 -9 7q0 6 4 10
l100 128q12 15 23 15h26q11 0 11 -7z" />
    <glyph glyph-name="Acircumflex" unicode="&#xc2;" horiz-adv-x="619" 
d="M579 22q7 -25 -14 -25h-12q-12 0 -16 13l-84 271h-288l-82 -271q-4 -13 -16 -13h-13q-21 0 -14 25l205 677q15 49 65 49t64 -48zM442 325l-109 363q-6 20 -23 20q-18 0 -23 -19l-110 -364h265zM456 801q0 -7 -9 -7h-22q-8 0 -22 17l-94 113l-94 -113q-14 -17 -22 -17h-22
q-9 0 -9 7q0 6 4 10l100 128q12 15 23 15h40q11 0 23 -15l100 -128q4 -4 4 -10z" />
    <glyph glyph-name="Atilde" unicode="&#xc3;" horiz-adv-x="619" 
d="M579 22q7 -25 -14 -25h-12q-12 0 -16 13l-84 271h-288l-82 -271q-4 -13 -16 -13h-13q-21 0 -14 25l205 677q15 49 65 49t64 -48zM442 325l-109 363q-6 20 -23 20q-18 0 -23 -19l-110 -364h265zM469 879q0 -45 -20.5 -68t-57.5 -23q-40 0 -67 26l-48 47q-28 28 -48 28
q-41 0 -41 -53v-26q0 -16 -10 -16h-17q-11 0 -11 16v26q0 45 21 68t58 23q39 0 66 -26l48 -47q28 -28 49 -28q40 0 40 53v26q0 16 10 16h17q11 0 11 -16v-26z" />
    <glyph glyph-name="Adieresis" unicode="&#xc4;" horiz-adv-x="619" 
d="M579 22q7 -25 -14 -25h-12q-12 0 -16 13l-84 271h-288l-82 -271q-4 -13 -16 -13h-13q-21 0 -14 25l205 677q15 49 65 49t64 -48zM442 325l-109 363q-6 20 -23 20q-18 0 -23 -19l-110 -364h265zM406 833q0 -8 -5.5 -13.5t-13.5 -5.5h-6q-8 0 -13.5 5.5t-5.5 13.5v74
q0 7 6 13t13 6h6q7 0 13 -6t6 -13v-74zM256 833q0 -8 -5.5 -13.5t-13.5 -5.5h-6q-8 0 -13.5 5.5t-5.5 13.5v74q0 7 6 13t13 6h6q7 0 13 -6t6 -13v-74z" />
    <glyph glyph-name="Aring" unicode="&#xc5;" horiz-adv-x="619" 
d="M579 22q7 -25 -14 -25h-12q-12 0 -16 13l-84 271h-288l-82 -271q-4 -13 -16 -13h-13q-21 0 -14 25l205 677q15 49 65 49t64 -48zM442 325l-109 363q-6 20 -23 20q-18 0 -23 -19l-110 -364h265zM402 887q0 -38 -27.5 -65.5t-65.5 -27.5t-65.5 27.5t-27.5 65.5t27.5 65.5
t65.5 27.5t65.5 -27.5t27.5 -65.5zM367 887q0 24 -17 41t-41 17t-40.5 -17t-16.5 -41t16.5 -41t40.5 -17t41 17t17 41z" />
    <glyph glyph-name="AE" unicode="&#xc6;" horiz-adv-x="879" 
d="M822 17q0 -17 -19 -17h-296q-43 0 -63 19.5t-20 61.5v200h-268l-82 -271q-4 -13 -16 -13h-13q-21 0 -14 25l205 672q15 49 65 49h502q19 0 19 -17v-8q0 -16 -19 -16h-335v-291h335q19 0 19 -16v-10q0 -17 -19 -17h-335v-287q0 -22 7.5 -31t31.5 -9h296q19 0 19 -16v-8z
M424 325v377h-123q-18 0 -23 -19l-110 -358h256z" />
    <glyph glyph-name="Ccedilla" unicode="&#xc7;" horiz-adv-x="537" 
d="M497 21q0 -15 -19 -17q-87 -10 -173 -10q-50 0 -91.5 15.5t-77.5 49.5t-56 97t-20 149v132q0 86 20 149t56 97t77.5 49.5t91.5 15.5q86 0 173 -10q19 -2 19 -17v-12q0 -14 -19 -12q-81 9 -173 9q-91 0 -146 -64.5t-55 -204.5v-132q0 -140 55 -204.5t146 -64.5q92 0 173 9
q19 2 19 -12v-12zM342 -62q0 -4 -4 -8l-91 -108q-14 -17 -22 -17h-22q-9 0 -9 7q0 6 4 10l84 108q12 15 23 15h26q11 0 11 -7z" />
    <glyph glyph-name="Egrave" unicode="&#xc8;" horiz-adv-x="533" 
d="M478 17q0 -17 -19 -17h-258q-60 0 -90.5 25.5t-30.5 86.5v519q0 61 30.5 86.5t90.5 25.5h258q19 0 19 -17v-8q0 -16 -19 -16h-258q-40 0 -58.5 -14t-18.5 -57v-220h335q19 0 19 -16v-10q0 -17 -19 -17h-335v-256q0 -43 18.5 -57t58.5 -14h258q19 0 19 -16v-8zM335 801
q0 -7 -9 -7h-22q-8 0 -22 17l-107 128q-4 4 -4 8q0 7 11 7h26q11 0 23 -15l100 -128q4 -4 4 -10z" />
    <glyph glyph-name="Eacute" unicode="&#xc9;" horiz-adv-x="533" 
d="M478 17q0 -17 -19 -17h-258q-60 0 -90.5 25.5t-30.5 86.5v519q0 61 30.5 86.5t90.5 25.5h258q19 0 19 -17v-8q0 -16 -19 -16h-258q-40 0 -58.5 -14t-18.5 -57v-220h335q19 0 19 -16v-10q0 -17 -19 -17h-335v-256q0 -43 18.5 -57t58.5 -14h258q19 0 19 -16v-8zM405 947
q0 -4 -4 -8l-107 -128q-14 -17 -22 -17h-22q-9 0 -9 7q0 6 4 10l100 128q12 15 23 15h26q11 0 11 -7z" />
    <glyph glyph-name="Ecircumflex" unicode="&#xca;" horiz-adv-x="533" 
d="M478 17q0 -17 -19 -17h-258q-60 0 -90.5 25.5t-30.5 86.5v519q0 61 30.5 86.5t90.5 25.5h258q19 0 19 -17v-8q0 -16 -19 -16h-258q-40 0 -58.5 -14t-18.5 -57v-220h335q19 0 19 -16v-10q0 -17 -19 -17h-335v-256q0 -43 18.5 -57t58.5 -14h258q19 0 19 -16v-8zM425 801
q0 -7 -9 -7h-22q-8 0 -22 17l-94 113l-94 -113q-14 -17 -22 -17h-22q-9 0 -9 7q0 6 4 10l100 128q12 15 23 15h40q11 0 23 -15l100 -128q4 -4 4 -10z" />
    <glyph glyph-name="Edieresis" unicode="&#xcb;" horiz-adv-x="533" 
d="M478 17q0 -17 -19 -17h-258q-60 0 -90.5 25.5t-30.5 86.5v519q0 61 30.5 86.5t90.5 25.5h258q19 0 19 -17v-8q0 -16 -19 -16h-258q-40 0 -58.5 -14t-18.5 -57v-220h335q19 0 19 -16v-10q0 -17 -19 -17h-335v-256q0 -43 18.5 -57t58.5 -14h258q19 0 19 -16v-8zM381 833
q0 -8 -5.5 -13.5t-13.5 -5.5h-6q-8 0 -13.5 5.5t-5.5 13.5v74q0 7 5.5 13t13.5 6h6q8 0 13.5 -6t5.5 -13v-74zM231 833q0 -8 -5.5 -13.5t-13.5 -5.5h-6q-8 0 -13.5 5.5t-5.5 13.5v74q0 7 5.5 13t13.5 6h6q8 0 13.5 -6t5.5 -13v-74z" />
    <glyph glyph-name="Igrave" unicode="&#xcc;" horiz-adv-x="224" 
d="M134 19q0 -8 -5 -13.5t-12 -5.5h-10q-7 0 -12 5.5t-5 13.5v705q0 8 5 13.5t12 5.5h10q7 0 12 -5.5t5 -13.5v-705zM176 801q0 -7 -9 -7h-22q-8 0 -22 17l-107 128q-4 4 -4 8q0 7 11 7h26q11 0 23 -15l100 -128q4 -4 4 -10z" />
    <glyph glyph-name="Iacute" unicode="&#xcd;" horiz-adv-x="224" 
d="M134 19q0 -8 -5 -13.5t-12 -5.5h-10q-7 0 -12 5.5t-5 13.5v705q0 8 5 13.5t12 5.5h10q7 0 12 -5.5t5 -13.5v-705zM214 947q0 -4 -4 -8l-107 -128q-14 -17 -22 -17h-22q-9 0 -9 7q0 6 4 10l100 128q12 15 23 15h26q11 0 11 -7z" />
    <glyph glyph-name="Icircumflex" unicode="&#xce;" horiz-adv-x="224" 
d="M134 19q0 -8 -5 -13.5t-12 -5.5h-10q-7 0 -12 5.5t-5 13.5v705q0 8 5 13.5t12 5.5h10q7 0 12 -5.5t5 -13.5v-705zM259 801q0 -7 -9 -7h-22q-8 0 -22 17l-94 113l-94 -113q-14 -17 -22 -17h-22q-9 0 -9 7q0 6 4 10l100 128q12 15 23 15h40q11 0 23 -15l100 -128
q4 -4 4 -10z" />
    <glyph glyph-name="Idieresis" unicode="&#xcf;" horiz-adv-x="224" 
d="M134 19q0 -8 -5 -13.5t-12 -5.5h-10q-7 0 -12 5.5t-5 13.5v705q0 8 5 13.5t12 5.5h10q7 0 12 -5.5t5 -13.5v-705zM209 833q0 -8 -5.5 -13.5t-13.5 -5.5h-6q-8 0 -13.5 5.5t-5.5 13.5v74q0 7 5.5 13t13.5 6h6q8 0 13.5 -6t5.5 -13v-74zM59 833q0 -8 -5.5 -13.5t-13.5 -5.5
h-6q-8 0 -13.5 5.5t-5.5 13.5v74q0 7 5.5 13t13.5 6h6q8 0 13.5 -6t5.5 -13v-74z" />
    <glyph glyph-name="Eth" unicode="&#xd0;" horiz-adv-x="613" 
d="M553 309q0 -164 -78 -239.5t-214 -75.5q-118 0 -164 8q-17 4 -17 19v347h-71q-19 0 -19 17v10q0 16 19 16h71v310q0 15 17 19q46 8 164 8q292 0 292 -315v-124zM509 309v124q0 276 -248 276q-49 0 -137 -6v-292h85q19 0 19 -16v-10q0 -17 -19 -17h-85v-331q59 -4 137 -4
q248 0 248 276z" />
    <glyph glyph-name="Ntilde" unicode="&#xd1;" horiz-adv-x="651" 
d="M571 45q0 -23 -13 -37t-32 -14q-25 0 -34 7q-11 9 -18 23l-337 675q-3 7 -8 7t-5 -7v-680q0 -8 -5 -13.5t-12 -5.5h-10q-7 0 -12 5.5t-5 13.5v680q0 22 13.5 35.5t35.5 13.5q33 0 48 -31l336 -674q3 -7 8 -7t5 9v679q0 19 16 19h12q17 0 17 -19v-679zM485 879
q0 -45 -20.5 -68t-57.5 -23q-40 0 -67 26l-48 47q-28 28 -48 28q-41 0 -41 -53v-26q0 -16 -10 -16h-17q-11 0 -11 16v26q0 45 21 68t58 23q39 0 66 -26l48 -47q28 -28 49 -28q40 0 40 53v26q0 16 10 16h17q11 0 11 -16v-26z" />
    <glyph glyph-name="Ograve" unicode="&#xd2;" horiz-adv-x="632" 
d="M572 309q0 -160 -69 -237.5t-187 -77.5t-187 77.5t-69 237.5v124q0 160 69 237.5t187 77.5t187 -77.5t69 -237.5v-124zM528 309v124q0 273 -212 273t-212 -273v-124q0 -273 212 -273t212 273zM370 801q0 -7 -9 -7h-22q-8 0 -22 17l-107 128q-4 4 -4 8q0 7 11 7h26
q11 0 23 -15l100 -128q4 -4 4 -10z" />
    <glyph glyph-name="Oacute" unicode="&#xd3;" horiz-adv-x="632" 
d="M572 309q0 -160 -69 -237.5t-187 -77.5t-187 77.5t-69 237.5v124q0 160 69 237.5t187 77.5t187 -77.5t69 -237.5v-124zM528 309v124q0 273 -212 273t-212 -273v-124q0 -273 212 -273t212 273zM417 947q0 -4 -4 -8l-107 -128q-14 -17 -22 -17h-22q-9 0 -9 7q0 6 4 10
l100 128q12 15 23 15h26q11 0 11 -7z" />
    <glyph glyph-name="Ocircumflex" unicode="&#xd4;" horiz-adv-x="632" 
d="M572 309q0 -160 -69 -237.5t-187 -77.5t-187 77.5t-69 237.5v124q0 160 69 237.5t187 77.5t187 -77.5t69 -237.5v-124zM528 309v124q0 273 -212 273t-212 -273v-124q0 -273 212 -273t212 273zM463 801q0 -7 -9 -7h-22q-8 0 -22 17l-94 113l-94 -113q-14 -17 -22 -17h-22
q-9 0 -9 7q0 6 4 10l100 128q12 15 23 15h40q11 0 23 -15l100 -128q4 -4 4 -10z" />
    <glyph glyph-name="Otilde" unicode="&#xd5;" horiz-adv-x="632" 
d="M572 309q0 -160 -69 -237.5t-187 -77.5t-187 77.5t-69 237.5v124q0 160 69 237.5t187 77.5t187 -77.5t69 -237.5v-124zM528 309v124q0 273 -212 273t-212 -273v-124q0 -273 212 -273t212 273zM476 879q0 -45 -20.5 -68t-57.5 -23q-40 0 -67 26l-48 47q-28 28 -48 28
q-41 0 -41 -53v-26q0 -16 -10 -16h-17q-11 0 -11 16v26q0 45 21 68t58 23q39 0 66 -26l48 -47q28 -28 49 -28q40 0 40 53v26q0 16 10 16h17q11 0 11 -16v-26z" />
    <glyph glyph-name="Odieresis" unicode="&#xd6;" horiz-adv-x="632" 
d="M572 309q0 -160 -69 -237.5t-187 -77.5t-187 77.5t-69 237.5v124q0 160 69 237.5t187 77.5t187 -77.5t69 -237.5v-124zM528 309v124q0 273 -212 273t-212 -273v-124q0 -273 212 -273t212 273zM413 833q0 -8 -5.5 -13.5t-13.5 -5.5h-6q-8 0 -13.5 5.5t-5.5 13.5v74
q0 7 5.5 13t13.5 6h6q8 0 13.5 -6t5.5 -13v-74zM263 833q0 -8 -5.5 -13.5t-13.5 -5.5h-6q-8 0 -13.5 5.5t-5.5 13.5v74q0 7 5.5 13t13.5 6h6q8 0 13.5 -6t5.5 -13v-74z" />
    <glyph glyph-name="multiply" unicode="&#xd7;" 
d="M470 548q0 -7 -8 -15l-143 -142l143 -143q8 -8 8 -15q0 -6 -5 -11l-7 -7q-5 -5 -11 -5q-7 0 -15 8l-142 143l-142 -142q-8 -8 -15 -8q-6 0 -11 5l-7 7q-5 5 -5 11q0 7 8 15l142 142l-142 142q-8 8 -8 15q0 5 5 10l7 7q5 5 11 5q7 0 15 -8l142 -142l142 143q8 8 15 8
q6 0 11 -5l7 -7q5 -5 5 -11z" />
    <glyph glyph-name="Oslash" unicode="&#xd8;" horiz-adv-x="632" 
d="M596 732q0 -4 -3 -8l-65 -90q44 -77 44 -201v-124q0 -160 -69 -237.5t-187 -77.5q-122 0 -189 80l-44 -61q-14 -19 -26 -19h-10q-11 0 -11 11q0 3 3 8l66 92q-45 76 -45 204v124q0 160 69 237.5t187 77.5q125 0 191 -82l42 58q14 19 26 19h10q11 0 11 -11zM481 629
q-53 77 -165 77q-212 0 -212 -273v-124q0 -101 29 -164zM528 309v124q0 99 -28 161l-347 -483q54 -75 163 -75q212 0 212 273z" />
    <glyph glyph-name="Ugrave" unicode="&#xd9;" horiz-adv-x="633" 
d="M553 264q0 -130 -58.5 -200t-177.5 -70q-120 0 -178.5 70t-58.5 200v460q0 8 5 13.5t12 5.5h10q7 0 12 -5.5t5 -13.5v-460q0 -113 45.5 -171t147.5 -58t147 58t45 171v460q0 8 5 13.5t12 5.5h10q7 0 12 -5.5t5 -13.5v-460zM368 801q0 -7 -9 -7h-22q-8 0 -22 17l-107 128
q-4 4 -4 8q0 7 11 7h26q11 0 23 -15l100 -128q4 -4 4 -10z" />
    <glyph glyph-name="Uacute" unicode="&#xda;" horiz-adv-x="633" 
d="M553 264q0 -130 -58.5 -200t-177.5 -70q-120 0 -178.5 70t-58.5 200v460q0 8 5 13.5t12 5.5h10q7 0 12 -5.5t5 -13.5v-460q0 -113 45.5 -171t147.5 -58t147 58t45 171v460q0 8 5 13.5t12 5.5h10q7 0 12 -5.5t5 -13.5v-460zM428 947q0 -4 -4 -8l-107 -128q-14 -17 -22 -17
h-22q-9 0 -9 7q0 6 4 10l100 128q12 15 23 15h26q11 0 11 -7z" />
    <glyph glyph-name="Ucircumflex" unicode="&#xdb;" horiz-adv-x="633" 
d="M553 264q0 -130 -58.5 -200t-177.5 -70q-120 0 -178.5 70t-58.5 200v460q0 8 5 13.5t12 5.5h10q7 0 12 -5.5t5 -13.5v-460q0 -113 45.5 -171t147.5 -58t147 58t45 171v460q0 8 5 13.5t12 5.5h10q7 0 12 -5.5t5 -13.5v-460zM463 801q0 -7 -9 -7h-22q-8 0 -22 17l-94 113
l-94 -113q-14 -17 -22 -17h-22q-9 0 -9 7q0 6 4 10l100 128q12 15 23 15h40q11 0 23 -15l100 -128q4 -4 4 -10z" />
    <glyph glyph-name="Udieresis" unicode="&#xdc;" horiz-adv-x="633" 
d="M553 264q0 -130 -58.5 -200t-177.5 -70q-120 0 -178.5 70t-58.5 200v460q0 8 5 13.5t12 5.5h10q7 0 12 -5.5t5 -13.5v-460q0 -113 45.5 -171t147.5 -58t147 58t45 171v460q0 8 5 13.5t12 5.5h10q7 0 12 -5.5t5 -13.5v-460zM413 833q0 -8 -5.5 -13.5t-13.5 -5.5h-6
q-8 0 -13.5 5.5t-5.5 13.5v74q0 7 5.5 13t13.5 6h6q8 0 13.5 -6t5.5 -13v-74zM263 833q0 -8 -5.5 -13.5t-13.5 -5.5h-6q-8 0 -13.5 5.5t-5.5 13.5v74q0 7 5.5 13t13.5 6h6q8 0 13.5 -6t5.5 -13v-74z" />
    <glyph glyph-name="Yacute" unicode="&#xdd;" horiz-adv-x="551" 
d="M502 716l-158 -349q-22 -48 -47 -58v-290q0 -8 -5 -13.5t-12 -5.5h-10q-7 0 -12 5.5t-5 13.5v290q-25 10 -47 58l-158 349q-12 27 14 27h10q10 0 16 -12l157 -350q10 -22 15.5 -28.5t14.5 -6.5t14.5 6.5t15.5 28.5l157 350q6 12 16 12h10q26 0 14 -27zM391 947
q0 -4 -4 -8l-107 -128q-14 -17 -22 -17h-22q-9 0 -9 7q0 6 4 10l100 128q12 15 23 15h26q11 0 11 -7z" />
    <glyph glyph-name="Thorn" unicode="&#xde;" horiz-adv-x="540" 
d="M505 432q0 -114 -69.5 -164t-202.5 -50q-53 0 -109 4v-203q0 -8 -5 -13.5t-12 -5.5h-10q-7 0 -12 5.5t-5 13.5v705q0 8 5 13.5t12 5.5h10q7 0 12 -5.5t5 -13.5v-75q51 3 109 3q272 0 272 -203v-17zM461 432v17q0 90 -56 127t-172 37q-65 0 -109 -3v-349q62 -4 109 -4
q118 0 173 40.5t55 134.5z" />
    <glyph glyph-name="germandbls" unicode="&#xdf;" horiz-adv-x="543" 
d="M488 209q0 -111 -65 -163t-168 -52q-7 0 -19 1.5t-21 1.5q-20 0 -20 18v8q0 12 17 12h3q11 0 22 -1t18 -1q189 0 189 176v8q0 67 -49 110t-134 43h-41q-20 0 -20 16v9q0 16 20 16h41q82 0 123.5 42t41.5 104v7q0 145 -151 145q-70 0 -113 -45t-43 -150v-494
q0 -20 -17 -20h-12q-15 0 -15 20v493q0 116 54.5 175.5t145.5 59.5q88 0 141.5 -48t53.5 -136v-7q0 -58 -34.5 -102.5t-83.5 -63.5q60 -18 98 -64.5t38 -109.5v-8z" />
    <glyph glyph-name="agrave" unicode="&#xe0;" horiz-adv-x="488" 
d="M418 20q0 -8 -6 -14t-14 -6h-5q-8 0 -14 6t-6 14v25q-93 -51 -170 -51q-65 0 -109 37.5t-44 123.5v13q0 79 57 116.5t190 37.5h77v36q0 80 -27.5 112.5t-98.5 32.5q-57 0 -142 -9q-23 -2 -23 15v6q0 15 23 18q76 9 142 9q95 0 132.5 -47.5t37.5 -136.5v-338zM374 84v199
h-77q-113 0 -158 -25.5t-45 -89.5v-13q0 -122 109 -122q76 0 171 51zM292 625q0 -7 -9 -7h-22q-8 0 -22 17l-107 128q-4 4 -4 8q0 7 11 7h26q11 0 23 -15l100 -128q4 -4 4 -10z" />
    <glyph glyph-name="aacute" unicode="&#xe1;" horiz-adv-x="488" 
d="M418 20q0 -8 -6 -14t-14 -6h-5q-8 0 -14 6t-6 14v25q-93 -51 -170 -51q-65 0 -109 37.5t-44 123.5v13q0 79 57 116.5t190 37.5h77v36q0 80 -27.5 112.5t-98.5 32.5q-57 0 -142 -9q-23 -2 -23 15v6q0 15 23 18q76 9 142 9q95 0 132.5 -47.5t37.5 -136.5v-338zM374 84v199
h-77q-113 0 -158 -25.5t-45 -89.5v-13q0 -122 109 -122q76 0 171 51zM362 771q0 -4 -4 -8l-107 -128q-14 -17 -22 -17h-22q-9 0 -9 7q0 6 4 10l100 128q12 15 23 15h26q11 0 11 -7z" />
    <glyph glyph-name="acircumflex" unicode="&#xe2;" horiz-adv-x="488" 
d="M418 20q0 -8 -6 -14t-14 -6h-5q-8 0 -14 6t-6 14v25q-93 -51 -170 -51q-65 0 -109 37.5t-44 123.5v13q0 79 57 116.5t190 37.5h77v36q0 80 -27.5 112.5t-98.5 32.5q-57 0 -142 -9q-23 -2 -23 15v6q0 15 23 18q76 9 142 9q95 0 132.5 -47.5t37.5 -136.5v-338zM374 84v199
h-77q-113 0 -158 -25.5t-45 -89.5v-13q0 -122 109 -122q76 0 171 51zM391 625q0 -7 -9 -7h-22q-8 0 -22 17l-94 113l-94 -113q-14 -17 -22 -17h-22q-9 0 -9 7q0 6 4 10l100 128q12 15 23 15h40q11 0 23 -15l100 -128q4 -4 4 -10z" />
    <glyph glyph-name="atilde" unicode="&#xe3;" horiz-adv-x="488" 
d="M418 20q0 -8 -6 -14t-14 -6h-5q-8 0 -14 6t-6 14v25q-93 -51 -170 -51q-65 0 -109 37.5t-44 123.5v13q0 79 57 116.5t190 37.5h77v36q0 80 -27.5 112.5t-98.5 32.5q-57 0 -142 -9q-23 -2 -23 15v6q0 15 23 18q76 9 142 9q95 0 132.5 -47.5t37.5 -136.5v-338zM374 84v199
h-77q-113 0 -158 -25.5t-45 -89.5v-13q0 -122 109 -122q76 0 171 51zM404 719q0 -45 -20.5 -68t-57.5 -23q-40 0 -67 26l-48 47q-28 28 -48 28q-41 0 -41 -53v-26q0 -16 -10 -16h-17q-11 0 -11 16v26q0 45 21 68t58 23q39 0 66 -26l48 -47q28 -28 49 -28q40 0 40 53v26
q0 16 10 16h17q11 0 11 -16v-26z" />
    <glyph glyph-name="adieresis" unicode="&#xe4;" horiz-adv-x="488" 
d="M418 20q0 -8 -6 -14t-14 -6h-5q-8 0 -14 6t-6 14v25q-93 -51 -170 -51q-65 0 -109 37.5t-44 123.5v13q0 79 57 116.5t190 37.5h77v36q0 80 -27.5 112.5t-98.5 32.5q-57 0 -142 -9q-23 -2 -23 15v6q0 15 23 18q76 9 142 9q95 0 132.5 -47.5t37.5 -136.5v-338zM374 84v199
h-77q-113 0 -158 -25.5t-45 -89.5v-13q0 -122 109 -122q76 0 171 51zM341 661q0 -8 -5.5 -13.5t-13.5 -5.5h-6q-8 0 -13.5 5.5t-5.5 13.5v74q0 7 5.5 13t13.5 6h6q8 0 13.5 -6t5.5 -13v-74zM191 661q0 -8 -5.5 -13.5t-13.5 -5.5h-6q-8 0 -13.5 5.5t-5.5 13.5v74q0 7 5.5 13
t13.5 6h6q8 0 13.5 -6t5.5 -13v-74z" />
    <glyph glyph-name="aring" unicode="&#xe5;" horiz-adv-x="488" 
d="M418 20q0 -8 -6 -14t-14 -6h-5q-8 0 -14 6t-6 14v25q-93 -51 -170 -51q-65 0 -109 37.5t-44 123.5v13q0 79 57 116.5t190 37.5h77v36q0 80 -27.5 112.5t-98.5 32.5q-57 0 -142 -9q-23 -2 -23 15v6q0 15 23 18q76 9 142 9q95 0 132.5 -47.5t37.5 -136.5v-338zM374 84v199
h-77q-113 0 -158 -25.5t-45 -89.5v-13q0 -122 109 -122q76 0 171 51zM337 698q0 -38 -27.5 -65.5t-65.5 -27.5t-65.5 27.5t-27.5 65.5t27.5 65.5t65.5 27.5t65.5 -27.5t27.5 -65.5zM302 698q0 24 -17 41t-41 17t-40.5 -17t-16.5 -41t16.5 -41t40.5 -17t41 17t17 41z" />
    <glyph glyph-name="ae" unicode="&#xe6;" horiz-adv-x="830" 
d="M775 277q0 -8 -5.5 -13.5t-13.5 -5.5h-338v-54q0 -64 10.5 -91.5t32.5 -44.5q46 -35 138 -35q65 0 148 17q1 0 3 0.5t3 0.5q15 0 15 -14v-7q0 -15 -19 -19q-82 -17 -150 -17q-158 0 -205 90q-19 -27 -37 -43.5t-58.5 -31.5t-95.5 -15q-65 0 -109 37.5t-44 123.5v13
q0 79 57 116.5t190 37.5h77v36q0 80 -27.5 112.5t-98.5 32.5q-57 0 -142 -9h-4q-19 0 -19 15v6q0 15 23 18q76 9 142 9q129 0 158 -97q53 97 170 97q100 0 149.5 -63.5t49.5 -174.5v-27zM731 298v6q0 98 -36.5 148.5t-118.5 50.5q-80 0 -119 -53t-39 -146v-6h313zM374 204
v78h-77q-113 0 -158 -25t-45 -89v-13q0 -122 109 -122q89 0 130 39.5t41 131.5z" />
    <glyph glyph-name="ccedilla" unicode="&#xe7;" horiz-adv-x="437" 
d="M393 21q0 -15 -19 -18q-76 -9 -121 -9q-101 0 -149.5 67.5t-48.5 174.5v67q0 108 48 173.5t150 65.5q45 0 121 -9q19 -3 19 -18v-7q0 -18 -21 -14q-70 9 -119 9q-154 0 -154 -200v-67q0 -203 154 -203q49 0 119 9q21 4 21 -14v-7zM292 -62q0 -4 -4 -8l-91 -108
q-14 -17 -22 -17h-22q-9 0 -9 7q0 6 4 10l84 108q12 15 23 15h26q11 0 11 -7z" />
    <glyph glyph-name="egrave" unicode="&#xe8;" horiz-adv-x="511" 
d="M456 277q0 -8 -5.5 -13.5t-13.5 -5.5h-338v-21q0 -116 48 -160t133 -44q65 0 148 17q21 4 21 -13v-7q0 -15 -19 -19q-82 -17 -150 -17q-225 0 -225 243v66q0 107 53 173t149 66q100 0 149.5 -63.5t49.5 -174.5v-27zM412 298v6q0 98 -36.5 148.5t-118.5 50.5
q-80 0 -119 -53.5t-39 -146.5v-5h313zM302 625q0 -7 -9 -7h-22q-8 0 -22 17l-107 128q-4 4 -4 8q0 7 11 7h26q11 0 23 -15l100 -128q4 -4 4 -10z" />
    <glyph glyph-name="eacute" unicode="&#xe9;" horiz-adv-x="511" 
d="M456 277q0 -8 -5.5 -13.5t-13.5 -5.5h-338v-21q0 -116 48 -160t133 -44q65 0 148 17q21 4 21 -13v-7q0 -15 -19 -19q-82 -17 -150 -17q-225 0 -225 243v66q0 107 53 173t149 66q100 0 149.5 -63.5t49.5 -174.5v-27zM412 298v6q0 98 -36.5 148.5t-118.5 50.5
q-80 0 -119 -53.5t-39 -146.5v-5h313zM373 771q0 -4 -4 -8l-107 -128q-14 -17 -22 -17h-22q-9 0 -9 7q0 6 4 10l100 128q12 15 23 15h26q11 0 11 -7z" />
    <glyph glyph-name="ecircumflex" unicode="&#xea;" horiz-adv-x="511" 
d="M456 277q0 -8 -5.5 -13.5t-13.5 -5.5h-338v-21q0 -116 48 -160t133 -44q65 0 148 17q21 4 21 -13v-7q0 -15 -19 -19q-82 -17 -150 -17q-225 0 -225 243v66q0 107 53 173t149 66q100 0 149.5 -63.5t49.5 -174.5v-27zM412 298v6q0 98 -36.5 148.5t-118.5 50.5
q-80 0 -119 -53.5t-39 -146.5v-5h313zM402 625q0 -7 -9 -7h-22q-8 0 -22 17l-94 113l-94 -113q-14 -17 -22 -17h-22q-9 0 -9 7q0 6 4 10l100 128q12 15 23 15h40q11 0 23 -15l100 -128q4 -4 4 -10z" />
    <glyph glyph-name="edieresis" unicode="&#xeb;" horiz-adv-x="511" 
d="M456 277q0 -8 -5.5 -13.5t-13.5 -5.5h-338v-21q0 -116 48 -160t133 -44q65 0 148 17q21 4 21 -13v-7q0 -15 -19 -19q-82 -17 -150 -17q-225 0 -225 243v66q0 107 53 173t149 66q100 0 149.5 -63.5t49.5 -174.5v-27zM412 298v6q0 98 -36.5 148.5t-118.5 50.5
q-80 0 -119 -53.5t-39 -146.5v-5h313zM352 661q0 -8 -5.5 -13.5t-13.5 -5.5h-6q-8 0 -13.5 5.5t-5.5 13.5v74q0 7 6 13t13 6h6q7 0 13 -6t6 -13v-74zM202 661q0 -8 -5.5 -13.5t-13.5 -5.5h-6q-8 0 -13.5 5.5t-5.5 13.5v74q0 7 6 13t13 6h6q7 0 13 -6t6 -13v-74z" />
    <glyph glyph-name="igrave" unicode="&#xec;" horiz-adv-x="204" 
d="M124 19q0 -7 -6 -13t-13 -6h-6q-7 0 -13 6t-6 13v499q0 8 6 13.5t13 5.5h6q7 0 13 -5.5t6 -13.5v-499zM161 625q0 -7 -9 -7h-22q-8 0 -22 17l-107 128q-4 4 -4 8q0 7 11 7h26q11 0 23 -15l100 -128q4 -4 4 -10z" />
    <glyph glyph-name="iacute" unicode="&#xed;" horiz-adv-x="204" 
d="M124 19q0 -7 -6 -13t-13 -6h-6q-7 0 -13 6t-6 13v499q0 8 6 13.5t13 5.5h6q7 0 13 -5.5t6 -13.5v-499zM207 771q0 -4 -4 -8l-107 -128q-14 -17 -22 -17h-22q-9 0 -9 7q0 6 4 10l100 128q12 15 23 15h26q11 0 11 -7z" />
    <glyph glyph-name="icircumflex" unicode="&#xee;" horiz-adv-x="204" 
d="M124 19q0 -7 -6 -13t-13 -6h-6q-7 0 -13 6t-6 13v499q0 8 6 13.5t13 5.5h6q7 0 13 -5.5t6 -13.5v-499zM249 625q0 -7 -9 -7h-22q-8 0 -22 17l-94 113l-94 -113q-14 -17 -22 -17h-22q-9 0 -9 7q0 6 4 10l100 128q12 15 23 15h40q11 0 23 -15l100 -128q4 -4 4 -10z" />
    <glyph glyph-name="idieresis" unicode="&#xef;" horiz-adv-x="204" 
d="M124 19q0 -7 -6 -13t-13 -6h-6q-7 0 -13 6t-6 13v499q0 8 6 13.5t13 5.5h6q7 0 13 -5.5t6 -13.5v-499zM199 661q0 -8 -5.5 -13.5t-13.5 -5.5h-6q-8 0 -13.5 5.5t-5.5 13.5v74q0 7 5.5 13t13.5 6h6q8 0 13.5 -6t5.5 -13v-74zM49 661q0 -8 -5.5 -13.5t-13.5 -5.5h-6
q-8 0 -13.5 5.5t-5.5 13.5v74q0 7 5.5 13t13.5 6h6q8 0 13.5 -6t5.5 -13v-74z" />
    <glyph glyph-name="eth" unicode="&#xf0;" horiz-adv-x="522" 
d="M467 233q0 -115 -52.5 -177t-153.5 -62t-153.5 62t-52.5 177v70q0 115 52.5 177t153.5 62q98 0 150 -58q-32 117 -167 177l-97 -73q-15 -12 -24 0l-5 6q-9 12 7 24l77 60q-49 17 -107 29q-20 4 -15 20l3 10q4 14 22 10q80 -18 136 -40l102 78q14 10 25 -1l6 -6
q10 -10 -6 -22l-87 -66q39 -20 69 -44.5t49.5 -46.5t33 -54t20.5 -53.5t10 -58t3.5 -55.5t0.5 -58v-17v-70zM423 233v70q0 200 -162 200t-162 -200v-70q0 -200 162 -200t162 200z" />
    <glyph glyph-name="ntilde" unicode="&#xf1;" horiz-adv-x="521" 
d="M451 19q0 -8 -5.5 -13.5t-13.5 -5.5h-7q-7 0 -12.5 5.5t-5.5 13.5v332q0 152 -135 152q-73 0 -158 -41v-443q0 -7 -6 -13t-13 -6h-6q-7 0 -13 6t-6 13v498q0 20 18 20h8q18 0 18 -20v-16q85 41 161 41q78 0 127 -46.5t49 -144.5v-332zM420 704q0 -45 -20.5 -68t-57.5 -23
q-40 0 -67 26l-48 47q-28 28 -48 28q-41 0 -41 -53v-26q0 -16 -10 -16h-17q-11 0 -11 16v26q0 45 21 68t58 23q39 0 66 -26l48 -47q28 -28 49 -28q40 0 40 53v26q0 16 10 16h17q11 0 11 -16v-26z" />
    <glyph glyph-name="ograve" unicode="&#xf2;" horiz-adv-x="522" 
d="M467 233q0 -115 -52.5 -177t-153.5 -62t-153.5 62t-52.5 177v70q0 115 52.5 177t153.5 62t153.5 -62t52.5 -177v-70zM423 233v70q0 200 -162 200t-162 -200v-70q0 -200 162 -200t162 200zM321 625q0 -7 -9 -7h-22q-8 0 -22 17l-107 128q-4 4 -4 8q0 7 11 7h26
q11 0 23 -15l100 -128q4 -4 4 -10z" />
    <glyph glyph-name="oacute" unicode="&#xf3;" horiz-adv-x="522" 
d="M467 233q0 -115 -52.5 -177t-153.5 -62t-153.5 62t-52.5 177v70q0 115 52.5 177t153.5 62t153.5 -62t52.5 -177v-70zM423 233v70q0 200 -162 200t-162 -200v-70q0 -200 162 -200t162 200zM378 771q0 -4 -4 -8l-107 -128q-14 -17 -22 -17h-22q-9 0 -9 7q0 6 4 10l100 128
q12 15 23 15h26q11 0 11 -7z" />
    <glyph glyph-name="ocircumflex" unicode="&#xf4;" horiz-adv-x="522" 
d="M467 233q0 -115 -52.5 -177t-153.5 -62t-153.5 62t-52.5 177v70q0 115 52.5 177t153.5 62t153.5 -62t52.5 -177v-70zM423 233v70q0 200 -162 200t-162 -200v-70q0 -200 162 -200t162 200zM408 625q0 -7 -9 -7h-22q-8 0 -22 17l-94 113l-94 -113q-14 -17 -22 -17h-22
q-9 0 -9 7q0 6 4 10l100 128q12 15 23 15h40q11 0 23 -15l100 -128q4 -4 4 -10z" />
    <glyph glyph-name="otilde" unicode="&#xf5;" horiz-adv-x="522" 
d="M467 233q0 -115 -52.5 -177t-153.5 -62t-153.5 62t-52.5 177v70q0 115 52.5 177t153.5 62t153.5 -62t52.5 -177v-70zM423 233v70q0 200 -162 200t-162 -200v-70q0 -200 162 -200t162 200zM421 703q0 -45 -20.5 -68t-57.5 -23q-40 0 -67 26l-48 47q-28 28 -48 28
q-41 0 -41 -53v-26q0 -16 -10 -16h-17q-11 0 -11 16v26q0 45 21 68t58 23q39 0 66 -26l48 -47q28 -28 49 -28q40 0 40 53v26q0 16 10 16h17q11 0 11 -16v-26z" />
    <glyph glyph-name="odieresis" unicode="&#xf6;" horiz-adv-x="522" 
d="M467 233q0 -115 -52.5 -177t-153.5 -62t-153.5 62t-52.5 177v70q0 115 52.5 177t153.5 62t153.5 -62t52.5 -177v-70zM423 233v70q0 200 -162 200t-162 -200v-70q0 -200 162 -200t162 200zM358 661q0 -8 -5.5 -13.5t-13.5 -5.5h-6q-8 0 -13.5 5.5t-5.5 13.5v74q0 7 6 13
t13 6h6q7 0 13 -6t6 -13v-74zM208 661q0 -8 -5.5 -13.5t-13.5 -5.5h-6q-8 0 -13.5 5.5t-5.5 13.5v74q0 7 6 13t13 6h6q7 0 13 -6t6 -13v-74z" />
    <glyph glyph-name="divide" unicode="&#xf7;" 
d="M312 511q0 -8 -5.5 -13.5t-13.5 -5.5h-6q-8 0 -13.5 5.5t-5.5 13.5v74q0 7 6 13t13 6h6q7 0 13 -6t6 -13v-74zM493 386q0 -16 -20 -16h-365q-20 0 -20 16v10q0 16 20 16h365q20 0 20 -16v-10zM312 197q0 -8 -5.5 -13.5t-13.5 -5.5h-6q-8 0 -13.5 5.5t-5.5 13.5v74
q0 7 6 13t13 6h6q7 0 13 -6t6 -13v-74z" />
    <glyph glyph-name="oslash" unicode="&#xf8;" horiz-adv-x="522" 
d="M497 560q0 -7 -4 -11l-65 -87q39 -60 39 -159v-70q0 -115 -52.5 -177t-153.5 -62q-90 0 -142 49l-50 -68q-8 -10 -16 -10h-20q-8 0 -8 8q0 6 4 11l66 89q-40 62 -40 160v70q0 115 52.5 177t153.5 62q90 0 143 -51l49 67q8 10 16 10h20q8 0 8 -8zM379 458q-40 45 -118 45
q-162 0 -162 -200v-70q0 -77 23 -123zM423 233v70q0 74 -22 121l-257 -347q41 -44 117 -44q162 0 162 200z" />
    <glyph glyph-name="ugrave" unicode="&#xf9;" horiz-adv-x="521" 
d="M70 518q0 8 5.5 13.5t13.5 5.5h7q7 0 12.5 -5.5t5.5 -13.5v-332q0 -152 135 -152q69 0 158 41v443q0 8 5.5 13.5t13.5 5.5h6q8 0 13.5 -5.5t5.5 -13.5v-498q0 -20 -18 -20h-8q-18 0 -18 20v16q-85 -41 -161 -41q-78 0 -127 46.5t-49 144.5v332zM305 625q0 -7 -9 -7h-22
q-8 0 -22 17l-107 128q-4 4 -4 8q0 7 11 7h26q11 0 23 -15l100 -128q4 -4 4 -10z" />
    <glyph glyph-name="uacute" unicode="&#xfa;" horiz-adv-x="521" 
d="M70 518q0 8 5.5 13.5t13.5 5.5h7q7 0 12.5 -5.5t5.5 -13.5v-332q0 -152 135 -152q69 0 158 41v443q0 8 5.5 13.5t13.5 5.5h6q8 0 13.5 -5.5t5.5 -13.5v-498q0 -20 -18 -20h-8q-18 0 -18 20v16q-85 -41 -161 -41q-78 0 -127 46.5t-49 144.5v332zM385 771q0 -4 -4 -8
l-107 -128q-14 -17 -22 -17h-22q-9 0 -9 7q0 6 4 10l100 128q12 15 23 15h26q11 0 11 -7z" />
    <glyph glyph-name="ucircumflex" unicode="&#xfb;" horiz-adv-x="521" 
d="M70 518q0 8 5.5 13.5t13.5 5.5h7q7 0 12.5 -5.5t5.5 -13.5v-332q0 -152 135 -152q69 0 158 41v443q0 8 5.5 13.5t13.5 5.5h6q8 0 13.5 -5.5t5.5 -13.5v-498q0 -20 -18 -20h-8q-18 0 -18 20v16q-85 -41 -161 -41q-78 0 -127 46.5t-49 144.5v332zM407 625q0 -7 -9 -7h-22
q-8 0 -22 17l-94 113l-94 -113q-14 -17 -22 -17h-22q-9 0 -9 7q0 6 4 10l100 128q12 15 23 15h40q11 0 23 -15l100 -128q4 -4 4 -10z" />
    <glyph glyph-name="udieresis" unicode="&#xfc;" horiz-adv-x="521" 
d="M70 518q0 8 5.5 13.5t13.5 5.5h7q7 0 12.5 -5.5t5.5 -13.5v-332q0 -152 135 -152q69 0 158 41v443q0 8 5.5 13.5t13.5 5.5h6q8 0 13.5 -5.5t5.5 -13.5v-498q0 -20 -18 -20h-8q-18 0 -18 20v16q-85 -41 -161 -41q-78 0 -127 46.5t-49 144.5v332zM357 661q0 -8 -5.5 -13.5
t-13.5 -5.5h-6q-8 0 -13.5 5.5t-5.5 13.5v74q0 7 5.5 13t13.5 6h6q8 0 13.5 -6t5.5 -13v-74zM207 661q0 -8 -5.5 -13.5t-13.5 -5.5h-6q-8 0 -13.5 5.5t-5.5 13.5v74q0 7 5.5 13t13.5 6h6q8 0 13.5 -6t5.5 -13v-74z" />
    <glyph glyph-name="yacute" unicode="&#xfd;" horiz-adv-x="486" 
d="M446 512l-164 -568q-23 -80 -57.5 -109.5t-104.5 -29.5q-26 0 -62 6q-20 3 -20 14v11q0 17 21 14q45 -6 65 -6q54 0 77.5 21.5t41.5 87.5l13 47h-14q-25 0 -38 11t-23 45l-135 457q-7 24 16 24h9q12 0 16 -14l135 -460q6 -22 23 -22h23l137 483q4 13 18 13h9q22 0 14 -25
zM369 771q0 -4 -4 -8l-107 -128q-14 -17 -22 -17h-22q-9 0 -9 7q0 6 4 10l100 128q12 15 23 15h26q11 0 11 -7z" />
    <glyph glyph-name="thorn" unicode="&#xfe;" horiz-adv-x="504" 
d="M449 233q0 -239 -196 -239q-72 0 -139 15v-185q0 -8 -5 -13.5t-12 -5.5h-10q-7 0 -12 5.5t-5 13.5v900q0 8 5 13.5t12 5.5h10q7 0 12 -5.5t5 -13.5v-195q78 13 139 13q100 0 148 -65t48 -178v-66zM405 233v66q0 101 -35.5 152.5t-116.5 51.5q-61 0 -139 -13v-444
q62 -13 139 -13q81 0 116.5 49.5t35.5 150.5z" />
    <glyph glyph-name="ydieresis" unicode="&#xff;" horiz-adv-x="486" 
d="M446 512l-164 -568q-23 -80 -57.5 -109.5t-104.5 -29.5q-26 0 -62 6q-20 3 -20 14v11q0 17 21 14q45 -6 65 -6q54 0 77.5 21.5t41.5 87.5l13 47h-14q-25 0 -38 11t-23 45l-135 457q-7 24 16 24h9q12 0 16 -14l135 -460q6 -22 23 -22h23l137 483q4 13 18 13h9q22 0 14 -25
zM340 668q0 -8 -5.5 -13.5t-13.5 -5.5h-6q-8 0 -13.5 5.5t-5.5 13.5v74q0 8 6 13.5t13 5.5h6q7 0 13 -5.5t6 -13.5v-74zM190 668q0 -8 -5.5 -13.5t-13.5 -5.5h-6q-8 0 -13.5 5.5t-5.5 13.5v74q0 8 6 13.5t13 5.5h6q7 0 13 -5.5t6 -13.5v-74z" />
    <glyph glyph-name="Amacron" unicode="&#x100;" horiz-adv-x="619" 
d="M579 22q7 -25 -14 -25h-12q-12 0 -16 13l-84 271h-288l-82 -271q-4 -13 -16 -13h-13q-21 0 -14 25l205 677q15 49 65 49t64 -48zM442 325l-109 363q-6 20 -23 20q-18 0 -23 -19l-110 -364h265zM460 856q0 -16 -20 -16h-266q-20 0 -20 16v11q0 15 20 15h266q20 0 20 -15
v-11z" />
    <glyph glyph-name="amacron" unicode="&#x101;" horiz-adv-x="488" 
d="M418 20q0 -8 -6 -14t-14 -6h-5q-8 0 -14 6t-6 14v25q-93 -51 -170 -51q-65 0 -109 37.5t-44 123.5v13q0 79 57 116.5t190 37.5h77v36q0 80 -27.5 112.5t-98.5 32.5q-57 0 -142 -9q-23 -2 -23 15v6q0 15 23 18q76 9 142 9q95 0 132.5 -47.5t37.5 -136.5v-338zM374 84v199
h-77q-113 0 -158 -25.5t-45 -89.5v-13q0 -122 109 -122q76 0 171 51zM397 702q0 -16 -20 -16h-266q-20 0 -20 16v11q0 15 20 15h266q20 0 20 -15v-11z" />
    <glyph glyph-name="Abreve" unicode="&#x102;" horiz-adv-x="619" 
d="M579 22q7 -25 -14 -25h-12q-12 0 -16 13l-84 271h-288l-82 -271q-4 -13 -16 -13h-13q-21 0 -14 25l205 677q15 49 65 49t64 -48zM442 325l-109 363q-6 20 -23 20q-18 0 -23 -19l-110 -364h265zM307 793q64 0 103 39.5t39 110.5q0 10 -10 10h-22q-8 0 -8 -10
q0 -61 -29 -86t-73 -25t-73 25t-29 86q0 10 -8 10h-22q-10 0 -10 -10q0 -71 39 -110.5t103 -39.5z" />
    <glyph glyph-name="abreve" unicode="&#x103;" horiz-adv-x="488" 
d="M418 20q0 -8 -6 -14t-14 -6h-5q-8 0 -14 6t-6 14v25q-93 -51 -170 -51q-65 0 -109 37.5t-44 123.5v13q0 79 57 116.5t190 37.5h77v36q0 80 -27.5 112.5t-98.5 32.5q-57 0 -142 -9q-23 -2 -23 15v6q0 15 23 18q76 9 142 9q95 0 132.5 -47.5t37.5 -136.5v-338zM374 84v199
h-77q-113 0 -158 -25.5t-45 -89.5v-13q0 -122 109 -122q76 0 171 51zM244 618q64 0 103 39.5t39 110.5q0 10 -10 10h-22q-8 0 -8 -10q0 -61 -29 -86t-73 -25t-73 25t-29 86q0 10 -8 10h-22q-10 0 -10 -10q0 -71 39 -110.5t103 -39.5z" />
    <glyph glyph-name="Aogonek" unicode="&#x104;" horiz-adv-x="619" 
d="M574 2l-52 -26q-53 -27 -73.5 -44t-20.5 -42q0 -45 66 -45q31 0 75 12q2 1 7 1q7 0 7 -6v-19q0 -8 -11 -11q-42 -14 -79 -14q-106 0 -106 82q0 38 24.5 60t75.5 47l48 23l-82 264h-288l-82 -271q-4 -13 -16 -13h-13q-15 0 -15 16q0 6 1 9l205 677q15 49 65 49t64 -48
l205 -678q2 -8 2 -11q0 -8 -7 -12zM442 328l-109 363q-6 20 -23 20q-18 0 -23 -19l-110 -364h265z" />
    <glyph glyph-name="aogonek" unicode="&#x105;" horiz-adv-x="488" 
d="M373 25v20q-93 -51 -170 -51q-65 0 -109 37.5t-44 123.5v13q0 79 57 116.5t190 37.5h77v36q0 80 -27.5 112.5t-98.5 32.5q-57 0 -142 -9h-4q-19 0 -19 15v6q0 15 23 18q76 9 142 9q95 0 132.5 -47.5t37.5 -136.5v-332q0 -16 -17 -26l-54 -31q-49 -28 -63.5 -42t-14.5 -39
q0 -46 57 -46q25 0 76 12q6 2 9 2q4 0 4 -7v-19q0 -8 -11 -11q-42 -14 -79 -14q-97 0 -97 83q0 26 11.5 45t25 28t47.5 29zM374 84v199h-77q-113 0 -158 -25.5t-45 -89.5v-13q0 -122 109 -122q76 0 171 51z" />
    <glyph glyph-name="Cacute" unicode="&#x106;" horiz-adv-x="537" 
d="M497 21q0 -15 -19 -17q-87 -10 -173 -10q-50 0 -91.5 15.5t-77.5 49.5t-56 97t-20 149v132q0 86 20 149t56 97t77.5 49.5t91.5 15.5q86 0 173 -10q19 -2 19 -17v-12q0 -14 -19 -12q-81 9 -173 9q-91 0 -146 -64.5t-55 -204.5v-132q0 -140 55 -204.5t146 -64.5q92 0 173 9
q19 2 19 -12v-12zM420 946q0 -4 -4 -8l-107 -128q-14 -17 -22 -17h-22q-9 0 -9 7q0 6 4 10l100 128q12 15 23 15h26q11 0 11 -7z" />
    <glyph glyph-name="cacute" unicode="&#x107;" horiz-adv-x="437" 
d="M393 21q0 -15 -19 -18q-76 -9 -121 -9q-101 0 -149.5 67.5t-48.5 174.5v67q0 108 48 173.5t150 65.5q45 0 121 -9q19 -3 19 -18v-7q0 -18 -21 -14q-70 9 -119 9q-154 0 -154 -200v-67q0 -203 154 -203q49 0 119 9q21 4 21 -14v-7zM358 771q0 -4 -4 -8l-107 -128
q-14 -17 -22 -17h-22q-9 0 -9 7q0 6 4 10l100 128q12 15 23 15h26q11 0 11 -7z" />
    <glyph glyph-name="Ccircumflex" unicode="&#x108;" horiz-adv-x="537" 
d="M497 21q0 -15 -19 -17q-87 -10 -173 -10q-50 0 -91.5 15.5t-77.5 49.5t-56 97t-20 149v132q0 86 20 149t56 97t77.5 49.5t91.5 15.5q86 0 173 -10q19 -2 19 -17v-12q0 -14 -19 -12q-81 9 -173 9q-91 0 -146 -64.5t-55 -204.5v-132q0 -140 55 -204.5t146 -64.5q92 0 173 9
q19 2 19 -12v-12zM436 801q0 -7 -9 -7h-22q-8 0 -22 17l-94 113l-94 -113q-14 -17 -22 -17h-22q-9 0 -9 7q0 6 4 10l100 128q12 15 23 15h40q11 0 23 -15l100 -128q4 -4 4 -10z" />
    <glyph glyph-name="ccircumflex" unicode="&#x109;" horiz-adv-x="437" 
d="M393 21q0 -15 -19 -18q-76 -9 -121 -9q-101 0 -149.5 67.5t-48.5 174.5v67q0 108 48 173.5t150 65.5q45 0 121 -9q19 -3 19 -18v-7q0 -18 -21 -14q-70 9 -119 9q-154 0 -154 -200v-67q0 -203 154 -203q49 0 119 9q21 4 21 -14v-7zM384 625q0 -7 -9 -7h-22q-8 0 -22 17
l-94 113l-94 -113q-14 -17 -22 -17h-22q-9 0 -9 7q0 6 4 10l100 128q12 15 23 15h40q11 0 23 -15l100 -128q4 -4 4 -10z" />
    <glyph glyph-name="Cdotaccent" unicode="&#x10a;" horiz-adv-x="537" 
d="M497 21q0 -15 -19 -17q-87 -10 -173 -10q-50 0 -91.5 15.5t-77.5 49.5t-56 97t-20 149v132q0 86 20 149t56 97t77.5 49.5t91.5 15.5q86 0 173 -10q19 -2 19 -17v-12q0 -14 -19 -12q-81 9 -173 9q-91 0 -146 -64.5t-55 -204.5v-132q0 -140 55 -204.5t146 -64.5q92 0 173 9
q19 2 19 -12v-12zM327 833q0 -8 -5.5 -13.5t-13.5 -5.5h-6q-8 0 -13.5 5.5t-5.5 13.5v74q0 7 5.5 13t13.5 6h6q8 0 13.5 -6t5.5 -13v-74z" />
    <glyph glyph-name="cdotaccent" unicode="&#x10b;" horiz-adv-x="437" 
d="M393 21q0 -15 -19 -18q-76 -9 -121 -9q-101 0 -149.5 67.5t-48.5 174.5v67q0 108 48 173.5t150 65.5q45 0 121 -9q19 -3 19 -18v-7q0 -18 -21 -14q-70 9 -119 9q-154 0 -154 -200v-67q0 -203 154 -203q49 0 119 9q21 4 21 -14v-7zM274 660q0 -8 -5.5 -13.5t-13.5 -5.5h-6
q-8 0 -13.5 5.5t-5.5 13.5v74q0 8 6 13.5t13 5.5h6q7 0 13 -5.5t6 -13.5v-74z" />
    <glyph glyph-name="Ccaron" unicode="&#x10c;" horiz-adv-x="537" 
d="M497 21q0 -15 -19 -17q-87 -10 -173 -10q-50 0 -91.5 15.5t-77.5 49.5t-56 97t-20 149v132q0 86 20 149t56 97t77.5 49.5t91.5 15.5q86 0 173 -10q19 -2 19 -17v-12q0 -14 -19 -12q-81 9 -173 9q-91 0 -146 -64.5t-55 -204.5v-132q0 -140 55 -204.5t146 -64.5q92 0 173 9
q19 2 19 -12v-12zM450 946q0 -6 -4 -10l-100 -128q-12 -15 -23 -15h-40q-11 0 -23 15l-100 128q-4 4 -4 10q0 7 9 7h22q8 0 22 -17l94 -113l94 113q14 17 22 17h22q9 0 9 -7z" />
    <glyph glyph-name="ccaron" unicode="&#x10d;" horiz-adv-x="437" 
d="M393 21q0 -15 -19 -18q-76 -9 -121 -9q-101 0 -149.5 67.5t-48.5 174.5v67q0 108 48 173.5t150 65.5q45 0 121 -9q19 -3 19 -18v-7q0 -18 -21 -14q-70 9 -119 9q-154 0 -154 -200v-67q0 -203 154 -203q49 0 119 9q21 4 21 -14v-7zM388 771q0 -6 -4 -10l-100 -128
q-12 -15 -23 -15h-40q-11 0 -23 15l-100 128q-4 4 -4 10q0 7 9 7h22q8 0 22 -17l94 -113l94 113q14 17 22 17h22q9 0 9 -7z" />
    <glyph glyph-name="Dcaron" unicode="&#x10e;" horiz-adv-x="613" 
d="M553 309q0 -164 -78 -239.5t-214 -75.5q-118 0 -164 8q-17 4 -17 19v700q0 15 17 19q46 8 164 8q292 0 292 -315v-124zM509 309v124q0 276 -248 276q-49 0 -137 -6v-666q59 -4 137 -4q248 0 248 276zM454 946q0 -6 -4 -10l-100 -128q-12 -15 -23 -15h-40q-11 0 -23 15
l-100 128q-4 4 -4 10q0 7 9 7h22q8 0 22 -17l94 -113l94 113q14 17 22 17h22q9 0 9 -7z" />
    <glyph glyph-name="dcaron" unicode="&#x10f;" horiz-adv-x="616" 
d="M434 32q0 -15 -15 -19q-93 -19 -168 -19q-100 0 -148 65t-48 178v66q0 239 196 239q72 0 139 -15v197q0 8 5 13.5t12 5.5h10q7 0 12 -5.5t5 -13.5v-692zM390 46v444q-62 13 -139 13q-81 0 -116.5 -49.5t-35.5 -150.5v-66q0 -101 35.5 -152.5t116.5 -51.5q61 0 139 13z
M523 533q-10 0 -10 10q0 3 2 9l61 172q7 19 20 19h19q18 0 10 -19l-68 -172q-7 -19 -19 -19h-15z" />
    <glyph glyph-name="Dcroat" unicode="&#x110;" horiz-adv-x="613" 
d="M553 309q0 -164 -78 -239.5t-214 -75.5q-118 0 -164 8q-17 4 -17 19v347h-71q-19 0 -19 17v10q0 16 19 16h71v310q0 15 17 19q46 8 164 8q292 0 292 -315v-124zM509 309v124q0 276 -248 276q-49 0 -137 -6v-292h85q19 0 19 -16v-10q0 -17 -19 -17h-85v-331q59 -4 137 -4
q248 0 248 276z" />
    <glyph glyph-name="dcroat" unicode="&#x111;" horiz-adv-x="504" 
d="M434 32q0 -15 -15 -19q-93 -19 -168 -19q-100 0 -148 65t-48 178v66q0 239 196 239q72 0 139 -15v91h-159q-19 0 -19 15v10q0 15 19 15h159v66q0 8 5 13.5t12 5.5h10q7 0 12 -5.5t5 -13.5v-66h57q19 0 19 -15v-10q0 -15 -19 -15h-57v-586zM390 46v444q-62 13 -139 13
q-81 0 -116.5 -49.5t-35.5 -150.5v-66q0 -101 35.5 -152.5t116.5 -51.5q61 0 139 13z" />
    <glyph glyph-name="Emacron" unicode="&#x112;" horiz-adv-x="533" 
d="M478 17q0 -17 -19 -17h-258q-60 0 -90.5 25.5t-30.5 86.5v519q0 61 30.5 86.5t90.5 25.5h258q19 0 19 -17v-8q0 -16 -19 -16h-258q-40 0 -58.5 -14t-18.5 -57v-220h335q19 0 19 -16v-10q0 -17 -19 -17h-335v-256q0 -43 18.5 -57t58.5 -14h258q19 0 19 -16v-8zM437 856
q0 -16 -20 -16h-266q-20 0 -20 16v11q0 15 20 15h266q20 0 20 -15v-11z" />
    <glyph glyph-name="emacron" unicode="&#x113;" horiz-adv-x="511" 
d="M456 277q0 -8 -5.5 -13.5t-13.5 -5.5h-338v-21q0 -116 48 -160t133 -44q65 0 148 17q21 4 21 -13v-7q0 -15 -19 -19q-82 -17 -150 -17q-225 0 -225 243v66q0 107 53 173t149 66q100 0 149.5 -63.5t49.5 -174.5v-27zM412 298v6q0 98 -36.5 148.5t-118.5 50.5
q-80 0 -119 -53.5t-39 -146.5v-5h313zM413 701q0 -16 -20 -16h-266q-20 0 -20 16v11q0 15 20 15h266q20 0 20 -15v-11z" />
    <glyph glyph-name="Ebreve" unicode="&#x114;" horiz-adv-x="533" 
d="M478 17q0 -17 -19 -17h-258q-60 0 -90.5 25.5t-30.5 86.5v519q0 61 30.5 86.5t90.5 25.5h258q19 0 19 -17v-8q0 -16 -19 -16h-258q-40 0 -58.5 -14t-18.5 -57v-220h335q19 0 19 -16v-10q0 -17 -19 -17h-335v-256q0 -43 18.5 -57t58.5 -14h258q19 0 19 -16v-8zM296 795
q64 0 103 39.5t39 110.5q0 10 -10 10h-22q-8 0 -8 -10q0 -61 -29 -86t-73 -25t-73 25t-29 86q0 10 -8 10h-22q-10 0 -10 -10q0 -71 39 -110.5t103 -39.5z" />
    <glyph glyph-name="ebreve" unicode="&#x115;" horiz-adv-x="511" 
d="M456 277q0 -8 -5.5 -13.5t-13.5 -5.5h-338v-21q0 -116 48 -160t133 -44q65 0 148 17q21 4 21 -13v-7q0 -15 -19 -19q-82 -17 -150 -17q-225 0 -225 243v66q0 107 53 173t149 66q100 0 149.5 -63.5t49.5 -174.5v-27zM412 298v6q0 98 -36.5 148.5t-118.5 50.5
q-80 0 -119 -53.5t-39 -146.5v-5h313zM259 618q64 0 103 39.5t39 110.5q0 10 -10 10h-22q-8 0 -8 -10q0 -61 -29 -86t-73 -25t-73 25t-29 86q0 10 -8 10h-22q-10 0 -10 -10q0 -71 39 -110.5t103 -39.5z" />
    <glyph glyph-name="Edotaccent" unicode="&#x116;" horiz-adv-x="533" 
d="M478 17q0 -17 -19 -17h-258q-60 0 -90.5 25.5t-30.5 86.5v519q0 61 30.5 86.5t90.5 25.5h258q19 0 19 -17v-8q0 -16 -19 -16h-258q-40 0 -58.5 -14t-18.5 -57v-220h335q19 0 19 -16v-10q0 -17 -19 -17h-335v-256q0 -43 18.5 -57t58.5 -14h258q19 0 19 -16v-8zM302 833
q0 -8 -5.5 -13.5t-13.5 -5.5h-6q-8 0 -13.5 5.5t-5.5 13.5v74q0 7 6 13t13 6h6q7 0 13 -6t6 -13v-74z" />
    <glyph glyph-name="edotaccent" unicode="&#x117;" horiz-adv-x="511" 
d="M456 277q0 -8 -5.5 -13.5t-13.5 -5.5h-338v-21q0 -116 48 -160t133 -44q65 0 148 17q21 4 21 -13v-7q0 -15 -19 -19q-82 -17 -150 -17q-225 0 -225 243v66q0 107 53 173t149 66q100 0 149.5 -63.5t49.5 -174.5v-27zM412 298v6q0 98 -36.5 148.5t-118.5 50.5
q-80 0 -119 -53.5t-39 -146.5v-5h313zM278 660q0 -8 -5.5 -13.5t-13.5 -5.5h-6q-8 0 -13.5 5.5t-5.5 13.5v74q0 8 6 13.5t13 5.5h6q7 0 13 -5.5t6 -13.5v-74z" />
    <glyph glyph-name="Eogonek" unicode="&#x118;" horiz-adv-x="533" 
d="M478 17q0 -17 -19 -17h-23l-55 -31q-49 -28 -63.5 -41t-14.5 -34q0 -52 87 -52q25 0 76 12q6 2 8 2q5 0 5 -7v-19q0 -8 -11 -11q-42 -14 -79 -14q-70 0 -98.5 26t-28.5 62q0 24 11.5 41.5t25 26.5t47.5 29l17 10h-162q-60 0 -90.5 25.5t-30.5 86.5v519q0 61 30.5 86.5
t90.5 25.5h258q19 0 19 -17v-8q0 -16 -19 -16h-258q-40 0 -58.5 -14t-18.5 -57v-220h335q19 0 19 -16v-10q0 -17 -19 -17h-335v-256q0 -43 18.5 -57t58.5 -14h258q19 0 19 -16v-8z" />
    <glyph glyph-name="eogonek" unicode="&#x119;" horiz-adv-x="511" 
d="M442 16l-82 -46q-48 -27 -63.5 -41.5t-15.5 -35.5q0 -52 79 -52q28 0 76 12q7 2 10 1t3 -8v-14q0 -9 -11 -13q-46 -14 -79 -14q-63 0 -90 25.5t-27 62.5q0 17 5 30t18.5 25t25.5 20t37 22l13 7q-31 -3 -61 -3q-225 0 -225 243v66q0 107 53 173t149 66q100 0 149.5 -63.5
t49.5 -174.5v-27q0 -8 -5.5 -13.5t-13.5 -5.5h-338v-21q0 -117 47 -160.5t134 -43.5q65 0 148 17q12 2 16.5 -0.5t4.5 -14.5v-3q0 -12 -7 -16zM412 298v6q0 98 -36.5 148.5t-118.5 50.5q-80 0 -119 -53.5t-39 -146.5v-5h313z" />
    <glyph glyph-name="Ecaron" unicode="&#x11a;" horiz-adv-x="533" 
d="M478 17q0 -17 -19 -17h-258q-60 0 -90.5 25.5t-30.5 86.5v519q0 61 30.5 86.5t90.5 25.5h258q19 0 19 -17v-8q0 -16 -19 -16h-258q-40 0 -58.5 -14t-18.5 -57v-220h335q19 0 19 -16v-10q0 -17 -19 -17h-335v-256q0 -43 18.5 -57t58.5 -14h258q19 0 19 -16v-8zM438 947
q0 -6 -4 -10l-100 -128q-12 -15 -23 -15h-40q-11 0 -23 15l-100 128q-4 4 -4 10q0 7 9 7h22q8 0 22 -17l94 -113l94 113q14 17 22 17h22q9 0 9 -7z" />
    <glyph glyph-name="ecaron" unicode="&#x11b;" horiz-adv-x="511" 
d="M456 277q0 -8 -5.5 -13.5t-13.5 -5.5h-338v-21q0 -116 48 -160t133 -44q65 0 148 17q21 4 21 -13v-7q0 -15 -19 -19q-82 -17 -150 -17q-225 0 -225 243v66q0 107 53 173t149 66q100 0 149.5 -63.5t49.5 -174.5v-27zM412 298v6q0 98 -36.5 148.5t-118.5 50.5
q-80 0 -119 -53.5t-39 -146.5v-5h313zM403 771q0 -6 -4 -10l-100 -128q-12 -15 -23 -15h-40q-11 0 -23 15l-100 128q-4 4 -4 10q0 7 9 7h22q8 0 22 -17l94 -113l94 113q14 17 22 17h22q9 0 9 -7z" />
    <glyph glyph-name="Gcircumflex" unicode="&#x11c;" horiz-adv-x="588" 
d="M508 712q0 -18 -21 -15q-101 10 -176 10q-32 0 -60 -7.5t-56 -26.5t-47.5 -49t-31.5 -79t-12 -112v-124q0 -138 54.5 -205.5t152.5 -67.5q80 0 152 9v318q0 19 17 19h10q17 0 17 -19v-337q0 -17 -17 -19q-104 -13 -179 -13q-113 0 -182 78.5t-69 236.5v124q0 72 15 128.5
t39.5 91t58 56.5t67 30.5t71.5 8.5q94 0 180 -10q17 -2 17 -16v-10zM456 801q0 -7 -9 -7h-22q-8 0 -22 17l-94 113l-94 -113q-14 -17 -22 -17h-22q-9 0 -9 7q0 6 4 10l100 128q12 15 23 15h40q11 0 23 -15l100 -128q4 -4 4 -10z" />
    <glyph glyph-name="gcircumflex" unicode="&#x11d;" horiz-adv-x="534" 
d="M489 510q0 -16 -19 -16h-52q55 -44 55 -124v-8q0 -163 -207 -163q-65 0 -122 23q-34 -15 -34 -43q0 -23 29 -31l180 -47q87 -23 123.5 -50.5t36.5 -84.5v-9q0 -155 -212 -155t-212 155v9q0 48 23 87.5t52 56.5l-7 2q-53 16 -53 67q0 45 42 64q-52 43 -52 119v8
q0 167 206 167h204q19 0 19 -16v-11zM430 362v8q0 60 -36.5 94.5t-127.5 34.5q-94 0 -128 -35.5t-34 -93.5v-8q0 -22 6.5 -41.5t22.5 -39.5t50 -32t83 -12q92 0 128 33.5t36 91.5zM435 -43v9q0 42 -23 59.5t-103 37.5l-138 36q-73 -48 -73 -133v-9q0 -57 38.5 -87.5
t130.5 -30.5q95 0 131.5 29t36.5 89zM416 625q0 -7 -9 -7h-22q-8 0 -22 17l-94 113l-94 -113q-14 -17 -22 -17h-22q-9 0 -9 7q0 6 4 10l100 128q12 15 23 15h40q11 0 23 -15l100 -128q4 -4 4 -10z" />
    <glyph glyph-name="Gbreve" unicode="&#x11e;" horiz-adv-x="588" 
d="M508 712q0 -18 -21 -15q-101 10 -176 10q-32 0 -60 -7.5t-56 -26.5t-47.5 -49t-31.5 -79t-12 -112v-124q0 -138 54.5 -205.5t152.5 -67.5q80 0 152 9v318q0 19 17 19h10q17 0 17 -19v-337q0 -17 -17 -19q-104 -13 -179 -13q-113 0 -182 78.5t-69 236.5v124q0 72 15 128.5
t39.5 91t58 56.5t67 30.5t71.5 8.5q94 0 180 -10q17 -2 17 -16v-10zM318 794q64 0 103 39.5t39 110.5q0 10 -10 10h-22q-8 0 -8 -10q0 -61 -29 -86t-73 -25t-73 25t-29 86q0 10 -8 10h-22q-10 0 -10 -10q0 -71 39 -110.5t103 -39.5z" />
    <glyph glyph-name="gbreve" unicode="&#x11f;" horiz-adv-x="534" 
d="M489 510q0 -16 -19 -16h-52q55 -44 55 -124v-8q0 -163 -207 -163q-65 0 -122 23q-34 -15 -34 -43q0 -23 29 -31l180 -47q87 -23 123.5 -50.5t36.5 -84.5v-9q0 -155 -212 -155t-212 155v9q0 48 23 87.5t52 56.5l-7 2q-53 16 -53 67q0 45 42 64q-52 43 -52 119v8
q0 167 206 167h204q19 0 19 -16v-11zM430 362v8q0 60 -36.5 94.5t-127.5 34.5q-94 0 -128 -35.5t-34 -93.5v-8q0 -22 6.5 -41.5t22.5 -39.5t50 -32t83 -12q92 0 128 33.5t36 91.5zM435 -43v9q0 42 -23 59.5t-103 37.5l-138 36q-73 -48 -73 -133v-9q0 -57 38.5 -87.5
t130.5 -30.5q95 0 131.5 29t36.5 89zM267 618q64 0 103 39.5t39 110.5q0 10 -10 10h-22q-8 0 -8 -10q0 -61 -29 -86t-73 -25t-73 25t-29 86q0 10 -8 10h-22q-10 0 -10 -10q0 -71 39 -110.5t103 -39.5z" />
    <glyph glyph-name="Gdotaccent" unicode="&#x120;" horiz-adv-x="588" 
d="M508 712q0 -18 -21 -15q-101 10 -176 10q-32 0 -60 -7.5t-56 -26.5t-47.5 -49t-31.5 -79t-12 -112v-124q0 -138 54.5 -205.5t152.5 -67.5q80 0 152 9v318q0 19 17 19h10q17 0 17 -19v-337q0 -17 -17 -19q-104 -13 -179 -13q-113 0 -182 78.5t-69 236.5v124q0 72 15 128.5
t39.5 91t58 56.5t67 30.5t71.5 8.5q94 0 180 -10q17 -2 17 -16v-10zM337 833q0 -8 -5.5 -13.5t-13.5 -5.5h-6q-8 0 -13.5 5.5t-5.5 13.5v74q0 7 5.5 13t13.5 6h6q8 0 13.5 -6t5.5 -13v-74z" />
    <glyph glyph-name="gdotaccent" unicode="&#x121;" horiz-adv-x="534" 
d="M489 510q0 -16 -19 -16h-52q55 -44 55 -124v-8q0 -163 -207 -163q-65 0 -122 23q-34 -15 -34 -43q0 -23 29 -31l180 -47q87 -23 123.5 -50.5t36.5 -84.5v-9q0 -155 -212 -155t-212 155v9q0 48 23 87.5t52 56.5l-7 2q-53 16 -53 67q0 45 42 64q-52 43 -52 119v8
q0 167 206 167h204q19 0 19 -16v-11zM430 362v8q0 60 -36.5 94.5t-127.5 34.5q-94 0 -128 -35.5t-34 -93.5v-8q0 -22 6.5 -41.5t22.5 -39.5t50 -32t83 -12q92 0 128 33.5t36 91.5zM435 -43v9q0 42 -23 59.5t-103 37.5l-138 36q-73 -48 -73 -133v-9q0 -57 38.5 -87.5
t130.5 -30.5q95 0 131.5 29t36.5 89zM292 660q0 -8 -5.5 -13.5t-13.5 -5.5h-6q-8 0 -13.5 5.5t-5.5 13.5v74q0 8 6 13.5t13 5.5h6q7 0 13 -5.5t6 -13.5v-74z" />
    <glyph glyph-name="Gcommaaccent" unicode="&#x122;" horiz-adv-x="588" 
d="M508 712q0 -18 -21 -15q-101 10 -176 10q-32 0 -60 -7.5t-56 -26.5t-47.5 -49t-31.5 -79t-12 -112v-124q0 -138 54.5 -205.5t152.5 -67.5q80 0 152 9v318q0 19 17 19h10q17 0 17 -19v-337q0 -17 -17 -19q-104 -13 -179 -13q-113 0 -182 78.5t-69 236.5v124q0 72 15 128.5
t39.5 91t58 56.5t67 30.5t71.5 8.5q94 0 180 -10q17 -2 17 -16v-10zM308 -55h24q12 0 12 -10q0 -6 -2 -9l-56 -102q-10 -19 -24 -19h-9q-9 0 -9 9q0 5 1 7l43 105q7 19 20 19z" />
    <glyph glyph-name="gcommaaccent" unicode="&#x123;" horiz-adv-x="534" 
d="M489 510q0 -16 -19 -16h-52q55 -44 55 -124v-8q0 -163 -207 -163q-65 0 -122 23q-34 -15 -34 -43q0 -23 29 -31l180 -47q87 -23 123.5 -50.5t36.5 -84.5v-9q0 -155 -212 -155t-212 155v9q0 48 23 87.5t52 56.5l-7 2q-53 16 -53 67q0 45 42 64q-52 43 -52 119v8
q0 167 206 167h204q19 0 19 -16v-11zM430 362v8q0 60 -36.5 94.5t-127.5 34.5q-94 0 -128 -35.5t-34 -93.5v-8q0 -22 6.5 -41.5t22.5 -39.5t50 -32t83 -12q92 0 128 33.5t36 91.5zM435 -43v9q0 42 -23 59.5t-103 37.5l-138 36q-73 -48 -73 -133v-9q0 -57 38.5 -87.5
t130.5 -30.5q95 0 131.5 29t36.5 89zM263 618h-24q-12 0 -12 10q0 6 2 9l57 109q10 19 24 19h9q9 0 9 -9q0 -5 -1 -7l-44 -112q-7 -19 -20 -19z" />
    <glyph glyph-name="Hcircumflex" unicode="&#x124;" horiz-adv-x="647" 
d="M567 19q0 -19 -17 -19h-9q-17 0 -17 19v358h-400v-358q0 -8 -5 -13.5t-12 -5.5h-10q-7 0 -12 5.5t-5 13.5v705q0 8 5 13.5t12 5.5h10q7 0 12 -5.5t5 -13.5v-306h400v306q0 19 17 19h9q17 0 17 -19v-705zM467 801q0 -7 -9 -7h-22q-8 0 -22 17l-94 113l-94 -113
q-14 -17 -22 -17h-22q-9 0 -9 7q0 6 4 10l100 128q12 15 23 15h40q11 0 23 -15l100 -128q4 -4 4 -10z" />
    <glyph glyph-name="hcircumflex" unicode="&#x125;" horiz-adv-x="505" 
d="M440 13q0 -19 -17 -19h-10q-16 0 -16 19v337q0 76 -35 114.5t-113 38.5q-73 0 -135 -18v-472q0 -8 -5 -13.5t-12 -5.5h-10q-7 0 -12 5.5t-5 13.5v711q0 8 5 13.5t12 5.5h10q7 0 12 -5.5t5 -13.5v-200q70 18 135 18q191 0 191 -192v-337zM414 801q0 -7 -9 -7h-22
q-8 0 -22 17l-94 113l-94 -113q-14 -17 -22 -17h-22q-9 0 -9 7q0 6 4 10l100 128q12 15 23 15h40q11 0 23 -15l100 -128q4 -4 4 -10z" />
    <glyph glyph-name="Hbar" unicode="&#x126;" horiz-adv-x="647" 
d="M19 599h61v125q0 8 5 13.5t12 5.5h10q7 0 12 -5.5t5 -13.5v-125h400v125q0 19 17 19h9q17 0 17 -19v-125h60q19 0 19 -16v-10q0 -17 -19 -17h-60v-537q0 -19 -17 -19h-9q-17 0 -17 19v358h-400v-358q0 -8 -5 -13.5t-12 -5.5h-10q-7 0 -12 5.5t-5 13.5v537h-61
q-19 0 -19 17v10q0 16 19 16zM124 418h400v138h-400v-138z" />
    <glyph glyph-name="hbar" unicode="&#x127;" horiz-adv-x="505" 
d="M273 618h-159v-94q70 18 135 18q191 0 191 -192v-331q0 -19 -17 -19h-10q-16 0 -16 19v331q0 76 -35 114.5t-113 38.5q-73 0 -135 -18v-466q0 -8 -5 -13.5t-12 -5.5h-10q-7 0 -12 5.5t-5 13.5v599h-57q-19 0 -19 15v10q0 15 19 15h57v66q0 8 5 13.5t12 5.5h10
q7 0 12 -5.5t5 -13.5v-66h159q19 0 19 -15v-10q0 -15 -19 -15z" />
    <glyph glyph-name="Itilde" unicode="&#x128;" horiz-adv-x="224" 
d="M134 19q0 -8 -5 -13.5t-12 -5.5h-10q-7 0 -12 5.5t-5 13.5v705q0 8 5 13.5t12 5.5h10q7 0 12 -5.5t5 -13.5v-705zM271 879q0 -45 -20.5 -68t-57.5 -23q-40 0 -67 26l-48 47q-28 28 -48 28q-41 0 -41 -53v-26q0 -16 -10 -16h-17q-11 0 -11 16v26q0 45 21 68t58 23
q39 0 66 -26l48 -47q28 -28 49 -28q40 0 40 53v26q0 16 10 16h17q11 0 11 -16v-26z" />
    <glyph glyph-name="itilde" unicode="&#x129;" horiz-adv-x="204" 
d="M124 19q0 -7 -6 -13t-13 -6h-6q-7 0 -13 6t-6 13v499q0 8 6 13.5t13 5.5h6q7 0 13 -5.5t6 -13.5v-499zM263 704q0 -45 -20.5 -68t-57.5 -23q-40 0 -67 26l-48 47q-28 28 -48 28q-41 0 -41 -53v-26q0 -16 -10 -16h-17q-11 0 -11 16v26q0 45 21 68t58 23q39 0 66 -26
l48 -47q28 -28 49 -28q40 0 40 53v26q0 16 10 16h17q11 0 11 -16v-26z" />
    <glyph glyph-name="Imacron" unicode="&#x12a;" horiz-adv-x="224" 
d="M134 19q0 -8 -5 -13.5t-12 -5.5h-10q-7 0 -12 5.5t-5 13.5v705q0 8 5 13.5t12 5.5h10q7 0 12 -5.5t5 -13.5v-705zM265 856q0 -16 -20 -16h-266q-20 0 -20 16v11q0 15 20 15h266q20 0 20 -15v-11z" />
    <glyph glyph-name="imacron" unicode="&#x12b;" horiz-adv-x="204" 
d="M124 19q0 -7 -6 -13t-13 -6h-6q-7 0 -13 6t-6 13v499q0 8 6 13.5t13 5.5h6q7 0 13 -5.5t6 -13.5v-499zM255 702q0 -16 -20 -16h-266q-20 0 -20 16v11q0 15 20 15h266q20 0 20 -15v-11z" />
    <glyph glyph-name="Ibreve" unicode="&#x12c;" horiz-adv-x="224" 
d="M134 19q0 -8 -5 -13.5t-12 -5.5h-10q-7 0 -12 5.5t-5 13.5v705q0 8 5 13.5t12 5.5h10q7 0 12 -5.5t5 -13.5v-705zM112 794q64 0 103 39.5t39 110.5q0 10 -10 10h-22q-8 0 -8 -10q0 -61 -29 -86t-73 -25t-73 25t-29 86q0 10 -8 10h-22q-10 0 -10 -10q0 -71 39 -110.5
t103 -39.5z" />
    <glyph glyph-name="ibreve" unicode="&#x12d;" horiz-adv-x="204" 
d="M124 19q0 -7 -6 -13t-13 -6h-6q-7 0 -13 6t-6 13v499q0 8 6 13.5t13 5.5h6q7 0 13 -5.5t6 -13.5v-499zM102 618q64 0 103 39.5t39 110.5q0 10 -10 10h-22q-8 0 -8 -10q0 -61 -29 -86t-73 -25t-73 25t-29 86q0 10 -8 10h-22q-10 0 -10 -10q0 -71 39 -110.5t103 -39.5z" />
    <glyph glyph-name="Iogonek" unicode="&#x12e;" horiz-adv-x="224" 
d="M90 20v704q0 8 5 13.5t12 5.5h10q7 0 12 -5.5t5 -13.5v-708q0 -11 -8 -16l-21 -12q-44 -25 -60 -44t-16 -42q0 -32 19 -47t62 -15q40 0 84 13q6 2 8 2q5 0 5 -7v-18q0 -8 -11 -11q-42 -14 -86 -14q-64 0 -92 28t-28 68q0 34 20 58.5t64 50.5z" />
    <glyph glyph-name="iogonek" unicode="&#x12f;" horiz-adv-x="204" 
d="M80 20v498q0 8 5 13.5t12 5.5h10q7 0 12 -5.5t5 -13.5v-502q0 -11 -8 -16l-21 -12q-44 -25 -60 -44t-16 -42q0 -32 19 -47t62 -15q40 0 84 13q6 2 8 2q5 0 5 -7v-18q0 -8 -11 -11q-42 -14 -86 -14q-64 0 -92 28t-28 68q0 33 19.5 57t64.5 52zM124 655q0 -8 -5.5 -13.5
t-13.5 -5.5h-6q-8 0 -13.5 5.5t-5.5 13.5v74q0 7 6 13t13 6h6q7 0 13 -6t6 -13v-74z" />
    <glyph glyph-name="Idotaccent" unicode="&#x130;" horiz-adv-x="224" 
d="M134 19q0 -8 -5 -13.5t-12 -5.5h-10q-7 0 -12 5.5t-5 13.5v705q0 8 5 13.5t12 5.5h10q7 0 12 -5.5t5 -13.5v-705zM134 813q0 -8 -5.5 -13.5t-13.5 -5.5h-6q-8 0 -13.5 5.5t-5.5 13.5v74q0 7 6 13t13 6h6q7 0 13 -6t6 -13v-74z" />
    <glyph glyph-name="dotlessi" unicode="&#x131;" horiz-adv-x="204" 
d="M124 19q0 -7 -6 -13t-13 -6h-6q-7 0 -13 6t-6 13v499q0 8 6 13.5t13 5.5h6q7 0 13 -5.5t6 -13.5v-499z" />
    <glyph glyph-name="IJ" unicode="&#x132;" horiz-adv-x="448" 
d="M134 19q0 -8 -5 -13.5t-12 -5.5h-10q-7 0 -12 5.5t-5 13.5v705q0 8 5 13.5t12 5.5h10q7 0 12 -5.5t5 -13.5v-705zM358 -60q0 -72 -32 -103.5t-112 -31.5h-14q-20 0 -20 14v10q0 15 20 15h14q62 0 81 18.5t19 77.5v784q0 8 5 13.5t12 5.5h10q7 0 12 -5.5t5 -13.5v-784z
" />
    <glyph glyph-name="ij" unicode="&#x133;" horiz-adv-x="408" 
d="M124 655q0 -8 -5.5 -13.5t-13.5 -5.5h-6q-8 0 -13.5 5.5t-5.5 13.5v74q0 7 6 13t13 6h6q7 0 13 -6t6 -13v-74zM124 19q0 -7 -6 -13t-13 -6h-6q-7 0 -13 6t-6 13v499q0 8 6 13.5t13 5.5h6q7 0 13 -5.5t6 -13.5v-499zM328 655q0 -8 -5.5 -13.5t-13.5 -5.5h-6
q-8 0 -13.5 5.5t-5.5 13.5v74q0 7 6 13t13 6h6q7 0 13 -6t6 -13v-74zM328 -86q0 -62 -25 -85.5t-78 -23.5q-19 0 -42 3q-17 2 -17 14v9q0 12 21 12h38q34 0 46.5 13.5t12.5 57.5v604q0 19 16 19h11q17 0 17 -19v-604z" />
    <glyph glyph-name="Jcircumflex" unicode="&#x134;" horiz-adv-x="224" 
d="M134 -60q0 -72 -32 -103.5t-112 -31.5h-14q-20 0 -20 14v10q0 15 20 15h14q62 0 81 18.5t19 77.5v784q0 8 5 13.5t12 5.5h10q7 0 12 -5.5t5 -13.5v-784zM259 801q0 -7 -9 -7h-22q-8 0 -22 17l-94 113l-94 -113q-14 -17 -22 -17h-22q-9 0 -9 7q0 6 4 10l100 128
q12 15 23 15h40q11 0 23 -15l100 -128q4 -4 4 -10z" />
    <glyph glyph-name="jcircumflex" unicode="&#x135;" horiz-adv-x="204" 
d="M124 -86q0 -62 -25 -85.5t-78 -23.5q-20 0 -42 3q-17 2 -17 14v9q0 12 21 12h38q34 0 46.5 13.5t12.5 57.5v604q0 19 16 19h11q17 0 17 -19v-604zM248 625q0 -7 -9 -7h-22q-8 0 -22 17l-94 113l-94 -113q-14 -17 -22 -17h-22q-9 0 -9 7q0 6 4 10l100 128q12 15 23 15h40
q11 0 23 -15l100 -128q4 -4 4 -10z" />
    <glyph glyph-name="Kcommaaccent" unicode="&#x136;" horiz-adv-x="542" 
d="M506 730q0 -10 -8 -18l-336 -326l343 -356q10 -11 6 -21.5t-18 -10.5q-15 0 -23 8l-346 360v-347q0 -8 -5 -13.5t-12 -5.5h-10q-7 0 -12 5.5t-5 13.5v705q0 8 6 13.5t13 5.5h6q7 0 13 -5.5t6 -13.5v-320l340 332q12 11 23 11q8 0 13.5 -5.5t5.5 -11.5zM285 -55h24
q12 0 12 -10q0 -6 -2 -9l-56 -102q-9 -19 -24 -19h-9q-9 0 -9 9q0 5 1 7l43 105q7 19 20 19z" />
    <glyph glyph-name="kcommaaccent" unicode="&#x137;" horiz-adv-x="444" 
d="M398 25q9 -10 5.5 -20.5t-17.5 -10.5q-18 0 -30 12l-242 259v-252q0 -7 -6 -13t-13 -6h-6q-7 0 -13 6t-6 13v711q0 8 6 13.5t13 5.5h6q7 0 13 -5.5t6 -13.5v-421l246 230q10 9 24 9t19 -12t-6 -21l-245 -224zM224 -55h24q12 0 12 -10q0 -6 -2 -9l-56 -102
q-10 -19 -24 -19h-9q-9 0 -9 9q0 5 1 7l43 105q7 19 20 19z" />
    <glyph glyph-name="kgreenlandic" unicode="&#x138;" horiz-adv-x="444" 
d="M405 10q0 -16 -19 -16q-18 0 -30 12l-242 259v-246q0 -7 -6 -13t-13 -6h-6q-7 0 -13 6t-6 13v499q0 8 6 13.5t13 5.5h6q7 0 13 -5.5t6 -13.5v-215l246 230q10 9 24 9q9 0 14.5 -5.5t5.5 -12.5q0 -9 -7 -15l-245 -224l246 -260q7 -9 7 -15z" />
    <glyph glyph-name="Lacute" unicode="&#x139;" horiz-adv-x="483" 
d="M448 17q0 -17 -19 -17h-228q-60 0 -90.5 25.5t-30.5 86.5v612q0 8 5 13.5t12 5.5h10q7 0 12 -5.5t5 -13.5v-612q0 -43 18.5 -57t58.5 -14h228q19 0 19 -16v-8zM359 946q0 -4 -4 -8l-107 -128q-14 -17 -22 -17h-22q-9 0 -9 7q0 6 4 10l100 128q12 15 23 15h26q11 0 11 -7z
" />
    <glyph glyph-name="lacute" unicode="&#x13a;" horiz-adv-x="204" 
d="M124 13q0 -8 -5 -13.5t-12 -5.5h-10q-7 0 -12 5.5t-5 13.5v711q0 8 5 13.5t12 5.5h10q7 0 12 -5.5t5 -13.5v-711zM219 946q0 -4 -4 -8l-107 -128q-14 -17 -22 -17h-22q-9 0 -9 7q0 6 4 10l100 128q12 15 23 15h26q11 0 11 -7z" />
    <glyph glyph-name="Lcommaaccent" unicode="&#x13b;" horiz-adv-x="483" 
d="M448 17q0 -17 -19 -17h-228q-60 0 -90.5 25.5t-30.5 86.5v612q0 8 5 13.5t12 5.5h10q7 0 12 -5.5t5 -13.5v-612q0 -43 18.5 -57t58.5 -14h228q19 0 19 -16v-8zM255 -55h24q12 0 12 -10q0 -6 -2 -9l-56 -102q-9 -19 -24 -19h-9q-9 0 -9 9q0 5 1 7l43 105q7 19 20 19z" />
    <glyph glyph-name="lcommaaccent" unicode="&#x13c;" horiz-adv-x="204" 
d="M124 13q0 -8 -5 -13.5t-12 -5.5h-10q-7 0 -12 5.5t-5 13.5v711q0 8 5 13.5t12 5.5h10q7 0 12 -5.5t5 -13.5v-711zM95 -55h24q12 0 12 -10q0 -6 -2 -9l-56 -102q-9 -19 -24 -19h-9q-9 0 -9 9q0 5 1 7l43 105q7 19 20 19z" />
    <glyph glyph-name="Lcaron" unicode="&#x13d;" horiz-adv-x="483" 
d="M448 17q0 -17 -19 -17h-228q-60 0 -90.5 25.5t-30.5 86.5v612q0 8 5 13.5t12 5.5h10q7 0 12 -5.5t5 -13.5v-612q0 -43 18.5 -57t58.5 -14h228q19 0 19 -16v-8zM232 533q-10 0 -10 10q0 3 2 9l61 172q7 19 20 19h19q18 0 10 -19l-68 -172q-7 -19 -19 -19h-15z" />
    <glyph glyph-name="lcaron" unicode="&#x13e;" horiz-adv-x="307" 
d="M124 19q0 -8 -5 -13.5t-12 -5.5h-10q-7 0 -12 5.5t-5 13.5v705q0 8 5 13.5t12 5.5h10q7 0 12 -5.5t5 -13.5v-705zM214 533q-10 0 -10 10q0 3 2 9l61 172q7 19 20 19h19q18 0 10 -19l-68 -172q-7 -19 -19 -19h-15z" />
    <glyph glyph-name="Ldot" unicode="&#x13f;" horiz-adv-x="483" 
d="M448 17q0 -17 -19 -17h-228q-60 0 -90.5 25.5t-30.5 86.5v612q0 8 5 13.5t12 5.5h10q7 0 12 -5.5t5 -13.5v-612q0 -43 18.5 -57t58.5 -14h228q19 0 19 -16v-8zM316 371q0 -8 -5.5 -13.5t-13.5 -5.5h-6q-8 0 -13.5 5.5t-5.5 13.5v74q0 7 6 13t13 6h6q7 0 13 -6t6 -13v-74z
" />
    <glyph glyph-name="ldot" unicode="&#x140;" horiz-adv-x="298" 
d="M124 19q0 -8 -5 -13.5t-12 -5.5h-10q-7 0 -12 5.5t-5 13.5v705q0 8 5 13.5t12 5.5h10q7 0 12 -5.5t5 -13.5v-705zM266 346q0 -8 -5.5 -13.5t-13.5 -5.5h-6q-8 0 -13.5 5.5t-5.5 13.5v74q0 8 6 13.5t13 5.5h6q7 0 13 -5.5t6 -13.5v-74z" />
    <glyph glyph-name="Lslash" unicode="&#x141;" horiz-adv-x="539" 
d="M489 17q0 -17 -19 -17h-228q-60 0 -90.5 25.5t-30.5 86.5v214l-72 -104q-4 -5 -8.5 -6.5t-7.5 0.5t-3 5v29q0 14 8 25l83 120v329q0 8 5 13.5t12 5.5h10q7 0 12 -5.5t5 -13.5v-266l72 104q4 5 8.5 6.5t7.5 -0.5t3 -5v-29q0 -14 -8 -25l-83 -120v-277q0 -43 18.5 -57
t58.5 -14h228q19 0 19 -16v-8z" />
    <glyph glyph-name="lslash" unicode="&#x142;" horiz-adv-x="286" 
d="M256 530q0 -7 -7 -18l-84 -123v-376q0 -8 -5 -13.5t-12 -5.5h-10q-7 0 -12 5.5t-5 13.5v313l-72 -104q-4 -5 -8.5 -7.5t-7.5 -1t-3 7.5v35q0 8 6 16l85 123v329q0 8 5 13.5t12 5.5h10q7 0 12 -5.5t5 -13.5v-266l72 104q6 8 10.5 10t6.5 -0.5t2 -6.5v-35z" />
    <glyph glyph-name="Nacute" unicode="&#x143;" horiz-adv-x="651" 
d="M571 45q0 -23 -13 -37t-32 -14q-25 0 -34 7q-11 9 -18 23l-337 675q-3 7 -8 7t-5 -7v-680q0 -8 -5 -13.5t-12 -5.5h-10q-7 0 -12 5.5t-5 13.5v680q0 22 13.5 35.5t35.5 13.5q33 0 48 -31l336 -674q3 -7 8 -7t5 9v679q0 19 16 19h12q17 0 17 -19v-679zM443 946q0 -4 -4 -8
l-107 -128q-14 -17 -22 -17h-22q-9 0 -9 7q0 6 4 10l100 128q12 15 23 15h26q11 0 11 -7z" />
    <glyph glyph-name="nacute" unicode="&#x144;" horiz-adv-x="521" 
d="M451 19q0 -8 -5.5 -13.5t-13.5 -5.5h-7q-7 0 -12.5 5.5t-5.5 13.5v332q0 152 -135 152q-73 0 -158 -41v-443q0 -7 -6 -13t-13 -6h-6q-7 0 -13 6t-6 13v498q0 20 18 20h8q18 0 18 -20v-16q85 41 161 41q78 0 127 -46.5t49 -144.5v-332zM378 771q0 -4 -4 -8l-107 -128
q-14 -17 -22 -17h-22q-9 0 -9 7q0 6 4 10l100 128q12 15 23 15h26q11 0 11 -7z" />
    <glyph glyph-name="Ncommaaccent" unicode="&#x145;" horiz-adv-x="651" 
d="M571 45q0 -23 -13 -37t-32 -14q-25 0 -34 7q-11 9 -18 23l-337 675q-3 7 -8 7t-5 -7v-680q0 -8 -5 -13.5t-12 -5.5h-10q-7 0 -12 5.5t-5 13.5v680q0 22 13.5 35.5t35.5 13.5q33 0 48 -31l336 -674q3 -7 8 -7t5 9v679q0 19 16 19h12q17 0 17 -19v-679zM323 -55h24
q12 0 12 -10q0 -6 -2 -9l-56 -102q-9 -19 -24 -19h-9q-9 0 -9 9q0 5 1 7l43 105q7 19 20 19z" />
    <glyph glyph-name="ncommaaccent" unicode="&#x146;" horiz-adv-x="521" 
d="M451 19q0 -8 -5.5 -13.5t-13.5 -5.5h-7q-7 0 -12.5 5.5t-5.5 13.5v332q0 152 -135 152q-73 0 -158 -41v-443q0 -7 -6 -13t-13 -6h-6q-7 0 -13 6t-6 13v498q0 20 18 20h8q18 0 18 -20v-16q85 41 161 41q78 0 127 -46.5t49 -144.5v-332zM249 -55h24q12 0 12 -10q0 -6 -2 -9
l-56 -102q-9 -19 -24 -19h-9q-9 0 -9 9q0 5 1 7l43 105q7 19 20 19z" />
    <glyph glyph-name="Ncaron" unicode="&#x147;" horiz-adv-x="651" 
d="M571 45q0 -23 -13 -37t-32 -14q-25 0 -34 7q-11 9 -18 23l-337 675q-3 7 -8 7t-5 -7v-680q0 -8 -5 -13.5t-12 -5.5h-10q-7 0 -12 5.5t-5 13.5v680q0 22 13.5 35.5t35.5 13.5q33 0 48 -31l336 -674q3 -7 8 -7t5 9v679q0 19 16 19h12q17 0 17 -19v-679zM473 946
q0 -6 -4 -10l-100 -128q-12 -15 -23 -15h-40q-11 0 -23 15l-100 128q-4 4 -4 10q0 7 9 7h22q8 0 22 -17l94 -113l94 113q14 17 22 17h22q9 0 9 -7z" />
    <glyph glyph-name="ncaron" unicode="&#x148;" horiz-adv-x="521" 
d="M451 19q0 -8 -5.5 -13.5t-13.5 -5.5h-7q-7 0 -12.5 5.5t-5.5 13.5v332q0 152 -135 152q-73 0 -158 -41v-443q0 -7 -6 -13t-13 -6h-6q-7 0 -13 6t-6 13v498q0 20 18 20h8q18 0 18 -20v-16q85 41 161 41q78 0 127 -46.5t49 -144.5v-332zM408 771q0 -6 -4 -10l-100 -128
q-12 -15 -23 -15h-40q-11 0 -23 15l-100 128q-4 4 -4 10q0 7 9 7h22q8 0 22 -17l94 -113l94 113q14 17 22 17h22q9 0 9 -7z" />
    <glyph glyph-name="napostrophe" unicode="&#x149;" horiz-adv-x="641" 
d="M131 732q0 -5 -1 -8l-48 -172q-5 -19 -19 -19h-15q-9 0 -9 10q0 6 1 9l41 172q4 19 20 19h19q11 0 11 -11zM571 19q0 -8 -5.5 -13.5t-13.5 -5.5h-7q-7 0 -12.5 5.5t-5.5 13.5v332q0 152 -135 152q-73 0 -158 -41v-443q0 -7 -6 -13t-13 -6h-6q-7 0 -13 6t-6 13v498
q0 20 18 20h8q18 0 18 -20v-16q85 41 161 41q78 0 127 -46.5t49 -144.5v-332z" />
    <glyph glyph-name="Eng" unicode="&#x14a;" horiz-adv-x="651" 
d="M571 -61q0 -72 -32 -103.5t-112 -31.5h-14q-20 0 -20 14v10q0 15 20 15h14q62 0 81 18.5t19 77.5v55q-5 -1 -13 -1q-25 0 -40 31l-337 675q-3 7 -8 7t-5 -7v-680q0 -8 -5 -13.5t-12 -5.5h-10q-7 0 -12 5.5t-5 13.5v680q0 22 13.5 35.5t35.5 13.5q33 0 48 -31l336 -674
q3 -7 8 -7t5 9v679q0 19 16 19h12q17 0 17 -19v-785z" />
    <glyph glyph-name="eng" unicode="&#x14b;" horiz-adv-x="521" 
d="M451 -86q0 -62 -25 -85.5t-78 -23.5q-20 0 -42 3q-17 2 -17 14v9q0 12 21 12h38q34 0 46.5 13.5t12.5 57.5v437q0 152 -135 152q-73 0 -158 -41v-443q0 -7 -6 -13t-13 -6h-6q-7 0 -13 6t-6 13v498q0 20 18 20h8q18 0 18 -20v-16q85 41 161 41q78 0 127 -46.5t49 -144.5
v-437z" />
    <glyph glyph-name="Omacron" unicode="&#x14c;" horiz-adv-x="632" 
d="M572 309q0 -160 -69 -237.5t-187 -77.5t-187 77.5t-69 237.5v124q0 160 69 237.5t187 77.5t187 -77.5t69 -237.5v-124zM528 309v124q0 273 -212 273t-212 -273v-124q0 -273 212 -273t212 273zM469 856q0 -16 -20 -16h-266q-20 0 -20 16v11q0 15 20 15h266q20 0 20 -15
v-11z" />
    <glyph glyph-name="omacron" unicode="&#x14d;" horiz-adv-x="522" 
d="M467 233q0 -115 -52.5 -177t-153.5 -62t-153.5 62t-52.5 177v70q0 115 52.5 177t153.5 62t153.5 -62t52.5 -177v-70zM423 233v70q0 200 -162 200t-162 -200v-70q0 -200 162 -200t162 200zM414 701q0 -16 -20 -16h-266q-20 0 -20 16v11q0 15 20 15h266q20 0 20 -15v-11z
" />
    <glyph glyph-name="Obreve" unicode="&#x14e;" horiz-adv-x="632" 
d="M572 309q0 -160 -69 -237.5t-187 -77.5t-187 77.5t-69 237.5v124q0 160 69 237.5t187 77.5t187 -77.5t69 -237.5v-124zM528 309v124q0 273 -212 273t-212 -273v-124q0 -273 212 -273t212 273zM317 794q64 0 103 39.5t39 110.5q0 10 -10 10h-22q-8 0 -8 -10q0 -61 -29 -86
t-73 -25t-73 25t-29 86q0 10 -8 10h-22q-10 0 -10 -10q0 -71 39 -110.5t103 -39.5z" />
    <glyph glyph-name="obreve" unicode="&#x14f;" horiz-adv-x="522" 
d="M467 233q0 -115 -52.5 -177t-153.5 -62t-153.5 62t-52.5 177v70q0 115 52.5 177t153.5 62t153.5 -62t52.5 -177v-70zM423 233v70q0 200 -162 200t-162 -200v-70q0 -200 162 -200t162 200zM263 618q64 0 103 39.5t39 110.5q0 10 -10 10h-22q-8 0 -8 -10q0 -61 -29 -86
t-73 -25t-73 25t-29 86q0 10 -8 10h-22q-10 0 -10 -10q0 -71 39 -110.5t103 -39.5z" />
    <glyph glyph-name="Ohungarumlaut" unicode="&#x150;" horiz-adv-x="632" 
d="M572 309q0 -160 -69 -237.5t-187 -77.5t-187 77.5t-69 237.5v124q0 160 69 237.5t187 77.5t187 -77.5t69 -237.5v-124zM528 309v124q0 273 -212 273t-212 -273v-124q0 -273 212 -273t212 273zM503 947q0 -4 -4 -8l-107 -128q-14 -17 -22 -17h-22q-9 0 -9 7q0 6 4 10
l100 128q12 15 23 15h26q11 0 11 -7zM363 947q0 -4 -4 -8l-107 -128q-14 -17 -22 -17h-22q-9 0 -9 7q0 6 4 10l100 128q12 15 23 15h26q11 0 11 -7z" />
    <glyph glyph-name="ohungarumlaut" unicode="&#x151;" horiz-adv-x="522" 
d="M467 233q0 -115 -52.5 -177t-153.5 -62t-153.5 62t-52.5 177v70q0 115 52.5 177t153.5 62t153.5 -62t52.5 -177v-70zM423 233v70q0 200 -162 200t-162 -200v-70q0 -200 162 -200t162 200zM448 771q0 -4 -4 -8l-107 -128q-14 -17 -22 -17h-22q-9 0 -9 7q0 6 4 10l100 128
q12 15 23 15h26q11 0 11 -7zM308 771q0 -4 -4 -8l-107 -128q-14 -17 -22 -17h-22q-9 0 -9 7q0 6 4 10l100 128q12 15 23 15h26q11 0 11 -7z" />
    <glyph glyph-name="OE" unicode="&#x152;" horiz-adv-x="982" 
d="M927 17q0 -17 -19 -17h-296q-43 0 -63 19.5t-20 61.5v19q-71 -106 -213 -106q-111 0 -183.5 71t-72.5 194v224q0 124 72.5 194.5t183.5 70.5q143 0 213 -105v18q0 43 19.5 62.5t63.5 19.5h296q19 0 19 -17v-8q0 -16 -19 -16h-296q-24 0 -31.5 -9t-7.5 -32v-250h335
q19 0 19 -16v-10q0 -17 -19 -17h-335v-287q0 -22 7.5 -31t31.5 -9h296q19 0 19 -16v-8zM529 252v7v224v7v3q-3 100 -64 156.5t-149 56.5q-90 0 -151 -59.5t-61 -163.5v-224q0 -104 61 -163.5t151 -59.5q88 0 149 56.5t64 156.5v3z" />
    <glyph glyph-name="oe" unicode="&#x153;" horiz-adv-x="890" 
d="M823 277q0 -8 -5.5 -13.5t-13.5 -5.5h-327v-71q0 -82 44.5 -118t131.5 -36q58 0 142 10h4q17 0 17 -14v-6q0 -16 -19 -19q-84 -10 -147 -10q-155 0 -199 99q-53 -99 -179 -99q-97 0 -151 59.5t-54 144.5v140q0 85 54 144.5t151 59.5q128 0 181 -101q46 101 177 101
q98 0 145.5 -54.5t47.5 -139.5v-71zM779 298v50q0 66 -36 110.5t-113 44.5q-78 0 -115.5 -45t-37.5 -110v-50h302zM434 198v140q0 68 -42.5 116.5t-119.5 48.5t-119.5 -48.5t-42.5 -116.5v-140q0 -68 42.5 -116.5t119.5 -48.5t119.5 48.5t42.5 116.5z" />
    <glyph glyph-name="Racute" unicode="&#x154;" horiz-adv-x="598" 
d="M548 29q7 -10 4 -19.5t-15 -9.5h-13q-8 0 -15 9l-213 326q-4 -1 -22.5 -0.5t-20.5 0.5l-129 1v-317q0 -8 -5 -13.5t-12 -5.5h-10q-7 0 -12 5.5t-5 13.5v706q0 7 5 12.5t12 6.5q70 4 156 4q140 0 206 -46.5t66 -157.5v-5q0 -89 -44 -136.5t-135 -62.5zM481 539v5
q0 90 -55.5 126t-172.5 36q-89 0 -129 -4v-324q13 0 63.5 -0.5t65.5 -0.5q121 0 174.5 34.5t53.5 127.5zM416 947q0 -4 -4 -8l-107 -128q-14 -17 -22 -17h-22q-9 0 -9 7q0 6 4 10l100 128q12 15 23 15h26q11 0 11 -7z" />
    <glyph glyph-name="racute" unicode="&#x155;" horiz-adv-x="309" 
d="M280 519q0 -16 -27 -16q-66 0 -139 -46v-438q0 -7 -6 -13t-13 -6h-6q-7 0 -13 6t-6 13v498q0 20 18 20h8q18 0 18 -20v-21q71 46 139 46q27 0 27 -15v-8zM271 771q0 -4 -4 -8l-107 -128q-14 -17 -22 -17h-22q-9 0 -9 7q0 6 4 10l100 128q12 15 23 15h26q11 0 11 -7z" />
    <glyph glyph-name="Rcommaaccent" unicode="&#x156;" horiz-adv-x="598" 
d="M548 29q7 -10 4 -19.5t-15 -9.5h-13q-8 0 -15 9l-213 326q-4 -1 -22.5 -0.5t-20.5 0.5l-129 1v-317q0 -8 -5 -13.5t-12 -5.5h-10q-7 0 -12 5.5t-5 13.5v706q0 7 5 12.5t12 6.5q70 4 156 4q140 0 206 -46.5t66 -157.5v-5q0 -89 -44 -136.5t-135 -62.5zM481 539v5
q0 90 -55.5 126t-172.5 36q-89 0 -129 -4v-324q13 0 63.5 -0.5t65.5 -0.5q121 0 174.5 34.5t53.5 127.5zM294 -55h24q12 0 12 -10q0 -6 -2 -9l-56 -102q-10 -19 -24 -19h-9q-9 0 -9 9q0 5 1 7l43 105q7 19 20 19z" />
    <glyph glyph-name="rcommaaccent" unicode="&#x157;" horiz-adv-x="309" 
d="M280 519q0 -16 -27 -16q-66 0 -139 -46v-438q0 -7 -6 -13t-13 -6h-6q-7 0 -13 6t-6 13v498q0 20 18 20h8q18 0 18 -20v-21q71 46 139 46q27 0 27 -15v-8zM168 -55h24q12 0 12 -10q0 -6 -2 -9l-56 -102q-10 -19 -24 -19h-9q-9 0 -9 9q0 5 1 7l43 105q7 19 20 19z" />
    <glyph glyph-name="Rcaron" unicode="&#x158;" horiz-adv-x="598" 
d="M548 29q7 -10 4 -19.5t-15 -9.5h-13q-8 0 -15 9l-213 326q-4 -1 -22.5 -0.5t-20.5 0.5l-129 1v-317q0 -8 -5 -13.5t-12 -5.5h-10q-7 0 -12 5.5t-5 13.5v706q0 7 5 12.5t12 6.5q70 4 156 4q140 0 206 -46.5t66 -157.5v-5q0 -89 -44 -136.5t-135 -62.5zM481 539v5
q0 90 -55.5 126t-172.5 36q-89 0 -129 -4v-324q13 0 63.5 -0.5t65.5 -0.5q121 0 174.5 34.5t53.5 127.5zM433 947q0 -6 -4 -10l-100 -128q-12 -15 -23 -15h-40q-11 0 -23 15l-100 128q-4 4 -4 10q0 7 9 7h22q8 0 22 -17l94 -113l94 113q14 17 22 17h22q9 0 9 -7z" />
    <glyph glyph-name="rcaron" unicode="&#x159;" horiz-adv-x="309" 
d="M280 519q0 -16 -27 -16q-66 0 -139 -46v-438q0 -7 -6 -13t-13 -6h-6q-7 0 -13 6t-6 13v498q0 20 18 20h8q18 0 18 -20v-21q71 46 139 46q27 0 27 -15v-8zM301 771q0 -6 -4 -10l-100 -128q-12 -15 -23 -15h-40q-11 0 -23 15l-100 128q-4 4 -4 10q0 7 9 7h22q8 0 22 -17
l94 -113l94 113q14 17 22 17h22q9 0 9 -7z" />
    <glyph glyph-name="Sacute" unicode="&#x15a;" horiz-adv-x="530" 
d="M382 947q0 -4 -4 -8l-107 -128q-14 -17 -22 -17h-22q-9 0 -9 7q0 6 4 10l100 128q12 15 23 15h26q11 0 11 -7zM475 185q0 -191 -232 -191q-84 0 -146 10q-27 4 -27 21v4q0 19 23 17q80 -10 150 -10q105 0 145.5 39.5t40.5 109.5q0 19 -3 33t-13 28.5t-18.5 24t-31.5 26
t-37.5 26t-50.5 31.5l-63 39q-82 50 -119.5 92t-37.5 108q0 44 19.5 75.5t54 48.5t74 24t86.5 7q74 0 139 -9q27 -3 27 -20v-5q0 -19 -31 -16q-72 8 -136 8q-188 0 -188 -113q0 -50 30.5 -83t104.5 -78l64 -39q98 -59 137 -101t39 -107z" />
    <glyph glyph-name="sacute" unicode="&#x15b;" horiz-adv-x="440" 
d="M390 133q0 -139 -173 -139q-73 0 -145 14q-22 5 -22 16v11q0 18 22 14q96 -16 147 -16q60 0 93.5 21.5t33.5 78.5q0 31 -21.5 52.5t-84.5 56.5l-64 35q-64 35 -92.5 65t-28.5 77q0 65 43 94t110 29q66 0 143 -9q21 -3 21 -17v-8q0 -18 -21 -16q-95 11 -139 11
q-55 0 -84 -17.5t-29 -66.5q0 -31 23 -53t74 -51l67 -37q69 -38 98 -68.5t29 -76.5zM337 771q0 -4 -4 -8l-107 -128q-14 -17 -22 -17h-22q-9 0 -9 7q0 6 4 10l100 128q12 15 23 15h26q11 0 11 -7z" />
    <glyph glyph-name="Scircumflex" unicode="&#x15c;" horiz-adv-x="530" 
d="M408 801q0 -7 -9 -7h-22q-8 0 -22 17l-94 113l-94 -113q-14 -17 -22 -17h-22q-9 0 -9 7q0 6 4 10l100 128q12 15 23 15h40q11 0 23 -15l100 -128q4 -4 4 -10zM475 185q0 -191 -232 -191q-84 0 -146 10q-27 4 -27 21v4q0 19 23 17q80 -10 150 -10q105 0 145.5 39.5
t40.5 109.5q0 19 -3 33t-13 28.5t-18.5 24t-31.5 26t-37.5 26t-50.5 31.5l-63 39q-82 50 -119.5 92t-37.5 108q0 44 19.5 75.5t54 48.5t74 24t86.5 7q74 0 139 -9q27 -3 27 -20v-5q0 -19 -31 -16q-72 8 -136 8q-188 0 -188 -113q0 -50 30.5 -83t104.5 -78l64 -39
q98 -59 137 -101t39 -107z" />
    <glyph glyph-name="scircumflex" unicode="&#x15d;" horiz-adv-x="440" 
d="M390 133q0 -139 -173 -139q-73 0 -145 14q-22 5 -22 16v11q0 18 22 14q96 -16 147 -16q60 0 93.5 21.5t33.5 78.5q0 31 -21.5 52.5t-84.5 56.5l-64 35q-64 35 -92.5 65t-28.5 77q0 65 43 94t110 29q66 0 143 -9q21 -3 21 -17v-8q0 -18 -21 -16q-95 11 -139 11
q-55 0 -84 -17.5t-29 -66.5q0 -31 23 -53t74 -51l67 -37q69 -38 98 -68.5t29 -76.5zM357 625q0 -7 -9 -7h-22q-8 0 -22 17l-94 113l-94 -113q-14 -17 -22 -17h-22q-9 0 -9 7q0 6 4 10l100 128q12 15 23 15h40q11 0 23 -15l100 -128q4 -4 4 -10z" />
    <glyph glyph-name="uni015E" unicode="&#x15e;" horiz-adv-x="530" 
d="M284 -62q0 -4 -4 -8l-91 -108q-14 -17 -22 -17h-22q-9 0 -9 7q0 6 4 10l84 108q12 15 23 15h26q11 0 11 -7zM475 185q0 -191 -232 -191q-84 0 -146 10q-27 4 -27 21v4q0 19 23 17q80 -10 150 -10q105 0 145.5 39.5t40.5 109.5q0 19 -3 33t-13 28.5t-18.5 24t-31.5 26
t-37.5 26t-50.5 31.5l-63 39q-82 50 -119.5 92t-37.5 108q0 44 19.5 75.5t54 48.5t74 24t86.5 7q74 0 139 -9q27 -3 27 -20v-5q0 -19 -31 -16q-72 8 -136 8q-188 0 -188 -113q0 -50 30.5 -83t104.5 -78l64 -39q98 -59 137 -101t39 -107z" />
    <glyph glyph-name="uni015F" unicode="&#x15f;" horiz-adv-x="440" 
d="M390 133q0 -139 -173 -139q-73 0 -145 14q-22 5 -22 16v11q0 18 22 14q96 -16 147 -16q60 0 93.5 21.5t33.5 78.5q0 31 -21.5 52.5t-84.5 56.5l-64 35q-64 35 -92.5 65t-28.5 77q0 65 43 94t110 29q66 0 143 -9q21 -3 21 -17v-8q0 -18 -21 -16q-95 11 -139 11
q-55 0 -84 -17.5t-29 -66.5q0 -31 23 -53t74 -51l67 -37q69 -38 98 -68.5t29 -76.5zM249 -62q0 -4 -4 -8l-91 -108q-14 -17 -22 -17h-22q-9 0 -9 7q0 6 4 10l84 108q12 15 23 15h26q11 0 11 -7z" />
    <glyph glyph-name="Scaron" unicode="&#x160;" horiz-adv-x="530" 
d="M475 185q0 -191 -232 -191q-84 0 -146 10q-27 4 -27 21v4q0 19 23 17q80 -10 150 -10q105 0 145.5 39.5t40.5 109.5q0 19 -3 33t-13 28.5t-18.5 24t-31.5 26t-37.5 26t-50.5 31.5l-63 39q-82 50 -119.5 92t-37.5 108q0 44 19.5 75.5t54 48.5t74 24t86.5 7q74 0 139 -9
q27 -3 27 -20v-5q0 -19 -31 -16q-72 8 -136 8q-188 0 -188 -113q0 -50 30.5 -83t104.5 -78l64 -39q98 -59 137 -101t39 -107zM412 947q0 -6 -4 -10l-100 -128q-12 -15 -23 -15h-40q-11 0 -23 15l-100 128q-4 4 -4 10q0 7 9 7h22q8 0 22 -17l94 -113l94 113q14 17 22 17h22
q9 0 9 -7z" />
    <glyph glyph-name="scaron" unicode="&#x161;" horiz-adv-x="440" 
d="M390 133q0 -139 -173 -139q-73 0 -145 14l-12 3t-7 4.5t-3 8.5v11q0 18 22 14q96 -16 147 -16q60 0 93.5 21.5t33.5 78.5q0 31 -21.5 52.5t-84.5 56.5l-64 35q-64 35 -92.5 65t-28.5 77q0 65 43 94t110 29q66 0 143 -9q8 -1 12 -2.5t6.5 -5t2.5 -9.5v-8q0 -12 -4.5 -15
t-16.5 -1q-95 11 -139 11q-55 0 -84 -17.5t-29 -66.5q0 -31 23 -53t74 -51l67 -37q69 -38 98 -68.5t29 -76.5zM367 771q0 -6 -4 -10l-100 -128q-12 -15 -23 -15h-40q-11 0 -23 15l-100 128q-4 4 -4 10q0 7 9 7h22q8 0 22 -17l94 -113l94 113q14 17 22 17h22q9 0 9 -7z" />
    <glyph glyph-name="Tcommaaccent" unicode="&#x162;" horiz-adv-x="571" 
d="M541 717q0 -15 -19 -15h-214v-683q0 -8 -5 -13.5t-12 -5.5h-10q-7 0 -12 5.5t-5 13.5v683h-215q-19 0 -19 15v9q0 17 19 17h473q19 0 19 -17v-9zM279 -55h24q12 0 12 -10q0 -6 -2 -9l-56 -102q-9 -19 -24 -19h-9q-9 0 -9 9q0 5 1 7l43 105q7 19 20 19z" />
    <glyph glyph-name="tcommaaccent" unicode="&#x163;" horiz-adv-x="380" 
d="M340 13q0 -14 -17 -16q-23 -3 -52 -3q-57 0 -85 23.5t-28 84.5v394h-99q-19 0 -19 16v10q0 15 19 15h99v103q0 19 17 19h11q16 0 16 -19v-103h119q19 0 19 -15v-10q0 -16 -19 -16h-119v-394q0 -42 16 -55.5t53 -13.5h48q21 0 21 -14v-6zM204 -55h24q12 0 12 -10
q0 -6 -2 -9l-56 -102q-10 -19 -24 -19h-9q-9 0 -9 9q0 5 1 7l43 105q7 19 20 19z" />
    <glyph glyph-name="Tcaron" unicode="&#x164;" horiz-adv-x="571" 
d="M541 717q0 -15 -19 -15h-214v-683q0 -8 -5 -13.5t-12 -5.5h-10q-7 0 -12 5.5t-5 13.5v683h-215q-19 0 -19 15v9q0 17 19 17h473q19 0 19 -17v-9zM433 947q0 -6 -4 -10l-100 -128q-12 -15 -23 -15h-40q-11 0 -23 15l-100 128q-4 4 -4 10q0 7 9 7h22q8 0 22 -17l94 -113
l94 113q14 17 22 17h22q9 0 9 -7z" />
    <glyph glyph-name="tcaron" unicode="&#x165;" horiz-adv-x="502" 
d="M340 13q0 -14 -17 -16q-23 -3 -52 -3q-57 0 -85 23.5t-28 84.5v394h-99q-19 0 -19 16v10q0 15 19 15h99v103q0 19 17 19h11q16 0 16 -19v-103h119q19 0 19 -15v-10q0 -16 -19 -16h-119v-394q0 -42 16 -55.5t53 -13.5h48q21 0 21 -14v-6zM410 533q-10 0 -10 10q0 3 2 9
l61 172q7 19 20 19h19q12 0 12 -10q0 -3 -2 -9l-68 -172q-7 -19 -19 -19h-15z" />
    <glyph glyph-name="Tbar" unicode="&#x166;" horiz-adv-x="571" 
d="M522 497h-214v-478q0 -8 -5 -13.5t-12 -5.5h-10q-7 0 -12 5.5t-5 13.5v478h-215q-19 0 -19 15v9q0 17 19 17h215v164h-215q-19 0 -19 15v9q0 17 19 17h473q19 0 19 -17v-9q0 -15 -19 -15h-214v-164h214q19 0 19 -17v-9q0 -15 -19 -15z" />
    <glyph glyph-name="tbar" unicode="&#x167;" horiz-adv-x="380" 
d="M321 356h-119v-254q0 -42 16 -55.5t53 -13.5h48q21 0 21 -14v-6q0 -14 -17 -16q-23 -3 -52 -3q-57 0 -85 23.5t-28 84.5v254h-99q-19 0 -19 16v10q0 15 19 15h99v99h-99q-19 0 -19 16v10q0 15 19 15h99v103q0 19 17 19h11q16 0 16 -19v-103h119q19 0 19 -15v-10
q0 -16 -19 -16h-119v-99h119q19 0 19 -15v-10q0 -16 -19 -16z" />
    <glyph glyph-name="Utilde" unicode="&#x168;" horiz-adv-x="633" 
d="M553 264q0 -130 -58.5 -200t-177.5 -70q-120 0 -178.5 70t-58.5 200v460q0 8 5 13.5t12 5.5h10q7 0 12 -5.5t5 -13.5v-460q0 -113 45.5 -171t147.5 -58t147 58t45 171v460q0 8 5 13.5t12 5.5h10q7 0 12 -5.5t5 -13.5v-460zM477 879q0 -45 -20.5 -68t-57.5 -23
q-40 0 -67 26l-48 47q-28 28 -48 28q-41 0 -41 -53v-26q0 -16 -10 -16h-17q-11 0 -11 16v26q0 45 21 68t58 23q39 0 66 -26l48 -47q28 -28 49 -28q40 0 40 53v26q0 16 10 16h17q11 0 11 -16v-26z" />
    <glyph glyph-name="utilde" unicode="&#x169;" horiz-adv-x="521" 
d="M70 518q0 8 5.5 13.5t13.5 5.5h7q7 0 12.5 -5.5t5.5 -13.5v-332q0 -152 135 -152q72 1 158 41v443q0 8 5.5 13.5t13.5 5.5h6q8 0 13.5 -5.5t5.5 -13.5v-498q0 -20 -18 -20h-8q-18 0 -18 20v16q-85 -41 -161 -41q-78 0 -127 46.5t-49 144.5v332zM425 703q0 -45 -20.5 -68
t-57.5 -23q-40 0 -67 26l-48 47q-28 28 -48 28q-41 0 -41 -53v-26q0 -16 -10 -16h-17q-11 0 -11 16v26q0 45 21 68t58 23q39 0 66 -26l48 -47q28 -28 49 -28q40 0 40 53v26q0 16 10 16h17q11 0 11 -16v-26z" />
    <glyph glyph-name="Umacron" unicode="&#x16a;" horiz-adv-x="633" 
d="M553 264q0 -130 -58.5 -200t-177.5 -70q-120 0 -178.5 70t-58.5 200v460q0 8 5 13.5t12 5.5h10q7 0 12 -5.5t5 -13.5v-460q0 -113 45.5 -171t147.5 -58t147 58t45 171v460q0 8 5 13.5t12 5.5h10q7 0 12 -5.5t5 -13.5v-460zM470 857q0 -16 -20 -16h-266q-20 0 -20 16v11
q0 15 20 15h266q20 0 20 -15v-11z" />
    <glyph glyph-name="umacron" unicode="&#x16b;" horiz-adv-x="521" 
d="M70 518q0 8 5.5 13.5t13.5 5.5h7q7 0 12.5 -5.5t5.5 -13.5v-332q0 -152 135 -152q72 1 158 41v443q0 8 5.5 13.5t13.5 5.5h6q8 0 13.5 -5.5t5.5 -13.5v-498q0 -20 -18 -20h-8q-18 0 -18 20v16q-85 -41 -161 -41q-78 0 -127 46.5t-49 144.5v332zM414 702q0 -16 -20 -16
h-266q-20 0 -20 16v11q0 15 20 15h266q20 0 20 -15v-11z" />
    <glyph glyph-name="Ubreve" unicode="&#x16c;" horiz-adv-x="633" 
d="M553 264q0 -130 -58.5 -200t-177.5 -70q-120 0 -178.5 70t-58.5 200v460q0 8 5 13.5t12 5.5h10q7 0 12 -5.5t5 -13.5v-460q0 -113 45.5 -171t147.5 -58t147 58t45 171v460q0 8 5 13.5t12 5.5h10q7 0 12 -5.5t5 -13.5v-460zM317 793q64 0 103 39.5t39 110.5q0 10 -10 10
h-22q-8 0 -8 -10q0 -61 -29 -86t-73 -25t-73 25t-29 86q0 10 -8 10h-22q-10 0 -10 -10q0 -71 39 -110.5t103 -39.5z" />
    <glyph glyph-name="ubreve" unicode="&#x16d;" horiz-adv-x="521" 
d="M70 518q0 8 5.5 13.5t13.5 5.5h7q7 0 12.5 -5.5t5.5 -13.5v-332q0 -152 135 -152q72 1 158 41v443q0 8 5.5 13.5t13.5 5.5h6q8 0 13.5 -5.5t5.5 -13.5v-498q0 -20 -18 -20h-8q-18 0 -18 20v16q-85 -41 -161 -41q-78 0 -127 46.5t-49 144.5v332zM263 618q64 0 103 39.5
t39 110.5q0 10 -10 10h-22q-8 0 -8 -10q0 -61 -29 -86t-73 -25t-73 25t-29 86q0 10 -8 10h-22q-10 0 -10 -10q0 -71 39 -110.5t103 -39.5z" />
    <glyph glyph-name="Uring" unicode="&#x16e;" horiz-adv-x="633" 
d="M553 264q0 -130 -58.5 -200t-177.5 -70q-120 0 -178.5 70t-58.5 200v460q0 8 5 13.5t12 5.5h10q7 0 12 -5.5t5 -13.5v-460q0 -113 45.5 -171t147.5 -58t147 58t45 171v460q0 8 5 13.5t12 5.5h10q7 0 12 -5.5t5 -13.5v-460zM410 878q0 -38 -27.5 -65.5t-65.5 -27.5
t-65.5 27.5t-27.5 65.5t27.5 65.5t65.5 27.5t65.5 -27.5t27.5 -65.5zM375 878q0 24 -17 41t-41 17t-40.5 -17t-16.5 -41t16.5 -41t40.5 -17t41 17t17 41z" />
    <glyph glyph-name="uring" unicode="&#x16f;" horiz-adv-x="521" 
d="M70 518q0 8 5.5 13.5t13.5 5.5h7q7 0 12.5 -5.5t5.5 -13.5v-332q0 -152 135 -152q72 1 158 41v443q0 8 5.5 13.5t13.5 5.5h6q8 0 13.5 -5.5t5.5 -13.5v-498q0 -20 -18 -20h-8q-18 0 -18 20v16q-85 -41 -161 -41q-78 0 -127 46.5t-49 144.5v332zM354 698
q0 -38 -27.5 -65.5t-65.5 -27.5t-65.5 27.5t-27.5 65.5t27.5 65.5t65.5 27.5t65.5 -27.5t27.5 -65.5zM319 698q0 24 -17 41t-41 17t-40.5 -17t-16.5 -41t16.5 -41t40.5 -17t41 17t17 41z" />
    <glyph glyph-name="Uhungarumlaut" unicode="&#x170;" horiz-adv-x="633" 
d="M553 264q0 -130 -58.5 -200t-177.5 -70q-120 0 -178.5 70t-58.5 200v460q0 8 5 13.5t12 5.5h10q7 0 12 -5.5t5 -13.5v-460q0 -113 45.5 -171t147.5 -58t147 58t45 171v460q0 8 5 13.5t12 5.5h10q7 0 12 -5.5t5 -13.5v-460zM504 946q0 -4 -4 -8l-107 -128q-14 -17 -22 -17
h-22q-9 0 -9 7q0 6 4 10l100 128q12 15 23 15h26q11 0 11 -7zM364 946q0 -4 -4 -8l-107 -128q-14 -17 -22 -17h-22q-9 0 -9 7q0 6 4 10l100 128q12 15 23 15h26q11 0 11 -7z" />
    <glyph glyph-name="uhungarumlaut" unicode="&#x171;" horiz-adv-x="521" 
d="M70 518q0 8 5.5 13.5t13.5 5.5h7q7 0 12.5 -5.5t5.5 -13.5v-332q0 -152 135 -152q72 1 158 41v443q0 8 5.5 13.5t13.5 5.5h6q8 0 13.5 -5.5t5.5 -13.5v-498q0 -20 -18 -20h-8q-18 0 -18 20v16q-85 -41 -161 -41q-78 0 -127 46.5t-49 144.5v332zM448 771q0 -4 -4 -8
l-107 -128q-14 -17 -22 -17h-22q-9 0 -9 7q0 6 4 10l100 128q12 15 23 15h26q11 0 11 -7zM308 771q0 -4 -4 -8l-107 -128q-14 -17 -22 -17h-22q-9 0 -9 7q0 6 4 10l100 128q12 15 23 15h26q11 0 11 -7z" />
    <glyph glyph-name="Uogonek" unicode="&#x172;" horiz-adv-x="633" 
d="M553 264q-2 -182 -114 -245l-89 -50q-48 -27 -63.5 -42t-15.5 -36q0 -53 84 -53q33 0 84 12q13 3 13 -7v-10q0 -10 -11 -14q-42 -14 -86 -14q-64 0 -92 25t-28 60q0 33 18.5 53t65.5 47l7 4h-9q-120 0 -178.5 70t-58.5 200v460q0 8 5 13.5t12 5.5h10q7 0 12 -5.5t5 -13.5
v-460q0 -113 45.5 -171t147.5 -58t147 58t45 171v460q0 8 5 13.5t12 5.5h10q7 0 12 -5.5t5 -13.5v-460z" />
    <glyph glyph-name="uogonek" unicode="&#x173;" horiz-adv-x="521" 
d="M407 21v15q-85 -41 -161 -41q-78 0 -127 46.5t-49 144.5v332q0 8 5.5 13.5t13.5 5.5h7q7 0 12.5 -5.5t5.5 -13.5v-332q0 -80 36.5 -116t96.5 -36h2q69 0 158 41v443q0 8 5.5 13.5t13.5 5.5h6q8 0 13.5 -5.5t5.5 -13.5v-498q0 -14 -9 -18l-59 -33q-48 -27 -63.5 -42
t-15.5 -36q0 -53 69 -53q32 0 68 12q19 5 19 -10v-6q0 -11 -15 -17q-33 -12 -72 -12q-105 0 -105 85q0 33 18.5 53t65.5 47z" />
    <glyph glyph-name="Wcircumflex" unicode="&#x174;" horiz-adv-x="788" 
d="M743 720l-123 -679q-9 -47 -48 -47q-35 0 -48 45l-122 387q-4 12 -8 12t-8 -12l-122 -387q-13 -45 -48 -45q-39 0 -48 47l-123 679q-2 9 2.5 16t13.5 7h10q15 0 18 -16l121 -677q3 -15 6 -15q4 0 8 15l125 389q12 39 45 39t45 -39l125 -389q4 -15 8 -15q3 0 6 15l121 677
q3 16 18 16h10q9 0 13.5 -7t2.5 -16zM541 801q0 -7 -9 -7h-22q-8 0 -22 17l-94 113l-94 -113q-14 -17 -22 -17h-22q-9 0 -9 7q0 6 4 10l100 128q12 15 23 15h40q11 0 23 -15l100 -128q4 -4 4 -10z" />
    <glyph glyph-name="wcircumflex" unicode="&#x175;" horiz-adv-x="752" 
d="M702 513l-110 -465q-7 -29 -18 -41.5t-34 -12.5q-22 0 -32.5 13t-18.5 44l-106 380q-1 5 -2.5 7t-2 2h-2.5h-2.5t-2 -2t-2.5 -7l-106 -380q-8 -31 -18.5 -44t-32.5 -13q-23 0 -34 12.5t-18 41.5l-110 465q-2 9 3 16.5t15 7.5h6q12 0 16 -14l108 -465q3 -13 5.5 -18.5
t4 -6t4.5 -0.5q6 0 13 24l108 386q10 36 43 36t43 -36l108 -386q7 -24 13 -24q3 0 4.5 0.5t4 6t5.5 18.5l108 465q4 14 16 14h6q10 0 15 -7.5t3 -16.5zM522 625q0 -7 -9 -7h-22q-8 0 -22 17l-94 113l-94 -113q-14 -17 -22 -17h-22q-9 0 -9 7q0 6 4 10l100 128q12 15 23 15
h40q11 0 23 -15l100 -128q4 -4 4 -10z" />
    <glyph glyph-name="Ycircumflex" unicode="&#x176;" horiz-adv-x="551" 
d="M502 716l-158 -349q-22 -48 -47 -58v-290q0 -8 -5 -13.5t-12 -5.5h-10q-7 0 -12 5.5t-5 13.5v290q-25 10 -47 58l-158 349q-12 27 14 27h10q10 0 16 -12l157 -350q10 -22 15.5 -28.5t14.5 -6.5t14.5 6.5t15.5 28.5l157 350q6 12 16 12h10q26 0 14 -27zM422 801
q0 -7 -9 -7h-22q-8 0 -22 17l-94 113l-94 -113q-14 -17 -22 -17h-22q-9 0 -9 7q0 6 4 10l100 128q12 15 23 15h40q11 0 23 -15l100 -128q4 -4 4 -10z" />
    <glyph glyph-name="ycircumflex" unicode="&#x177;" horiz-adv-x="486" 
d="M446 512l-164 -568q-23 -80 -57.5 -109.5t-104.5 -29.5q-26 0 -62 6q-20 3 -20 14v11q0 17 21 14q45 -6 65 -6q54 0 77.5 21.5t41.5 87.5l13 47h-14q-25 0 -38 11t-23 45l-135 457q-3 10 1.5 17t14.5 7h9q12 0 16 -14l135 -460q6 -22 23 -22h23l137 483q4 13 18 13h9
q9 0 13 -7.5t1 -17.5zM393 625q0 -7 -9 -7h-22q-8 0 -22 17l-94 113l-94 -113q-14 -17 -22 -17h-22q-9 0 -9 7q0 6 4 10l100 128q12 15 23 15h40q11 0 23 -15l100 -128q4 -4 4 -10z" />
    <glyph glyph-name="Ydieresis" unicode="&#x178;" horiz-adv-x="551" 
d="M502 716l-158 -349q-22 -48 -47 -58v-290q0 -8 -5 -13.5t-12 -5.5h-10q-7 0 -12 5.5t-5 13.5v290q-25 10 -47 58l-158 349q-12 27 14 27h10q10 0 16 -12l157 -350q10 -22 15.5 -28.5t14.5 -6.5t14.5 6.5t15.5 28.5l157 350q6 12 16 12h10q26 0 14 -27zM372 833
q0 -8 -5.5 -13.5t-13.5 -5.5h-6q-8 0 -13.5 5.5t-5.5 13.5v74q0 7 6 13t13 6h6q7 0 13 -6t6 -13v-74zM222 833q0 -8 -5.5 -13.5t-13.5 -5.5h-6q-8 0 -13.5 5.5t-5.5 13.5v74q0 7 6 13t13 6h6q7 0 13 -6t6 -13v-74z" />
    <glyph glyph-name="Zacute" unicode="&#x179;" horiz-adv-x="595" 
d="M535 16q0 -16 -21 -16h-392q-54 0 -54 43q0 19 11 36l379 610q2 3 2 7q0 6 -8 6h-362q-21 0 -21 15v10q0 16 21 16h362q29 0 41 -8q17 -10 17 -32q0 -15 -11 -34l-382 -617q-2 -4 -2 -7q0 -4 7 -4h392q21 0 21 -15v-10zM415 947q0 -4 -4 -8l-107 -128q-14 -17 -22 -17
h-22q-9 0 -9 7q0 6 4 10l100 128q12 15 23 15h26q11 0 11 -7z" />
    <glyph glyph-name="zacute" unicode="&#x17a;" horiz-adv-x="446" 
d="M406 16q0 -16 -20 -16h-290q-27 0 -41.5 11.5t-14.5 29.5q0 22 12 37l299 399q4 6 4 10q0 9 -14 9h-263q-20 0 -20 15v10q0 16 20 16h264q24 0 40 -12t16 -31q0 -23 -16 -45l-290 -389q-6 -10 -6 -12q0 -7 10 -7h290q20 0 20 -15v-10zM360 771q0 -4 -4 -8l-107 -128
q-14 -17 -22 -17h-22q-9 0 -9 7q0 6 4 10l100 128q12 15 23 15h26q11 0 11 -7z" />
    <glyph glyph-name="Zdotaccent" unicode="&#x17b;" horiz-adv-x="595" 
d="M535 16q0 -16 -21 -16h-392q-54 0 -54 43q0 19 11 36l379 610q2 3 2 7q0 6 -8 6h-362q-21 0 -21 15v10q0 16 21 16h362q29 0 41 -8q17 -10 17 -32q0 -15 -11 -34l-382 -617q-2 -4 -2 -7q0 -4 7 -4h392q21 0 21 -15v-10zM320 833q0 -8 -5.5 -13.5t-13.5 -5.5h-6
q-8 0 -13.5 5.5t-5.5 13.5v74q0 7 6 13t13 6h6q7 0 13 -6t6 -13v-74z" />
    <glyph glyph-name="zdotaccent" unicode="&#x17c;" horiz-adv-x="446" 
d="M406 16q0 -16 -20 -16h-290q-27 0 -41.5 11.5t-14.5 29.5q0 22 12 37l299 399q4 6 4 10q0 9 -14 9h-263q-20 0 -20 15v10q0 16 20 16h264q24 0 40 -12t16 -31q0 -23 -16 -45l-290 -389q-6 -10 -6 -12q0 -7 10 -7h290q20 0 20 -15v-10zM245 660q0 -8 -5.5 -13.5
t-13.5 -5.5h-6q-8 0 -13.5 5.5t-5.5 13.5v74q0 8 5.5 13.5t13.5 5.5h6q8 0 13.5 -5.5t5.5 -13.5v-74z" />
    <glyph glyph-name="Zcaron" unicode="&#x17d;" horiz-adv-x="595" 
d="M535 16q0 -16 -21 -16h-392q-54 0 -54 43q0 19 11 36l379 610q2 3 2 7q0 6 -8 6h-362q-21 0 -21 15v10q0 16 21 16h362q29 0 41 -8q17 -10 17 -32q0 -15 -11 -34l-382 -617q-2 -4 -2 -7q0 -4 7 -4h392q21 0 21 -15v-10zM444 947q0 -6 -4 -10l-100 -128q-12 -15 -23 -15
h-40q-11 0 -23 15l-100 128q-4 4 -4 10q0 7 9 7h22q8 0 22 -17l94 -113l94 113q14 17 22 17h22q9 0 9 -7z" />
    <glyph glyph-name="zcaron" unicode="&#x17e;" horiz-adv-x="446" 
d="M406 16q0 -16 -20 -16h-286q-60 0 -60 41q0 22 18 45l293 391q4 5 4 10q0 9 -14 9h-263q-20 0 -20 15v10q0 16 20 16h262q58 0 58 -43q0 -23 -16 -45l-290 -389q-5 -8 -5 -12q0 -7 9 -7h290q20 0 20 -15v-10zM370 771q0 -6 -4 -10l-100 -128q-12 -15 -23 -15h-40
q-11 0 -23 15l-100 128q-4 4 -4 10q0 7 9 7h22q8 0 22 -17l94 -113l94 113q14 17 22 17h22q9 0 9 -7z" />
    <glyph glyph-name="florin" unicode="&#x192;" 
d="M509 732v-3l-1 -7q-1 -13 -23 -13h-50q-36 0 -54.5 -17.5t-24.5 -61.5l-30 -218h149q16 0 16 -15v-2l-1 -9q-2 -17 -21 -17h-149l-52 -375q-16 -118 -129 -118q-31 0 -51 3q-17 3 -17 13v3l1 7q1 13 23 13h50q36 0 54.5 17.5t24.5 61.5l52 375h-129q-17 0 -17 15v2l1 9
q2 17 22 17h129l30 218q16 118 129 118q32 0 51 -3q17 -3 17 -13z" />
    <glyph glyph-name="AEacute" unicode="&#x1fc;" horiz-adv-x="879" 
d="M822 17q0 -17 -19 -17h-296q-43 0 -63 19.5t-20 61.5v200h-268l-82 -271q-4 -13 -16 -13h-13q-21 0 -14 25l205 672q15 49 65 49h502q19 0 19 -17v-8q0 -16 -19 -16h-335v-291h335q19 0 19 -16v-10q0 -17 -19 -17h-335v-287q0 -22 7.5 -31t31.5 -9h296q19 0 19 -16v-8z
M424 325v377h-123q-18 0 -23 -19l-110 -358h256zM659 947q0 -4 -4 -8l-107 -128q-14 -17 -22 -17h-22q-9 0 -9 7q0 6 4 10l100 128q12 15 23 15h26q11 0 11 -7z" />
    <glyph glyph-name="aeacute" unicode="&#x1fd;" horiz-adv-x="830" 
d="M775 277q0 -8 -5.5 -13.5t-13.5 -5.5h-338v-54q0 -64 10.5 -91.5t32.5 -44.5q46 -35 138 -35q65 0 148 17q1 0 3 0.5t3 0.5q15 0 15 -14v-7q0 -15 -19 -19q-82 -17 -150 -17q-158 0 -205 90q-19 -27 -37 -43.5t-58.5 -31.5t-95.5 -15q-65 0 -109 37.5t-44 123.5v13
q0 79 57 116.5t190 37.5h77v36q0 80 -27.5 112.5t-98.5 32.5q-57 0 -142 -9h-4q-19 0 -19 15v6q0 15 23 18q76 9 142 9q129 0 158 -97q53 97 170 97q100 0 149.5 -63.5t49.5 -174.5v-27zM731 298v6q0 98 -36.5 148.5t-118.5 50.5q-80 0 -119 -53t-39 -146v-6h313zM374 204
v78h-77q-113 0 -158 -25t-45 -89v-13q0 -122 109 -122q89 0 130 39.5t41 131.5zM546 771q0 -4 -4 -8l-107 -128q-14 -17 -22 -17h-22q-9 0 -9 7q0 6 4 10l100 128q12 15 23 15h26q11 0 11 -7z" />
    <glyph glyph-name="Oslashacute" unicode="&#x1fe;" horiz-adv-x="632" 
d="M596 732q0 -4 -3 -8l-65 -90q44 -77 44 -201v-124q0 -160 -69 -237.5t-187 -77.5q-122 0 -189 80l-44 -61q-14 -19 -26 -19h-10q-11 0 -11 11q0 3 3 8l66 92q-45 76 -45 204v124q0 160 69 237.5t187 77.5q125 0 191 -82l42 58q14 19 26 19h10q11 0 11 -11zM481 629
q-53 77 -165 77q-212 0 -212 -273v-124q0 -101 29 -164zM528 309v124q0 99 -28 161l-347 -483q54 -75 163 -75q212 0 212 273zM449 947q0 -4 -4 -8l-107 -128q-14 -17 -22 -17h-22q-9 0 -9 7q0 6 4 10l100 128q12 15 23 15h26q11 0 11 -7z" />
    <glyph glyph-name="oslashacute" unicode="&#x1ff;" horiz-adv-x="522" 
d="M497 560q0 -7 -4 -11l-65 -87q39 -60 39 -159v-70q0 -115 -52.5 -177t-153.5 -62q-90 0 -142 49l-50 -68q-8 -10 -16 -10h-20q-8 0 -8 8q0 6 4 11l66 89q-40 62 -40 160v70q0 115 52.5 177t153.5 62q90 0 143 -51l49 67q8 10 16 10h20q8 0 8 -8zM379 458q-40 45 -118 45
q-162 0 -162 -200v-70q0 -77 23 -123zM423 233v70q0 74 -22 121l-257 -347q41 -44 117 -44q162 0 162 200zM395 771q0 -4 -4 -8l-107 -128q-14 -17 -22 -17h-22q-9 0 -9 7q0 6 4 10l100 128q12 15 23 15h26q11 0 11 -7z" />
    <glyph glyph-name="uni0218" unicode="&#x218;" horiz-adv-x="530" 
d="M256 -55h24q12 0 12 -10q0 -6 -2 -9l-56 -102q-10 -19 -24 -19h-9q-9 0 -9 9q0 5 1 7l43 105q7 19 20 19zM475 185q0 -191 -232 -191q-84 0 -146 10q-27 4 -27 21v4q0 19 23 17q80 -10 150 -10q105 0 145.5 39.5t40.5 109.5q0 19 -3 33t-13 28.5t-18.5 24t-31.5 26
t-37.5 26t-50.5 31.5l-63 39q-82 50 -119.5 92t-37.5 108q0 44 19.5 75.5t54 48.5t74 24t86.5 7q74 0 139 -9q27 -3 27 -20v-5q0 -19 -31 -16q-72 8 -136 8q-188 0 -188 -113q0 -50 30.5 -83t104.5 -78l64 -39q98 -59 137 -101t39 -107z" />
    <glyph glyph-name="uni0219" unicode="&#x219;" horiz-adv-x="440" 
d="M390 133q0 -139 -173 -139q-73 0 -145 14q-22 5 -22 16v11q0 18 22 14q96 -16 147 -16q60 0 93.5 21.5t33.5 78.5q0 31 -21.5 52.5t-84.5 56.5l-64 35q-64 35 -92.5 65t-28.5 77q0 65 43 94t110 29q66 0 143 -9q21 -3 21 -17v-8q0 -18 -21 -16q-95 11 -139 11
q-55 0 -84 -17.5t-29 -66.5q0 -31 23 -53t74 -51l67 -37q69 -38 98 -68.5t29 -76.5zM212 -55h24q12 0 12 -10q0 -6 -2 -9l-56 -102q-10 -19 -24 -19h-9q-9 0 -9 9q0 5 1 7l43 105q7 19 20 19z" />
    <glyph glyph-name="uni021A" unicode="&#x21a;" horiz-adv-x="571" 
d="M541 717q0 -15 -19 -15h-214v-683q0 -8 -5 -13.5t-12 -5.5h-10q-7 0 -12 5.5t-5 13.5v683h-215q-19 0 -19 15v9q0 17 19 17h473q19 0 19 -17v-9zM279 -55h24q12 0 12 -10q0 -6 -2 -9l-56 -102q-9 -19 -24 -19h-9q-9 0 -9 9q0 5 1 7l43 105q7 19 20 19z" />
    <glyph glyph-name="uni021B" unicode="&#x21b;" horiz-adv-x="380" 
d="M340 13q0 -14 -17 -16q-23 -3 -52 -3q-57 0 -85 23.5t-28 84.5v394h-99q-19 0 -19 16v10q0 15 19 15h99v103q0 19 17 19h11q16 0 16 -19v-103h119q19 0 19 -15v-10q0 -16 -19 -16h-119v-394q0 -42 16 -55.5t53 -13.5h48q21 0 21 -14v-6zM204 -55h24q12 0 12 -10
q0 -6 -2 -9l-56 -102q-10 -19 -24 -19h-9q-9 0 -9 9q0 5 1 7l43 105q7 19 20 19z" />
    <glyph glyph-name="circumflex" unicode="&#x2c6;" horiz-adv-x="330" 
d="M312 625q0 -7 -9 -7h-22q-8 0 -22 17l-94 113l-94 -113q-14 -17 -22 -17h-22q-9 0 -9 7q0 6 4 10l100 128q12 15 23 15h40q11 0 23 -15l100 -128q4 -4 4 -10z" />
    <glyph glyph-name="caron" unicode="&#x2c7;" horiz-adv-x="330" 
d="M312 771q0 -6 -4 -10l-100 -128q-12 -15 -23 -15h-40q-11 0 -23 15l-100 128q-4 4 -4 10q0 7 9 7h22q8 0 22 -17l94 -113l94 113q14 17 22 17h22q9 0 9 -7z" />
    <glyph glyph-name="uni02C9" unicode="&#x2c9;" horiz-adv-x="330" 
d="M318 704q0 -16 -20 -16h-266q-20 0 -20 16v11q0 15 20 15h266q20 0 20 -15v-11z" />
    <glyph glyph-name="breve" unicode="&#x2d8;" horiz-adv-x="330" 
d="M165 618q64 0 103 39.5t39 110.5q0 10 -10 10h-22q-8 0 -8 -10q0 -61 -29 -86t-73 -25t-73 25t-29 86q0 10 -8 10h-22q-10 0 -10 -10q0 -71 39 -110.5t103 -39.5z" />
    <glyph glyph-name="dotaccent" unicode="&#x2d9;" horiz-adv-x="330" 
d="M187 660q0 -8 -5.5 -13.5t-13.5 -5.5h-6q-8 0 -13.5 5.5t-5.5 13.5v74q0 8 5.5 13.5t13.5 5.5h6q8 0 13.5 -5.5t5.5 -13.5v-74z" />
    <glyph glyph-name="ring" unicode="&#x2da;" horiz-adv-x="330" 
d="M258 698q0 -38 -27.5 -65.5t-65.5 -27.5t-65.5 27.5t-27.5 65.5t27.5 65.5t65.5 27.5t65.5 -27.5t27.5 -65.5zM223 698q0 24 -17 41t-41 17t-40.5 -17t-16.5 -41t16.5 -41t40.5 -17t41 17t17 41z" />
    <glyph glyph-name="ogonek" unicode="&#x2db;" horiz-adv-x="330" 
d="M286 -170q0 -8 -11 -11q-42 -14 -86 -14q-64 0 -92 25t-28 60q0 33 18.5 53t65.5 47l67 38q6 3 12 3h39q7 0 7 -5q0 -4 -5 -7l-89 -50q-48 -27 -63.5 -42t-15.5 -36q0 -53 84 -53q33 0 84 12q6 2 8 2q5 0 5 -7v-15z" />
    <glyph glyph-name="tilde" unicode="&#x2dc;" horiz-adv-x="491" 
d="M399 719q0 -45 -20.5 -68t-57.5 -23q-40 0 -67 26l-48 47q-28 28 -48 28q-41 0 -41 -53v-26q0 -16 -10 -16h-17q-11 0 -11 16v26q0 45 21 68t58 23q39 0 66 -26l48 -47q28 -28 49 -28q40 0 40 53v26q0 16 10 16h17q11 0 11 -16v-26z" />
    <glyph glyph-name="hungarumlaut" unicode="&#x2dd;" horiz-adv-x="330" 
d="M367 771q0 -4 -4 -8l-107 -128q-14 -17 -22 -17h-22q-9 0 -9 7q0 6 4 10l100 128q12 15 23 15h26q11 0 11 -7zM227 771q0 -4 -4 -8l-107 -128q-14 -17 -22 -17h-22q-9 0 -9 7q0 6 4 10l100 128q12 15 23 15h26q11 0 11 -7z" />
    <glyph glyph-name="uni03A9" unicode="&#x3a9;" horiz-adv-x="616" 
d="M308 748q118 0 187 -77.5t69 -237.5v-24q0 -242 -160 -299v-69h148q19 0 19 -16v-8q0 -17 -19 -17h-169q-11 0 -16.5 5t-6.5 11v5v105q0 15 14 18q146 38 146 265v24q0 273 -212 273t-212 -273v-24q0 -227 146 -265q14 -3 14 -18v-105q0 -2 -0.5 -5.5t-6 -9.5t-16.5 -6
h-169q-19 0 -19 17v8q0 16 19 16h148v69q-160 57 -160 299v24q0 160 69 237.5t187 77.5z" />
    <glyph glyph-name="uni03BC" unicode="&#x3bc;" horiz-adv-x="521" 
d="M451 38q0 -14 -13 -18q-80 -26 -171 -26q-101 0 -153 58v-228q0 -8 -5 -13.5t-12 -5.5h-10q-7 0 -12 5.5t-5 13.5v694q0 8 5.5 13.5t13.5 5.5h7q7 0 12.5 -5.5t5.5 -13.5v-333q0 -152 153 -152q74 0 140 19v466q0 8 5.5 13.5t13.5 5.5h6q8 0 13.5 -5.5t5.5 -13.5v-480z
" />
    <glyph glyph-name="pi" unicode="&#x3c0;" horiz-adv-x="581" 
d="M469 504h69q19 0 19 19v5q0 19 -19 19h-499q-19 0 -19 -19v-5q0 -19 19 -19h69v-485q0 -19 19 -19h6q19 0 19 19v485h273v-370q0 -30 0.5 -45t4.5 -36.5t12 -31.5t23.5 -18t38.5 -8q57 0 57 20v3q0 16 -24 16h-23q-32 0 -38.5 18t-6.5 82v370z" />
    <glyph glyph-name="Wgrave" unicode="&#x1e80;" horiz-adv-x="788" 
d="M743 720l-123 -679q-9 -47 -48 -47q-35 0 -48 45l-122 387q-4 12 -8 12t-8 -12l-122 -387q-13 -45 -48 -45q-39 0 -48 47l-123 679q-2 9 2.5 16t13.5 7h10q15 0 18 -16l121 -677q3 -15 6 -15q4 0 8 15l125 389q12 39 45 39t45 -39l125 -389q4 -15 8 -15q3 0 6 15l121 677
q3 16 18 16h10q9 0 13.5 -7t2.5 -16zM449 801q0 -7 -9 -7h-22q-8 0 -22 17l-107 128q-4 4 -4 8q0 7 11 7h26q11 0 23 -15l100 -128q4 -4 4 -10z" />
    <glyph glyph-name="wgrave" unicode="&#x1e81;" horiz-adv-x="752" 
d="M702 513l-110 -465q-7 -29 -18 -41.5t-34 -12.5q-22 0 -32.5 13t-18.5 44l-106 380q-1 5 -2.5 7t-2 2h-2.5h-2.5t-2 -2t-2.5 -7l-106 -380q-8 -31 -18.5 -44t-32.5 -13q-23 0 -34 12.5t-18 41.5l-110 465q-2 9 3 16.5t15 7.5h6q12 0 16 -14l108 -465q3 -13 5.5 -18.5
t4 -6t4.5 -0.5q6 0 13 24l108 386q10 36 43 36t43 -36l108 -386q7 -24 13 -24q3 0 4.5 0.5t4 6t5.5 18.5l108 465q4 14 16 14h6q10 0 15 -7.5t3 -16.5zM431 625q0 -7 -9 -7h-22q-8 0 -22 17l-107 128q-4 4 -4 8q0 7 11 7h26q11 0 23 -15l100 -128q4 -4 4 -10z" />
    <glyph glyph-name="Wacute" unicode="&#x1e82;" horiz-adv-x="788" 
d="M743 720l-123 -679q-9 -47 -48 -47q-35 0 -48 45l-122 387q-4 12 -8 12t-8 -12l-122 -387q-13 -45 -48 -45q-39 0 -48 47l-123 679q-2 9 2.5 16t13.5 7h10q15 0 18 -16l121 -677q3 -15 6 -15q4 0 8 15l125 389q12 39 45 39t45 -39l125 -389q4 -15 8 -15q3 0 6 15l121 677
q3 16 18 16h10q9 0 13.5 -7t2.5 -16zM503 947q0 -4 -4 -8l-107 -128q-14 -17 -22 -17h-22q-9 0 -9 7q0 6 4 10l100 128q12 15 23 15h26q11 0 11 -7z" />
    <glyph glyph-name="wacute" unicode="&#x1e83;" horiz-adv-x="752" 
d="M702 513l-110 -465q-7 -29 -18 -41.5t-34 -12.5q-22 0 -32.5 13t-18.5 44l-106 380q-1 5 -2.5 7t-2 2h-2.5h-2.5t-2 -2t-2.5 -7l-106 -380q-8 -31 -18.5 -44t-32.5 -13q-23 0 -34 12.5t-18 41.5l-110 465q-2 9 3 16.5t15 7.5h6q12 0 16 -14l108 -465q3 -13 5.5 -18.5
t4 -6t4.5 -0.5q6 0 13 24l108 386q10 36 43 36t43 -36l108 -386q7 -24 13 -24q3 0 4.5 0.5t4 6t5.5 18.5l108 465q4 14 16 14h6q10 0 15 -7.5t3 -16.5zM494 771q0 -4 -4 -8l-107 -128q-14 -17 -22 -17h-22q-9 0 -9 7q0 6 4 10l100 128q12 15 23 15h26q11 0 11 -7z" />
    <glyph glyph-name="Wdieresis" unicode="&#x1e84;" horiz-adv-x="788" 
d="M743 720l-123 -679q-9 -47 -48 -47q-35 0 -48 45l-122 387q-4 12 -8 12t-8 -12l-122 -387q-13 -45 -48 -45q-39 0 -48 47l-123 679q-2 9 2.5 16t13.5 7h10q15 0 18 -16l121 -677q3 -15 6 -15q4 0 8 15l125 389q12 39 45 39t45 -39l125 -389q4 -15 8 -15q3 0 6 15l121 677
q3 16 18 16h10q9 0 13.5 -7t2.5 -16zM491 833q0 -8 -5.5 -13.5t-13.5 -5.5h-6q-8 0 -13.5 5.5t-5.5 13.5v74q0 7 5.5 13t13.5 6h6q8 0 13.5 -6t5.5 -13v-74zM341 833q0 -8 -5.5 -13.5t-13.5 -5.5h-6q-8 0 -13.5 5.5t-5.5 13.5v74q0 7 5.5 13t13.5 6h6q8 0 13.5 -6t5.5 -13
v-74z" />
    <glyph glyph-name="wdieresis" unicode="&#x1e85;" horiz-adv-x="752" 
d="M702 513l-110 -465q-7 -29 -18 -41.5t-34 -12.5q-22 0 -32.5 13t-18.5 44l-106 380q-1 5 -2.5 7t-2 2h-2.5h-2.5t-2 -2t-2.5 -7l-106 -380q-8 -31 -18.5 -44t-32.5 -13q-23 0 -34 12.5t-18 41.5l-110 465q-2 9 3 16.5t15 7.5h6q12 0 16 -14l108 -465q3 -13 5.5 -18.5
t4 -6t4.5 -0.5q6 0 13 24l108 386q10 36 43 36t43 -36l108 -386q7 -24 13 -24q3 0 4.5 0.5t4 6t5.5 18.5l108 465q4 14 16 14h6q10 0 15 -7.5t3 -16.5zM472 661q0 -8 -5.5 -13.5t-13.5 -5.5h-6q-8 0 -13.5 5.5t-5.5 13.5v74q0 7 6 13t13 6h6q7 0 13 -6t6 -13v-74zM322 661
q0 -8 -5.5 -13.5t-13.5 -5.5h-6q-8 0 -13.5 5.5t-5.5 13.5v74q0 7 6 13t13 6h6q7 0 13 -6t6 -13v-74z" />
    <glyph glyph-name="Ygrave" unicode="&#x1ef2;" horiz-adv-x="551" 
d="M502 716l-158 -349q-22 -48 -47 -58v-290q0 -8 -5 -13.5t-12 -5.5h-10q-7 0 -12 5.5t-5 13.5v290q-25 10 -47 58l-158 349q-12 27 14 27h10q10 0 16 -12l157 -350q10 -22 15.5 -28.5t14.5 -6.5t14.5 6.5t15.5 28.5l157 350q6 12 16 12h10q26 0 14 -27zM321 801
q0 -7 -9 -7h-22q-8 0 -22 17l-107 128q-4 4 -4 8q0 7 11 7h26q11 0 23 -15l100 -128q4 -4 4 -10z" />
    <glyph glyph-name="ygrave" unicode="&#x1ef3;" horiz-adv-x="486" 
d="M446 512l-164 -568q-23 -80 -57.5 -109.5t-104.5 -29.5q-26 0 -62 6q-20 3 -20 14v11q0 17 21 14q45 -6 65 -6q54 0 77.5 21.5t41.5 87.5l13 47h-14q-25 0 -38 11t-23 45l-135 457q-3 10 1.5 17t14.5 7h9q12 0 16 -14l135 -460q6 -22 23 -22h23l137 483q4 13 18 13h9
q9 0 13 -7.5t1 -17.5zM281 625q0 -7 -9 -7h-22q-8 0 -22 17l-107 128q-4 4 -4 8q0 7 11 7h26q11 0 23 -15l100 -128q4 -4 4 -10z" />
    <glyph glyph-name="endash" unicode="&#x2013;" horiz-adv-x="360" 
d="M375 273q0 -16 -19 -16h-352q-19 0 -19 16v8q0 8 5.5 13t13.5 5h352q8 0 13.5 -5t5.5 -13v-8z" />
    <glyph glyph-name="emdash" unicode="&#x2014;" horiz-adv-x="703" 
d="M718 273q0 -16 -19 -16h-695q-19 0 -19 16v8q0 8 5.5 13t13.5 5h695q8 0 13.5 -5t5.5 -13v-8z" />
    <glyph glyph-name="quoteleft" unicode="&#x2018;" horiz-adv-x="170" 
d="M131 732q0 -6 -1 -9l-41 -172q-4 -19 -20 -19h-19q-11 0 -11 11q0 5 1 8l48 172q5 19 19 19h15q9 0 9 -10z" />
    <glyph glyph-name="quoteright" unicode="&#x2019;" horiz-adv-x="170" 
d="M131 732q0 -5 -1 -8l-48 -172q-5 -19 -19 -19h-15q-9 0 -9 10q0 6 1 9l41 172q4 19 20 19h19q11 0 11 -11z" />
    <glyph glyph-name="quotesinglbase" unicode="&#x201a;" horiz-adv-x="170" 
d="M131 95q0 -5 -1 -8l-48 -172q-5 -19 -19 -19h-15q-9 0 -9 10q0 6 1 9l41 172q4 19 20 19h19q11 0 11 -11z" />
    <glyph glyph-name="quotedblleft" unicode="&#x201c;" horiz-adv-x="295" 
d="M256 733q0 -6 -1 -9l-41 -172q-4 -19 -20 -19h-19q-11 0 -11 11q0 5 1 8l48 172q5 19 19 19h15q9 0 9 -10zM131 733q0 -6 -1 -9l-41 -172q-4 -19 -20 -19h-19q-11 0 -11 11q0 5 1 8l48 172q5 19 19 19h15q9 0 9 -10z" />
    <glyph glyph-name="quotedblright" unicode="&#x201d;" horiz-adv-x="295" 
d="M256 732q0 -5 -1 -8l-48 -172q-5 -19 -19 -19h-15q-9 0 -9 10q0 6 1 9l41 172q4 19 20 19h19q11 0 11 -11zM131 732q0 -5 -1 -8l-48 -172q-5 -19 -19 -19h-15q-9 0 -9 10q0 6 1 9l41 172q4 19 20 19h19q11 0 11 -11z" />
    <glyph glyph-name="quotedblbase" unicode="&#x201e;" horiz-adv-x="295" 
d="M256 95q0 -5 -1 -8l-48 -172q-5 -19 -19 -19h-15q-9 0 -9 10q0 6 1 9l41 172q4 19 20 19h19q11 0 11 -11zM131 95q0 -5 -1 -8l-48 -172q-5 -19 -19 -19h-15q-9 0 -9 10q0 6 1 9l41 172q4 19 20 19h19q11 0 11 -11z" />
    <glyph glyph-name="dagger" unicode="&#x2020;" horiz-adv-x="380" 
d="M340 512q0 -16 -19 -16h-119v-482q0 -20 -16 -20h-12q-16 0 -16 20v482h-99q-19 0 -19 16v10q0 15 19 15h99v187q0 19 17 19h11q16 0 16 -19v-187h119q19 0 19 -15v-10z" />
    <glyph glyph-name="daggerdbl" unicode="&#x2021;" horiz-adv-x="380" 
d="M340 302q0 -16 -19 -16h-119v-272q0 -20 -16 -20h-12q-16 0 -16 20v272h-99q-19 0 -19 16v10q0 15 19 15h99v169h-99q-19 0 -19 16v10q0 15 19 15h99v205q0 19 17 19h11q16 0 16 -19v-205h119q19 0 19 -15v-10q0 -16 -19 -16h-119v-169h119q19 0 19 -15v-10z" />
    <glyph glyph-name="bullet" unicode="&#x2022;" horiz-adv-x="418" 
d="M363 367q0 -64 -45 -109t-109 -45t-109 45t-45 109t45 109t109 45t109 -45t45 -109z" />
    <glyph glyph-name="ellipsis" unicode="&#x2026;" horiz-adv-x="508" 
d="M446 13q0 -8 -5.5 -13.5t-13.5 -5.5h-6q-8 0 -13.5 5.5t-5.5 13.5v74q0 7 6 13t13 6h6q7 0 13 -6t6 -13v-74zM276 13q0 -8 -5.5 -13.5t-13.5 -5.5h-6q-8 0 -13.5 5.5t-5.5 13.5v74q0 7 6 13t13 6h6q7 0 13 -6t6 -13v-74zM106 13q0 -8 -5.5 -13.5t-13.5 -5.5h-6
q-8 0 -13.5 5.5t-5.5 13.5v74q0 7 6 13t13 6h6q7 0 13 -6t6 -13v-74z" />
    <glyph glyph-name="perthousand" unicode="&#x2030;" horiz-adv-x="1087" 
d="M1027 150q0 -77 -33 -116.5t-93 -39.5t-93.5 39.5t-33.5 116.5v104q0 77 33.5 116t93.5 39t93 -39t33 -116v-104zM697 150q0 -77 -33 -116.5t-93 -39.5t-93.5 39.5t-33.5 116.5v104q0 77 33.5 116t93.5 39t93 -39t33 -116v-104zM617 738q0 -5 -6 -14l-420 -711
q-11 -19 -21 -19h-27q-7 0 -7 5t6 14l420 711q11 19 21 19h26q8 0 8 -5zM313 489q0 -77 -33 -116.5t-93 -39.5t-93.5 39.5t-33.5 116.5v104q0 77 33.5 116t93.5 39t93 -39t33 -116v-104zM988 150v104q0 117 -87 117q-88 0 -88 -117v-104q0 -117 88 -117q87 0 87 117z
M658 150v104q0 117 -87 117q-88 0 -88 -117v-104q0 -117 88 -117q87 0 87 117zM274 489v104q0 117 -87 117q-88 0 -88 -117v-104q0 -117 88 -117q87 0 87 117z" />
    <glyph glyph-name="guilsinglleft" unicode="&#x2039;" horiz-adv-x="305" 
d="M252 92q0 -6 -5 -11l-7 -7q-4 -4 -10 -4q-7 0 -16 7l-178 163q-14 12 -14 29q0 15 14 29l178 163q9 7 16 7q6 0 10 -4l7 -7q5 -5 5 -11q0 -9 -8 -15l-177 -162l177 -162q8 -6 8 -15z" />
    <glyph glyph-name="guilsinglright" unicode="&#x203a;" horiz-adv-x="305" 
d="M283 269q0 -17 -14 -29l-178 -163q-9 -7 -16 -7q-6 0 -10 4l-7 7q-5 5 -5 11q0 9 8 15l177 162l-177 162q-8 6 -8 15q0 6 5 11l7 7q4 4 10 4q7 0 16 -7l178 -163q14 -14 14 -29z" />
    <glyph glyph-name="fraction" unicode="&#x2044;" horiz-adv-x="304" 
d="M393 738q0 -5 -6 -14l-418 -711q-11 -19 -21 -19h-27q-8 0 -8 6t5 13l418 711q11 19 21 19h28q8 0 8 -5z" />
    <glyph glyph-name="n.superior" unicode="&#x207f;" horiz-adv-x="287" 
d="M69 582v-237q0 -15 -14 -15h-6q-13 0 -13 15v270q0 16 14 16h5q14 0 14 -16v-5q41 22 82 22q100 0 100 -107v-180q0 -15 -14 -15h-4q-15 0 -15 15v180q0 45 -16.5 61.5t-51.5 16.5q-37 0 -81 -21z" />
    <glyph glyph-name="franc" unicode="&#x20a3;" horiz-adv-x="518" 
d="M478 385q0 -17 -19 -17h-335v-137h123q19 0 19 -16v-10q0 -17 -19 -17h-123v-169q0 -8 -5 -13.5t-12 -5.5h-10q-7 0 -12 5.5t-5 13.5v169h-61q-19 0 -19 17v10q0 16 19 16h61v400q0 61 30.5 86.5t90.5 25.5h258q19 0 19 -17v-8q0 -16 -19 -16h-258q-40 0 -58.5 -14
t-18.5 -57v-220h335q19 0 19 -16v-10z" />
    <glyph glyph-name="lira" unicode="&#x20a4;" 
d="M431 234h-243v-65q0 -72 -32 -128h334q20 0 20 -14v-11q0 -16 -20 -16h-372q-20 0 -20 20q0 7 3 11q41 69 41 138v65h-53q-18 0 -18 17v9q0 17 20 17h51v107h-53q-18 0 -18 17v9q0 17 20 17h51v59q0 130 45 196t154 66q74 0 148 -9q19 -3 19 -16v-8q0 -15 -15 -15h-6
q-70 8 -146 8q-90 0 -121.5 -54.5t-31.5 -167.5v-59h245q18 0 18 -17v-9q0 -17 -20 -17h-243v-107h245q18 0 18 -17v-9q0 -17 -20 -17z" />
    <glyph glyph-name="peseta" unicode="&#x20a7;" horiz-adv-x="1335" 
d="M505 528q0 -114 -69.5 -164t-202.5 -50q-53 0 -109 4v-299q0 -8 -5 -13.5t-12 -5.5h-10q-7 0 -12 5.5t-5 13.5v705q0 7 5 12.5t12 6.5q87 5 136 5q272 0 272 -203v-17zM461 528v17q0 90 -56 127t-172 37q-65 0 -109 -3v-349q62 -4 109 -4q118 0 173 40.5t55 134.5z
M870 13q0 -14 -17 -16q-23 -3 -52 -3q-57 0 -85 23.5t-28 84.5v394h-99q-19 0 -19 16v10q0 15 19 15h99v103q0 19 17 19h11q16 0 16 -19v-103h119q19 0 19 -15v-10q0 -16 -19 -16h-119v-394q0 -42 16 -55.5t53 -13.5h48q21 0 21 -14v-6zM1285 133q0 -139 -173 -139
q-73 0 -145 14q-22 5 -22 16v11q0 18 22 14q96 -16 147 -16q60 0 93.5 21.5t33.5 78.5q0 31 -21.5 52.5t-84.5 56.5l-64 35q-64 35 -92.5 65t-28.5 77q0 65 43 94t110 29t143 -9q21 -3 21 -17v-8q0 -18 -21 -16q-95 11 -139 11q-55 0 -84 -17.5t-29 -66.5q0 -31 23 -53
t74 -51l67 -37q69 -38 98 -68.5t29 -76.5z" />
    <glyph glyph-name="Euro" unicode="&#x20ac;" 
d="M521 21q0 -15 -19 -17q-87 -10 -143 -10q-38 0 -73.5 8.5t-70 29.5t-60.5 52.5t-43.5 81.5t-19.5 113h-44q-18 0 -18 16v9q0 16 20 16h42v107h-44q-18 0 -18 16v9q0 16 20 16h42q4 77 29 133.5t64.5 87t82.5 45t91 14.5q56 0 143 -10q19 -2 19 -17v-12q0 -12 -13 -12h-6
q-81 9 -143 9q-89 0 -153 -58.5t-70 -179.5h329q18 0 18 -13v-3l-2 -9q-3 -16 -20 -16h-325v-107h297q18 0 18 -13v-3l-2 -9q-3 -16 -20 -16h-293q6 -124 69.5 -183.5t153.5 -59.5q62 0 143 9h6q13 0 13 -12v-12z" />
    <glyph glyph-name="afii61289" unicode="&#x2113;" horiz-adv-x="394" 
d="M323 660q0 34 -20 57.5t-59 23.5q-45 0 -61 -30.5t-16 -105.5v-236q85 95 120.5 155t35.5 136zM31 241l92 86v278q0 88 28.5 130t92.5 42q62 0 92.5 -33.5t30.5 -83.5q0 -82 -52 -164.5t-148 -183.5v-178q0 -100 71 -100q47 0 96 37q15 11 27 -1l3 -3q9 -13 -1 -23
q-25 -25 -60 -38.5t-64 -13.5q-116 0 -116 141v138l-63 -58q-16 -14 -26 -1l-4 5q-10 13 1 24z" />
    <glyph glyph-name="trademark" unicode="&#x2122;" horiz-adv-x="766" 
d="M721 344q0 -10 -10 -10h-18q-9 0 -9 10v255q0 69 -22 89.5t-106 20.5v-365q0 -10 -9 -10h-19q-10 0 -10 10v365q-64 0 -128 -8v-357q0 -10 -9 -10h-18q-10 0 -10 10v380q0 8 8 10q88 11 177 11q105 0 144 -26.5t39 -119.5v-255zM314 721q0 -15 -18 -15h-107v-355
q0 -6 -5 -11.5t-12 -5.5h-5q-7 0 -11.5 5.5t-4.5 11.5v355h-109q-17 0 -17 15v5q0 16 17 16h254q18 0 18 -16v-5z" />
    <glyph glyph-name="Omega" unicode="&#x2126;" horiz-adv-x="616" 
d="M308 748q118 0 187 -77.5t69 -237.5v-24q0 -242 -160 -299v-69h148q19 0 19 -16v-8q0 -17 -19 -17h-169q-11 0 -16.5 5t-6.5 11v5v105q0 15 14 18q146 38 146 265v24q0 273 -212 273t-212 -273v-24q0 -227 146 -265q14 -3 14 -18v-105q0 -2 -0.5 -5.5t-6 -9.5t-16.5 -6
h-169q-19 0 -19 17v8q0 16 19 16h148v69q-160 57 -160 299v24q0 160 69 237.5t187 77.5z" />
    <glyph glyph-name="estimated" unicode="&#x212e;" horiz-adv-x="606" 
d="M577 282h-429v-193q66 -63 152 -63q76 0 123 33t87 94l31 -19q-44 -68 -99 -104.5t-142 -36.5q-119 0 -195 84.5t-76 205.5q0 123 75 206.5t200 83.5q124 0 198.5 -84.5t74.5 -206.5zM457 315v163q-68 62 -153 62q-96 0 -156 -62v-163h309z" />
    <glyph glyph-name="onethird" unicode="&#x2153;" horiz-adv-x="669" 
d="M518 738q0 -5 -6 -14l-412 -705q-11 -19 -21 -19h-27q-8 0 -8 6t5 13l412 705q11 19 21 19h28q8 0 8 -5zM105 707v-357q0 -18 16 -18h8q16 0 16 18v379q0 11 -4 16t-17 3l-76 -11q-18 -4 -18 -19q0 -22 20 -19zM598 129v-11q0 -46 -24.5 -66t-75.5 -20q-23 0 -77 6
q-19 2 -19 -12v-4q0 -16 16 -18q38 -7 80 -7q69 0 105 28t36 93v11q0 61 -47 87q47 30 47 89v7q0 60 -35 82.5t-106 22.5q-42 0 -80 -7q-16 -2 -16 -18v-4q0 -14 19 -12q54 6 77 6q53 0 76.5 -15t23.5 -55v-7q0 -68 -68 -68h-101q-18 0 -18 -17v-4q0 -17 18 -17h101
q68 0 68 -70z" />
    <glyph glyph-name="twothirds" unicode="&#x2154;" horiz-adv-x="753" 
d="M602 738q0 -5 -6 -14l-412 -705q-11 -19 -21 -19h-27q-8 0 -8 6t5 13l412 705q11 19 21 19h28q8 0 8 -5zM682 129v-11q0 -46 -24.5 -66t-75.5 -20q-23 0 -77 6q-19 2 -19 -12v-4q0 -16 16 -18q38 -7 80 -7q69 0 105 28t36 93v11q0 61 -47 87q47 30 47 89v7q0 60 -35 82.5
t-106 22.5q-42 0 -80 -7q-16 -2 -16 -18v-4q0 -14 19 -12q54 6 77 6q53 0 76.5 -15t23.5 -55v-7q0 -68 -68 -68h-101q-18 0 -18 -17v-4q0 -17 18 -17h101q68 0 68 -70zM58 709q-20 -2 -20 12v3q0 17 19 19q39 6 81 6q133 0 133 -93q0 -33 -16 -61t-60 -57l-55 -37
q-44 -30 -57 -54.5t-13 -62.5v-14h178q18 0 18 -16v-6q0 -16 -18 -16h-200q-8 0 -13 6t-5 13v33q0 45 17.5 78.5t69.5 69.5l55 38q34 23 46 40t12 46q0 58 -92 58q-33 0 -80 -5z" />
    <glyph glyph-name="oneeighth" unicode="&#x215b;" horiz-adv-x="668" 
d="M518 738q0 -5 -6 -14l-412 -705q-11 -19 -21 -19h-27q-8 0 -8 6t5 13l412 705q11 19 21 19h28q8 0 8 -5zM105 707v-357q0 -18 16 -18h8q16 0 16 18v379q0 11 -4 16t-17 3l-76 -11q-18 -4 -18 -19q0 -22 20 -19zM638 113q0 -57 -36.5 -86.5t-96.5 -29.5q-61 0 -97.5 29.5
t-36.5 86.5v17q0 23 12.5 47t36.5 39q-49 27 -49 84v12q0 53 36 79t98 26t97.5 -26t35.5 -79v-12q0 -57 -49 -84q24 -15 36.5 -39t12.5 -47v-17zM597 113v17q0 23 -17 45.5t-54 22.5h-44q-36 0 -53 -22.5t-17 -45.5v-17q0 -78 93 -78q92 0 92 78zM597 300v12q0 67 -92 67
q-93 0 -93 -67v-12q0 -25 16.5 -43.5t53.5 -18.5h44q38 0 54.5 18.5t16.5 43.5z" />
    <glyph glyph-name="threeeighths" unicode="&#x215c;" horiz-adv-x="744" 
d="M594 738q0 -5 -6 -14l-412 -705q-11 -19 -21 -19h-27q-8 0 -8 6t5 13l412 705q11 19 21 19h28q8 0 8 -5zM714 113q0 -57 -36.5 -86.5t-96.5 -29.5q-61 0 -97.5 29.5t-36.5 86.5v17q0 23 12.5 47t36.5 39q-49 27 -49 84v12q0 53 36 79t98 26t97.5 -26t35.5 -79v-12
q0 -57 -49 -84q24 -15 36.5 -39t12.5 -47v-17zM673 113v17q0 23 -17 45.5t-54 22.5h-44q-36 0 -53 -22.5t-17 -45.5v-17q0 -78 93 -78q92 0 92 78zM673 300v12q0 67 -92 67q-93 0 -93 -67v-12q0 -25 16.5 -43.5t53.5 -18.5h44q38 0 54.5 18.5t16.5 43.5zM226 461v-11
q0 -46 -24.5 -66t-75.5 -20q-23 0 -77 6q-19 2 -19 -12v-4q0 -16 16 -18q39 -7 80 -7q69 0 105 28t36 93v11q0 61 -47 87q47 30 47 89v7q0 60 -35 82.5t-106 22.5q-42 0 -80 -7q-16 -2 -16 -18v-4q0 -14 19 -12q54 6 77 6q53 0 76.5 -15t23.5 -55v-7q0 -68 -68 -68h-101
q-18 0 -18 -17v-4q0 -17 18 -17h101q68 0 68 -70z" />
    <glyph glyph-name="fiveeighths" unicode="&#x215d;" horiz-adv-x="753" 
d="M603 738q0 -5 -6 -14l-412 -705q-11 -19 -21 -19h-27q-8 0 -8 6t5 13l412 705q11 19 21 19h28q8 0 8 -5zM723 113q0 -57 -36.5 -86.5t-96.5 -29.5q-61 0 -97.5 29.5t-36.5 86.5v17q0 23 12.5 47t36.5 39q-49 27 -49 84v12q0 53 36 79t98 26t97.5 -26t35.5 -79v-12
q0 -57 -49 -84q24 -15 36.5 -39t12.5 -47v-17zM682 113v17q0 23 -17 45.5t-54 22.5h-44q-36 0 -53 -22.5t-17 -45.5v-17q0 -78 93 -78q92 0 92 78zM682 300v12q0 67 -92 67q-93 0 -93 -67v-12q0 -25 16.5 -43.5t53.5 -18.5h44q38 0 54.5 18.5t16.5 43.5zM129 364q51 0 79 24
t28 71v4q0 47 -29.5 64t-101.5 17h-47q-10 0 -14.5 4t-3.5 17l11 166q2 17 19 17h176q18 0 18 -17v-6q0 -16 -18 -16h-156l-8 -127h30q85 0 124.5 -26.5t39.5 -92.5v-4q0 -63 -40 -96.5t-107 -33.5q-45 0 -83 7q-16 2 -16 18v4q0 14 19 12q54 -6 80 -6z" />
    <glyph glyph-name="seveneighths" unicode="&#x215e;" horiz-adv-x="689" 
d="M539 738q0 -5 -6 -14l-412 -705q-11 -19 -21 -19h-27q-8 0 -8 6t5 13l412 705q11 19 21 19h28q8 0 8 -5zM659 113q0 -57 -36.5 -86.5t-96.5 -29.5q-61 0 -97.5 29.5t-36.5 86.5v17q0 23 12.5 47t36.5 39q-49 27 -49 84v12q0 53 36 79t98 26t97.5 -26t35.5 -79v-12
q0 -57 -49 -84q24 -15 36.5 -39t12.5 -47v-17zM618 113v17q0 23 -17 45.5t-54 22.5h-44q-36 0 -53 -22.5t-17 -45.5v-17q0 -78 93 -78q92 0 92 78zM618 300v12q0 67 -92 67q-93 0 -93 -67v-12q0 -25 16.5 -43.5t53.5 -18.5h44q38 0 54.5 18.5t16.5 43.5zM76 358l166 345
q2 5 -4 5h-189q-19 0 -19 17v4q0 7 6 13t13 6h213q17 0 24.5 -13t-0.5 -31l-169 -355q-9 -17 -19 -17h-14q-21 0 -8 26z" />
    <glyph glyph-name="partialdiff" unicode="&#x2202;" horiz-adv-x="538" 
d="M128 737q-17 -3 -20 10l-1 5q-3 17 16 21q47 10 105 10q258 0 258 -293q0 -104 -23 -246q-41 -250 -243 -250q-88 0 -131.5 47.5t-43.5 131.5q0 33 4 60l11 70q21 124 81.5 181.5t164.5 57.5q92 0 139 -60v8q0 43 -4.5 76.5t-18 68.5t-36.5 58t-63.5 37.5t-94.5 14.5
q-58 0 -100 -8zM417 233l11 70q6 36 6 67q0 65 -31.5 99t-103.5 34q-164 0 -195 -200l-11 -70q-5 -37 -5 -60q0 -140 134 -140q161 0 195 200z" />
    <glyph glyph-name="Delta" unicode="&#x2206;" horiz-adv-x="619" 
d="M579 25q7 -25 -14 -25h-511q-21 0 -14 25l205 674q15 49 65 49t64 -48zM527 44l-194 644q-6 20 -23 20q-18 0 -23 -19l-195 -645h435z" />
    <glyph glyph-name="product" unicode="&#x220f;" horiz-adv-x="697" 
d="M69 743h559q19 0 19 -16v-8q0 -17 -19 -17h-61v-738q0 -19 -17 -19h-9q-17 0 -17 19v738h-350v-738q0 -8 -5 -13.5t-12 -5.5h-10q-7 0 -12 5.5t-5 13.5v738h-61q-19 0 -19 17v8q0 16 19 16z" />
    <glyph glyph-name="summation" unicode="&#x2211;" horiz-adv-x="504" 
d="M287 344q0 20 -11 36l-177 313q-5 9 3 9h333q19 0 19 16v8q0 17 -19 17h-338q-25 0 -36.5 -12.5t-10.5 -28t9 -28.5l180 -316q4 -7 4 -14t-4 -14l-180 -316q-8 -13 -9 -28.5t10.5 -28t36.5 -12.5h338q19 0 19 17v8q0 16 -19 16h-333q-8 0 -3 9l177 313q11 16 11 36z" />
    <glyph glyph-name="minus" unicode="&#x2212;" 
d="M513 386q0 -16 -20 -16h-405q-20 0 -20 16v10q0 16 20 16h405q20 0 20 -16v-10z" />
    <glyph glyph-name="uni2215" unicode="&#x2215;" horiz-adv-x="304" 
d="M393 738q0 -5 -6 -14l-418 -711q-11 -19 -21 -19h-27q-8 0 -8 6t5 13l418 711q11 19 21 19h28q8 0 8 -5z" />
    <glyph glyph-name="uni2219" unicode="&#x2219;" horiz-adv-x="168" 
d="M106 360q0 -8 -5.5 -13.5t-13.5 -5.5h-6q-8 0 -13.5 5.5t-5.5 13.5v74q0 8 6 13.5t13 5.5h6q7 0 13 -5.5t6 -13.5v-74z" />
    <glyph glyph-name="radical" unicode="&#x221a;" horiz-adv-x="736" 
d="M683 847l-271 -875q-6 -19 -20.5 -31t-31.5 -12q-25 0 -35 10t-16 33l-109 438q-4 18 -25 18h-106q-19 0 -19 17v8q0 16 19 16h106q30 0 46 -9.5t22 -36.5l111 -441q2 -6 6 -6t6 6l271 872q4 19 27 19h7q20 0 12 -26z" />
    <glyph glyph-name="infinity" unicode="&#x221e;" horiz-adv-x="691" 
d="M601 363v25q0 32 -2 56.5t-9.5 54.5t-21 49.5t-39 33t-59.5 13.5h-6q-64 0 -100 -59q-53 58 -129 58h-6q-140 0 -140 -207v-25q0 -32 2 -56.5t9.5 -54.5t21 -49.5t39 -33t59.5 -13.5h6q63 0 97 57q50 -56 131 -56h6q141 0 141 207zM340 249q8 22 16 67l19 127
q18 116 89 116h6q29 0 47.5 -13t27 -40t11 -53t2.5 -65v-25q0 -171 -98 -171h-6q-66 0 -114 57zM235 558q61 0 111 -60q-6 -16 -11 -48l-18 -127q-19 -132 -91 -132h-6q-29 0 -47.5 13t-27 40t-11 53t-2.5 65v25q0 37 4 65t14 53.5t30 39t49 13.5h6z" />
    <glyph glyph-name="integral" unicode="&#x222b;" horiz-adv-x="414" 
d="M185 -83v713q0 118 113 118q32 0 52 -3q19 -3 19 -16v-7q0 -13 -21 -13h-50q-36 0 -52.5 -17.5t-16.5 -61.5v-713q0 -118 -113 -118q-32 0 -52 3q-19 3 -19 16v7q0 13 21 13h50q36 0 52.5 17.5t16.5 61.5z" />
    <glyph glyph-name="approxequal" unicode="&#x2248;" horiz-adv-x="491" 
d="M399 519q0 -45 -20.5 -68t-57.5 -23q-40 0 -67 26l-48 47q-28 28 -48 28q-41 0 -41 -53v-26q0 -16 -10 -16h-17q-11 0 -11 16v26q0 45 21 68t58 23q39 0 66 -26l48 -47q28 -28 49 -28q40 0 40 53v26q0 16 10 16h17q11 0 11 -16v-26zM399 319q0 -45 -20.5 -68t-57.5 -23
q-40 0 -67 26l-48 47q-28 28 -48 28q-41 0 -41 -53v-26q0 -16 -10 -16h-17q-11 0 -11 16v26q0 45 21 68t58 23q39 0 66 -26l48 -47q28 -28 49 -28q40 0 40 53v26q0 16 10 16h17q11 0 11 -16v-26z" />
    <glyph glyph-name="notequal" unicode="&#x2260;" 
d="M386 748h15q17 0 10 -19l-72 -217h134q20 0 20 -16v-10q0 -16 -20 -16h-148l-51 -158h199q20 0 20 -16v-10q0 -16 -20 -16h-213l-84 -257q-6 -19 -19 -19h-19q-15 0 -9 19l84 257h-105q-20 0 -20 16v10q0 16 20 16h119l52 158h-171q-20 0 -20 16v10q0 16 20 16h185
l71 217q6 19 22 19z" />
    <glyph glyph-name="lessequal" unicode="&#x2264;" 
d="M431 159q0 -6 -5 -11l-7 -7q-4 -4 -10 -4q-7 0 -16 7l-266 218q-15 12 -15 29t15 29l266 218q9 7 16 7q6 0 10 -4l7 -7q5 -5 5 -11q0 -9 -8 -15l-265 -217l265 -217q8 -6 8 -15zM513 16q0 -16 -20 -16h-405q-20 0 -20 16v10q0 16 20 16h405q20 0 20 -16v-10z" />
    <glyph glyph-name="greaterequal" unicode="&#x2265;" 
d="M482 391q0 -17 -15 -29l-266 -218q-9 -7 -16 -7q-6 0 -10 4l-7 7q-5 5 -5 11q0 9 8 15l265 217l-265 217q-8 6 -8 15q0 6 5 11l7 7q4 4 10 4q7 0 16 -7l266 -218q15 -12 15 -29zM513 16q0 -16 -20 -16h-405q-20 0 -20 16v10q0 16 20 16h405q20 0 20 -16v-10z" />
    <glyph glyph-name="lozenge" unicode="&#x25ca;" horiz-adv-x="608" 
d="M304 113q22 0 51 36l123 153q26 31 26 56t-26 57l-126 158q-20 26 -48 26t-48 -26l-126 -158q-26 -32 -26 -57t26 -56l123 -153q29 -36 51 -36zM304 556q9 0 20 -14l124 -157q12 -17 12 -28q0 -14 -14 -31l-120 -150q-14 -19 -22 -19t-22 19l-120 150q-14 17 -14 31
q0 11 12 28l124 157q11 14 20 14z" />
    <glyph glyph-name="j.dotless" unicode="&#xe008;" horiz-adv-x="204" 
d="M215 523v-5l-106 -604q-11 -62 -37.5 -85.5t-84.5 -23.5q-19 0 -42 3q-14 3 -14 12v2l1 9q1 12 17 12h44q35 0 49.5 13.5t22.5 57.5l106 604q4 19 20 19h11q13 0 13 -14z" />
    <glyph glyph-name="uni2014.alt" unicode="&#xe009;" horiz-adv-x="703" 
d="M643 273q0 -16 -19 -16h-545q-19 0 -19 16v8q0 8 5.5 13t13.5 5h545q8 0 13.5 -5t5.5 -13v-8z" />
    <glyph glyph-name="zero.fitted" unicode="&#xf639;" 
d="M520 273q0 -141 -60.5 -210t-169.5 -69t-169.5 69t-60.5 210v197q0 140 60.5 209t169.5 69t169.5 -69t60.5 -209v-197zM476 273v197q0 118 -47.5 178t-138.5 60t-138.5 -60t-47.5 -178v-197q0 -118 47.5 -178.5t138.5 -60.5t138.5 60.5t47.5 178.5z" />
    <glyph glyph-name="two.fitted" unicode="&#xf63a;" 
d="M500 573q0 -57 -29 -98.5t-106 -93.5l-102 -69q-47 -32 -75.5 -59t-42 -56t-17 -53t-3.5 -63v-40h346q20 0 20 -15v-11q0 -15 -20 -15h-371q-9 0 -14.5 6t-5.5 14v61q0 83 30.5 142.5t124.5 122.5l102 69q68 46 91.5 78t23.5 80q0 69 -43 101t-141 32q-76 0 -153 -15
q-21 -3 -21 15v11q0 12 19 16q70 15 155 15q232 0 232 -175z" />
    <glyph glyph-name="three.fitted" unicode="&#xf63b;" 
d="M496 206q0 -212 -248 -212q-75 0 -146 15q-18 4 -18 18v6q0 19 20 16q78 -13 144 -13q104 0 152.5 40t48.5 130v20q0 50 -35.5 96.5t-106.5 46.5h-187q-8 0 -13.5 5t-5.5 13v7q0 18 19 18h187q41 0 70.5 14t44 37t21 45t6.5 45v12q0 81 -47.5 111t-153.5 30
q-54 0 -144 -15q-20 -3 -20 16v8q0 14 18 18q84 15 146 15q124 0 186 -40t62 -143v-12q0 -120 -104 -165q53 -24 78.5 -70.5t25.5 -91.5v-20z" />
    <glyph glyph-name="four.fitted" unicode="&#xf63c;" 
d="M542 233q0 -17 -19 -17h-100v-197q0 -19 -16 -19h-12q-16 0 -16 19v197h-277q-30 0 -47 15.5t-17 38.5q0 21 14 42l280 411q16 25 51 25q40 0 40 -48v-442h100q19 0 19 -16v-9zM379 258v436q0 8 -6 8q-4 0 -10 -8l-273 -401q-10 -16 -10 -23q0 -12 22 -12h277z" />
    <glyph glyph-name="five.fitted" unicode="&#xf63d;" 
d="M503 215q0 -106 -69 -163.5t-184 -57.5q-77 0 -154 18q-19 3 -19 19v11q0 17 21 12q77 -18 152 -18q101 0 155 45t54 134v25q0 86 -56 120.5t-185 34.5h-106q-22 0 -20 22l23 309q2 17 20 17h326q20 0 20 -16v-11q0 -14 -20 -14h-303l-18 -266h78q158 0 221.5 -48
t63.5 -148v-25z" />
    <glyph glyph-name="six.fitted" unicode="&#xf63e;" 
d="M64 488q0 137 61 198.5t184 61.5q74 0 159 -19q22 -4 22 -18v-10q0 -18 -24 -13q-87 18 -157 18q-105 0 -153 -49.5t-48 -168.5v-62q102 26 185 26q44 0 81.5 -10t70.5 -31t52 -61t19 -94v-5q0 -129 -55.5 -193t-175.5 -64q-112 0 -166.5 64t-54.5 195v235zM108 387v-134
q0 -118 42.5 -168.5t134.5 -50.5q93 0 140 51t47 166v5q0 44 -15.5 75.5t-42 48t-56.5 24t-65 7.5q-93 0 -185 -24z" />
    <glyph glyph-name="seven.fitted" unicode="&#xf63f;" horiz-adv-x="530" 
d="M488 686l-320 -676q-4 -10 -18 -10h-15q-11 0 -14 8.5t2 18.5l316 659q3 4 1 9t-8 5h-374q-20 0 -20 16v8q0 8 6 13.5t14 5.5h396q24 0 34.5 -16.5t-0.5 -40.5z" />
    <glyph glyph-name="eight.fitted" unicode="&#xf640;" 
d="M524 197q0 -100 -64 -151.5t-170 -51.5t-170 51.5t-64 151.5v30q0 46 27 93t77 69q-48 17 -76 59.5t-28 95.5v22q0 91 63 136.5t171 45.5t171 -45.5t63 -136.5v-22q0 -53 -28 -95.5t-76 -59.5q50 -22 77 -69t27 -93v-30zM477 544v22q0 140 -187 140t-187 -140v-22
q0 -52 34.5 -92t111.5 -40h82q77 0 111.5 40t34.5 92zM477 197v30q0 20 -7 42t-22.5 45.5t-46 39t-70.5 15.5h-82q-40 0 -70.5 -15.5t-46 -39t-22.5 -45.5t-7 -42v-30q0 -79 48.5 -120t138.5 -41t138.5 41t48.5 120z" />
    <glyph glyph-name="nine.fitted" unicode="&#xf641;" 
d="M516 254q0 -137 -61 -198.5t-184 -61.5q-74 0 -159 19q-22 4 -22 18v10q0 18 24 13q87 -18 157 -18q105 0 153 49.5t48 168.5v62q-102 -26 -185 -26q-44 0 -81.5 10t-70.5 31t-52 61t-19 94v5q0 129 55.5 193t175.5 64q112 0 166.5 -64t54.5 -195v-235zM472 355v134
q0 118 -42.5 168.5t-134.5 50.5q-93 0 -140 -51t-47 -166v-5q0 -44 15.5 -75.5t42 -48t56.5 -24t65 -7.5q93 0 185 24z" />
    <glyph glyph-name="zero.taboldstyle" unicode="&#xf643;" 
d="M520 273q0 -141 -60.5 -210t-169.5 -69t-169.5 69t-60.5 210v66q0 140 60.5 209t169.5 69t169.5 -69t60.5 -209v-66zM476 273v66q0 118 -47.5 178t-138.5 60t-138.5 -60t-47.5 -178v-66q0 -118 47.5 -178.5t138.5 -60.5t138.5 60.5t47.5 178.5z" />
    <glyph glyph-name="one.taboldstyle" unicode="&#xf644;" 
d="M85 41h171v538l-172 -22h-5q-15 0 -15 13v5q0 16 20 20l193 27h5q18 0 18 -20v-561h171q20 0 20 -15v-11q0 -15 -20 -15h-386q-20 0 -20 15v11q0 15 20 15z" />
    <glyph glyph-name="two.taboldstyle" unicode="&#xf645;" 
d="M500 481q0 -38 -11 -66.5t-39 -54t-54.5 -43.5t-78.5 -49q-8 -5 -12 -7q-43 -25 -64.5 -39t-48 -35t-38.5 -39t-20.5 -42.5t-8.5 -54.5v-10h346q20 0 20 -15v-11q0 -15 -20 -15h-371q-9 0 -14.5 6t-5.5 14v31q0 37 11.5 69t27.5 54t47 47t53.5 39.5t64.5 38.5
q52 30 75 45t49 38t35 46t9 53q0 46 -40.5 70.5t-143.5 24.5q-76 0 -153 -15q-1 0 -3 -1h-2q-16 0 -16 16v11q0 12 19 16q70 15 168 15q219 0 219 -137z" />
    <glyph glyph-name="three.taboldstyle" unicode="&#xf646;" 
d="M496 76q0 -212 -248 -212q-75 0 -146 15q-18 4 -18 18v6q0 16 16 16h4q78 -13 144 -13q104 0 152.5 40t48.5 130v20q0 50 -35.5 96.5t-106.5 46.5h-187q-8 0 -13.5 5t-5.5 13v7q0 18 19 18h187q41 0 70.5 14t44 37t21 45t6.5 45v12q0 81 -47.5 111t-153.5 30
q-54 0 -144 -15h-4q-16 0 -16 16v8q0 14 18 18q84 15 146 15q124 0 186 -40t62 -143v-12q0 -120 -104 -165q53 -24 78.5 -70.5t25.5 -91.5v-20z" />
    <glyph glyph-name="four.taboldstyle" unicode="&#xf647;" 
d="M542 103q0 -17 -19 -17h-100v-197q0 -19 -16 -19h-12q-16 0 -16 19v197h-277q-30 0 -47 15.5t-17 38.5q0 21 14 42l280 411q16 25 51 25q40 0 40 -48v-442h100q19 0 19 -16v-9zM379 128v436q0 8 -6 8q-4 0 -10 -8l-273 -401q-10 -16 -10 -23q0 -12 22 -12h277z" />
    <glyph glyph-name="five.taboldstyle" unicode="&#xf648;" 
d="M503 79q0 -106 -69 -163.5t-184 -57.5q-77 0 -154 18q-19 3 -19 19v11q0 13 13 13q5 0 8 -1q77 -18 152 -18q101 0 155 45t54 134v25q0 86 -56 120.5t-185 34.5h-106q-20 0 -20 20v2l23 309q2 17 20 17h326q20 0 20 -16v-11q0 -14 -20 -14h-303l-18 -266h78
q158 0 221.5 -48t63.5 -148v-25z" />
    <glyph glyph-name="six.taboldstyle" unicode="&#xf649;" 
d="M516 251q0 -129 -55.5 -193t-175.5 -64q-112 0 -166.5 64t-54.5 195v235q0 137 61 198.5t184 61.5q74 0 159 -19q22 -4 22 -18v-10q0 -14 -16 -14q-5 0 -8 1q-87 18 -157 18q-105 0 -153 -49.5t-48 -168.5v-62q102 26 185 26q44 0 81.5 -10t70.5 -31t52 -61t19 -94v-5z
M472 251v5q0 44 -15.5 75.5t-42 48t-56.5 24t-65 7.5q-93 0 -185 -24v-134q0 -118 42.5 -168.5t134.5 -50.5q93 0 140 51t47 166z" />
    <glyph glyph-name="seven.taboldstyle" unicode="&#xf64a;" 
d="M517 582q0 -12 -5 -22l-320 -676q-4 -10 -18 -10h-15q-15 0 -15 15q0 6 3 12l316 659q1 2 1 6q0 8 -8 8h-374q-20 0 -20 16v8q0 8 6 13.5t14 5.5h396q17 0 28 -9.5t11 -25.5z" />
    <glyph glyph-name="eight.taboldstyle" unicode="&#xf64b;" 
d="M524 197q0 -100 -64 -151.5t-170 -51.5t-170 51.5t-64 151.5v30q0 46 27 93t77 69q-48 17 -76 59.5t-28 95.5v22q0 91 63 136.5t171 45.5t171 -45.5t63 -136.5v-22q0 -53 -28 -95.5t-76 -59.5q50 -22 77 -69t27 -93v-30zM477 544v22q0 140 -187 140t-187 -140v-22
q0 -52 34.5 -92t111.5 -40h82q77 0 111.5 40t34.5 92zM477 197v30q0 20 -7 42t-22.5 45.5t-46 39t-70.5 15.5h-82q-40 0 -70.5 -15.5t-46 -39t-22.5 -45.5t-7 -42v-30q0 -79 48.5 -120t138.5 -41t138.5 41t48.5 120z" />
    <glyph glyph-name="nine.taboldstyle" unicode="&#xf64c;" 
d="M516 123q0 -137 -61 -198.5t-184 -61.5q-74 0 -159 19q-22 4 -22 18v10q0 14 16 14q5 0 8 -1q87 -18 157 -18q105 0 153 49.5t48 168.5v62q-102 -26 -185 -26q-44 0 -81.5 10t-70.5 31t-52 61t-19 94v5q0 129 55.5 193t175.5 64q112 0 166.5 -64t54.5 -195v-235zM472 224
v134q0 118 -42.5 168.5t-134.5 50.5q-93 0 -140 -51t-47 -166v-5q0 -44 15.5 -75.5t42 -48t56.5 -24t65 -7.5q93 0 185 24z" />
    <glyph glyph-name="zero.denominator" unicode="&#xf655;" horiz-adv-x="319" 
d="M291 154q0 -79 -34.5 -118t-96.5 -39t-97 39t-35 118v107q0 156 132 156q131 0 131 -156v-107zM252 154v107q0 119 -92 119q-93 0 -93 -119v-107q0 -120 93 -120q92 0 92 120z" />
    <glyph glyph-name="one.denominator" unicode="&#xf656;" horiz-adv-x="210" 
d="M92 375v-357q0 -18 16 -18h8q16 0 16 18v379q0 11 -4 16t-17 3l-76 -11q-18 -4 -18 -19q0 -22 20 -19z" />
    <glyph glyph-name="two.denominator" unicode="&#xf657;" horiz-adv-x="319" 
d="M67 377q-20 -2 -20 12v3q0 17 19 19q39 6 81 6q133 0 133 -93q0 -33 -16 -61t-60 -57l-55 -37q-44 -30 -57 -54.5t-13 -62.5v-14h178q18 0 18 -16v-6q0 -16 -18 -16h-200q-8 0 -13 6t-5 13v33q0 45 17.5 78.5t69.5 69.5l55 38q34 23 46 40t12 46q0 58 -92 58
q-33 0 -80 -5z" />
    <glyph glyph-name="three.denominator" unicode="&#xf658;" horiz-adv-x="319" 
d="M237 129v-11q0 -46 -24.5 -66t-75.5 -20q-23 0 -77 6q-19 2 -19 -12v-4q0 -16 16 -18q38 -7 80 -7q69 0 105 28t36 93v11q0 61 -47 87q47 30 47 89v7q0 60 -35 82.5t-106 22.5q-42 0 -80 -7q-16 -2 -16 -18v-4q0 -14 19 -12q54 6 77 6q53 0 76.5 -15t23.5 -55v-7
q0 -68 -68 -68h-101q-18 0 -18 -17v-4q0 -17 18 -17h101q68 0 68 -70z" />
    <glyph glyph-name="four.denominator" unicode="&#xf659;" horiz-adv-x="319" 
d="M199 154h-135q-8 0 -4 7l134 201q5 7 5 -1v-207zM215 0h8q16 0 16 18v99h46q18 0 18 17v4q0 16 -18 16h-46v230q0 33 -29 33q-24 0 -36 -19l-147 -215q-11 -16 -11 -30q0 -16 11.5 -26t30.5 -10h141v-99q0 -18 16 -18z" />
    <glyph glyph-name="five.denominator" unicode="&#xf65a;" horiz-adv-x="319" 
d="M135 32q51 0 79 24t28 71v4q0 47 -29.5 64t-101.5 17h-47q-10 0 -14.5 4t-3.5 17l11 166q2 17 19 17h176q18 0 18 -17v-6q0 -16 -18 -16h-156l-8 -127h30q85 0 124.5 -26.5t39.5 -92.5v-4q0 -63 -40 -96.5t-107 -33.5q-45 0 -83 7q-16 2 -16 18v4q0 14 19 12q54 -6 80 -6
z" />
    <glyph glyph-name="six.denominator" unicode="&#xf65b;" horiz-adv-x="319" 
d="M30 270q0 78 35 112.5t105 34.5q44 0 87 -9q18 -2 18 -18v-5q0 -18 -22 -14q-46 8 -83 8q-53 0 -77 -24.5t-24 -84.5v-20q39 9 88 9q132 0 132 -119q0 -143 -132 -143q-127 0 -127 147v126zM69 214v-70q0 -60 21 -86t67 -26q47 0 70 24.5t23 83.5q0 45 -22.5 64t-74.5 19
q-48 0 -84 -9z" />
    <glyph glyph-name="seven.denominator" unicode="&#xf65c;" horiz-adv-x="292" 
d="M62 26l166 345q2 5 -4 5h-189q-19 0 -19 17v4q0 7 6 13t13 6h213q17 0 24.5 -13t-0.5 -31l-169 -355q-9 -17 -19 -17h-14q-21 0 -8 26z" />
    <glyph glyph-name="eight.denominator" unicode="&#xf65d;" horiz-adv-x="319" 
d="M293 113q0 -57 -36.5 -86.5t-96.5 -29.5q-61 0 -97.5 29.5t-36.5 86.5v17q0 23 12.5 47t36.5 39q-49 27 -49 84v12q0 53 36 79t98 26t97.5 -26t35.5 -79v-12q0 -57 -49 -84q24 -15 36.5 -39t12.5 -47v-17zM252 113v17q0 23 -17 45.5t-54 22.5h-44q-36 0 -53 -22.5
t-17 -45.5v-17q0 -78 93 -78q92 0 92 78zM252 300v12q0 67 -92 67q-93 0 -93 -67v-12q0 -25 16.5 -43.5t53.5 -18.5h44q38 0 54.5 18.5t16.5 43.5z" />
    <glyph glyph-name="nine.denominator" unicode="&#xf65e;" horiz-adv-x="319" 
d="M289 144q0 -78 -35 -112.5t-105 -34.5q-44 0 -87 9q-18 2 -18 18v5q0 18 22 14q46 -8 83 -8q53 0 77 24.5t24 84.5v20q-39 -9 -88 -9q-132 0 -132 119q0 143 132 143q127 0 127 -147v-126zM250 200v70q0 60 -21 86t-67 26q-47 0 -70 -24.5t-23 -83.5q0 -45 22.5 -64
t74.5 -19q48 0 84 9z" />
    <glyph glyph-name="zero.numerator" unicode="&#xf661;" horiz-adv-x="319" 
d="M291 486q0 -79 -34.5 -118t-96.5 -39t-97 39t-35 118v107q0 156 132 156q131 0 131 -156v-107zM252 486v107q0 119 -92 119q-93 0 -93 -119v-107q0 -120 93 -120q92 0 92 120z" />
    <glyph glyph-name="one.numerator" unicode="&#xf662;" horiz-adv-x="210" 
d="M92 707v-357q0 -18 16 -18h8q16 0 16 18v379q0 11 -4 16t-17 3l-76 -11q-18 -4 -18 -19q0 -22 20 -19z" />
    <glyph glyph-name="two.numerator" unicode="&#xf663;" horiz-adv-x="319" 
d="M67 709q-20 -2 -20 12v3q0 17 19 19q39 6 81 6q133 0 133 -93q0 -33 -16 -61t-60 -57l-55 -37q-44 -30 -57 -54.5t-13 -62.5v-14h178q18 0 18 -16v-6q0 -16 -18 -16h-200q-8 0 -13 6t-5 13v33q0 45 17.5 78.5t69.5 69.5l55 38q34 23 46 40t12 46q0 58 -92 58
q-33 0 -80 -5z" />
    <glyph glyph-name="three.numerator" unicode="&#xf664;" horiz-adv-x="319" 
d="M237 461v-11q0 -46 -24.5 -66t-75.5 -20q-23 0 -77 6q-19 2 -19 -12v-4q0 -16 16 -18q39 -7 80 -7q69 0 105 28t36 93v11q0 61 -47 87q47 30 47 89v7q0 60 -35 82.5t-106 22.5q-42 0 -80 -7q-16 -2 -16 -18v-4q0 -14 19 -12q54 6 77 6q53 0 76.5 -15t23.5 -55v-7
q0 -68 -68 -68h-101q-18 0 -18 -17v-4q0 -17 18 -17h101q68 0 68 -70z" />
    <glyph glyph-name="four.numerator" unicode="&#xf665;" horiz-adv-x="319" 
d="M199 486h-135q-8 0 -4 7l134 201q5 7 5 -1v-207zM215 332h8q16 0 16 18v99h46q18 0 18 17v4q0 16 -18 16h-46v230q0 33 -29 33q-24 0 -36 -19l-147 -215q-11 -16 -11 -30q0 -16 11.5 -26t30.5 -10h141v-99q0 -18 16 -18z" />
    <glyph glyph-name="five.numerator" unicode="&#xf666;" horiz-adv-x="319" 
d="M135 364q51 0 79 24t28 71v4q0 47 -29.5 64t-101.5 17h-47q-10 0 -14.5 4t-3.5 17l11 166q2 17 19 17h176q18 0 18 -17v-6q0 -16 -18 -16h-156l-8 -127h30q85 0 124.5 -26.5t39.5 -92.5v-4q0 -63 -40 -96.5t-107 -33.5q-45 0 -83 7q-16 2 -16 18v4q0 14 19 12
q54 -6 80 -6z" />
    <glyph glyph-name="six.numerator" unicode="&#xf667;" horiz-adv-x="319" 
d="M30 602q0 78 35 112.5t105 34.5q44 0 87 -9q18 -2 18 -18v-5q0 -18 -22 -14q-46 8 -83 8q-53 0 -77 -24.5t-24 -84.5v-20q39 9 88 9q132 0 132 -119q0 -143 -132 -143q-127 0 -127 147v126zM69 546v-70q0 -60 21 -86t67 -26q47 0 70 24.5t23 83.5q0 45 -22.5 64t-74.5 19
q-48 0 -84 -9z" />
    <glyph glyph-name="seven.numerator" unicode="&#xf668;" horiz-adv-x="292" 
d="M62 358l166 345q2 5 -4 5h-189q-19 0 -19 17v4q0 7 6 13t13 6h213q17 0 24.5 -13t-0.5 -31l-169 -355q-9 -17 -19 -17h-14q-21 0 -8 26z" />
    <glyph glyph-name="eight.numerator" unicode="&#xf669;" horiz-adv-x="319" 
d="M293 445q0 -57 -36.5 -86.5t-96.5 -29.5q-61 0 -97.5 29.5t-36.5 86.5v17q0 23 12.5 47t36.5 39q-49 27 -49 84v12q0 53 36 79t98 26t97.5 -26t35.5 -79v-12q0 -57 -49 -84q24 -15 36.5 -39t12.5 -47v-17zM252 445v17q0 23 -17 45.5t-54 22.5h-44q-36 0 -53 -22.5
t-17 -45.5v-17q0 -78 93 -78q92 0 92 78zM252 632v12q0 67 -92 67q-93 0 -93 -67v-12q0 -25 16.5 -43.5t53.5 -18.5h44q38 0 54.5 18.5t16.5 43.5z" />
    <glyph glyph-name="nine.numerator" unicode="&#xf66a;" horiz-adv-x="319" 
d="M289 476q0 -78 -35 -112.5t-105 -34.5q-44 0 -87 9q-18 2 -18 18v5q0 18 22 14q46 -8 83 -8q53 0 77 24.5t24 84.5v20q-39 -9 -88 -9q-132 0 -132 119q0 143 132 143q127 0 127 -147v-126zM250 532v70q0 60 -21 86t-67 26q-47 0 -70 -24.5t-23 -83.5q0 -45 22.5 -64
t74.5 -19q48 0 84 9z" />
    <glyph glyph-name="commaaccent" unicode="&#xf6c3;" horiz-adv-x="330" 
d="M178 -55h24q12 0 12 -10q0 -6 -2 -9l-56 -102q-10 -19 -24 -19h-9q-9 0 -9 9q0 5 1 7l43 105q7 19 20 19z" />
    <glyph glyph-name="one.fitted" unicode="&#xf6dc;" horiz-adv-x="381" 
d="M226 20q0 -8 -6 -14t-14 -6h-4q-8 0 -14 6t-6 14v680l-118 -15q-20 -3 -20 13v5q0 16 20 20l139 20q23 3 23 -20v-703z" />
    <glyph glyph-name="a.superior" unicode="&#xf6e9;" horiz-adv-x="268" 
d="M234 529v-184q0 -15 -14 -15h-6q-14 0 -14 15v7q-48 -25 -84 -25q-92 0 -92 92v7q0 45 32 66.5t107 21.5h37v15q0 40 -14 57t-50 17q-35 0 -76 -4q-18 -2 -18 14q0 14 16 16q37 5 78 5q55 0 76.5 -27.5t21.5 -77.5zM200 381v103h-37q-58 0 -81.5 -13t-23.5 -45v-7
q0 -61 58 -61q35 0 84 23z" />
    <glyph glyph-name="b.superior" unicode="&#xf6ea;" horiz-adv-x="277" 
d="M250 463q0 -136 -111 -136q-44 0 -92 10q-11 3 -11 16v374q0 16 13 16h5q15 0 15 -16v-99q33 6 70 6q111 0 111 -134v-37zM217 463v37q0 104 -78 104q-44 0 -70 -5v-237q33 -5 70 -5q78 0 78 106z" />
    <glyph glyph-name="d.superior" unicode="&#xf6eb;" horiz-adv-x="277" 
d="M242 353q0 -12 -12 -16q-48 -10 -92 -10q-111 0 -111 136v37q0 134 111 134q38 0 71 -6v99q0 16 14 16h5q14 0 14 -16v-374zM209 363v235q-35 5 -71 5q-78 0 -78 -103v-37q0 -106 78 -106q31 0 71 6z" />
    <glyph glyph-name="e.superior" unicode="&#xf6ec;" horiz-adv-x="281" 
d="M254 485q0 -15 -15 -15h-179v-7q0 -62 22.5 -83.5t71.5 -21.5q20 0 79 7q17 2 17 -13q0 -13 -13 -16q-49 -9 -83 -9q-63 0 -95 30.5t-32 105.5v37q0 60 30 97t84 37q56 0 84.5 -36t28.5 -98v-15zM141 603q-79 0 -81 -101h157q-2 101 -76 101z" />
    <glyph glyph-name="i.superior" unicode="&#xf6ed;" horiz-adv-x="112" 
d="M70 345q0 -6 -4.5 -10.5t-10.5 -4.5h-4q-6 0 -10.5 4.5t-4.5 10.5v271q0 6 4.5 10.5t10.5 4.5h4q6 0 10.5 -4.5t4.5 -10.5v-271zM70 690q0 -15 -15 -15h-4q-15 0 -15 15v40q0 6 4.5 10.5t10.5 4.5h4q6 0 10.5 -4.5t4.5 -10.5v-40z" />
    <glyph glyph-name="l.superior" unicode="&#xf6ee;" horiz-adv-x="112" 
d="M70 345q0 -15 -14 -15h-6q-14 0 -14 15v382q0 16 14 16h6q14 0 14 -16v-382z" />
    <glyph glyph-name="m.superior" unicode="&#xf6ef;" horiz-adv-x="410" 
d="M69 582v-237q0 -15 -14 -15h-6q-13 0 -13 15v270q0 16 14 16h6q13 0 13 -16v-6q40 23 78 23q37 0 56 -22q41 22 83 22q40 0 64.5 -22t24.5 -71v-194q0 -15 -15 -15h-5q-14 0 -14 15v194q0 64 -59 64q-29 0 -66 -16q6 -18 6 -45v-197q0 -15 -13 -15h-8q-13 0 -13 15v197
q0 61 -46 61q-31 0 -73 -21z" />
    <glyph glyph-name="o.superior" unicode="&#xf6f0;" horiz-adv-x="287" 
d="M260 461q0 -64 -29.5 -99t-86.5 -35q-58 0 -87.5 34.5t-29.5 99.5v39q0 64 29.5 99t87.5 35q57 0 86.5 -35t29.5 -99v-39zM227 461v39q0 103 -83 103q-84 0 -84 -103v-39q0 -103 84 -103q83 0 83 103z" />
    <glyph glyph-name="r.superior" unicode="&#xf6f1;" horiz-adv-x="170" 
d="M35 345v270q0 16 14 16h5q14 0 14 -16v-7q34 26 74 26q20 0 20 -13v-4q0 -13 -20 -13q-37 0 -74 -24v-235q0 -15 -14 -15h-6q-13 0 -13 15z" />
    <glyph glyph-name="s.superior" unicode="&#xf6f2;" horiz-adv-x="242" 
d="M218 407q0 -41 -27.5 -60.5t-71.5 -19.5q-46 0 -79 7q-16 3 -16 14v4q0 15 18 12q52 -6 77 -6q65 0 65 49q0 16 -11 27t-43 28l-35 19q-36 19 -52 37t-16 47q0 69 87 69q37 0 79 -6q16 -3 16 -13v-4q0 -9 -3.5 -11.5t-14.5 -1.5q-57 5 -74 5q-28 0 -42.5 -7.5
t-14.5 -30.5q0 -30 50 -56l37 -19q37 -19 54 -37.5t17 -45.5z" />
    <glyph glyph-name="t.superior" unicode="&#xf6f3;" horiz-adv-x="209" 
d="M191 342q0 -11 -13 -14q-9 -1 -30 -1q-33 0 -49.5 13.5t-16.5 49.5v209h-49q-15 0 -15 14v5q0 13 15 13h49v51q0 15 14 15h6q14 0 14 -15v-51h60q15 0 15 -13v-5q0 -14 -15 -14h-60v-209q0 -20 7.5 -26t24.5 -6h26q17 0 17 -13v-3z" />
    <glyph glyph-name="zero.oldstyle" unicode="&#xf730;" 
d="M520 273q0 -141 -60.5 -210t-169.5 -69t-169.5 69t-60.5 210v66q0 140 60.5 209t169.5 69t169.5 -69t60.5 -209v-66zM476 273v66q0 118 -47.5 178t-138.5 60t-138.5 -60t-47.5 -178v-66q0 -118 47.5 -178.5t138.5 -60.5t138.5 60.5t47.5 178.5z" />
    <glyph glyph-name="one.oldstyle" unicode="&#xf731;" horiz-adv-x="407" 
d="M253 20q0 -8 -6 -14t-14 -6h-4q-8 0 -14 6t-6 14v554l-118 -15h-5q-15 0 -15 13v5q0 16 20 20l139 20h5q18 0 18 -20v-577z" />
    <glyph glyph-name="two.oldstyle" unicode="&#xf732;" 
d="M500 481q0 -38 -11 -66.5t-39 -54t-54.5 -43.5t-78.5 -49q-8 -5 -12 -7q-43 -25 -64.5 -39t-48 -35t-38.5 -39t-20.5 -42.5t-8.5 -54.5v-10h346q20 0 20 -15v-11q0 -15 -20 -15h-371q-9 0 -14.5 6t-5.5 14v31q0 37 11.5 69t27.5 54t47 47t53.5 39.5t64.5 38.5
q52 30 75 45t49 38t35 46t9 53q0 46 -40.5 70.5t-143.5 24.5q-76 0 -153 -15q-1 0 -3 -1h-2q-16 0 -16 16v11q0 12 19 16q70 15 168 15q219 0 219 -137z" />
    <glyph glyph-name="three.oldstyle" unicode="&#xf733;" 
d="M496 76q0 -212 -248 -212q-75 0 -146 15q-18 4 -18 18v6q0 16 16 16h4q78 -13 144 -13q104 0 152.5 40t48.5 130v20q0 50 -35.5 96.5t-106.5 46.5h-187q-8 0 -13.5 5t-5.5 13v7q0 18 19 18h187q41 0 70.5 14t44 37t21 45t6.5 45v12q0 81 -47.5 111t-153.5 30
q-54 0 -144 -15h-4q-16 0 -16 16v8q0 14 18 18q84 15 146 15q124 0 186 -40t62 -143v-12q0 -120 -104 -165q53 -24 78.5 -70.5t25.5 -91.5v-20z" />
    <glyph glyph-name="four.oldstyle" unicode="&#xf734;" 
d="M542 103q0 -17 -19 -17h-100v-197q0 -19 -16 -19h-12q-16 0 -16 19v197h-277q-30 0 -47 15.5t-17 38.5q0 21 14 42l280 411q16 25 51 25q40 0 40 -48v-442h100q19 0 19 -16v-9zM379 128v436q0 8 -6 8q-4 0 -10 -8l-273 -401q-10 -16 -10 -23q0 -12 22 -12h277z" />
    <glyph glyph-name="five.oldstyle" unicode="&#xf735;" 
d="M503 79q0 -106 -69 -163.5t-184 -57.5q-77 0 -154 18q-19 3 -19 19v11q0 13 13 13q5 0 8 -1q77 -18 152 -18q101 0 155 45t54 134v25q0 86 -56 120.5t-185 34.5h-106q-20 0 -20 20v2l23 309q2 17 20 17h326q20 0 20 -16v-11q0 -14 -20 -14h-303l-18 -266h78
q158 0 221.5 -48t63.5 -148v-25z" />
    <glyph glyph-name="six.oldstyle" unicode="&#xf736;" 
d="M516 251q0 -129 -55.5 -193t-175.5 -64q-112 0 -166.5 64t-54.5 195v235q0 137 61 198.5t184 61.5q74 0 159 -19q22 -4 22 -18v-10q0 -14 -16 -14q-5 0 -8 1q-87 18 -157 18q-105 0 -153 -49.5t-48 -168.5v-62q102 26 185 26q44 0 81.5 -10t70.5 -31t52 -61t19 -94v-5z
M472 251v5q0 44 -15.5 75.5t-42 48t-56.5 24t-65 7.5q-93 0 -185 -24v-134q0 -118 42.5 -168.5t134.5 -50.5q93 0 140 51t47 166z" />
    <glyph glyph-name="seven.oldstyle" unicode="&#xf737;" horiz-adv-x="560" 
d="M496 582q0 -12 -5 -22l-320 -676q-4 -10 -18 -10h-15q-15 0 -15 15q0 6 3 12l316 659q1 2 1 6q0 8 -8 8h-374q-20 0 -20 16v8q0 8 6 13.5t14 5.5h396q17 0 28 -9.5t11 -25.5z" />
    <glyph glyph-name="eight.oldstyle" unicode="&#xf738;" 
d="M524 197q0 -100 -64 -151.5t-170 -51.5t-170 51.5t-64 151.5v30q0 46 27 93t77 69q-48 17 -76 59.5t-28 95.5v22q0 91 63 136.5t171 45.5t171 -45.5t63 -136.5v-22q0 -53 -28 -95.5t-76 -59.5q50 -22 77 -69t27 -93v-30zM477 544v22q0 140 -187 140t-187 -140v-22
q0 -52 34.5 -92t111.5 -40h82q77 0 111.5 40t34.5 92zM477 197v30q0 20 -7 42t-22.5 45.5t-46 39t-70.5 15.5h-82q-40 0 -70.5 -15.5t-46 -39t-22.5 -45.5t-7 -42v-30q0 -79 48.5 -120t138.5 -41t138.5 41t48.5 120z" />
    <glyph glyph-name="nine.oldstyle" unicode="&#xf739;" 
d="M516 123q0 -137 -61 -198.5t-184 -61.5q-74 0 -159 19q-22 4 -22 18v10q0 14 16 14q5 0 8 -1q87 -18 157 -18q105 0 153 49.5t48 168.5v62q-102 -26 -185 -26q-44 0 -81.5 10t-70.5 31t-52 61t-19 94v5q0 129 55.5 193t175.5 64q112 0 166.5 -64t54.5 -195v-235zM472 224
v134q0 118 -42.5 168.5t-134.5 50.5q-93 0 -140 -51t-47 -166v-5q0 -44 15.5 -75.5t42 -48t56.5 -24t65 -7.5q93 0 185 24z" />
    </font>
</defs>
</svg>
