<?xml version="1.0" encoding="utf-8"?>
<!-- Generator: Adobe Illustrator 15.0.0, SVG Export Plug-In . SVG Version: 6.00 Build 0)  -->
<!DOCTYPE svg PUBLIC "-//W3C//DTD SVG 1.1//EN" "http://www.w3.org/Graphics/SVG/1.1/DTD/svg11.dtd">
<svg version="1.1" id="Layer_1" xmlns="http://www.w3.org/2000/svg" xmlns:xlink="http://www.w3.org/1999/xlink" x="0px" y="0px"
	 width="300px" height="61px" viewBox="0 0 300 61" enable-background="new 0 0 300 61" xml:space="preserve">
<g>
	<polygon fill-rule="evenodd" clip-rule="evenodd" fill="#F1C81E" points="113,54 113,55 115,55 115,61 116,61 116,55 118,55 
		118,54 	"/>
	<path fill-rule="evenodd" clip-rule="evenodd" fill="#F1C81E" d="M120,54v3.83c0,0.84,0.12,1.5,0.38,1.94
		C120.83,60.59,121.7,61,123,61c1.28,0,2.16-0.41,2.62-1.23c0.26-0.44,0.38-1.1,0.38-1.94V54h-1v4.17c0,0.5-0.09,0.88-0.27,1.16
		c-0.32,0.53-0.93,0.79-1.82,0.79c-0.75,0-1.29-0.23-1.6-0.73c-0.22-0.31-0.31-0.72-0.31-1.22V54H120z"/>
	<polygon fill-rule="evenodd" clip-rule="evenodd" fill="#F1C81E" points="130,61 131,61 131,57.3 131,56.61 131,55.91 131,55.72 
		132.81,61 134.19,61 136,55.72 136,56.67 136,57.3 136,61 137,61 137,54 135.8,54 133.5,59.92 131.2,54 130,54 	"/>
	<polygon fill-rule="evenodd" clip-rule="evenodd" fill="#F1C81E" points="138,61 143,61 143,60 139,60 139,58 143,58 143,57 
		139,57 139,55 143,55 143,54 138,54 	"/>
	<path fill-rule="evenodd" clip-rule="evenodd" fill="#F1C81E" d="M145,61h1v-3h2.45c0.44,0,0.77,0.05,0.97,0.12
		c0.36,0.16,0.55,0.47,0.58,0.93v1.17c0,0.28,0,0.45,0.02,0.55c0.01,0.09,0.03,0.17,0.06,0.23H151v-1v-1.05
		c-0.03-0.45-0.12-0.78-0.28-1c-0.16-0.2-0.41-0.37-0.72-0.5c0.31-0.15,0.55-0.36,0.73-0.62c0.18-0.25,0.27-0.6,0.27-1
		c0-0.78-0.36-1.31-1.06-1.61c-0.38-0.14-0.86-0.22-1.44-0.22H145V61z M146,57v-2h2.55c0.34,0,0.64,0.05,0.86,0.12
		c0.39,0.16,0.59,0.44,0.59,0.85c0,0.39-0.16,0.65-0.44,0.81c-0.28,0.16-0.67,0.22-1.15,0.22H146z"/>
	<polygon fill-rule="evenodd" clip-rule="evenodd" fill="#F1C81E" points="155.19,54 154.2,54 152,56.2 152,57.44 152,58.8 
		154.2,61 155.03,61 155.8,61 158,58.8 158,58 157,58 157,58.2 155.2,60 155.12,60 154.8,60 153,58.2 153,57.58 153,56.8 154.8,55 
		155.17,55 155.7,55 157,55.8 157,56 158,56 158,55.2 155.8,54 	"/>
	<path fill-rule="evenodd" clip-rule="evenodd" fill="#F1C81E" d="M158.42,61h1.02l0.68-2h2.72l0.66,2h1.02l-2.35-7h-1.34L158.42,61
		z M160.45,58l1.05-3l1,3H160.45z"/>
	<path fill-rule="evenodd" clip-rule="evenodd" fill="#F1C81E" d="M166,61h2.94h0.86l2.2-2.2v-1.41V56.2l-2.2-2.2h-0.86H166V61z
		 M167,60v-5h1.73h0.47l1.8,1.8v0.75v0.65l-1.8,1.8h-0.45H167z"/>
	<path fill-rule="evenodd" clip-rule="evenodd" fill="#F1C81E" d="M176.56,60h-0.76l-1.8-1.8v-0.62V56.8l1.8-1.8h0.73h0.67l1.8,1.8
		v0.61v0.79l-1.8,1.8H176.56z M176.47,54h-1.27l-2.2,2.2v1.33v1.27l2.2,2.2h1.25h1.35l2.2-2.2v-1.42V56.2l-2.2-2.2H176.47z"/>
	<path fill-rule="evenodd" clip-rule="evenodd" fill="#F1C81E" d="M184,61h2.94h0.86l2.2-2.2v-1.41V56.2l-2.2-2.2h-0.86H184V61z
		 M185,60v-5h1.73h0.47l1.8,1.8v0.75v0.65l-1.8,1.8h-0.45H185z"/>
	<polygon fill-rule="evenodd" clip-rule="evenodd" fill="#F1C81E" points="191,61 196,61 196,60 192,60 192,58 196,58 196,57 
		192,57 192,55 196,55 196,54 191,54 	"/>
	<path fill-rule="evenodd" clip-rule="evenodd" fill="#F1C81E" d="M200.42,61h1.02l0.68-2h2.72l0.66,2h1.02l-2.35-7h-1.34L200.42,61
		z M202.45,58l1.05-3l1,3H202.45z"/>
	<polygon fill-rule="evenodd" clip-rule="evenodd" fill="#F1C81E" points="211.19,54 210.2,54 208,56.2 208,57.44 208,58.8 
		210.2,61 211.03,61 211.8,61 214,58.8 214,58 213,58 213,58.2 211.2,60 211.12,60 210.8,60 209,58.2 209,57.58 209,56.8 210.8,55 
		211.17,55 211.7,55 213,55.8 213,56 214,56 214,55.2 211.8,54 	"/>
	<polygon fill-rule="evenodd" clip-rule="evenodd" fill="#F1C81E" points="215,61 220,61 220,60 216,60 216,58 220,58 220,57 
		216,57 216,55 220,55 220,54 215,54 	"/>
	<path fill-rule="evenodd" clip-rule="evenodd" fill="#F1C81E" d="M222,61h1v-3h2.45c0.44,0,0.77,0.05,0.97,0.12
		c0.36,0.16,0.55,0.47,0.58,0.93v1.17c0,0.28,0,0.45,0.02,0.55c0.01,0.09,0.03,0.17,0.06,0.23H228v-1v-1.05
		c-0.03-0.45-0.12-0.78-0.28-1c-0.16-0.2-0.41-0.37-0.72-0.5c0.31-0.15,0.55-0.36,0.73-0.62c0.18-0.25,0.27-0.6,0.27-1
		c0-0.78-0.36-1.31-1.06-1.61c-0.38-0.14-0.86-0.22-1.44-0.22H222V61z M223,57v-2h2.55c0.34,0,0.64,0.05,0.86,0.12
		c0.39,0.16,0.59,0.44,0.59,0.85c0,0.39-0.16,0.65-0.44,0.81c-0.28,0.16-0.67,0.22-1.15,0.22H223z"/>
	<path fill-rule="evenodd" clip-rule="evenodd" fill="#F1C81E" d="M232.56,60h-0.76l-1.8-1.8v-0.62V56.8l1.8-1.8h0.73h0.67l1.8,1.8
		v0.61v0.79l-1.8,1.8H232.56z M232.47,54h-1.27l-2.2,2.2v1.33v1.27l2.2,2.2h1.25h1.35l2.2-2.2v-1.42V56.2l-2.2-2.2H232.47z"/>
	<path fill-rule="evenodd" clip-rule="evenodd" fill="#F1C81E" d="M243.56,60h-0.76l-1.8-1.8v-0.62V56.8l1.8-1.8h0.73h0.67l1.8,1.8
		v0.61v0.79l-1.8,1.8H243.56z M243.47,54h-1.27l-2.2,2.2v1.33v1.27l2.2,2.2h1.25h1.35l2.2-2.2v-1.42V56.2l-2.2-2.2H243.47z"/>
	<polygon fill-rule="evenodd" clip-rule="evenodd" fill="#F1C81E" points="248,61 249,61 249,55.16 252.83,61 254,61 254,54 253,54 
		253,59.73 249.23,54.12 248,54 	"/>
	<polygon fill-rule="evenodd" clip-rule="evenodd" fill="#F1C81E" points="255,61 260,61 260,60 256,60 256,54 255,54 	"/>
	<rect x="261" y="54" fill-rule="evenodd" clip-rule="evenodd" fill="#F1C81E" width="1" height="7"/>
	<polygon fill-rule="evenodd" clip-rule="evenodd" fill="#F1C81E" points="264,61 265,61 265,55.16 268.83,61 270,61 270,54 269,54 
		269,59.73 265.23,54.12 264,54 	"/>
	<polygon fill-rule="evenodd" clip-rule="evenodd" fill="#F1C81E" points="271,61 276,61 276,60 272,60 272,58 276,58 276,57 
		272,57 272,55 276,55 276,54 271,54 	"/>
</g>
<polygon fill-rule="evenodd" clip-rule="evenodd" fill="#F1C81E" points="0,39 15.86,39 57.26,0.26 41.05,0.42 "/>
<polygon fill-rule="evenodd" clip-rule="evenodd" fill="#F1C81E" points="24.98,39 41.05,39 83,0 66.58,0.16 "/>
<path fill-rule="evenodd" clip-rule="evenodd" fill="#5A5A5A" d="M46.83,35.17V22.05c0-6.26,2.83-10.34,9.4-10.34
	c6.58,0,9.39,4.06,9.39,10.34v2.67h-7.75v-3.49c0-2.11-0.17-3.54-1.64-3.54c-1.25,0-1.5,1.33-1.5,2.32v15.14
	c0,1.03,0.14,2.58,1.5,2.58c1.54,0,1.64-1.39,1.64-3.87V30.6h7.75v4.57c0,5.25-4.4,8.51-9.39,8.51
	C51.26,43.68,46.83,40.4,46.83,35.17z"/>
<path fill-rule="evenodd" clip-rule="evenodd" fill="#5A5A5A" d="M80.15,35.15V20.01c0-1.06-0.33-2.32-1.81-2.32
	c-1.43,0-1.61,1.33-1.61,2.32v15.14c0,1.03,0.04,2.58,1.61,2.58C79.96,37.73,80.15,36.23,80.15,35.15z M68.83,35.05v-13
	c0-6.26,2.76-10.32,9.51-10.32s9.64,4.04,9.64,10.32v13c0,5.25-4.53,8.63-9.64,8.63C73.26,43.68,68.83,40.28,68.83,35.05z"/>
<path fill-rule="evenodd" clip-rule="evenodd" fill="#5A5A5A" d="M92.2,43V12.41h7.9v2.18c1.41-1.64,3.52-2.88,5.77-2.88
	c2.11,0,3.91,1.57,4.75,3.45c1.48-2,3.8-3.45,6.38-3.45c3.4,0,5.48,3.59,5.48,6.66V43h-7.89V19.94c0-0.78,0-2.25-1.15-2.25
	c-0.8,0-1.78,1.24-2.16,1.73V43h-7.9V19.89c0-0.75-0.02-2.2-1.08-2.2c-0.91,0-1.78,1.17-2.22,1.76L100.1,43H92.2z"/>
<path fill-rule="evenodd" clip-rule="evenodd" fill="#5A5A5A" d="M127.23,51.7V12.41h7.89v2.07c1.2-1.55,3.03-2.77,5.09-2.77
	c3.68,0,6.35,3.61,6.35,7.36v18.07c0,3.4-2.58,6.54-6.11,6.54c-2.14,0-4.08-1.15-5.33-2.98v11H127.23z M138.66,35.52V19.7
	c0-0.91-0.11-2.01-1.31-2.01c-0.91,0-1.78,1.17-2.23,1.76v16.59c0.43,0.58,1.29,1.69,2.23,1.69
	C138.57,37.73,138.66,36.51,138.66,35.52z"/>
<path fill-rule="evenodd" clip-rule="evenodd" fill="#5A5A5A" d="M150.2,43V12.41h7.85v2.49c1.01-1.64,2.42-2.93,4.22-2.93
	c0.73,0,1.41,0.12,2.14,0.23l-0.47,6.66c-0.87-0.09-1.69-0.24-2.6-0.24c-2.16,0-3.29,1.39-3.29,3.85V43H150.2z"/>
<path fill-rule="evenodd" clip-rule="evenodd" fill="#F1C61E" d="M177.94,36.09l-0.03-7.53c-2.03,1.64-3.86,3.85-3.86,6.89
	c0,1.03,0.33,2.28,1.59,2.28C176.7,37.73,177.4,36.77,177.94,36.09z M179.53,43l-0.77-3.16c-0.99,3.04-3.28,3.84-6.07,3.84
	c-4.69,0-6.33-3.94-6.33-7.5c0-7.55,5.23-10.1,11.55-12.7V20.9c0-2.04-0.42-3.21-1.75-3.21c-1.83,0-1.9,1.71-1.9,3.21v1.73h-7.67
	c0-6.98,3.57-10.92,10.34-10.92c4.64,0,8.81,3.89,8.81,8.63v14.53c0,2.81,0.38,5.39,1.01,8.13H179.53z"/>
<path fill-rule="evenodd" clip-rule="evenodd" fill="#F1C61E" d="M189.83,35.17V22.05c0-6.26,2.83-10.34,9.4-10.34
	c6.58,0,9.39,4.06,9.39,10.34v2.67h-7.75v-3.49c0-2.11-0.17-3.54-1.64-3.54c-1.25,0-1.5,1.33-1.5,2.32v15.14
	c0,1.03,0.14,2.58,1.5,2.58c1.54,0,1.64-1.39,1.64-3.87V30.6h7.75v4.57c0,5.25-4.4,8.51-9.39,8.51
	C194.26,43.68,189.83,40.4,189.83,35.17z"/>
<path fill-rule="evenodd" clip-rule="evenodd" fill="#F1C61E" d="M219.73,24.23h3.07v-4.22c0-1.06-0.28-2.32-1.57-2.32
	c-1.25,0-1.5,1.33-1.5,2.32V24.23z M211.83,35.05v-13c0-6.26,2.83-10.34,9.4-10.34c6.58,0,9.39,4.06,9.39,10.34v6.33h-10.89v6.77
	c0,1.01,0.11,2.58,1.5,2.58c1.4,0,1.64-1.46,1.64-2.77v-3.35h7.75v3.44c0,5.25-4.4,8.63-9.39,8.63
	C216.26,43.68,211.83,40.28,211.83,35.05z"/>
<path fill-rule="evenodd" clip-rule="evenodd" fill="#F1C61E" d="M234.2,43V12.41h7.85v2.49c1.01-1.64,2.42-2.93,4.22-2.93
	c0.73,0,1.41,0.12,2.14,0.23l-0.47,6.66c-0.87-0.09-1.69-0.24-2.6-0.24c-2.16,0-3.29,1.39-3.29,3.85V43H234.2z"/>
<polygon fill-rule="evenodd" clip-rule="evenodd" fill="#1F1A1C" points="264.43,44.55 267.44,46.58 268.45,46.24 279.52,51.98 
	284.55,52.31 285.9,49.61 288.58,51.3 290.26,47.93 288.92,44.21 284.22,42.53 268.45,42.19 "/>
<path fill-rule="evenodd" clip-rule="evenodd" fill="#C0C0C0" d="M279.98,7.07c0.98-0.23,2.55,0.14,4.24,0.36
	c8.83,1.12,12.75,7.09,12.75,7.09s5.81,9.67,1.34,18.89c0,0-1.12,2.37-4.03,5.4c-2.9,3.04-29.85,7.43-29.85,7.43l-4.7-34.42
	l6.13-1.55C265.86,10.27,274.86,8.25,279.98,7.07z"/>
<path fill-rule="evenodd" clip-rule="evenodd" fill="#424242" d="M270.46,41.18l26.51-5.74c0,0-2.58,4.95-8.73,6.41
	c-6.15,1.46-22.81,4.39-22.81,4.39L270.46,41.18z"/>
<path fill-rule="evenodd" clip-rule="evenodd" fill="#818181" d="M273.69,26.4l25.41-6.49c0,0,1.45,7.44-0.35,11.66l-25.27,5.56
	C273.48,37.13,275.06,31.48,273.69,26.4z"/>
<path fill-rule="evenodd" clip-rule="evenodd" fill="#5F5F5F" d="M271.47,41.51l25.16-6.07c0,0,1.68-1.69,2.01-3.71l-24.15,5.06
	C274.49,36.79,271.81,41.43,271.47,41.51z"/>
<path fill-rule="evenodd" clip-rule="evenodd" fill="#443E39" d="M284.55,33.75l13.09-5.06c0,0-6.26,15.75-6.38,21.26l-2.68,1.35
	c0,0,0.22-3.6-0.34-3.37c-0.55,0.22-1.11-0.68-2.01,4.05L282.54,54L284.55,33.75z"/>
<polygon fill-rule="evenodd" clip-rule="evenodd" fill="#312C29" points="279.19,31.73 279.9,52.59 282.39,54 284.89,33.14 "/>
<path fill-rule="evenodd" clip-rule="evenodd" fill="#656565" d="M279.19,31.73l3.02-1.35c0,0-1.01-4.05,2.34-5.4
	c3.36-1.35,3.36-1.02,3.36-1.02l6.71,2.03c0,0,0.95,0.62,1,2.02l2.35,0.68l-13.42,5.06l-5.36-1.35V31.73z"/>
<path fill-rule="evenodd" clip-rule="evenodd" fill="#C0C0C0" d="M287.91,32.06c0,0-0.9,5.01,1.68,5.07
	c2.57,0.05,5.03-4.05,5.03-4.05s2.63-4.56,0-6.75C291.99,24.13,287.91,32.06,287.91,32.06z"/>
<path fill-rule="evenodd" clip-rule="evenodd" fill="#4D4B4A" d="M290,32.17c0,0-0.45,2.56,0.84,2.59c1.29,0.03,2.52-2.07,2.52-2.07
	s1.32-2.34,0-3.47C292.04,28.1,290,32.17,290,32.17z"/>
<path fill-rule="evenodd" clip-rule="evenodd" fill="#848282" d="M290.05,34.07c0.12,0.39,0.36,0.68,0.79,0.69
	c1.29,0.03,2.52-2.07,2.52-2.07s1.32-2.34,0-3.47c-0.19-0.16-0.4-0.21-0.62-0.18c0.62,1.2-0.38,2.97-0.38,2.97
	S291.25,33.89,290.05,34.07z"/>
<path fill-rule="evenodd" clip-rule="evenodd" fill="#C0C0C0" d="M282.21,30.38l5.36,2.36c0,0,1.74-3.94,2.69-4.73l-6.71-2.36
	C283.55,25.65,281.48,26.78,282.21,30.38z"/>
<path fill-rule="evenodd" clip-rule="evenodd" fill="#5F5F5F" d="M250.29,30.96c-1.47-9.45,2.84-17.97,9.63-19.03
	c6.79-1.07,13.49,5.72,14.95,15.17c1.47,9.44-2.84,17.96-9.63,19.03C258.45,47.19,251.75,40.4,250.29,30.96z"/>
<path fill-rule="evenodd" clip-rule="evenodd" fill="#FF6600" d="M254.22,30.69c-1-6.48,1.94-12.33,6.55-13.06
	c4.62-0.73,9.17,3.93,10.17,10.41S269,40.37,264.39,41.1C259.77,41.83,255.22,37.17,254.22,30.69z"/>
<path fill-rule="evenodd" clip-rule="evenodd" fill="#FF8100" d="M264.43,19.58l0.33-1.35c0,0,8.16,4.38,5.03,17.55l-1.34,3.37
	c0,0-3.13,1.91-4.36,2.03l-1.01-3.04l-4.69-4.05l-0.67-8.44l4.02-5.4L264.43,19.58z"/>
<path fill-rule="evenodd" clip-rule="evenodd" fill="#FE8400" d="M265.77,19.24l-1.34-0.67c0,0-7.94,0.67-9.06,7.76
	c-1.12,7.08,2.01,10.12,2.01,10.12l1.01-0.34v2.03l5.03-1.35l-5.37-7.43l2.01-7.08L265.77,19.24z"/>
<path fill-rule="evenodd" clip-rule="evenodd" fill="#FFAF16" d="M269.79,23.63c0,0-7.15,1.23-7.38,2.02
	c-0.22,0.79,0.45,1.91-1,2.03c-1.46,0.11-2.69-0.23-2.69,0.67s0.56,7.43,3.02,6.41c0,0,1.57,1.8-1.68,3.04
	c-3.24,1.24-2.01,1.69-2.01,1.69l0.34,4.39c0,0,0.56,2.25,1.34,2.02c0,0,0.56,2.36,2.01,3.71c1.46,1.35,2.13,0.68,1.34,1.35
	c-0.78,0.68,2.46-0.45,2.35-2.36c-0.11-1.91,0-6.75,0-6.75s-1.34-0.34-1.34-2.36l3.35-1.69c0,0,1.46,0.56,1.35,1.01
	C268.79,38.81,273.6,37.13,269.79,23.63z"/>
<path fill-rule="evenodd" clip-rule="evenodd" fill="#FDE032" d="M270.46,25.99c0,0-1.67-1.69-4.69-0.34s-2.57,2.48-3.02,2.36
	c-0.45-0.11-3.02,0.45-3.02,1.02c0,0.56-0.9,4.83,3.02,5.06c0,0,1.45,1.35,1,2.36c-0.44,1.01-3.46,2.36-4.02,3.38
	c-0.56,1.01-0.34,5.28,1.01,4.38c0,0,0.55,3.49,1,4.05c0.45,0.57,1.01,3.04,1.01,3.04s0.45-4.27,0.67-4.72
	c0.22-0.45-1.01-2.48-1.01-4.05c0-1.58-0.78-3.6,5.03-5.4c0,0,2.24,0,2.35,0.33C269.79,37.46,272.48,34.09,270.46,25.99z"/>
<path fill-rule="evenodd" clip-rule="evenodd" fill="#FFF5B2" d="M269.46,26.66c0,0-8.61,1.02-9.06,3.72
	c-0.45,2.7,2.68,3.37,2.68,3.37s-2.9-2.36-0.67-4.05C264.65,28.01,269.46,26.66,269.46,26.66z"/>
<path fill-rule="evenodd" clip-rule="evenodd" fill="#FFF5B2" d="M265.77,29.03c0,0-3.36,1.57-1.68,3.03
	c1.68,1.47,5.7-0.67,5.7-0.67S273.15,27.68,265.77,29.03z"/>
<path fill-rule="evenodd" clip-rule="evenodd" fill="#FFF5B2" d="M270.8,31.39v2.02c0,0-4.7,2.59-7.05-0.33
	C263.75,33.08,269.12,35.89,270.8,31.39z"/>
<path fill-rule="evenodd" clip-rule="evenodd" fill="#FBCC3A" d="M265.77,19.91c0,0-6.71,0.23-7.05,7.77c0,0-1,5.62,2.35,7.08
	l-1.68,1.02c0,0-3.02-0.45-2.34-9.12C257.05,26.66,258.83,18.68,265.77,19.91z"/>
<path fill-rule="evenodd" clip-rule="evenodd" fill="#5F5F5F" d="M255.03,35.1c0,0,1.46,2.36,2.35,1.69
	c0.9-0.68,1.01-0.34,1.01-0.34v1.69l-1.01,0.67l-3.35-2.02L255.03,35.1z"/>
<path fill-rule="evenodd" clip-rule="evenodd" fill="#818181" d="M254.36,14.91c0,0,17.8-7.76,20.74,18.17
	c0,0,1.25-13.03-7.82-19.54C267.28,13.54,260.71,8.86,254.36,14.91z"/>
</svg>
