<?xml version="1.0" encoding="utf-8"?>
<!-- Generator: Adobe Illustrator 15.0.0, SVG Export Plug-In . SVG Version: 6.00 Build 0)  -->
<!DOCTYPE svg PUBLIC "-//W3C//DTD SVG 1.1//EN" "http://www.w3.org/Graphics/SVG/1.1/DTD/svg11.dtd">
<svg version="1.1" id="Layer_1" xmlns="http://www.w3.org/2000/svg" xmlns:xlink="http://www.w3.org/1999/xlink" x="0px" y="0px"
	 width="49.998px" height="47.003px" viewBox="0 0 49.998 47.003" enable-background="new 0 0 49.998 47.003" xml:space="preserve">
<polygon fill-rule="evenodd" clip-rule="evenodd" fill="#1F1A1C" points="14.428,37.553 17.438,39.583 18.448,39.243 29.518,44.983 
	34.547,45.313 35.897,42.613 38.578,44.303 40.257,40.933 38.917,37.213 34.218,35.533 18.448,35.193 "/>
<path fill-rule="evenodd" clip-rule="evenodd" fill="#C0C0C0" d="M29.978,0.073c0.98-0.23,2.55,0.14,4.24,0.36
	c8.83,1.12,12.75,7.09,12.75,7.09s5.81,9.67,1.34,18.89c0,0-1.12,2.37-4.03,5.4c-2.9,3.04-29.85,7.43-29.85,7.43l-4.7-34.42
	l6.13-1.55C15.857,3.273,24.857,1.253,29.978,0.073z"/>
<path fill-rule="evenodd" clip-rule="evenodd" fill="#424242" d="M20.458,34.183l26.51-5.74c0,0-2.58,4.95-8.73,6.41
	c-6.15,1.46-22.81,4.39-22.81,4.39L20.458,34.183z"/>
<path fill-rule="evenodd" clip-rule="evenodd" fill="#818181" d="M23.688,19.403l25.41-6.49c0,0,1.45,7.44-0.35,11.66l-25.27,5.56
	C23.478,30.133,25.058,24.483,23.688,19.403z"/>
<path fill-rule="evenodd" clip-rule="evenodd" fill="#5F5F5F" d="M21.468,34.513l25.16-6.07c0,0,1.68-1.69,2.01-3.71l-24.15,5.06
	C24.488,29.793,21.808,34.433,21.468,34.513z"/>
<path fill-rule="evenodd" clip-rule="evenodd" fill="#443E39" d="M34.547,26.753l13.09-5.06c0,0-6.26,15.75-6.38,21.26l-2.68,1.35
	c0,0,0.22-3.6-0.34-3.37c-0.55,0.22-1.11-0.68-2.01,4.05l-3.69,2.02L34.547,26.753z"/>
<polygon fill-rule="evenodd" clip-rule="evenodd" fill="#312C29" points="29.188,24.733 29.897,45.593 32.388,47.003 34.888,26.143 
	"/>
<path fill-rule="evenodd" clip-rule="evenodd" fill="#656565" d="M29.188,24.733l3.02-1.35c0,0-1.01-4.05,2.34-5.4
	c3.36-1.35,3.36-1.02,3.36-1.02l6.71,2.03c0,0,0.95,0.62,1,2.02l2.35,0.68l-13.42,5.06l-5.36-1.35V24.733z"/>
<path fill-rule="evenodd" clip-rule="evenodd" fill="#C0C0C0" d="M37.908,25.063c0,0-0.9,5.01,1.68,5.07
	c2.57,0.05,5.03-4.05,5.03-4.05s2.63-4.56,0-6.75C41.988,17.133,37.908,25.063,37.908,25.063z"/>
<path fill-rule="evenodd" clip-rule="evenodd" fill="#4D4B4A" d="M39.998,25.173c0,0-0.45,2.56,0.84,2.59
	c1.29,0.03,2.52-2.07,2.52-2.07s1.32-2.34,0-3.47C42.038,21.103,39.998,25.173,39.998,25.173z"/>
<path fill-rule="evenodd" clip-rule="evenodd" fill="#848282" d="M40.047,27.073c0.12,0.39,0.36,0.68,0.79,0.69
	c1.29,0.03,2.52-2.07,2.52-2.07s1.32-2.34,0-3.47c-0.19-0.16-0.4-0.21-0.62-0.18c0.62,1.2-0.38,2.97-0.38,2.97
	S41.248,26.893,40.047,27.073z"/>
<path fill-rule="evenodd" clip-rule="evenodd" fill="#C0C0C0" d="M32.208,23.383l5.36,2.36c0,0,1.74-3.94,2.69-4.73l-6.71-2.36
	C33.547,18.653,31.478,19.783,32.208,23.383z"/>
<path fill-rule="evenodd" clip-rule="evenodd" fill="#5F5F5F" d="M0.288,23.963c-1.47-9.45,2.84-17.97,9.63-19.03
	c6.79-1.07,13.49,5.72,14.95,15.17c1.47,9.44-2.84,17.96-9.63,19.03C8.448,40.193,1.748,33.403,0.288,23.963z"/>
<path fill-rule="evenodd" clip-rule="evenodd" fill="#FF6600" d="M4.218,23.693c-1-6.48,1.94-12.33,6.55-13.06
	c4.62-0.73,9.17,3.93,10.17,10.41s-1.94,12.33-6.55,13.06C9.768,34.833,5.218,30.173,4.218,23.693z"/>
<path fill-rule="evenodd" clip-rule="evenodd" fill="#FF8100" d="M14.428,12.583l0.33-1.35c0,0,8.16,4.38,5.03,17.55l-1.34,3.37
	c0,0-3.13,1.91-4.36,2.03l-1.01-3.04l-4.69-4.05l-0.67-8.44l4.02-5.4L14.428,12.583z"/>
<path fill-rule="evenodd" clip-rule="evenodd" fill="#FE8400" d="M15.768,12.243l-1.34-0.67c0,0-7.94,0.67-9.06,7.76
	c-1.12,7.08,2.01,10.12,2.01,10.12l1.01-0.34v2.03l5.03-1.35l-5.37-7.43l2.01-7.08L15.768,12.243z"/>
<path fill-rule="evenodd" clip-rule="evenodd" fill="#FFAF16" d="M19.788,16.633c0,0-7.15,1.23-7.38,2.02
	c-0.22,0.79,0.45,1.91-1,2.03c-1.46,0.11-2.69-0.23-2.69,0.67s0.56,7.43,3.02,6.41c0,0,1.57,1.8-1.68,3.04
	c-3.24,1.24-2.01,1.69-2.01,1.69l0.34,4.39c0,0,0.56,2.25,1.34,2.02c0,0,0.56,2.36,2.01,3.71c1.46,1.35,2.13,0.68,1.34,1.35
	c-0.78,0.68,2.46-0.45,2.35-2.36c-0.11-1.91,0-6.75,0-6.75s-1.34-0.34-1.34-2.36l3.35-1.69c0,0,1.46,0.56,1.35,1.01
	C18.788,31.813,23.598,30.133,19.788,16.633z"/>
<path fill-rule="evenodd" clip-rule="evenodd" fill="#FDE032" d="M20.458,18.993c0,0-1.67-1.69-4.69-0.34s-2.57,2.48-3.02,2.36
	c-0.45-0.11-3.02,0.45-3.02,1.02c0,0.56-0.9,4.83,3.02,5.06c0,0,1.45,1.35,1,2.36c-0.44,1.01-3.46,2.36-4.02,3.38
	c-0.56,1.01-0.34,5.28,1.01,4.38c0,0,0.55,3.49,1,4.05c0.45,0.57,1.01,3.04,1.01,3.04s0.45-4.27,0.67-4.72
	c0.22-0.45-1.01-2.48-1.01-4.05c0-1.58-0.78-3.6,5.03-5.4c0,0,2.24,0,2.35,0.33C19.788,30.463,22.478,27.093,20.458,18.993z"/>
<path fill-rule="evenodd" clip-rule="evenodd" fill="#FFF5B2" d="M19.458,19.663c0,0-8.61,1.02-9.06,3.72
	c-0.45,2.7,2.68,3.37,2.68,3.37s-2.9-2.36-0.67-4.05C14.647,21.013,19.458,19.663,19.458,19.663z"/>
<path fill-rule="evenodd" clip-rule="evenodd" fill="#FFF5B2" d="M15.768,22.033c0,0-3.36,1.57-1.68,3.03
	c1.68,1.47,5.7-0.67,5.7-0.67S23.147,20.683,15.768,22.033z"/>
<path fill-rule="evenodd" clip-rule="evenodd" fill="#FFF5B2" d="M20.797,24.393v2.02c0,0-4.7,2.59-7.05-0.33
	C13.748,26.083,19.118,28.893,20.797,24.393z"/>
<path fill-rule="evenodd" clip-rule="evenodd" fill="#FBCC3A" d="M15.768,12.913c0,0-6.71,0.23-7.05,7.77c0,0-1,5.62,2.35,7.08
	l-1.68,1.02c0,0-3.02-0.45-2.34-9.12C7.047,19.663,8.828,11.683,15.768,12.913z"/>
<path fill-rule="evenodd" clip-rule="evenodd" fill="#5F5F5F" d="M5.027,28.103c0,0,1.46,2.36,2.35,1.69
	c0.9-0.68,1.01-0.34,1.01-0.34v1.69l-1.01,0.67l-3.35-2.02L5.027,28.103z"/>
<path fill-rule="evenodd" clip-rule="evenodd" fill="#818181" d="M4.357,7.913c0,0,17.8-7.76,20.74,18.17c0,0,1.25-13.03-7.82-19.54
	C17.277,6.543,10.708,1.863,4.357,7.913z"/>
</svg>
